<svg xmlns="http://www.w3.org/2000/svg" xmlns:xlink="http://www.w3.org/1999/xlink" viewBox="0 0 1952.73 1977.19"><defs><style>.cls-1{isolation:isolate;}.cls-2,.cls-25,.cls-26,.cls-3{fill:#42e8e0;}.cls-2{opacity:0.2;}.cls-4{opacity:0.3;}.cls-5{fill:url(#Áåçûìÿííûé_ãðàäèåíò_16);}.cls-6{fill:url(#Áåçûìÿííûé_ãðàäèåíò_16-2);}.cls-16,.cls-21,.cls-23,.cls-7{mix-blend-mode:lighten;}.cls-8{fill:url(#Áåçûìÿííûé_ãðàäèåíò_12);}.cls-9{fill:#393091;}.cls-10{fill:#453c9e;}.cls-11{fill:url(#Áåçûìÿííûé_ãðàäèåíò_16-3);}.cls-12{fill:#bcbeff;}.cls-13{fill:url(#Áåçûìÿííûé_ãðàäèåíò_16-4);}.cls-14{fill:url(#Áåçûìÿííûé_ãðàäèåíò_12-2);}.cls-15{fill:url(#Áåçûìÿííûé_ãðàäèåíò_16-5);}.cls-16{fill:url(#Áåçûìÿííûé_ãðàäèåíò_12-3);}.cls-17{fill:#fff;}.cls-18{fill:url(#Áåçûìÿííûé_ãðàäèåíò_16-6);}.cls-19{fill:url(#Áåçûìÿííûé_ãðàäèåíò_12-4);}.cls-20{fill:url(#Áåçûìÿííûé_ãðàäèåíò_16-7);}.cls-21{fill:url(#Áåçûìÿííûé_ãðàäèåíò_12-5);}.cls-22{fill:url(#Áåçûìÿííûé_ãðàäèåíò_16-8);}.cls-23{fill:url(#Áåçûìÿííûé_ãðàäèåíò_12-6);}.cls-24,.cls-25{opacity:0.5;}.cls-26{opacity:0.8;}</style><radialGradient id="Áåçûìÿííûé_ãðàäèåíò_16" cx="709.23" cy="422.28" r="649.29" gradientTransform="matrix(0.89, 0.45, -0.45, 0.89, 796.83, 242.86)" gradientUnits="userSpaceOnUse"><stop offset="0" stop-color="#c0bff6"/><stop offset="1" stop-color="#393091"/></radialGradient><radialGradient id="Áåçûìÿííûé_ãðàäèåíò_16-2" cx="1699.39" cy="1338.06" r="641.45" gradientTransform="translate(-232.09 -168.41) scale(0.78 1.06)" xlink:href="#Áåçûìÿííûé_ãðàäèåíò_16"/><linearGradient id="Áåçûìÿííûé_ãðàäèåíò_12" x1="1479.16" y1="1767.26" x2="1479.16" y2="1126.07" gradientTransform="translate(-232.09 -168.41) scale(0.78 1.06)" gradientUnits="userSpaceOnUse"><stop offset="0" stop-color="#42e8e0"/><stop offset="0" stop-color="#42e6df"/><stop offset="0.14" stop-color="#40b6cb"/><stop offset="0.27" stop-color="#3e8db9"/><stop offset="0.41" stop-color="#3c6baa"/><stop offset="0.55" stop-color="#3b519f"/><stop offset="0.69" stop-color="#3a3f97"/><stop offset="0.84" stop-color="#393493"/><stop offset="1" stop-color="#393091"/></linearGradient><radialGradient id="Áåçûìÿííûé_ãðàäèåíò_16-3" cx="626.42" cy="408.8" r="351.48" gradientTransform="matrix(1, 0, 0, 1, 0, 0)" xlink:href="#Áåçûìÿííûé_ãðàäèåíò_16"/><radialGradient id="Áåçûìÿííûé_ãðàäèåíò_16-4" cx="1115.22" cy="824.7" r="500.64" gradientTransform="translate(886.68 -403.47) rotate(45)" xlink:href="#Áåçûìÿííûé_ãðàäèåíò_16"/><linearGradient id="Áåçûìÿííûé_ãðàäèåíò_12-2" x1="889.14" y1="1161.94" x2="971.59" y2="575.22" gradientTransform="translate(886.68 -403.47) rotate(45)" xlink:href="#Áåçûìÿííûé_ãðàäèåíò_12"/><radialGradient id="Áåçûìÿííûé_ãðàäèåíò_16-5" cx="1111.21" cy="819.37" r="237.76" gradientTransform="matrix(1, 0, 0, 1, 0, 0)" xlink:href="#Áåçûìÿííûé_ãðàäèåíò_16"/><linearGradient id="Áåçûìÿííûé_ãðàäèåíò_12-3" x1="1063.34" y1="1056.97" x2="1146.89" y2="827.42" gradientTransform="matrix(1, 0, 0, 1, 0, 0)" xlink:href="#Áåçûìÿííûé_ãðàäèåíò_12"/><radialGradient id="Áåçûìÿííûé_ãðàäèåíò_16-6" cx="938.65" cy="811.31" r="234.67" gradientTransform="translate(552.69 230.36) rotate(11.2)" xlink:href="#Áåçûìÿííûé_ãðàäèåíò_16"/><linearGradient id="Áåçûìÿííûé_ãðàäèåíò_12-4" x1="811.1" y1="978.8" x2="963.95" y2="813.74" gradientTransform="translate(552.69 230.36) rotate(11.2)" xlink:href="#Áåçûìÿííûé_ãðàäèåíò_12"/><radialGradient id="Áåçûìÿííûé_ãðàäèåíò_16-7" cx="1422.93" cy="-576.81" fy="-562.6654066523712" r="217.41" gradientTransform="matrix(0.91, 0.11, -0.18, 1.5, 58.11, 2276.45)" xlink:href="#Áåçûìÿííûé_ãðàäèåíò_16"/><linearGradient id="Áåçûìÿííûé_ãðàäèåíò_12-5" x1="1232.52" y1="1629.86" x2="1402.32" y2="1629.86" gradientTransform="matrix(0.91, 0.11, -0.14, 1.14, 368.87, -324.64)" xlink:href="#Áåçûìÿííûé_ãðàäèåíò_12"/><radialGradient id="Áåçûìÿííûé_ãðàäèåíò_16-8" cx="-2002.24" cy="-949.49" fy="-935.3427161102935" r="217.41" gradientTransform="matrix(0.44, 0.8, -1.33, 0.73, 98.42, 3545.83)" xlink:href="#Áåçûìÿííûé_ãðàäèåíò_16"/><linearGradient id="Áåçûìÿííûé_ãðàäèåíò_12-6" x1="-1977.23" y1="1134.24" x2="-2079" y2="1270.16" gradientTransform="matrix(0.44, 0.8, -1.01, 0.55, 2395.2, 2286.96)" xlink:href="#Áåçûìÿííûé_ãðàäèåíò_12"/></defs><g class="cls-1"><g id="Layer_2" data-name="Layer 2"><g id="Ñëîé_1" data-name="Ñëîé 1"><ellipse class="cls-2" cx="918.85" cy="1703.47" rx="474.09" ry="273.72"/><ellipse class="cls-3" cx="918.85" cy="1703.47" rx="268.96" ry="155.28"/><g class="cls-4"><path class="cls-3" d="M1528.34,735c5.89,33.32,30.61,117.08,132.59,175,145.16,67,245.72,155.16,279.4,253.55,2.38,6.45,5.68,15,8.76,21.19,3.62-6,3.62-6,3.64-20.39V999.19c-.07-97-5.51-118.38-12.4-145.45-33.68-98.39-134.24-186.51-279.4-253.55-115.81-37.38-143.84,71.2-132.59,134.83Z"/><path class="cls-3" d="M463.85,536.81c153.68-44.58,335.5-69.68,529.55-68.09q38.42.31,76.05,2c170.39,15.56,231,195.51,128.26,274.24-47.15,36.14-104,35.76-128.26,35.59q-37.62-1.66-76.05-2c-194-1.59-375.87,23.51-529.55,68.09C308.66,884.46,299.5,726.75,353.77,630.29c18.25-32.44,52.16-75,110.08-93.48Z"/><path class="cls-3" d="M0,1237c4.23-49.11,7.57-87.9,57.57-155.6,105.41-155.53,84.12-336.31,25.9-328-9.39,1.35-19.14,11.47-25.9,18.12C22.19,817.7,2.08,867.28.15,919Q0,923.12,0,927.18V1237Z"/></g><rect class="cls-3" x="1289.17" y="1270.67" width="36.2" height="309.04" transform="translate(-439.19 594.54) rotate(-22.03)"/><circle class="cls-5" cx="628.42" cy="1141.72" r="112.48" transform="translate(-280 207.27) rotate(-15.36)"/><path class="cls-6" d="M1209.27,1308.11c0,218.35-130,395.36-290.42,395.36s-290.43-177-290.43-395.36,130-283.78,290.43-283.78S1209.27,1089.76,1209.27,1308.11Z"/><g class="cls-7"><path class="cls-8" d="M1209.27,1308.11c0,218.35-130,395.36-290.42,395.36s-290.43-177-290.43-395.36,130-283.78,290.43-283.78S1209.27,1089.76,1209.27,1308.11Z"/></g><ellipse class="cls-9" cx="918.85" cy="1141.72" rx="198.21" ry="114.44"/><path class="cls-10" d="M778.69,1091.29c77.4-44.69,202.9-44.69,280.31,0,32,18.46,50.7,41.66,56.26,65.68,7.9-34.13-10.82-69.93-56.26-96.16-77.41-44.69-202.91-44.7-280.31,0-45.44,26.23-64.16,62-56.26,96.16C728,1132.94,746.72,1109.75,778.69,1091.29Z"/><path class="cls-11" d="M690.05,869.79,725.91,808a199.87,199.87,0,0,0,46.51-80.14l36.32-62.56-52.23-30a40.61,40.61,0,0,0-5.24-3l0,0h0c-14.85-7-34.59-5.15-56.25,7.35-46.17,26.66-83.6,91.49-83.6,144.8,0,26.64,9.35,45.37,24.46,54.11h0Z"/><ellipse class="cls-12" cx="748.77" cy="767.18" rx="118.23" ry="68.26" transform="translate(-290.01 1032.02) rotate(-60)"/><circle class="cls-13" cx="930.36" cy="868.58" r="296.21" transform="translate(-341.68 912.27) rotate(-45)"/><g class="cls-7"><circle class="cls-14" cx="930.36" cy="868.58" r="296.21" transform="translate(-341.68 912.27) rotate(-45)"/></g><path class="cls-15" d="M1096.13,1068.9l35.85-61.78A199.75,199.75,0,0,0,1178.49,927l36.32-62.57-52.23-30a38.85,38.85,0,0,0-5.24-3l0,0h0c-14.85-7-34.59-5.15-56.25,7.36-46.17,26.66-83.6,91.48-83.6,144.8,0,26.64,9.35,45.36,24.46,54.1h0l0,0h0Z"/><path class="cls-16" d="M1096.13,1068.9l35.85-61.78A199.75,199.75,0,0,0,1178.49,927l36.32-62.57-52.23-30a38.85,38.85,0,0,0-5.24-3l0,0h0c-14.85-7-34.59-5.15-56.25,7.36-46.17,26.66-83.6,91.48-83.6,144.8,0,26.64,9.35,45.36,24.46,54.1h0l0,0h0Z"/><ellipse class="cls-12" cx="1154.85" cy="966.29" rx="118.23" ry="68.26" transform="translate(-259.42 1483.24) rotate(-60)"/><path class="cls-17" d="M1075.09,1015.24c0-53.31,37.43-118.14,83.6-144.79,16-9.24,30.94-12.67,43.65-11-13.49-3-29.85.13-47.49,10.32-46.17,26.66-83.6,91.49-83.6,144.8,0,34.84,16,56.13,40,59.27C1089.39,1069,1075.09,1048.19,1075.09,1015.24Z"/><path class="cls-9" d="M1214.61,931.79c0,38.11-26.76,84.45-59.76,103.5s-59.76,3.61-59.76-34.5,26.76-84.44,59.76-103.5S1214.61,893.68,1214.61,931.79Z"/><path class="cls-10" d="M1189.18,890c6.18,7.3,9.79,18.21,9.79,32.18,0,38.11-26.75,84.45-59.75,103.5-12.79,7.38-24.62,9.57-34.34,7.28,10.68,12.6,29.07,14.39,50,2.32,33-19,59.76-65.39,59.76-103.5C1214.61,908.44,1204.55,893.62,1189.18,890Z"/><path class="cls-9" d="M838,1008.88c-7.56,58.25-51.53,76.55-98.19,40.87S661.4,937.92,669,879.67s51.53-76.54,98.19-40.86S845.52,950.63,838,1008.88Z"/><path class="cls-3" d="M799.42,958.44c-2.75,21.17-18.73,27.82-35.69,14.86S735.25,932.66,738,911.49s18.73-27.82,35.69-14.85S802.17,937.28,799.42,958.44Z"/><path class="cls-10" d="M762.17,1041.26c-46.67-35.68-78.36-111.83-70.79-170.08,3.08-23.74,12.22-40.85,25.12-50.36-24.4,2.29-42.87,23-47.53,58.85-7.57,58.25,24.13,134.4,70.79,170.08,27.64,21.13,54.33,23.32,73.07,9.49C797.61,1060.67,780.09,1055,762.17,1041.26Z"/><path class="cls-3" d="M743.78,1047.85C697.11,1012.17,665.42,936,673,877.78c3.5-27,14.81-45.35,30.57-53.79-17.84,7.34-30.8,26.48-34.59,55.68-7.57,58.25,24.13,134.4,70.79,170.08,25,19.15,49.3,22.7,67.58,12.9C789.6,1070,767,1065.63,743.78,1047.85Z"/><path class="cls-18" d="M1359.64,1303.8a112.48,112.48,0,1,1-88.49-132.18A112.48,112.48,0,0,1,1359.64,1303.8Z"/><g class="cls-7"><path class="cls-19" d="M1359.64,1303.8a112.48,112.48,0,1,1-88.49-132.18A112.48,112.48,0,0,1,1359.64,1303.8Z"/></g><path class="cls-20" d="M1428.7,1654.65c-6.38,53.45-53.59,154.69-96.31,149.59s-64.78-114.6-58.41-168,46.19-92.65,88.91-87.55S1435.08,1601.2,1428.7,1654.65Z"/><path class="cls-21" d="M1428.7,1654.65c-6.38,53.45-53.59,154.69-96.31,149.59s-64.78-114.6-58.41-168,46.19-92.65,88.91-87.55S1435.08,1601.2,1428.7,1654.65Z"/><path class="cls-3" d="M330.77,1310.76a18.1,18.1,0,0,1-8.41-34.14l232.25-121.55a18.1,18.1,0,0,1,16.79,32.08L339.15,1308.69A17.94,17.94,0,0,1,330.77,1310.76Z"/><path class="cls-22" d="M334.86,1378.22c-47.2,25.88-157,46.3-177.71,8.57s55.61-119.32,102.81-145.2,102.24-16.26,122.92,21.47S382.06,1352.35,334.86,1378.22Z"/><path class="cls-23" d="M334.86,1378.22c-47.2,25.88-157,46.3-177.71,8.57s55.61-119.32,102.81-145.2,102.24-16.26,122.92,21.47S382.06,1352.35,334.86,1378.22Z"/><g class="cls-24"><path class="cls-3" d="M113.5,1327.85c-7.08,56.88-36.57,90.72-67.58,48.35C6.17,1321.87,2.31,1268.76,0,1237V927.18c0,48.48,16.09,95.25,45.92,139.18,65.54,108.4,73.32,215.37,67.58,261.49Z"/><path class="cls-3" d="M1033.36,1384.64q-36.67,1-74,.69c-194.8-1.6-375.29-29.87-525.92-77.28-150.47-40.2-159.56,117.25-107,214.49,37.39,69.24,88,88.21,107,95.35,150.63,47.4,331.12,75.68,525.92,77.28q37.35.3,74-.69c176.8-13,223.1-182.83,140.47-262.09-23.06-22.12-66.15-48.36-140.47-47.75Z"/><path class="cls-3" d="M1952.58,1137.6c-.86,134-8.73,158.37-18.68,189.25-41.41,97.71-148.81,184-299.15,248.49-131.61,38.83-168-97.93-114.44-199.33,36.42-69,93.1-99.15,114.44-110.51C1785.09,1201,1892.49,1114.72,1933.9,1017c3-6.48,7.32-15.08,11.37-21l3.37-.44c2.55,7.16,3.6,10.13,3.94,46.7v95.31Z"/></g><path class="cls-3" d="M452,270.6A23.64,23.64,0,1,1,428.34,247,23.63,23.63,0,0,1,452,270.6Z"/><path class="cls-3" d="M1369,9.56a32.65,32.65,0,1,1-46.17,0A32.65,32.65,0,0,1,1369,9.56Z"/><path class="cls-25" d="M1345.94,790.82a15,15,0,1,1-15-15A15,15,0,0,1,1345.94,790.82Z"/><path class="cls-25" d="M247.37,1548.19a15,15,0,1,1-15-15A15,15,0,0,1,247.37,1548.19Z"/><circle class="cls-26" cx="534.4" cy="951.26" r="7.84"/></g></g></g></svg>