<svg xmlns="http://www.w3.org/2000/svg" xmlns:xlink="http://www.w3.org/1999/xlink" viewBox="0 0 1938.14 1926"><defs><style>.cls-1,.cls-10,.cls-11,.cls-16,.cls-2,.cls-3,.cls-4,.cls-5,.cls-6,.cls-7,.cls-8,.cls-9{fill:#42e8e0;}.cls-1{opacity:0.1;}.cls-1,.cls-10,.cls-11,.cls-15,.cls-16,.cls-21,.cls-25,.cls-28,.cls-29,.cls-3,.cls-35,.cls-4,.cls-5,.cls-6,.cls-7,.cls-8,.cls-9{isolation:isolate;}.cls-3{opacity:0.46;}.cls-4{opacity:0.37;}.cls-5{opacity:0.56;}.cls-6{opacity:0.91;}.cls-7{opacity:0.73;}.cls-8{opacity:0.55;}.cls-9{opacity:0.19;}.cls-10{opacity:0.4;}.cls-11,.cls-29{opacity:0.8;}.cls-12{fill:url(#radial-gradient);}.cls-13{fill:url(#linear-gradient);}.cls-14{fill:#251c72;}.cls-15,.cls-21,.cls-25,.cls-28,.cls-35{opacity:0.5;}.cls-15{fill:url(#radial-gradient-2);}.cls-16{opacity:0.6;}.cls-17{fill:url(#radial-gradient-3);}.cls-18{fill:url(#linear-gradient-2);}.cls-19{fill:url(#radial-gradient-4);}.cls-20{fill:url(#linear-gradient-3);}.cls-21{fill:url(#radial-gradient-5);}.cls-22{fill:#bcbeff;}.cls-23{fill:url(#radial-gradient-6);}.cls-24{fill:url(#linear-gradient-4);}.cls-25{fill:url(#radial-gradient-7);}.cls-26{fill:url(#radial-gradient-8);}.cls-27{fill:url(#linear-gradient-5);}.cls-28{fill:url(#radial-gradient-9);}.cls-29{fill:url(#radial-gradient-10);}.cls-30{fill:url(#linear-gradient-6);}.cls-31{fill:url(#linear-gradient-7);}.cls-32{fill:url(#linear-gradient-8);}.cls-33{fill:url(#radial-gradient-11);}.cls-34{fill:url(#linear-gradient-9);}.cls-35{fill:url(#radial-gradient-12);}</style><radialGradient id="radial-gradient" cx="0.59" cy="1222.51" r="210.12" gradientTransform="matrix(0.96, 0.29, 0.29, -0.96, 202.24, 2282.84)" gradientUnits="userSpaceOnUse"><stop offset="0" stop-color="#c0bff6"/><stop offset="1" stop-color="#393091"/></radialGradient><linearGradient id="linear-gradient" x1="-98.5" y1="1085.97" x2="25.69" y2="1220.1" gradientTransform="matrix(0.96, 0.29, 0.29, -0.96, 202.24, 2282.84)" gradientUnits="userSpaceOnUse"><stop offset="0" stop-color="#2fd3c7"/><stop offset="0.09" stop-color="#31b6bd"/><stop offset="0.23" stop-color="#338db0"/><stop offset="0.37" stop-color="#356ba5"/><stop offset="0.52" stop-color="#37519c"/><stop offset="0.67" stop-color="#383f96"/><stop offset="0.83" stop-color="#393492"/><stop offset="1" stop-color="#393091"/></linearGradient><radialGradient id="radial-gradient-2" cx="2122.52" cy="-2415.24" r="136.33" gradientTransform="matrix(-0.09, -1, -1, 0.09, -1601.42, 3342.85)" gradientUnits="userSpaceOnUse"><stop offset="0" stop-color="#42e8e0"/><stop offset="0.11" stop-color="#37b6bf"/><stop offset="0.22" stop-color="#2c87a1"/><stop offset="0.34" stop-color="#235f87"/><stop offset="0.46" stop-color="#1c3f72"/><stop offset="0.58" stop-color="#162561"/><stop offset="0.71" stop-color="#121355"/><stop offset="0.85" stop-color="#10084e"/><stop offset="1" stop-color="#0f054c"/></radialGradient><radialGradient id="radial-gradient-3" cx="775.27" cy="1870.3" r="643.03" gradientTransform="matrix(0.98, 0.19, 0.19, -0.98, 93.82, 2253.05)" xlink:href="#radial-gradient"/><linearGradient id="linear-gradient-2" x1="-526.64" y1="556.05" x2="-303.77" y2="556.05" gradientTransform="matrix(0.97, -0.22, -0.22, -0.97, 1223.86, 1371.8)" gradientUnits="userSpaceOnUse"><stop offset="0" stop-color="#706ec4"/><stop offset="0.02" stop-color="#6d6bc2"/><stop offset="0.25" stop-color="#5651ac"/><stop offset="0.49" stop-color="#463f9d"/><stop offset="0.73" stop-color="#3c3494"/><stop offset="1" stop-color="#393091"/></linearGradient><radialGradient id="radial-gradient-4" cx="1950.23" cy="786.07" r="635.29" gradientTransform="matrix(0.78, 0, 0, -1.06, -382.24, 1903.73)" xlink:href="#radial-gradient"/><linearGradient id="linear-gradient-3" x1="1711.25" y1="360.99" x2="1711.25" y2="995.92" gradientTransform="matrix(0.78, 0, 0, -1.06, -382.24, 1903.73)" xlink:href="#linear-gradient"/><radialGradient id="radial-gradient-5" cx="944.88" cy="863.79" r="382.6" gradientTransform="matrix(1, 0, 0, -1, 0, 1934.98)" xlink:href="#radial-gradient-2"/><radialGradient id="radial-gradient-6" cx="1147" cy="1286.67" r="495.79" gradientTransform="matrix(1, 0, 0, -1, 0, 1934.98)" xlink:href="#radial-gradient"/><linearGradient id="linear-gradient-4" x1="923.17" y1="952.72" x2="1004.77" y2="1533.73" gradientTransform="matrix(1, 0, 0, -1, 0, 1934.98)" xlink:href="#linear-gradient"/><radialGradient id="radial-gradient-7" cx="872.56" cy="1216.15" r="243.54" gradientTransform="matrix(0.92, 0.38, 0.38, -0.92, -388.39, 1542.16)" gradientUnits="userSpaceOnUse"><stop offset="0" stop-color="#42e8e0"/><stop offset="0.06" stop-color="#3ccbcd"/><stop offset="0.18" stop-color="#3098ac"/><stop offset="0.3" stop-color="#266b8f"/><stop offset="0.42" stop-color="#1e4777"/><stop offset="0.54" stop-color="#172a65"/><stop offset="0.66" stop-color="#131657"/><stop offset="0.78" stop-color="#100a50"/><stop offset="0.9" stop-color="#0f064d"/><stop offset="1" stop-color="#0f054c"/></radialGradient><radialGradient id="radial-gradient-8" cx="999.03" cy="1343.81" r="232.37" gradientTransform="matrix(0.98, 0.19, 0.19, -0.98, 93.82, 2253.05)" xlink:href="#radial-gradient"/><linearGradient id="linear-gradient-5" x1="872.54" y1="1177.96" x2="1024.05" y2="1341.44" gradientTransform="matrix(0.98, 0.19, 0.19, -0.98, 93.82, 2253.05)" xlink:href="#linear-gradient"/><radialGradient id="radial-gradient-9" cx="1305.67" cy="720.43" r="207.57" gradientTransform="matrix(1, 0, 0, -1, 0, 1934.98)" xlink:href="#radial-gradient-2"/><radialGradient id="radial-gradient-10" cx="1138.56" cy="3128.41" r="195.61" gradientTransform="matrix(1, 0, 0, -1.28, 0, 4631.96)" gradientUnits="userSpaceOnUse"><stop offset="0" stop-color="#2b237c"/><stop offset="0.31" stop-color="#251c72"/><stop offset="1" stop-color="#0f054c"/></radialGradient><linearGradient id="linear-gradient-6" x1="1292.46" y1="1112.66" x2="1014.27" y2="1028.14" gradientTransform="matrix(1, 0, 0, -1, 0, 1934.98)" gradientUnits="userSpaceOnUse"><stop offset="0" stop-color="#bcbeff"/><stop offset="0.15" stop-color="#a3a7f5"/><stop offset="0.39" stop-color="#8289e8"/><stop offset="0.61" stop-color="#6a73df"/><stop offset="0.82" stop-color="#5c66d9"/><stop offset="1" stop-color="#5761d7"/></linearGradient><linearGradient id="linear-gradient-7" x1="1244.28" y1="1095.02" x2="863.09" y2="1049.55" xlink:href="#linear-gradient-6"/><linearGradient id="linear-gradient-8" x1="1187.15" y1="982.94" x2="1385.75" y2="1311.45" gradientTransform="matrix(1, 0, 0, -1, 0, 1934.98)" gradientUnits="userSpaceOnUse"><stop offset="0" stop-color="#42e8e0"/><stop offset="0.12" stop-color="#42e2de"/><stop offset="0.27" stop-color="#41d3d7"/><stop offset="0.44" stop-color="#40b9cc"/><stop offset="0.62" stop-color="#3e94bc"/><stop offset="0.81" stop-color="#3c66a8"/><stop offset="1" stop-color="#393091"/></linearGradient><radialGradient id="radial-gradient-11" cx="-4643.68" cy="3479.62" r="210.12" gradientTransform="matrix(1, 0, 0, -1, 0, 1934.98)" xlink:href="#radial-gradient"/><linearGradient id="linear-gradient-9" x1="732.84" y1="978.36" x2="857.03" y2="1112.49" xlink:href="#linear-gradient"/><radialGradient id="radial-gradient-12" cx="19535.96" cy="-30493.63" r="136.33" gradientTransform="matrix(1, 0, 0, -1, 0, 1934.98)" xlink:href="#radial-gradient-2"/></defs><g id="Layer_2" data-name="Layer 2"><g id="Layer_1-2" data-name="Layer 1"><g id="Ñëîé_1" data-name="Ñëîé 1"><path class="cls-1" d="M1932,1268.29v-8.8c-1.32-6.42-2.82-12.84-4.49-19.17v8.79q2.46,9.67,4.49,19.27Zm-10.21-38.35v-8.79c-2-6.25-4.31-12.58-6.77-18.74v8.8c2.46,6.24,4.75,12.49,6.77,18.82Zm-14.6-37.38v-8.79c-2.81-6.16-5.8-12.32-8.79-18.39v8.8c3.08,6.07,6.07,12.14,8.79,18.29Zm-19-36.41v-8.8c-3.43-6-7.12-11.87-11-17.59v8.8C1881.06,1144.45,1884.75,1150.43,1888.18,1156.15Zm-23-35.18v-8.8c-4.13-5.8-8.79-11.61-13.1-17.59v8.8C1856.61,1109.09,1860.83,1114.81,1865.14,1121Zm-27.09-34.22V1078c-4.84-5.63-9.76-11.17-15-16.63v8.8c5.19,5.45,10.11,11,15,16.53Zm-31-32.89v-8.8c-5.45-5.36-11-10.64-16.8-15.92v8.8C1796.1,1043.13,1801.64,1048.49,1807.09,1053.86Zm-34.48-31.49v-8.79c-6.06-5.11-12.22-10.21-18.55-15.22v8.79C1760.39,1012.17,1766.55,1017.27,1772.61,1022.37Zm-38.17-30.7v-8.79c-6.59-4.93-13.37-9.68-20.23-14.42v8.79C1721.07,982,1727.85,986.84,1734.44,991.67Zm-41.34-28.4v-8.8c-7.21-4.66-14.51-9.23-22-13.72v8.8C1678.59,954,1685.89,958.34,1693.1,963.27Zm-44.68-26.92v-8.79c-7.65-4.31-15.48-8.8-23.39-12.76v8.8C1632.94,927.73,1640.77,932.39,1648.42,936.35Zm-47.67-25.15v-8.8l-24.89-11.78v8.79c8.8,3.87,16.71,7.83,24.89,11.88ZM1932,1248.76V1240c-1.32-6.51-2.82-12.84-4.49-19.26v9.23c1.67,6.33,3.17,12.75,4.49,19.17Zm-10.21-38.34v-8.8c-2-6.33-4.31-12.58-6.77-18.82v8.79C1917.47,1197.84,1919.76,1204.08,1921.78,1210.42Zm-33.6-73.8v-9.23c-3.43-6-7.12-11.88-11-17.59V1119C1881.06,1124.84,1884.75,1130.82,1888.18,1136.62Zm-23-35.18v-8.79c-4.13-5.81-8.79-11.61-13.1-17.6v8.8C1856.61,1089.57,1860.83,1095.28,1865.14,1101.44Zm-27.09-34.21V1058c-4.84-5.54-9.76-11.08-15-16.53v8.79c5.19,5.45,10.11,11,15,16.62Zm-31-33v-8.79c-5.45-5.37-11-10.73-16.8-15.92v8.79C1796.1,1023.6,1801.64,1028.88,1807.09,1034.24Zm-34.48-31.48V994c-6.07-5.19-12.22-10.2-18.55-15.21v8.79C1760.39,992.55,1766.55,997.66,1772.61,1002.76Zm-124.19-85.49v-8.8c-7.65-4.4-15.48-8.79-23.39-12.75v8.79C1632.94,908.73,1640.77,913.31,1648.42,917.27Zm-47.67-25.16v-8.79c-8.18-4.05-16.53-8-24.89-11.88v8.8C1584.66,884.11,1592.57,888.07,1600.75,892.11ZM1932,1229.59v-8.8q-1.93-9.68-4.49-19.26v8.8Q1930,1219.83,1932,1229.59Zm-10.21-38.35v-8.79c-2-6.34-4.31-12.58-6.77-18.83v8.8C1917.47,1178.66,1919.76,1184.91,1921.78,1191.24Zm-56.64-109.15v-8.79c-4.13-5.81-8.79-11.53-13.1-17.6v8.8C1856.61,1070.22,1860.83,1076,1865.14,1082.09Zm-27.09-34.21v-8.8c-4.84-5.54-9.76-11.08-15-16.53v8.79c5.19,5.54,10.11,11.08,15,16.62Zm-31-33v-8.79c-5.45-5.37-11-10.64-16.8-15.92V999C1796.1,1004.25,1801.64,1009.62,1807.09,1014.89Zm-34.48-31.39v-8.8c-6.07-5.1-12.22-10.2-18.55-15.22v8.8C1760.39,973.29,1766.55,978.31,1772.61,983.5ZM1648.42,898v-8.79c-7.65-4.31-15.48-8.8-23.39-12.75v8.79C1632.94,889.38,1640.77,893.61,1648.42,898Zm-47.67-25.15v-8.8c-8.18-4-16.53-8-24.89-11.87V861C1584.66,864.85,1592.57,868.8,1600.75,872.85ZM1932,1210.41v-9.23c-1.32-6.42-2.82-12.84-4.49-19.17v8.79c1.67,6.42,3.17,12.75,4.49,19.26Zm-10.21-38.34v-8.8c-2-6.24-4.31-12.49-6.77-18.73v8.79c2.46,6.25,4.75,12.49,6.77,18.83Zm-83.73-143.37v-8.79c-4.84-5.63-9.76-11.08-15-16.63v9.24c5.19,5.45,10.11,11,15,16.53Zm-31-32.89v-9.24c-5.45-5.36-11-10.64-16.8-15.92v9.24C1796.1,985.08,1801.64,990.44,1807.09,995.81Zm-34.48-31.49v-8.79c-6.07-5.11-12.22-10.21-18.55-15.13v8.79c6.33,5,12.49,10,18.55,15.22ZM1387.29,806V752.35a1525.14,1525.14,0,0,0-262.37-46.61v53.65a1525.65,1525.65,0,0,1,262.81,47.05Zm-297.55-49.42V702.92c-34-2.46-68.6-3.87-103.61-4.22-25.85,0-51.36,0-76.69,1v53.65c25.33-.88,50.84-1.23,76.69-1C1021.32,752.35,1055.79,754.11,1089.74,756.58Zm842,434.75v-8.8c-1.32-6.5-2.81-12.84-4.48-19.26v8.8c1.67,6.33,3.16,12.75,4.48,19.17Zm-10.2-38.35v-8.79c-2-6.34-4.31-12.58-6.77-18.83v8.8c2.46,6.16,4.75,12.49,6.77,18.73Zm-83.73-143.27v-8.8c-4.84-5.54-9.77-11.08-15-16.54v8.8c5.18,5.45,10.11,11,15,16.62Zm-31-33v-8.79c-5.46-5.37-11-10.73-16.8-15.92v8.79C1795.83,966.08,1801.37,971.36,1806.83,976.72Zm124.89,195.44v-8.8q-1.93-9.58-4.48-19.26v8.79c1.67,6.34,3.16,12.76,4.48,19.18Zm-93.93-181.63v-8.79c-4.84-5.54-9.76-11.09-15-16.54V974c5.18,5.54,10.11,11.08,15,16.62Zm-31-33v-8.8c-5.45-5.36-11-10.64-16.8-15.92v8.8C1795.83,946.91,1801.38,952.18,1806.83,957.55Zm81.09,160.07v-99.56c-3.43-6-7.12-11.87-11-17.59v99.39c3.87,5.89,7.56,11.78,11,17.59Zm-414.79-367V697.12a1467.38,1467.38,0,0,0-348.91-73.88v53.47a1476.81,1476.81,0,0,1,348.91,73.88ZM1089.74,673.9V620.42c-34-2.37-68.6-3.78-103.61-4.13a1659,1659,0,0,0-278.37,20.32v53.56a1650.51,1650.51,0,0,1,278.37-20.41c35.19,0,69.66,1.76,103.61,4.14Zm603.1,184.7V788.24c-7.21-4.66-14.51-8.8-22-13.72v156c7.48,4.48,14.78,8.79,22,13.72V858.6Zm172,204.67V940.13c-4.14-5.8-8.8-11.61-13.11-17.59v123.14C1856.35,1051.4,1860.57,1057.2,1864.88,1063.27Zm42,110.2v-164.2c-2.82-6.16-5.81-12.23-8.8-18.3v163.77c3.08,6.07,6.07,12.23,8.8,18.29Zm-258.5-296.13V733.8c-7.65-4.31-15.48-8.8-23.39-12.76V864.23c7.91,4.22,15.74,8.8,23.39,12.75Zm189.63,93.4V866.87c-4.84-5.54-9.76-11.08-15-16.54V953.85c5.19,5.46,10.11,11,15,16.54Zm-103.61,2.55V772.76c-6.59-4.93-13.37-9.76-20.23-14.51V958.78C1721.07,963.53,1727.85,968.37,1734.44,973.29Zm187.34,151.9V1005.13c-2-6.24-4.31-12.49-6.77-18.73v128.41c2.46,6.24,4.75,12.49,6.77,18.82v-8.44Zm-149.52-179.6v-157c-6.07-5.19-12.22-10.2-18.56-15.22V930.11c6.34,5,12.49,10.11,18.56,15.21ZM1505.59,680.23V626.76c-8.8-3.26-16.89-6.34-25.42-9.42v53.57c8.79,3,17,6.16,25.42,9.32Zm-48.91-17.59V609.17l-26.38-8.8v53.56q13.28,4.14,26.38,8.8Zm-50.83-15.83V593.33c-8.8-2.64-18-5.19-27.18-7.56v53.48C1387.47,641.71,1396.88,644.17,1405.85,646.81Zm-52.77-14.07V579.17c-9.33-2.28-18.65-4.48-28.06-6.59v53.47C1334.43,628.16,1343.75,630.36,1353.08,632.74Zm-59.81-13.55V565.72a1566.9,1566.9,0,0,0-168.35-25.07v53.48a1565.29,1565.29,0,0,1,169.4,24.8Zm-203.53-27.88V537.83c-34-2.46-68.6-3.87-103.61-4.22a1693.62,1693.62,0,0,0-180.74,7.83v53.48a1688.39,1688.39,0,0,1,180.74-7.83C1021.32,587.09,1055.79,588.85,1089.74,591.31Zm842,559.38v-142.3q-1.93-9.67-4.48-19.27v142.31C1928.91,1137.85,1930.4,1144.19,1931.72,1150.69Zm-331.23-299v-200c-8.18-4-16.54-8-24.89-11.88V840l24.89,11.79Zm206.34,85.67V789.38c-5.46-5.36-11-10.64-16.8-15.92V921.31c5.8,5.28,11.34,10.56,16.8,15.92Zm-1161-434.49a1632.49,1632.49,0,0,1,340.21-31.58c523.67,5.19,943.12,247.86,951.92,545.93v343c-8.8-298.07-428.25-540.74-951.92-546a1638,1638,0,0,0-340.21,31.67v-343Z"/><path class="cls-2" d="M1927.5,989.12q2.46,9.6,4.49,19.27v142.3c-1.32-6.5-2.82-12.84-4.49-19.26Z"/><path class="cls-2" d="M1927.5,1143.92q2.46,9.58,4.49,19.26v8.8c-1.32-6.42-2.82-12.84-4.49-19.17v-8.89Z"/><path class="cls-2" d="M1927.5,1163.1c1.67,6.42,3.17,12.75,4.49,19.26v8.79c-1.32-6.42-2.82-12.84-4.49-19.17v-8.88Z"/><path class="cls-2" d="M1927.5,1182.27c1.67,6.33,3.17,12.75,4.49,19.17v9.24c-1.32-6.51-2.82-12.84-4.49-19.26v-9.15Z"/><path class="cls-2" d="M1927.5,1201.53q2.46,9.59,4.49,19.26v8.8q-1.93-9.77-4.49-19.26Z"/><path class="cls-2" d="M1927.5,1220.35c1.67,6.42,3.17,12.76,4.49,19.27v8.79c-1.32-6.42-2.82-12.84-4.49-19.17Z"/><path class="cls-2" d="M1927.5,1240.06c1.67,6.33,3.17,12.75,4.49,19.17V1268q-1.93-9.58-4.49-19.26v-8.7Z"/><path class="cls-2" d="M1921.78,1124.84v8.79c-2-6.33-4.31-12.58-6.77-18.82v-2.2c2.46,6.16,4.75,12.49,6.77,18.73v-6.5Z"/><path class="cls-2" d="M1915,1125.19c2.46,6.24,4.75,12.49,6.77,18.82v8.8c-2-6.25-4.31-12.58-6.77-18.74v-8.88Z"/><path class="cls-2" d="M1915,1144.36c2.46,6.25,4.75,12.49,6.77,18.74v8.79c-2-6.33-4.31-12.58-6.77-18.82v-8.71Z"/><path class="cls-2" d="M1915,1163.62c2.46,6.25,4.75,12.49,6.77,18.83v8.79c-2-6.33-4.31-12.58-6.77-18.82Z"/><path class="cls-2" d="M1915,1182.8c2.46,6.24,4.75,12.49,6.77,18.82v8.79c-2-6.33-4.31-12.57-6.77-18.82Z"/><path class="cls-2" d="M1915,1202.15c2.46,6.15,4.75,12.49,6.77,18.73v8.8c-2-6.34-4.31-12.58-6.77-18.83v-8.7Z"/><path class="cls-2" d="M1877.19,1110c3.87,5.9,7.56,11.79,11,17.59v9.24c-3.43-6-7.12-12-11-17.59Z"/><path class="cls-2" d="M1877.19,1129.32c3.87,5.89,7.56,11.79,11,17.59v8.8c-3.43-6-7.12-12-11-17.59Z"/><path class="cls-2" d="M1898.3,1165.21c3.08,6.07,6.07,12.22,8.79,18.38v8.79c-2.81-6.15-5.8-12.22-8.79-18.29v-8.88Z"/><path class="cls-2" d="M1852,1056.06c4.57,5.71,8.79,11.43,13.1,17.59v8.79c-4.13-5.8-8.79-11.61-13.1-17.59Z"/><path class="cls-2" d="M1852,1075.14c4.57,5.72,8.79,11.52,13.1,17.59v8.8c-4.13-5.89-8.79-11.61-13.1-17.59Z"/><path class="cls-2" d="M1852,1094.49c4.57,5.72,8.79,11.52,13.1,17.59v8.8c-4.13-5.81-8.79-11.52-13.1-17.59Z"/><path class="cls-2" d="M1823.1,965.29c5.19,5.45,10.11,11,15,16.53v8.8c-4.84-5.54-9.76-11.08-15-16.62v-8.71Z"/><path class="cls-2" d="M1823.1,984.11c5.19,5.45,10.11,11,15,16.54v8.79c-4.84-5.63-9.76-11.17-15-16.62v-8.71Z"/><path class="cls-2" d="M1823.1,1003.2c5.19,5.54,10.11,11,15,16.62v8.8c-4.84-5.55-9.76-11.09-15-16.54v-8.88Z"/><path class="cls-2" d="M1823.1,1022.55c5.19,5.45,10.11,11,15,16.53v8.8c-4.84-5.54-9.76-11.09-15-16.63v-8.7Z"/><path class="cls-2" d="M1823.1,1041.72c5.19,5.45,10.11,11,15,16.54v9.23c-4.84-5.63-9.76-11.17-15-16.62v-9.15Z"/><path class="cls-2" d="M1823.1,1061c5.19,5.46,10.11,11,15,16.63v8.79c-4.84-5.54-9.76-11.08-15-16.53V1061Z"/><path class="cls-2" d="M1790.29,932.66c5.81,5.28,11.35,10.55,16.8,15.92v8.79c-5.45-5.36-11-10.64-16.8-15.92Z"/><path class="cls-2" d="M1790.29,951.83c5.81,5.19,11.35,10.56,16.8,15.92v8.8c-5.45-5.37-11-10.65-16.8-15.92Z"/><path class="cls-2" d="M1790.29,970.92c5.81,5.28,11.35,10.55,16.8,15.92v9.23c-5.45-5.36-11-10.73-16.8-15.92Z"/><path class="cls-2" d="M1790.29,990.27c5.81,5.27,11.35,10.55,16.8,15.92V1015c-5.45-5.27-11-10.64-16.8-15.92Z"/><path class="cls-2" d="M1790.29,1009.27c5.81,5.18,11.35,10.55,16.8,15.92V1034c-5.45-5.36-11-10.64-16.8-15.92Z"/><path class="cls-2" d="M1790.29,1028.7c5.81,5.28,11.35,10.56,16.8,15.92v8.8c-5.45-5.37-11-10.73-16.8-15.92Z"/><path class="cls-2" d="M1754.06,940.22c6.33,4.93,12.49,10,18.55,15.13v8.8c-6.07-5.19-12.22-10.21-18.55-15.22v-8.71Z"/><path class="cls-2" d="M1754.06,959.48c6.33,5,12.49,10.12,18.55,15.22v8.8c-6.07-5.19-12.22-10.21-18.55-15.22Z"/><path class="cls-2" d="M1754.06,978.66c6.33,5,12.49,10,18.55,15.21v8.8c-6.07-5.1-12.22-10.2-18.55-15.22Z"/><path class="cls-2" d="M1754.06,997.92c6.33,5,12.49,10.11,18.55,15.22v8.79c-6.07-5.1-12.22-10.2-18.55-15.22Z"/><path class="cls-2" d="M1714.21,968.63c6.86,4.75,13.64,9.5,20.23,14.43v8.79c-6.59-4.84-13.37-9.67-20.23-14.42Z"/><path class="cls-2" d="M1693.1,935.3v8.79c-7.21-4.66-14.51-8.79-22-13.72v-7.12c7.47,4.48,14.77,8.79,22,13.72V935.3Z"/><path class="cls-2" d="M1671.12,940.84c7.47,4.48,14.77,8.79,22,13.72v8.79c-7.21-4.66-14.51-9.23-22-13.72Z"/><path class="cls-2" d="M1625,876.46c7.91,4.13,15.74,8.79,23.39,12.75V898c-7.65-4.39-15.48-8.79-23.39-12.75Z"/><path class="cls-2" d="M1625,895.63c7.91,4.13,15.74,8.36,23.39,12.75v8.8c-7.65-4.31-15.48-8.8-23.39-12.76Z"/><path class="cls-2" d="M1625,914.89c7.91,4.22,15.74,8.8,23.39,12.75v8.8c-7.65-4.31-15.48-8.8-23.39-12.75Z"/><path class="cls-2" d="M1575.86,852.18c8.8,3.87,16.71,7.83,24.89,11.87v8.8c-8.18-4.05-16.53-8-24.89-11.87Z"/><path class="cls-2" d="M1575.86,871.35c8.8,3.87,16.71,7.83,24.89,11.88V892c-8.18-4-16.53-8-24.89-11.87Z"/><path class="cls-2" d="M1575.86,890.7l24.89,11.79v8.8c-8.18-4-16.53-8-24.89-11.88V890.7Z"/><path class="cls-2" d="M1915,986.4c2.46,6.24,4.75,12.49,6.77,18.73v126.48c-2-6.25-4.31-12.58-6.77-18.74Z"/><path class="cls-2" d="M1898.3,991.67c3.08,6.07,6.07,12.14,8.79,18.3v163.77c-2.81-6.07-5.8-12.23-8.79-18.3Z"/><path class="cls-2" d="M1877.19,1000.47c3.87,5.89,7.56,11.79,11,17.59v99.39c-3.43-6-7.12-11.88-11-17.59Z"/><path class="cls-2" d="M1852,922.72c4.57,5.72,8.79,11.52,13.1,17.59v123.13c-4.13-5.8-8.79-11.61-13.1-17.59Z"/><path class="cls-2" d="M1823.1,850.33c5.19,5.46,10.11,11,15,16.54V970.39c-4.84-5.54-9.76-11.08-15-16.54Z"/><path class="cls-2" d="M1790.29,773.37c5.81,5.28,11.35,10.56,16.8,15.92V937.5c-5.45-5.37-11-10.65-16.8-15.92Z"/><path class="cls-2" d="M1754.06,773.37c6.33,5,12.49,10,18.55,15.22V945.24c-6.07-5.11-12.22-10.21-18.55-15.22Z"/><path class="cls-2" d="M1714.21,757.89c6.86,4.75,13.64,9.59,20.23,14.52V972.94c-6.59-4.92-13.37-9.76-20.23-14.51Z"/><path class="cls-2" d="M1671.12,774.69c7.47,4.49,14.77,8.8,22,13.72V937.32c-7.21-4.66-14.51-8.8-22-13.72Z"/><path class="cls-2" d="M1625,721c7.91,4.14,15.74,8.8,23.39,12.76V877.34c-7.65-4.31-15.48-8.8-23.39-12.76Z"/><path class="cls-2" d="M1575.86,639.86c8.8,3.87,16.71,7.83,24.89,11.87v200.1L1575.86,840Z"/><path class="cls-3" d="M1089.74,571.35V556.48c-34-2.37-68.6-3.87-103.61-4.22H946.38v14.86h39.75c35.19,0,69.66,1.76,103.61,4.14ZM805.39,541.44a1693.62,1693.62,0,0,1,180.74-7.83c35.19,0,69.66,1.76,103.61,4.23v53.47c-34-2.46-68.6-3.87-103.61-4.22a1688.39,1688.39,0,0,0-180.74,7.83Z"/><path class="cls-3" d="M1089.74,654.64V639.86c-34-2.46-68.6-3.87-103.61-4.22-30.78,0-61.56,0-91.29,1.49v15q45.12-2,91.29-1.59c35.19,0,69.66,1.76,103.61,4.23Zm-382-18a1659,1659,0,0,1,278.37-20.32c35.19,0,69.66,1.76,103.61,4.13V673.9c-34-2.38-68.6-3.78-103.61-4.13a1649.46,1649.46,0,0,0-278.37,20.4V636.61Z"/><path class="cls-3" d="M1089.74,737.84V723q-42.21-3-85.66-3.87V734Q1047.43,734.95,1089.74,737.84Zm-180.3-38.17c25.33-.88,50.84-1.23,76.69-1,35.19,0,69.66,1.76,103.61,4.22v53.66c-34-2.47-68.6-3.87-103.61-4.23-25.85,0-51.36,0-76.69,1Z"/><path class="cls-2" d="M1124.92,705.74a1525.65,1525.65,0,0,1,262.81,47v53.65a1525.65,1525.65,0,0,0-262.81-47.05V705.74Z"/><path class="cls-2" d="M1124.92,623.24a1467.57,1467.57,0,0,1,348.92,73.88v53.47a1476.78,1476.78,0,0,0-348.92-73.88Z"/><path class="cls-2" d="M1124.92,540.65a1570.25,1570.25,0,0,1,169.4,24.8v53.48a1565.29,1565.29,0,0,0-169.4-24.8Z"/><path class="cls-2" d="M1325.63,572.31c9.42,2.11,18.74,4.31,28.06,6.6v53.56c-9.32-2.37-18.64-4.57-28.06-6.68Z"/><path class="cls-2" d="M1379,585.51c8.8,2.37,18.21,4.92,27.18,7.56v53.48c-8.8-2.64-18-5.11-27.18-7.57Z"/><path class="cls-2" d="M1430.65,600.37l26.39,8.8v53.47q-13.11-4.39-26.39-8.79V600.37Z"/><path class="cls-2" d="M1480.52,617c8.8,3.08,17,6.16,25.42,9.41v53.48c-8.8-3.17-16.89-6.33-25.42-9.32Z"/><path class="cls-2" d="M946.64,552.35H986.4c35.18,0,69.66,1.84,103.61,4.22v14.86c-34-2.37-68.61-3.78-103.61-4.13H946.64V552.35Z"/><path class="cls-2" d="M895.1,637.05c30.08-1.32,60.51-1.76,91.3-1.5,35.18,0,69.66,1.76,103.61,4.22v14.87c-34-2.47-68.61-3.87-103.61-4.22q-46.18,0-91.3,1.58Z"/><path class="cls-2" d="M1004.34,719q43.36.79,85.67,3.87v14.86q-42.23-2.89-85.67-3.87Z"/><path class="cls-1" d="M262.19,818.76c22.52-15.13,27.26-49.52,11.61-52.77-18-4-39.76,33.77-29.38,51.1,3.43,5.8,10.29,6.59,17.59,1.93ZM33.51,1021.05c9.76-22.16,11.08-58,4-55.41s-16.1,57.43-8.8,60.69c.79,0,2.38,0,4.93-5.28ZM.18,1327.22v-9.85c4.92-161.49,129.29-305.64,324-405.21l2.11,2.56,4.92-6.07h0l4.93-6.07c-58.14-70.37-72-86.55-107.31-21.73-16.35,32-31.31,44.95-44.41,38.44-73.62-47.76-73.62-47.76-93.23,10-32.63,110.82-32.63,110.82-42,114.34-11.34,3.51-17.59,5.36-25.33,44C10,1173.91,10,1173.91,6.33,1214.11a173.82,173.82,0,0,1-4.57,29.38l-1.41-2.91V1327Zm0,43.53V1017.88C5.72,835.82,163.24,675.75,402.12,576.8v343C136.24,1039.17,1,1190.89,0,1370.84Z"/><path class="cls-4" d="M141.25,1010.67V995.81c-3.43,3.25-6.86,6.51-10.2,9.85v14.86C134.39,1017.18,137.82,1013.93,141.25,1010.67Zm0-29.29v-15a544.39,544.39,0,0,0-56.2,61.57v14.95a550.7,550.7,0,0,1,56.2-61.56ZM.53,1327v-69.39l.88,2.28a271.71,271.71,0,0,0,6.51-39.49c5.62-52.77,9.85-76.08,19.08-127.53,6-28.58,9.41-29.73,20.76-33.42,9.94-5,9.94-5,49.25-126.83,14.6-42.57,14.6-42.57,81.8,1.14,11.78,5.81,31.4,2.2,58.05-48.28,26.38-47.85,32.19-40.81,87.95,26.38C130.08,1011.38,5.72,1155.53.79,1317v9.86Z"/><path class="cls-2" d="M.44,1257.56l.88,2.28a271.9,271.9,0,0,0,6.6-39.49c5.62-52.77,9.85-76.08,19.08-127.53,5.89-28.06,8.8-29.2,20.76-33.42,9.94-5,9.94-5,49.25-126.83,14.6-42.57,14.6-42.57,81.8,1.14,11.78,5.81,31.4,2.2,58.05-48.28,26.38-47.85,32.19-40.81,87.95,26.38l2.11,2.55,4.93-6.07h0l4.92-6.06c-13.1-15.75-30.52-36.68-43.45-52.78-3.25-3.25-32.54-30.43-68.95,40.81-22.08,40.46-22.08,40.46-91.82-6.06-26.39-13.2-42.13,44-63.68,123.13C59.54,1040,53.65,1041.9,42,1045.85c-8.79,4.84-17.15,9.77-35.18,164.74a271.8,271.8,0,0,1-4.31,32l-2-1.94v17Z"/><path class="cls-2" d="M33.77,970.48c4.31-8.8,6.51-4.75,7.39-1.76,4.93,16.18-6.51,59.9-12.31,57.34S26.83,985.17,33.77,970.48Z"/><path class="cls-2" d="M262.19,768.45c16.8-9.24,24.63,5.28,19.17,23.57-6.68,22.78-29.11,37.91-36.94,24.8s2.47-39,17.59-48.37Z"/><path class="cls-2" d="M85.05,1027.65a543.53,543.53,0,0,1,56.2-61.57v15a549.92,549.92,0,0,0-56.2,61.57v-15Z"/><path class="cls-2" d="M131.05,1005.66c3.34-3.34,6.77-6.6,10.2-9.85v14.86c-3.43,3.26-6.86,6.51-10.2,9.85Z"/><path class="cls-1" d="M112.32,1586.24V1348.77a719.85,719.85,0,0,0,167.11,130.87v237.47A714.79,714.79,0,0,1,112.32,1586.24ZM58.05,1286.32v229.56A351.27,351.27,0,0,1,.44,1327v-86.37a22.68,22.68,0,0,0,1.06-3.43c3.51-14.51,7-29.55,11.87-34.56,2.11,1.23,6.51,3.78,14.25,38.78A94.12,94.12,0,0,0,34,1261.43c2.46,5,4.49,7.3,6.77,7.91l15.83,1.32,3,15.75Zm335.89,531.24v-343C154.89,1373.13.44,1210.68.44,1027.47v343C13.9,1561.26,135.27,1699.08,393.94,1817.56Z"/><path class="cls-4" d="M7.39,1358.88V1344a354.24,354.24,0,0,0,33.07,91.73v15a356,356,0,0,1-33.07-91.82Zm0-29.29v-14.86a350.22,350.22,0,0,0,21.9,68.34v15A351.06,351.06,0,0,1,7.39,1329.59Zm50.66,186.29V1286.32l-14.78-1.14c-2.81-1.06-10.38-3.87-17.59-37.65-4.92-23.13-8-26.38-9.85-28.76-2.37,1.32-6.59,8.27-13.54,34.48l-1.76,4.31V1327a351.27,351.27,0,0,0,57.61,188.93Z"/><path class="cls-2" d="M58.05,1286.32l-14.78-1.14c-8.35-1.94-14.16-21.55-17.59-37.65-8.79-41.6-12.22-36.41-23.39,5.72a20.44,20.44,0,0,1-1.76,4.31v-17l.88-2.37a3.23,3.23,0,0,0,0-.44,117.29,117.29,0,0,1,10.38-33.51c5-7.92,12.66,23.13,14.86,32.89a82.62,82.62,0,0,0,10.73,29.91c1.85,2.11,1.85,2.11,19.17,3.6l3,15.75Z"/><path class="cls-1" d="M702.75,1861.27v-18.73c10.64,1.76,21.37,3.43,32.19,4.92v18.74Zm64.82,9.24v-18.74c11,1.32,22.08,2.64,33.25,3.7v18.73Q784.11,1872.54,767.57,1870.51Zm66.76,6.68v-18.65c11.17.88,22.51,1.68,33.86,2.29V1880c-11.35-.7-22.69-1.49-33.86-2.37Zm68.25,4v-18.83c11.43.44,22.95.8,34.56,1v18.74q-17.58,0-34.56-1.06Zm69.31,1.32v-18.65c11.52,0,23,0,34.56-.44v18.73H971.89Zm68.95-1.5v-18.65c11.43-.44,22.69-1.05,34-1.76v18.65c-11.26.7-22.52,1.32-34,1.76Zm67.55-4.13v-18.74c11.17-.88,22.34-1.93,33.42-3.08v18.74C1130.73,1875,1119.56,1876,1108.39,1876.93Zm66.32-6.86v-18.65c10.81-1.32,21.63-2.82,32.45-4.4v18.74C1196.34,1867.25,1185.52,1868.75,1174.71,1870.07Zm64.64-9.33V1842c10.56-1.76,21.11-3.61,31.58-5.54v18.64C1260.46,1857.14,1249.91,1859,1239.35,1860.74Zm62.71-11.78v-18.65c10.29-2.2,20.5-4.4,30.61-6.77v18.64C1322.56,1844.56,1312.35,1846.85,1302.06,1849Zm61-14.16v-18.65q14.87-3.87,29.56-7.92v19q-14.7,4.05-29.56,7.92Zm58.58-16.36v-18.65c9.68-2.9,19.26-6,28.67-8.79v18.64C1440.85,1812.81,1431.27,1815.8,1421.59,1818.44Zm56.56-18.56v-18.65c8.79-3.25,18.29-6.59,27.35-10v18.64C1496.7,1793.28,1487.38,1796.62,1478.15,1799.88Zm54.09-20.58v-18.74c8.79-3.6,17.59-7.3,26.38-11v18.65Q1545.44,1773.89,1532.24,1779.3Zm51.36-22.61v-18.64c8.8-4,16.54-7.92,24.63-12v18.73C1600.14,1748.78,1592,1752.82,1583.6,1756.69Zm48.73-24.54v-18.64c7.83-4.22,15.57-8.8,23.13-12.93v18.73C1647.9,1723.71,1640.16,1728.11,1632.33,1732.15Zm45.56-26.38v-18.65c7.39-4.57,14.69-8.79,21.81-13.81V1692C1692.58,1696.62,1685.28,1701.28,1677.89,1705.77Zm42.66-28v-18.65c6.86-4.83,13.54-9.67,20-14.6v18.65C1734.09,1668.12,1727.41,1673,1720.55,1677.8Zm39.22-29.55V1629.6c6.34-5.1,12.49-10.2,18.47-15.39v18.65C1772.26,1638,1766.11,1643.23,1759.77,1648.25Zm36-31.14v-18.56c5.62-5.27,11.17-10.64,16.53-16v18.64c-5.36,5.37-10.91,10.73-16.53,16Zm32.27-32.54v-18.65c5-5.54,9.94-11.08,14.69-16.71v18.65C1838,1573.49,1833,1579.12,1828,1584.57Zm28.41-33.77v-18.65c4.4-5.81,8.8-11.61,12.76-17.59v18.73c-4,5.81-8.36,11.7-12.76,17.59Zm24.54-35.19V1497c3.7-6,7.3-12,10.64-17.59V1498C1888.27,1504,1884.67,1510,1881,1515.61Zm20.32-36.15v-18.64c3.08-6.16,6-12.4,8.8-18.65v18.74c-2.73,6.15-5.63,12.4-8.8,18.56Zm16.18-37.29v-18.73c2.29-6.25,4.4-12.58,6.42-18.91v18.64C1921.87,1429.51,1919.76,1435.84,1917.47,1442.17Zm11.7-38.35v-18.64c1.58-6.42,2.9-12.93,4.13-19.44v18.74C1932.07,1391,1930.75,1397.4,1929.17,1403.82ZM702.75,1827.67V1809c10.64,1.76,21.37,3.34,32.19,4.92v18.65C724.12,1831.1,713.39,1829.43,702.75,1827.67Zm64.82,9.24v-18.47q16.53,1.93,33.25,3.69v18.65q-16.71-1.68-33.25-3.7Zm66.76,6.68V1825c11.17.88,22.51,1.67,33.86,2.37V1846C856.84,1845.35,845.5,1844.56,834.33,1843.59Zm68.25,4.14V1829q17.14.62,34.56,1.06v18.64c-11.61,0-23.13-.52-34.56-1Zm69.31,1.31v-18.73h34.56V1849c-11.52,0-23,0-34.56.44Zm68.95-1.49v-18.73c11.43-.44,22.69-1.06,34-1.76v18.73C1063.53,1846.49,1052.27,1847,1040.84,1847.55Zm67.55-4.22v-18.65c11.17-1,22.34-1.93,33.42-3.08v18.65C1130.73,1841.39,1119.56,1842.45,1108.39,1843.33Zm66.32-6.77v-18.74c10.81-1.32,21.63-2.73,32.45-4.31v18.65C1196.34,1833.74,1185.52,1835.15,1174.71,1836.56Zm64.55-9.33v-18.64c10.56-1.76,21.11-3.61,31.58-5.63v18.73C1260.37,1823.63,1249.82,1825.47,1239.26,1827.23Zm62.71-11.7V1796.8c10.3-2.11,20.5-4.4,30.61-6.77v18.73Zm61-14.16v-18.73q14.86-3.87,29.55-7.92v18.74Q1377.8,1797.59,1362.93,1801.37ZM1421.5,1785v-18.74c9.68-2.9,19.27-5.89,28.68-8.79v18.64c-9.41,3.08-19,6.07-28.68,8.8Zm56.56-18.56v-18.39c8.79-3.25,18.29-6.59,27.35-10v18.64c-8.79,3.43-18.12,6.86-27.35,10.12Zm54.09-20.67v-18.65q13.18-5.4,26.39-11.08v18.65Q1545.34,1740.38,1532.15,1745.79Zm51.36-22.61V1704.1c8.8-3.87,16.54-7.92,24.63-12v18.64c-8.09,4.14-16.27,8.09-24.63,12Zm48.73-24.45v-18.64c7.83-4.31,15.57-8.8,23.13-12.93v18.64C1647.81,1690.2,1640.07,1694.6,1632.24,1698.73Zm45.56-26.38v-18.74c7.39-4.48,14.69-8.79,21.81-13.81v18.65c-7.12,4.75-14.42,9.32-21.81,13.9Zm42.66-28.06v-18.65c6.86-4.75,13.54-9.67,20-14.6v18.74Q1730.75,1637.16,1720.46,1644.29Zm39.22-29.46v-18.74c6.34-5,12.49-10.2,18.47-15.39v18.65c-6,5.27-12.13,10.37-18.47,15.48Zm36-31.14V1565c5.63-5.28,11.17-10.65,16.53-16v18.64c-5.36,5.46-10.9,10.82-16.53,16.1Zm32.28-32.54v-18.74c5-5.45,9.94-11.08,14.68-16.71v18.74C1837.88,1540.06,1833,1545.61,1827.94,1551.15Zm28.41-33.78v-18.73c4.39-5.72,8.79-11.52,12.75-17.59v18.64c-4,5.9-8.36,11.7-12.75,17.59Zm24.53-35.18v-18.64c3.7-5.9,7.3-11.88,10.65-17.6v18.65C1888.18,1470.67,1884.58,1476.65,1880.88,1482.19ZM1901.2,1446V1427.4c3.08-6.16,6-12.32,8.8-18.56v18.64C1907.27,1433.73,1904.37,1439.89,1901.2,1446Zm16.19-37.29V1390.1c2.28-6.33,4.39-12.66,6.42-19v18.64C1921.78,1396.17,1919.67,1402.51,1917.39,1408.75Zm11.69-38.26v-18.21c1.59-6.42,2.91-12.84,4.14-19.35v18.65c-1.23,6.51-2.55,13-4.14,19.44ZM702.75,1794.16v-18.73c10.64,1.76,21.37,3.43,32.19,4.92v18.74Zm64.82,9.24v-18.74q16.53,1.93,33.25,3.7v18.73Q784.11,1805.43,767.57,1803.4Zm66.76,6.68v-18.64c11.17.88,22.51,1.67,33.86,2.28v18.74c-11.35-.71-22.69-1.5-33.86-2.38Zm68.25,4.05v-18.65c11.43.44,22.95.79,34.56,1v18.73Q919.56,1815.18,902.58,1814.13Zm69.31,1.32V1796.8c11.52,0,23,0,34.56-.44v18.73H971.89Zm68.95-1.5v-18.64c11.43-.44,22.69-1.06,34-1.76v18.64C1063.53,1812.9,1052.27,1813.51,1040.84,1814Zm67.55-4.13v-18.74c11.17-.88,22.34-1.93,33.42-3.08v18.74C1130.73,1807.88,1119.56,1808.85,1108.39,1809.82Zm66.32-6.86v-18.65c10.81-1.32,21.63-2.81,32.45-4.4v18.74C1196.34,1800.14,1185.52,1801.64,1174.71,1803Zm64.64-9.33V1774.9c10.56-1.76,21.11-3.61,31.58-5.54V1788C1260.46,1790,1249.91,1791.87,1239.35,1793.63Zm62.71-11.78V1763.2c10.29-2.2,20.5-4.4,30.61-6.77v18.65C1322.56,1777.45,1312.35,1779.74,1302.06,1781.85Zm61-14.16V1749q14.87-3.87,29.56-7.91v18.64Q1377.87,1763.82,1363,1767.69Zm58.58-16.36v-18.65c9.68-2.9,19.26-6,28.67-8.79v18.64C1440.85,1745.7,1431.27,1748.69,1421.59,1751.33Zm56.56-18.56v-18.65c8.79-3.25,18.29-6.59,27.35-10v18.64C1496.7,1726.17,1487.38,1729.52,1478.15,1732.77Zm54.09-20.67v-18.64c8.79-3.61,17.59-7.3,26.38-11v18.65C1549.83,1704.89,1541,1708.58,1532.24,1712.1Zm51.36-22.51v-18.65c8.8-4,16.54-7.92,24.63-12v18.82c-8.09,4-16.27,8.09-24.63,12Zm48.73-24.54V1646.4c7.83-4.22,15.57-8.8,23.13-12.93v18.74C1647.9,1656.6,1640.16,1661,1632.33,1665.05Zm45.56-26.39V1620c7.39-4.57,14.69-8.79,21.81-13.8v18.73c-7.12,4.66-14.42,9.32-21.81,13.81Zm42.66-28v-18.64c6.86-4.84,13.54-9.68,20-14.61v18.65C1734.09,1601,1727.41,1605.85,1720.55,1610.69Zm39.22-29.55v-18.65c6.34-5.1,12.49-10.2,18.47-15.39v18.65C1772.26,1570.94,1766.11,1576.13,1759.77,1581.14Zm36-31.14v-18.64c5.62-5.28,11.17-10.65,16.53-16V1534C1806.92,1539.36,1801.37,1544.73,1795.75,1550Zm32.27-32.54v-18.65c5-5.54,9.94-11.08,14.69-16.71v18.65C1838,1506.38,1833,1512,1828,1517.46Zm28.41-33.77V1465c4.4-5.8,8.8-11.61,12.76-17.59v19.17c-4,5.81-8.36,11.7-12.76,17.59Zm24.54-35.18v-18.65c3.7-6,7.3-12,10.64-17.59v18.64C1888.27,1436.9,1884.67,1442.88,1881,1448.51Zm20.32-36.15v-18.65c3.08-6.16,6-12.4,8.8-18.65v18.65C1907.36,1400,1904.46,1406.2,1901.29,1412.36Zm16.18-37.3v-18.73c2.29-6.24,4.4-12.58,6.42-18.91v18.65C1921.87,1362.4,1919.76,1368.73,1917.47,1375.06Zm11.7-38.34v-18.65c1.58-6.42,2.9-12.93,4.13-19.44v18.74C1932.07,1323.88,1930.75,1330.3,1929.17,1336.72Zm-689.82,422.17v-44c10.56-1.76,21.11-3.61,31.58-5.55v44c-10.47,1.94-21,3.87-31.58,5.63Zm618.14-311.18v-44c4.4-5.72,8.79-11.53,12.66-17.59v44Q1864.09,1438.93,1857.49,1447.71ZM1583.6,1654.84v-48.28c8.8-4,16.54-7.92,24.63-12v48.28c-8.09,4-16.27,8-24.63,12Zm50.49-25.5V1581c7.83-4.22,15.56-8.79,23.13-12.93v48.11c-7.56,4.4-15.3,8.8-23.13,12.93Zm-459.38,139v-56c10.81-1.32,21.63-2.82,32.45-4.31v56C1196.34,1765.49,1185.52,1767,1174.71,1768.3Zm707.05-355.59v-56c3.79-5.89,7.3-11.87,10.65-17.59v56C1889.06,1401.19,1885.55,1407.17,1881.76,1412.71Zm-579.7,334.22v-59.81c10.29-2.2,20.5-4.39,30.61-6.77v59.81C1322.56,1742.53,1312.35,1744.73,1302.06,1746.93Zm527.11-265.44v-59.81c5-5.54,9.85-11.17,14.6-16.8v59.81C1839,1470.32,1834.18,1476,1829.17,1481.49Zm-296.93,196.22v-65.17q13.18-5.41,26.38-11.08v65.26C1549.83,1670.5,1541,1674.11,1532.24,1677.71Zm147.49-74.41v-65.43c7.3-4.49,14.52-8.8,21.55-13.81v65.7c-7,4.66-14.24,9.23-21.55,13.72ZM1108,1775.43v-73.8c11.17-.87,22.34-1.93,33.42-3.07v73.7c-11.08,1.14-22.25,2.2-33.42,3.17Zm793.69-398.7v-73.79c3-6.15,5.8-12.31,8.79-18.47v73.71C1907.8,1364.42,1905,1370.58,1901.73,1376.73Zm-1199,382.69v-82.94q15.91,2.64,32.19,5v82.86c-10.82-1.5-21.55-3.17-32.19-4.93ZM1363,1733v-86.89q14.87-3.87,29.56-7.92v86.9Q1377.87,1729.25,1363,1733Zm434-218.65v-86.9c5.71-5.36,11.25-10.73,16.62-16.18v86.9C1808.24,1503.65,1802.69,1509,1797,1514.38Zm-318.83,183.74v-91.65c8.79-3.25,18.29-6.6,27.35-10v91.65C1496.7,1691.52,1487.38,1694.86,1478.15,1698.12Zm244-123.14v-91.56c6.86-4.75,13.54-9.67,20-14.69v91.65c-6.51,5-13.19,9.85-20,14.69Zm-681.29,204.23v-95c11.43-.53,22.69-1.06,34-1.76v95.08c-11.26.7-22.52,1.32-34,1.76ZM1918,1339.44V1244.1c2.29-6.33,4.4-12.75,6.33-19.17v95.16c-1.93,6.42-4,12.76-6.33,19.09ZM767.57,1768.92V1655q16.53,2.12,33.25,3.69v113.64q-16.71-1.59-33.25-3.69Zm204.32,12.14v-113.9c11.52,0,23,0,34.56-.44v113.72H971.89Zm449.7-64.12V1603c9.68-2.9,19.26-6,28.67-8.8v113.38c-9.41,3.16-19,6.15-28.67,8.79Zm339.77-171.16V1431.44c6.24-5.1,12.31-10.2,18.2-15.39v113.64c-5.89,5.19-12,10.37-18.2,15.39Zm168.16-244.6v-114c1.5-6.43,2.82-12.93,4-19.44v114.16c-1.23,6.51-2.55,12.93-4,19.35ZM902.58,1779.47V1644.91q17.14.69,34.56,1v134.48c-11.61,0-23.13-.53-34.56-1Zm-68.25-4V1627.75c11.17.88,22.51,1.68,33.86,2.38V1777.8C856.84,1777.1,845.5,1776.31,834.33,1775.43Zm1103.81-733.27c-14.25,304.41-453.57,546-985.6,540.65a1620.08,1620.08,0,0,1-315.93-33.51v343a1620.94,1620.94,0,0,0,315.93,33.6c532,5.36,971.35-236.25,985.6-540.74v-343Z"/><path class="cls-2" d="M29.29,1383.07a350.22,350.22,0,0,1-21.9-68.34v14.86A351.06,351.06,0,0,0,29.29,1398Z"/><path class="cls-2" d="M40.46,1435.75A354.24,354.24,0,0,1,7.39,1344v14.86a356,356,0,0,0,33.07,91.82Z"/><path class="cls-4" d="M132.11,1572.61v-24.19l15,14.25v24.19Q139.48,1579.9,132.11,1572.61Zm30.78,28.23v-24.19c5.36,4.58,10.82,8.8,16.45,13.64v24.27C173.71,1610,168.25,1605.77,162.89,1600.84Zm33.51,27.09v-24.28c5.89,4.49,11.79,8.8,17.59,13.11V1641C207.92,1636.64,202,1632.15,196.4,1627.93Zm36.32,25.86v-24.28c6.25,4.22,12.58,8.8,19.09,12.49v24.19C245.3,1662.06,239,1657.92,232.72,1653.79ZM132.11,1524.14V1500q7.38,7.29,15,14.25v24.18Q139.48,1531.45,132.11,1524.14Zm30.78,28.24v-24.19c5.36,4.57,10.82,8.8,16.45,13.72v24.19C173.71,1561.61,168.25,1557.3,162.89,1552.38Zm33.51,27.09v-24.19c5.89,4.4,11.79,8.8,17.59,13v24.27c-6.07-4.31-12-8.79-17.59-13.1Zm36.32,25.86V1581c6.25,4.14,12.58,8.27,19.09,12.4v24.19c-6.51-4-12.84-8.18-19.09-12.4ZM132.11,1475.42v-24.28q7.38,7.3,15,14.25v24.28Zm30.78,28.23v-24.27c5.36,4.66,10.82,8.79,16.45,13.72v24.18C173.71,1512.8,168.25,1508.49,162.89,1503.65Zm33.51,27v-24.18l17.59,13.1v24.19C207.92,1539.45,202,1535,196.4,1530.65Zm36.32,25.86v-24.19c6.25,4.23,12.58,8.8,19.09,12.41V1569C245.3,1564.87,239,1560.73,232.72,1556.51ZM132.11,1427v-24.19l15,14.25v24.19Q139.48,1434.25,132.11,1427Zm30.78,28.23v-23.75c5.36,4.58,10.82,8.8,16.45,13.63v24.28c-5.63-4.57-11.09-8.8-16.45-13.72Zm33.51,27.09V1458c5.89,4.4,11.79,8.8,17.59,13.11v24.19c-6.07-4.31-12-8.8-17.59-13Zm36.32,25.86v-23.93c6.25,4.23,12.58,8.36,19.09,12.49v24.19c-6.51-4.13-12.84-8.27-19.09-12.4Zm47-28.76A719.83,719.83,0,0,1,112.58,1348.5V1586a715.26,715.26,0,0,0,167.11,130.87V1479.38Z"/><path class="cls-5" d="M147.15,1417.37l-15-14.25v24.19q7.38,7.29,15,14.25Z"/><path class="cls-2" d="M179.34,1445c-5.63-4.49-11.09-8.8-16.45-13.64v24.19c5.36,4.57,10.82,8.8,16.45,13.72Z"/><path class="cls-5" d="M214.25,1471.46c-6.06-4.31-12-8.79-17.59-13.1v24.27c5.9,4.4,11.79,8.8,17.59,13v-24.19Z"/><path class="cls-5" d="M251.81,1496.7c-6.51-4.13-12.84-8.26-19.09-12.49v24.28c6.25,4.13,12.58,8.27,19.09,12.4Z"/><path class="cls-5" d="M147.15,1465.74q-7.67-6.95-15-14.24v23.92l15,14.25Z"/><path class="cls-2" d="M179.34,1493.45c-5.63-4.49-11.09-8.8-16.45-13.72V1504c5.36,4.58,10.82,8.8,16.45,13.64Z"/><path class="cls-5" d="M214.25,1519.92c-6.06-4.31-12-8.79-17.59-13.1V1531c5.9,4.48,11.79,8.79,17.59,13.1Z"/><path class="cls-5" d="M251.81,1545.08c-6.51-4-12.84-8.18-19.09-12.4v24.18c6.25,4.23,12.58,8.8,19.09,12.49Z"/><path class="cls-2" d="M147.15,1514.21q-7.67-7-15-14.25v24.19q7.38,7.29,15,14.24Z"/><path class="cls-5" d="M179.34,1541.91c-5.63-4.57-11.09-8.79-16.45-13.72v24.19c5.36,4.66,10.82,9.23,16.45,13.72Z"/><path class="cls-5" d="M214.25,1568.3c-6.06-4.31-12-8.8-17.59-13v24.19l17.59,13.1V1568.3Z"/><path class="cls-2" d="M251.81,1593.54c-6.51-4.13-12.84-8.27-19.09-12.4v24.19c6.25,4.22,12.58,8.35,19.09,12.4Z"/><path class="cls-5" d="M147.15,1562.67l-15-14.25v24.19q7.38,7.22,15,14.25Z"/><path class="cls-2" d="M179.34,1590.29c-5.63-4.49-11.09-8.8-16.45-13.64v24.19c5.36,4.57,10.82,8.8,16.45,13.72Z"/><path class="cls-5" d="M214.25,1616.76c-6.06-4.31-12-8.8-17.59-13.11v24.28c5.9,4.4,11.79,8.8,17.59,13Z"/><path class="cls-5" d="M251.81,1642c-6.51-4.13-12.84-8.27-19.09-12.49v24.28c6.25,4.13,12.58,8.27,19.09,12.4Z"/><path class="cls-2" d="M734.94,1681.49q-16.28-2.37-32.19-5v82.94c10.64,1.76,21.37,3.43,32.19,4.93v-82.86Z"/><path class="cls-2" d="M800.82,1658.71q-16.71-1.57-33.25-3.69v113.64q16.53,2.1,33.25,3.69Z"/><path class="cls-2" d="M868.19,1630.13c-11.35-.7-22.69-1.5-33.86-2.38v147.68c11.17.88,22.51,1.67,33.86,2.37Z"/><path class="cls-2" d="M937.14,1646q-17.58,0-34.56-1v134.56c11.43.44,22.95.8,34.56,1Z"/><path class="cls-2" d="M1006.45,1666.72c-11.52,0-23,.44-34.56.44v113.63h34.56Z"/><path class="cls-6" d="M1074.79,1682.46c-11.26.7-22.52,1.23-34,1.76v95.08c11.43-.44,22.69-1.06,34-1.76Z"/><path class="cls-6" d="M1141.81,1698.29c-11.08,1.15-22.25,2.2-33.42,3.08v73.79c11.17-1,22.34-2,33.42-3.16-11.08,1.14-22.25,2.2-33.42,3.16,11.17-1,22.34-2,33.42-3.16v-73.71Z"/><path class="cls-7" d="M1207.16,1708c-10.82,1.49-21.64,3-32.45,4.31v56c10.81-1.32,21.63-2.81,32.45-4.31Z"/><path class="cls-7" d="M1270.93,1709.73c-10.47,1.93-21,3.78-31.58,5.54v44c10.56-1.75,21.11-3.69,31.58-5.62v-43.89Z"/><path class="cls-8" d="M1332.67,1680.61c-10.11,2.38-20.32,4.58-30.61,6.78v59.8c10.29-2.19,20.5-4.39,30.61-6.77Z"/><path class="cls-8" d="M1392.57,1638.22q-14.7,4.14-29.56,7.92V1733q14.87-3.87,29.56-7.91Z"/><path class="cls-4" d="M1450.35,1594c-9.41,3.08-19,6.16-28.67,8.8v113.63c9.67-2.9,19.26-5.89,28.67-8.79Z"/><path class="cls-4" d="M1505.5,1596.44c-8.8,3.43-18.12,6.78-27.35,10v91.65c8.79-3.26,18.29-6.6,27.35-10Z"/><path class="cls-9" d="M1558.27,1601.19q-13.18,5.67-26.38,11.08v65.44c8.79-3.6,17.59-7.21,26.38-11Z"/><path class="cls-9" d="M1608.67,1594.68c-8.09,4-16.27,8-24.63,12v48.28c8.8-4,16.54-7.91,24.63-12v-48.29Z"/><path class="cls-2" d="M1933.57,1167.58c-1.23,6.51-2.55,13-4,19.44v113.64c1.5-6.43,2.82-12.85,4-19.35Z"/><path class="cls-6" d="M1924.33,1224.93c-1.93,6.42-4,12.84-6.33,19.17v95.08c2.29-6.33,4.4-12.67,6.33-19.09Z"/><path class="cls-6" d="M1910.61,1284.21c-2.72,6.15-5.54,12.31-8.79,18.47v73.79c3-6.16,5.8-12.31,8.79-18.56Z"/><path class="cls-7" d="M1892.41,1338.74c-3.35,6.07-6.86,12-10.65,17.59v56c3.79-5.9,7.3-11.88,10.65-17.59Z"/><path class="cls-7" d="M1870.15,1386.76c-4,5.81-8.26,11.61-12.66,17.59v44q6.6-8.79,12.66-17.59Z"/><path class="cls-8" d="M1843.77,1405.06c-4.75,5.63-9.59,11.25-14.6,16.8v59.8c5-5.54,9.85-11.17,14.6-16.8Z"/><path class="cls-8" d="M1813.6,1411.3c-5.37,5.45-10.91,10.82-16.62,16.18v86.9c5.71-5.36,11.25-10.73,16.62-16.18Z"/><path class="cls-4" d="M1779.56,1416.4c-5.89,5.19-12,10.29-18.2,15.39v114c6.24-5,12.31-10.2,18.2-15.39Z"/><path class="cls-4" d="M1742.18,1468.73c-6.51,5-13.19,9.94-20,14.69v91.65c6.86-4.84,13.54-9.67,20-14.69Z"/><path class="cls-9" d="M1701.28,1524.06c-7,4.66-14.24,9.32-21.55,13.81V1603c7.3-4.49,14.52-8.8,21.55-13.72v-65.26Z"/><path class="cls-9" d="M1657.22,1568.21c-7.57,4.4-15.31,8.8-23.13,12.93v48.29c7.82-4.23,15.56-8.8,23.13-12.93Z"/><path class="cls-2" d="M1141.81,1772c-11.08,1.14-22.25,2.2-33.42,3.16C1119.56,1774.2,1130.73,1773.14,1141.81,1772Z"/><path class="cls-9" d="M734.94,1780.35c-10.82-1.49-21.55-3.16-32.19-4.92v18.73l32.19,4.93Z"/><path class="cls-9" d="M868.19,1793.72c-11.35-.61-22.69-1.4-33.86-2.28v18.64c11.17.88,22.51,1.67,33.86,2.38v-18.74Z"/><path class="cls-9" d="M937.14,1796.45c-11.61,0-23.13-.53-34.56-1v18.65q17.14.7,34.56,1Z"/><path class="cls-9" d="M1006.45,1796.36c-11.52,0-23,.44-34.56.44v18.65h34.56v-19.09Z"/><path class="cls-9" d="M1074.79,1793.55c-11.26.7-22.52,1.32-34,1.76V1814c11.43-.44,22.69-1,34-1.76Z"/><path class="cls-9" d="M1207.16,1779.91c-10.82,1.59-21.64,3.08-32.45,4.4V1803c10.81-1.32,21.63-2.82,32.45-4.31Z"/><path class="cls-9" d="M1270.93,1769.36c-10.47,1.93-21,3.78-31.58,5.54v18.73c10.56-1.75,21.11-3.6,31.58-5.62Z"/><path class="cls-9" d="M1332.67,1756.87c-10.11,2.37-20.32,4.57-30.61,6.77v18.65c10.29-2.11,20.5-4.4,30.61-6.77Z"/><path class="cls-9" d="M1392.57,1741.13q-14.7,4-29.56,7.91v18.65q14.87-3.87,29.56-7.92Z"/><path class="cls-9" d="M1450.35,1723.62c-9.41,3.08-19,6.16-28.67,8.8v18.64c9.67-2.9,19.26-5.89,28.67-8.79Z"/><path class="cls-9" d="M1558.27,1682.46c-8.79,3.7-17.59,7.39-26.38,11v18.64c8.79-3.52,17.59-7.21,26.38-11Z"/><path class="cls-9" d="M1608.67,1658.89c-8.09,4.13-16.27,8.09-24.63,12v18.65c8.8-3.87,16.54-7.92,24.63-12Z"/><path class="cls-9" d="M1655.46,1633.73c-7.56,4.4-15.3,8.8-23.13,12.93v18.65c7.83-4.22,15.57-8.8,23.13-12.84Z"/><path class="cls-9" d="M1699.7,1606.38c-7.12,4.66-14.42,9.24-21.81,13.81v18.65c7.39-4.49,14.69-8.8,21.81-13.81v-18.65Z"/><path class="cls-9" d="M1740.6,1577.62c-6.51,4.93-13.19,9.76-20,14.6v18.65c6.86-4.84,13.54-9.68,20-14.6Z"/><path class="cls-9" d="M1778.24,1547.28c-6,5.19-12.13,10.29-18.47,15.39V1581c6.34-5,12.49-10.2,18.47-15.39v-18.29Z"/><path class="cls-9" d="M1812.28,1515.53c-5.36,5.36-10.91,10.73-16.53,16v18.65c5.62-5.28,11.17-10.64,16.53-16Z"/><path class="cls-9" d="M1869.19,1447.71c-4,5.9-8.36,11.7-12.76,17.59v18.91c4.4-5.71,8.8-11.61,12.76-17.59v-18.91Z"/><path class="cls-9" d="M1891.61,1412.18c-3.34,6-6.94,12-10.64,17.59V1449c3.7-6,7.3-12,10.64-17.59v-19.26Z"/><path class="cls-9" d="M1910,1375.33c-2.73,6.24-5.63,12.49-8.8,18.64v18.65c3.08-6.16,6-12.4,8.8-18.65Z"/><path class="cls-9" d="M1923.89,1337.68c-2,6.34-4.13,12.67-6.42,18.91v18.74c2.29-6.33,4.4-12.67,6.42-19Z"/><path class="cls-9" d="M734.94,1814c-10.82-1.58-21.55-3.16-32.19-4.92v18.64c10.64,1.76,21.37,3.43,32.19,4.93Z"/><path class="cls-9" d="M800.82,1822q-16.71-1.68-33.25-3.7v18.65q16.53,1.93,33.25,3.69Z"/><path class="cls-9" d="M868.19,1827.23c-11.35-.7-22.69-1.49-33.86-2.37v18.64c11.17,1,22.51,1.76,33.86,2.38Z"/><path class="cls-9" d="M937.14,1830.05q-17.58,0-34.56-1.06v18.74c11.43.44,22.95.79,34.56,1Z"/><path class="cls-9" d="M1006.45,1830H971.89v18.73c11.52,0,23,0,34.56-.44V1830Z"/><path class="cls-9" d="M1074.79,1827.23c-11.26.71-22.52,1.32-34,1.76v18.74c11.43-.53,22.69-1.06,34-1.76Z"/><path class="cls-9" d="M1207.16,1813.51c-10.82,1.58-21.64,3-32.45,4.31v18.74c10.81-1.41,21.63-2.82,32.45-4.4Z"/><path class="cls-9" d="M1332.67,1789.94c-10.11,2.38-20.32,4.66-30.61,6.77v18.74l30.61-6.78Z"/><path class="cls-9" d="M1392.57,1774.46q-14.7,4.14-29.56,7.92v18.73q14.87-3.87,29.56-7.92Z"/><path class="cls-9" d="M1450.35,1756.87c-9.41,3.08-19,6.07-28.67,8.8v18.73c9.67-3,19.26-6,28.67-8.8Z"/><path class="cls-9" d="M1558.27,1716q-13.18,5.67-26.38,11.08v18.65q13.18-5.42,26.38-11.08Z"/><path class="cls-9" d="M1608.67,1692.49c-8.09,4-16.27,8.09-24.63,12v18.65c8.8-3.87,16.54-7.83,24.63-12Z"/><path class="cls-9" d="M1740.6,1611.13c-6.51,4.93-13.19,9.85-20,14.6v18.65q10.29-7.12,20-14.52Z"/><path class="cls-9" d="M1778.24,1581c-6,5.19-12.13,10.38-18.47,15.39v18.74c6.34-5.1,12.49-10.2,18.47-15.48Z"/><path class="cls-9" d="M1812.28,1549c-5.36,5.36-10.91,10.73-16.53,16v18.74c5.62-5.28,11.17-10.64,16.53-16.1V1549Z"/><path class="cls-9" d="M1869.19,1481.31c-4,5.89-8.36,11.7-12.76,17.59v18.74c4.4-5.81,8.8-11.61,12.76-17.59v-18.74Z"/><path class="cls-9" d="M1910,1408.93c-2.73,6.24-5.63,12.4-8.8,18.55v18.65c3.08-6.16,6-12.31,8.8-18.56Z"/><path class="cls-9" d="M1923.89,1371.19c-2,6.34-4.13,12.67-6.42,19v18.65c2.29-6.25,4.4-12.58,6.42-19Z"/><path class="cls-9" d="M1933.3,1332.49c-1.23,6.51-2.55,12.93-4.13,19.35v18.74c1.58-6.42,2.9-12.93,4.13-19.44Z"/><path class="cls-9" d="M734.94,1847.46c-10.82-1.49-21.55-3.16-32.19-4.92v18.73l32.19,4.93Z"/><path class="cls-9" d="M800.82,1855.47c-11.17-1.06-22.26-2.38-33.25-3.7v18.74q16.53,1.93,33.25,3.69Z"/><path class="cls-9" d="M1074.79,1860.65c-11.26.71-22.52,1.32-34,1.76v18.65c11.43-.44,22.69-1.06,34-1.76Z"/><path class="cls-9" d="M1141.81,1855.11c-11.08,1.15-22.25,2.2-33.42,3.08v18.74c11.17-1,22.34-1.94,33.42-3.08Z"/><path class="cls-9" d="M1207.16,1847c-10.82,1.59-21.64,3.08-32.45,4.4v18.65c10.81-1.32,21.63-2.82,32.45-4.31Z"/><path class="cls-9" d="M1270.93,1836.47c-10.47,1.93-21,3.78-31.58,5.54v18.73c10.56-1.76,21.11-3.6,31.58-5.63Z"/><path class="cls-9" d="M1332.67,1823.54c-10.11,2.37-20.32,4.57-30.61,6.77V1849c10.29-2.11,20.5-4.4,30.61-6.78Z"/><path class="cls-9" d="M1450.35,1790.73c-9.41,3.08-19,6.16-28.67,8.8v18.91c9.67-2.91,19.26-5.9,28.67-8.8v-18.91Z"/><path class="cls-9" d="M1505.5,1771.21c-8.8,3.43-18.12,6.77-27.35,10v18.65c8.79-3.26,18.29-6.6,27.35-10Z"/><path class="cls-9" d="M1608.67,1726c-8.09,4.13-16.27,8.09-24.63,12v18.82c8.8-3.87,16.54-7.92,24.63-12V1726Z"/><path class="cls-9" d="M1655.46,1700.58c-7.56,4.4-15.3,8.79-23.13,12.93v18.64c7.83-4.22,15.57-8.79,23.13-12.84Z"/><path class="cls-9" d="M1699.7,1673.49c-7.12,4.66-14.42,9.23-21.81,13.81v18.64c7.39-4.48,14.69-8.79,21.81-13.8Z"/><path class="cls-9" d="M1740.6,1644.73c-6.51,4.92-13.19,9.76-20,14.6v18.38c6.86-4.84,13.54-9.67,20-14.6v-18.38Z"/><path class="cls-9" d="M1778.24,1614.39c-6,5.18-12.13,10.29-18.47,15.39v18.64c6.34-5,12.49-10.2,18.47-15.39Z"/><path class="cls-9" d="M1842.71,1549.39c-4.75,5.63-9.67,11.17-14.69,16.71v18.64c5-5.45,9.94-11.08,14.69-16.71Z"/><path class="cls-9" d="M1869.19,1514.82c-4,5.89-8.36,11.7-12.76,17.59v18.65c4.4-5.72,8.8-11.61,12.76-17.59v-18.65Z"/><path class="cls-9" d="M1891.61,1479.29c-3.34,6-6.94,12-10.64,17.59v18.65c3.7-6,7.3-12,10.64-17.6Z"/><path class="cls-9" d="M1910,1442.44c-2.73,6.24-5.63,12.49-8.8,18.64v18.65c3.08-6.16,6-12.4,8.8-18.56v-18.73Z"/><path class="cls-9" d="M1923.89,1405.06c-2,6.33-4.13,12.66-6.42,18.91v18.73c2.29-6.33,4.4-12.67,6.42-19Z"/><path class="cls-9" d="M1933.3,1366c-1.23,6.51-2.55,13-4.13,19.44v18.65c1.58-6.42,2.9-12.84,4.13-19.35Z"/><path class="cls-2" d="M800.82,1788.36q-16.71-1.68-33.25-3.7v18.74q16.53,1.93,33.25,3.69Z"/><path class="cls-2" d="M1141.81,1788c-11.08,1.14-22.25,2.19-33.42,3.07v18.56c11.17-1,22.34-1.93,33.42-3.08V1788Z"/><path class="cls-2" d="M1505.5,1704.1c-8.8,3.43-18.12,6.77-27.35,10v18.65c8.79-3.25,18.29-6.6,27.35-10Z"/><path class="cls-2" d="M1842.71,1482.28c-4.75,5.63-9.67,11.17-14.69,16.71v18.65c5-5.46,9.94-11.09,14.69-16.71Z"/><path class="cls-2" d="M1933.3,1298.9c-1.23,6.5-2.55,13-4.13,19.43V1337c1.58-6.42,2.9-12.84,4.13-19.35Z"/><path class="cls-2" d="M1141.81,1821.6c-11.08,1.15-22.25,2.11-33.42,3.08v18.65c11.17-.88,22.34-1.94,33.42-3.08Z"/><path class="cls-2" d="M1270.93,1802.87c-10.47,2-21,3.87-31.58,5.63v18.73c10.56-1.76,21.11-3.6,31.58-5.54v-18.82Z"/><path class="cls-2" d="M1505.5,1737.61c-8.8,3.43-18.12,6.77-27.35,10v18.74c8.79-3.26,18.29-6.69,27.35-10.12v-18.64Z"/><path class="cls-2" d="M1655.46,1667.07c-7.56,4.4-15.3,8.79-23.13,12.93v18.64c7.83-4.22,15.57-8.79,23.13-12.92Z"/><path class="cls-2" d="M1699.7,1639.89c-7.12,4.66-14.42,9.32-21.81,13.81v18.73c7.39-4.57,14.69-8.79,21.81-13.89Z"/><path class="cls-2" d="M1842.71,1515.79c-4.75,5.63-9.67,11.26-14.69,16.71v18.73c5-5.54,9.94-11.08,14.69-16.71Z"/><path class="cls-2" d="M1891.61,1445.69c-3.34,6.07-6.94,12-10.64,17.59v18.65c3.7-5.9,7.3-11.88,10.64-17.59Z"/><path class="cls-2" d="M868.19,1860.83c-11.35-.61-22.69-1.41-33.86-2.29v18.65c11.17.88,22.51,1.67,33.86,2.37v-18.73Z"/><path class="cls-2" d="M937.14,1863.56c-11.61,0-23.13-.53-34.56-1v18.65q17.14.71,34.56,1Z"/><path class="cls-2" d="M1006.45,1863.47c-11.52,0-23,.44-34.56.44v18.65h34.56v-19.09Z"/><path class="cls-2" d="M1392.57,1808.23q-14.7,4.05-29.56,7.92v18.65q14.87-3.87,29.56-7.92Z"/><path class="cls-2" d="M1558.27,1749.57c-8.79,3.69-17.59,7.39-26.38,11v18.74q13.18-5.41,26.38-11.08Z"/><path class="cls-2" d="M1812.28,1582.63c-5.36,5.37-10.91,10.73-16.53,16v18.65c5.62-5.28,11.17-10.64,16.53-16Z"/><path class="cls-10" d="M1273.92,735a16.71,16.71,0,1,0-23.62-.76l0,.05a16.53,16.53,0,0,0,23.36.9Z"/><path class="cls-2" d="M1466.62,720.69a16.71,16.71,0,1,0-23.61-.84l0,0A16.71,16.71,0,0,0,1466.62,720.69Z"/><path class="cls-10" d="M1419,462.37a17.42,17.42,0,1,0-.48.46Z"/><path class="cls-10" d="M1398.9,513.38a10.73,10.73,0,1,0-15.16-.56l0,0A10.74,10.74,0,0,0,1398.9,513.38Z"/><path class="cls-11" d="M1376.82,486.91a6.95,6.95,0,1,0-9.82-.06l.06.06A7,7,0,0,0,1376.82,486.91Z"/><path class="cls-11" d="M1422.73,639.86a6.93,6.93,0,0,0,0-9.76,6.86,6.86,0,1,0,0,9.76Z"/><path class="cls-10" d="M1325.63,442.41a2.08,2.08,0,0,0-3-2.91h0a2,2,0,0,0,0,2.86l0,.05a2.12,2.12,0,0,0,3,0Z"/><path class="cls-11" d="M1338.12,529a2.1,2.1,0,0,0,0-3h0a2.08,2.08,0,0,0-2.9,3h0A2.11,2.11,0,0,0,1338.12,529Z"/><path class="cls-11" d="M1365.13,693.6a2.11,2.11,0,1,0-3,0A2.2,2.2,0,0,0,1365.13,693.6Z"/><path class="cls-11" d="M1346,667.39a2.11,2.11,0,1,0-3,0A2.2,2.2,0,0,0,1346,667.39Z"/><path class="cls-10" d="M1274.45,540.65a25.42,25.42,0,1,0-36-1.14,25.42,25.42,0,0,0,36,1.14Z"/><path class="cls-2" d="M1137.85,590.17a12.66,12.66,0,1,0-17.88-.94c.09.11.19.22.29.32A12.75,12.75,0,0,0,1137.85,590.17Z"/><path class="cls-10" d="M1366.62,589.82a12.58,12.58,0,1,0-17.77-.73l.18.2A12.67,12.67,0,0,0,1366.62,589.82Z"/><path class="cls-10" d="M1274.45,381.1a12.67,12.67,0,1,0-17.89-.93l.29.32A12.59,12.59,0,0,0,1274.45,381.1Z"/><path class="cls-10" d="M1115,472a12.67,12.67,0,1,0-17.9-.85c.1.11.2.22.31.32A12.66,12.66,0,0,0,1115,472Z"/><path class="cls-10" d="M1549.12,511.45a12.66,12.66,0,1,0-17.88-.93l.29.31A12.66,12.66,0,0,0,1549.12,511.45Z"/><path class="cls-10" d="M1457.65,290a12.66,12.66,0,1,0-17.88-.93c.09.11.19.21.29.32A12.76,12.76,0,0,0,1457.65,290Z"/><path class="cls-2" d="M1624.24,313.64a6.07,6.07,0,1,0-.22.22C1624.09,313.79,1624.17,313.72,1624.24,313.64Z"/><path class="cls-10" d="M1311.65,692.63a7.39,7.39,0,1,0-10.47,0,7.39,7.39,0,0,0,10.47,0Z"/><path class="cls-2" d="M1297.31,482.34a7.39,7.39,0,1,0-10.46,0,7.39,7.39,0,0,0,10.46,0Z"/><path class="cls-2" d="M1202.32,479.52a5.17,5.17,0,1,0-7.59-.48l.29.31a4.93,4.93,0,0,0,7,.51C1202.09,479.75,1202.21,479.64,1202.32,479.52Z"/><path class="cls-2" d="M1188.16,479.17a7.3,7.3,0,1,0-10.32,0l0,0A7.3,7.3,0,0,0,1188.16,479.17Z"/><path class="cls-2" d="M1185.61,496.5a4,4,0,1,0-5.72,0h0A4.13,4.13,0,0,0,1185.61,496.5Z"/><path class="cls-10" d="M1255.36,616a5.19,5.19,0,1,0-7.39,0A5.28,5.28,0,0,0,1255.36,616Z"/><path class="cls-10" d="M1407.61,637.4a5.28,5.28,0,0,0,0-7.39,5.19,5.19,0,0,0-7.34,0l0,0a5.23,5.23,0,0,0,7.12,7.65Z"/><path class="cls-2" d="M1287.81,624.12a12.84,12.84,0,1,0-18.2-.53A12.85,12.85,0,0,0,1287.81,624.12Z"/><path class="cls-12" d="M579.61,1170.92c-11.78,39.14-75,115.22-114.34,103.44S426,1167.41,437.74,1128.27a74.07,74.07,0,1,1,141.87,42.65Z"/><path class="cls-13" d="M579.61,1170.92c-11.78,39.14-75,115.22-114.34,103.44S426,1167.41,437.74,1128.27a74.07,74.07,0,1,1,141.87,42.65Z"/><path class="cls-14" d="M504.59,1079.63a71.5,71.5,0,0,1,58.66,27.26c11.88,16.8,4.84,32-15.74,33.87a71.43,71.43,0,0,1-58.66-27.27C477,1096.25,484,1081.12,504.59,1079.63Z"/><path class="cls-15" d="M504.59,1079.63a71.5,71.5,0,0,1,58.66,27.26c11.88,16.8,4.84,32-15.74,33.87a71.43,71.43,0,0,1-58.66-27.27C477,1096.25,484,1081.12,504.59,1079.63Z"/><path class="cls-2" d="M482.86,1098.45a27.65,27.65,0,0,1,15.66-5.8,71.77,71.77,0,0,1,58.67,27.26,29.34,29.34,0,0,1,5.71,14.78c7.48-6.34,8.09-16.89,0-28.15a71.47,71.47,0,0,0-58.66-27.26C490.34,1080.51,482.86,1088.42,482.86,1098.45Z"/><path class="cls-16" d="M573.46,1059.22a5.89,5.89,0,1,0,5.71,6.07v-.09A5.89,5.89,0,0,0,573.46,1059.22Z"/><path class="cls-2" d="M518.49,1018.68a14.39,14.39,0,1,0,.09,0Z"/><path class="cls-16" d="M602.74,985.52A8.27,8.27,0,0,0,601,1002a9.65,9.65,0,0,0,1.7,0,8.8,8.8,0,0,0,8.8-8,8.27,8.27,0,0,0-8.07-8.46C603.23,985.5,603,985.5,602.74,985.52Z"/><path class="cls-2" d="M569.76,991.67a5.63,5.63,0,0,0-5.71,5.54h0a5.54,5.54,0,0,0,5.36,5.71h.09a5.63,5.63,0,1,0,0-11.26h.25Z"/><path class="cls-2" d="M576,979.36a3.87,3.87,0,1,0,3.78,4,3.87,3.87,0,0,0-3.78-4Z"/><path class="cls-16" d="M528.6,1087.9a8.18,8.18,0,1,0,7.91,8.43v-.08A8.19,8.19,0,0,0,528.6,1087.9Z"/><path class="cls-2" d="M553.23,1085.17a12.23,12.23,0,1,0,11.87,12.57v-.08A12.22,12.22,0,0,0,553.23,1085.17Z"/><circle class="cls-17" cx="684.63" cy="924.83" r="111.44"/><circle class="cls-18" cx="684.66" cy="924.86" r="111.44" transform="translate(-453.44 755.01) rotate(-45)"/><path class="cls-19" d="M1240.14,1127.12c0,216.19-128.76,391.57-287.6,391.57s-287.61-175.2-287.61-391.57S793.69,845.67,952.54,845.67,1240.14,910.85,1240.14,1127.12Z"/><path class="cls-20" d="M1240.14,1127.12c0,216.19-128.76,391.57-287.6,391.57s-287.61-175.2-287.61-391.57S793.69,845.67,952.54,845.67,1240.14,910.85,1240.14,1127.12Z"/><ellipse class="cls-14" cx="952.54" cy="962.3" rx="196.31" ry="113.37"/><ellipse class="cls-21" cx="952.54" cy="962.3" rx="196.31" ry="113.37"/><path class="cls-2" d="M813.75,912.52c76.69-44,201-44,277.58,0,31.66,18.29,50.22,41.25,55.76,65.08,7.83-33.86-10.73-69.31-55.76-95.25-76.61-44-200.89-44-277.58,0-45,25.94-63.6,61.57-55.77,95.25C763.52,953.59,781.91,930.64,813.75,912.52Z"/><path class="cls-22" d="M866.87,543.55c0,52.77-37,117-82.77,143.45s-82.76,4.93-82.76-47.84,37-117,82.76-143.37S866.87,490.78,866.87,543.55Z"/><circle class="cls-23" cx="963.97" cy="691.75" r="293.32"/><circle class="cls-24" cx="963.97" cy="691.75" r="293.32"/><ellipse class="cls-14" cx="788.74" cy="766.74" rx="74.5" ry="129.03" transform="translate(-234.09 361.99) rotate(-22.6)"/><ellipse class="cls-25" cx="788.74" cy="766.74" rx="74.5" ry="129.03" transform="translate(-234.09 361.99) rotate(-22.6)"/><path class="cls-2" d="M834.68,780.59c-2.73,21-18.56,27.61-35.18,14.77A73.32,73.32,0,0,1,774,733.8c2.73-21,18.56-27.62,35.18-14.78A73.26,73.26,0,0,1,834.68,780.59Z"/><path class="cls-2" d="M797.39,862.82C751.12,827.64,719.81,752.09,727,694.39c3.08-23.57,12.05-40.46,24.89-49.87-24.18,2.2-42.48,22.69-47.14,58.23-7.48,57.7,23.92,133.16,70.36,168.43,27.36,20.93,53.74,23.13,72.3,9.41A73.23,73.23,0,0,1,797.39,862.82Z"/><path class="cls-2" d="M779.18,869.33c-46.26-35.18-77.66-110.73-70.36-168.43,3.43-26.39,14.69-44.94,30.25-53.3-17.59,7.3-30.52,26.39-34.3,55.15-7.48,57.7,23.92,133.16,70.36,168.43,24.81,19,48.82,22.51,66.94,12.84C824.56,891.23,802.22,886.92,779.18,869.33Z"/><circle class="cls-26" cx="1268.73" cy="1201.53" r="111.44"/><circle class="cls-27" cx="1268.73" cy="1201.53" r="111.44"/><path class="cls-14" d="M1375.77,1203.64a108.89,108.89,0,0,1-49.26,85.32c-27.17,15.74-49.25,3-49.25-28.41a109.09,109.09,0,0,1,49.25-85.32C1353.6,1159.58,1375.77,1172.24,1375.77,1203.64Z"/><path class="cls-28" d="M1375.77,1203.64a108.89,108.89,0,0,1-49.26,85.32c-27.17,15.74-49.25,3-49.25-28.41a109.09,109.09,0,0,1,49.25-85.32C1353.6,1159.58,1375.77,1172.24,1375.77,1203.64Z"/><path class="cls-2" d="M1349.65,1168.55a42.59,42.59,0,0,1,6.5,24.54,108.63,108.63,0,0,1-49.16,85.23,44,44,0,0,1-23.13,6.68c8.79,12.22,24.36,14.51,42.65,4a108.89,108.89,0,0,0,49.26-85.32C1375.77,1181.92,1365.21,1169.16,1349.65,1168.55Z"/><polygon class="cls-14" points="1211.56 799.06 1105.31 860.45 1105.31 737.75 1211.56 676.36 1211.56 799.06"/><polygon class="cls-29" points="1195.73 685.51 1195.73 790.52 1105.31 842.77 1105.31 860.45 1211.56 799.06 1211.56 676.36 1195.73 685.51"/><polygon class="cls-2" points="1125.54 771.26 1116.04 776.8 1116.04 765.81 1125.54 760.27 1125.54 771.26"/><polygon class="cls-2" points="1145.77 745.49 1136.27 751.03 1136.27 740.04 1145.77 734.5 1145.77 745.49"/><polygon class="cls-2" points="1166 747.96 1156.5 753.41 1156.5 742.41 1166 736.96 1166 747.96"/><polygon class="cls-2" points="1166 776.8 1156.5 782.26 1156.5 771.26 1166 765.81 1166 776.8"/><polygon class="cls-2" points="1153.86 798.97 1144.27 804.42 1144.27 793.43 1153.86 787.98 1153.86 798.97"/><polygon class="cls-2" points="1186.84 764.75 1177.35 770.21 1177.35 759.21 1186.84 753.76 1186.84 764.75"/><polygon class="cls-30" points="1297.22 766.78 1308.84 746.55 1297.22 739.86 1190.89 801.26 1190.89 923.95 1202.59 930.63 1214.2 910.49 1297.22 862.56 1297.22 766.78"/><polygon class="cls-31" points="1308.84 869.33 1202.59 930.63 1202.59 807.94 1308.84 746.55 1308.84 869.33"/><polygon class="cls-32" points="1308.84 869.33 1202.59 930.63 1202.59 807.94 1308.84 746.55 1308.84 869.33"/><polygon class="cls-2" points="1184.03 763 1182.01 761.06 1299.51 635.46 1633.82 635.46 1757.13 512.15 1757.13 9.59 1759.95 9.59 1759.95 513.38 1759.51 513.74 1634.97 638.28 1300.74 638.28 1184.03 763"/><polygon class="cls-2" points="1757.49 387.17 1699.52 329.12 1699.52 122.34 1702.34 122.34 1702.34 327.98 1759.51 385.15 1757.49 387.17"/><polygon class="cls-2" points="1400.92 637.93 1398.99 635.9 1464.69 570.11 1607.61 570.11 1676.22 501.6 1678.24 503.53 1608.84 572.93 1465.83 572.93 1400.92 637.93"/><path class="cls-2" d="M1677.27,512.06a9.59,9.59,0,1,1,9.5-9.67v.18A9.49,9.49,0,0,1,1677.27,512.06Z"/><path class="cls-2" d="M1581,448a9.59,9.59,0,1,1,9.59-9.59v.09a9.5,9.5,0,0,1-9.5,9.5Z"/><circle class="cls-2" cx="1657.22" cy="344.51" r="9.5"/><circle class="cls-2" cx="1619.66" cy="105.98" r="9.5"/><path class="cls-2" d="M1700.93,131.84a9.5,9.5,0,1,1,9.5-9.5h0A9.5,9.5,0,0,1,1700.93,131.84Z"/><path class="cls-2" d="M1758.19,19.17a9.59,9.59,0,1,1,9.5-9.67v.17A9.58,9.58,0,0,1,1758.19,19.17Z"/><path class="cls-2" d="M1303.56,417.78a9.59,9.59,0,1,1,9.58-9.59h0a9.5,9.5,0,0,1-9.41,9.59Z"/><polygon class="cls-2" points="1122.2 768.54 1119.38 768.54 1119.38 712.95 1119.82 712.51 1252.9 577.33 1252.9 385.59 1253.34 385.15 1363.28 275.21 1579.91 275.21 1618.26 236.86 1618.26 105.98 1620.98 105.98 1620.98 238 1620.63 238.44 1581.05 278.02 1364.42 278.02 1255.71 386.73 1255.71 578.56 1255.27 578.91 1122.2 714.09 1122.2 768.54"/><polygon class="cls-2" points="1255.27 533.61 1253.34 531.59 1302.15 482.78 1302.15 408.19 1304.96 408.19 1304.96 483.92 1304.61 484.36 1255.27 533.61"/><polygon class="cls-2" points="1141.99 744.61 1140.05 742.59 1445.6 437.04 1578.85 437.04 1578.85 439.86 1446.83 439.86 1141.99 744.61"/><polygon class="cls-2" points="1390.63 495.44 1387.82 495.44 1387.82 398.08 1388.17 397.73 1442.79 343.11 1657.22 343.11 1657.22 345.92 1443.93 345.92 1390.63 399.22 1390.63 495.44"/><path class="cls-33" d="M1344.81,1514.29c-11.79,39.14-75,115.14-114.34,103.35s-39.23-106.86-27.44-146a74,74,0,0,1,142.68,39.08q-.49,1.8-1.08,3.57Z"/><path class="cls-34" d="M1344.81,1514.29c-11.79,39.14-75,115.14-114.34,103.35s-39.23-106.86-27.44-146a74,74,0,0,1,142.68,39.08q-.49,1.8-1.08,3.57Z"/><path class="cls-14" d="M1269.87,1422.65a71.23,71.23,0,0,1,58.67,27.17c11.87,16.89,4.83,32.11-15.66,34a71.76,71.76,0,0,1-58.75-27.26C1242.34,1439.62,1249.38,1424.41,1269.87,1422.65Z"/><path class="cls-35" d="M1269.87,1422.65a71.23,71.23,0,0,1,58.67,27.17c11.87,16.89,4.83,32.11-15.66,34a71.76,71.76,0,0,1-58.75-27.26C1242.34,1439.62,1249.38,1424.41,1269.87,1422.65Z"/><path class="cls-2" d="M1248.06,1441.73a28.14,28.14,0,0,1,15.66-5.71,71.59,71.59,0,0,1,58.75,27.26,29.22,29.22,0,0,1,5.71,14.69c7.39-6.25,8-16.8,0-28.15a71.22,71.22,0,0,0-58.66-27.17C1255.62,1423.88,1248.06,1431.44,1248.06,1441.73Z"/><path class="cls-16" d="M1327.92,1375.68a5.81,5.81,0,0,0,.06-8.21l-.06-.06a5.71,5.71,0,0,0-8.08-.09l-.1.09a5.92,5.92,0,0,0,7.92,8.8Z"/><path class="cls-2" d="M1395.65,1366.09a14.69,14.69,0,1,0-20.85-.7A14.69,14.69,0,0,0,1395.65,1366.09Z"/><path class="cls-16" d="M1358.79,1449a8.27,8.27,0,1,0-11.69-.08l.08.08A8.26,8.26,0,0,0,1358.79,1449Z"/><circle class="cls-2" cx="1373.83" cy="1416.84" r="5.63"/><path class="cls-2" d="M1382.1,1434.43a3.87,3.87,0,1,0-4.83-6,3.47,3.47,0,0,0-.45.41,3.87,3.87,0,0,0,5.28,5.63Z"/><path class="cls-16" d="M1339.88,1323.7a8.09,8.09,0,0,0,.53-11.43l-.09-.09a8.26,8.26,0,0,0-11.61,0,8.18,8.18,0,1,0,10.18,12.81,8.8,8.8,0,0,0,1-.94Z"/><path class="cls-2" d="M1324.14,1343a12.25,12.25,0,1,0-.32.3Z"/></g></g></g></svg>