<svg xmlns="http://www.w3.org/2000/svg" xmlns:xlink="http://www.w3.org/1999/xlink" viewBox="0 0 1951.73 1748.18"><defs><style>.cls-1{opacity:0.3;}.cls-2{fill:#42e8e0;}.cls-3,.cls-8{opacity:0.11;}.cls-4{fill:url(#linear-gradient);}.cls-5{fill:url(#linear-gradient-2);}.cls-6{fill:url(#linear-gradient-3);}.cls-7{fill:url(#linear-gradient-4);}.cls-13,.cls-15,.cls-8{isolation:isolate;}.cls-8{fill:url(#linear-gradient-5);}.cls-9{fill:url(#linear-gradient-6);}.cls-10{fill:url(#linear-gradient-7);}.cls-11{fill:url(#linear-gradient-8);}.cls-12{fill:url(#linear-gradient-9);}.cls-13,.cls-56{opacity:0.5;}.cls-13{fill:url(#linear-gradient-10);}.cls-14{fill:url(#linear-gradient-12);}.cls-15{fill:#180d5b;opacity:0.2;}.cls-16{fill:#160a5b;}.cls-17{fill:#24126a;}.cls-18{fill:url(#linear-gradient-13);}.cls-19{fill:url(#linear-gradient-14);}.cls-20{fill:url(#linear-gradient-15);}.cls-21{fill:#f0f6ff;}.cls-22{fill:#fcd1c5;}.cls-23{fill:url(#linear-gradient-16);}.cls-24{fill:url(#linear-gradient-17);}.cls-25{fill:#453c9e;}.cls-26{fill:#aa8383;}.cls-27{fill:#c4ccd6;}.cls-28{fill:#e2b1a6;}.cls-29{fill:#936d6d;}.cls-30{fill:url(#linear-gradient-18);}.cls-31{fill:url(#linear-gradient-19);}.cls-32{fill:url(#linear-gradient-20);}.cls-33{fill:#4846a5;}.cls-34{fill:url(#linear-gradient-21);}.cls-35{fill:url(#linear-gradient-22);}.cls-36{fill:#722318;}.cls-37{fill:url(#linear-gradient-23);}.cls-38{fill:url(#radial-gradient);}.cls-39{fill:url(#linear-gradient-24);}.cls-40{fill:url(#radial-gradient-2);}.cls-41{fill:url(#linear-gradient-25);}.cls-42{fill:url(#radial-gradient-3);}.cls-43{fill:url(#linear-gradient-26);}.cls-44{fill:#393091;}.cls-45{fill:url(#radial-gradient-4);}.cls-46{fill:#bcbeff;}.cls-47{fill:url(#radial-gradient-5);}.cls-48{fill:url(#linear-gradient-27);}.cls-49{fill:url(#radial-gradient-6);}.cls-50{fill:url(#linear-gradient-28);}.cls-51{fill:#fff;}.cls-52{fill:url(#radial-gradient-7);}.cls-53{fill:url(#linear-gradient-29);}.cls-54{fill:url(#radial-gradient-8);}.cls-55{fill:url(#linear-gradient-30);}.cls-57{fill:#25bfec;}.cls-58{fill:#05a4c9;}.cls-59{fill:#00afa2;}</style><linearGradient id="linear-gradient" x1="622.59" y1="390.64" x2="1235.77" y2="390.64" gradientTransform="translate(1892.9 1748.01) rotate(180)" gradientUnits="userSpaceOnUse"><stop offset="0" stop-color="#5761d7"/><stop offset="0.07" stop-color="#5472d8"/><stop offset="0.28" stop-color="#4e9cdb"/><stop offset="0.48" stop-color="#49bddd"/><stop offset="0.67" stop-color="#45d5df"/><stop offset="0.85" stop-color="#43e3e0"/><stop offset="1" stop-color="#42e8e0"/></linearGradient><linearGradient id="linear-gradient-2" x1="622.59" y1="437.8" x2="1235.77" y2="437.8" xlink:href="#linear-gradient"/><linearGradient id="linear-gradient-3" x1="622.59" y1="484.98" x2="1235.77" y2="484.98" xlink:href="#linear-gradient"/><linearGradient id="linear-gradient-4" x1="622.59" y1="532.14" x2="1235.77" y2="532.14" xlink:href="#linear-gradient"/><linearGradient id="linear-gradient-5" x1="622.59" y1="461.39" x2="1235.77" y2="461.39" xlink:href="#linear-gradient"/><linearGradient id="linear-gradient-6" x1="557.35" y1="612.22" x2="1300.93" y2="612.22" xlink:href="#linear-gradient"/><linearGradient id="linear-gradient-7" x1="557.39" y1="669.41" x2="1300.92" y2="669.41" xlink:href="#linear-gradient"/><linearGradient id="linear-gradient-8" x1="557.34" y1="726.61" x2="1300.93" y2="726.61" xlink:href="#linear-gradient"/><linearGradient id="linear-gradient-9" x1="557.35" y1="783.81" x2="1300.93" y2="783.81" xlink:href="#linear-gradient"/><linearGradient id="linear-gradient-10" x1="557.37" y1="698.01" x2="1300.9" y2="698.01" xlink:href="#linear-gradient"/><linearGradient id="linear-gradient-12" x1="557.35" y1="680.73" x2="1300.94" y2="680.73" xlink:href="#linear-gradient"/><linearGradient id="linear-gradient-13" x1="1321.93" y1="797.06" x2="1662.79" y2="711.56" gradientTransform="matrix(1, 0, 0, -1, 0, 1748.01)" gradientUnits="userSpaceOnUse"><stop offset="0" stop-color="#42e8e0"/><stop offset="0" stop-color="#42e6df"/><stop offset="0.14" stop-color="#40b6cb"/><stop offset="0.27" stop-color="#3e8db9"/><stop offset="0.41" stop-color="#3c6baa"/><stop offset="0.55" stop-color="#3b519f"/><stop offset="0.69" stop-color="#3a3f97"/><stop offset="0.84" stop-color="#393493"/><stop offset="1" stop-color="#393091"/></linearGradient><linearGradient id="linear-gradient-14" x1="-316.4" y1="1049.96" x2="-621.9" y2="1099.74" gradientTransform="translate(995.97 1748.01) rotate(180)" xlink:href="#linear-gradient-13"/><linearGradient id="linear-gradient-15" x1="2231.02" y1="960" x2="2309.39" y2="960" gradientTransform="matrix(1, 0.06, 0.06, -1, -898.97, 1655.59)" xlink:href="#linear-gradient"/><linearGradient id="linear-gradient-16" x1="-298.94" y1="1078.27" x2="-446.31" y2="1149.87" gradientTransform="translate(995.97 1748.01) rotate(180)" xlink:href="#linear-gradient-13"/><linearGradient id="linear-gradient-17" x1="-383.38" y1="1013.28" x2="-642.81" y2="1116.04" gradientTransform="translate(995.97 1748.01) rotate(180)" xlink:href="#linear-gradient-13"/><linearGradient id="linear-gradient-18" x1="510.32" y1="431" x2="223.6" y2="314.34" xlink:href="#linear-gradient-13"/><linearGradient id="linear-gradient-19" x1="488.54" y1="820.64" x2="181.91" y2="756.17" xlink:href="#linear-gradient-13"/><linearGradient id="linear-gradient-20" x1="224.24" y1="1074.12" x2="237.15" y2="1074.12" gradientTransform="matrix(-1, -0.09, 0.09, -1, 393.25, 1794.42)" xlink:href="#linear-gradient"/><linearGradient id="linear-gradient-21" x1="706.57" y1="463.7" x2="413.68" y2="333.38" gradientTransform="matrix(1, 0, 0, -1, 0, 1748.01)" gradientUnits="userSpaceOnUse"><stop offset="0" stop-color="#42e8e0"/><stop offset="0.11" stop-color="#40c1cf"/><stop offset="0.25" stop-color="#3e91bb"/><stop offset="0.4" stop-color="#3c6cab"/><stop offset="0.53" stop-color="#3b519f"/><stop offset="0.64" stop-color="#3a4198"/><stop offset="0.73" stop-color="#3a3b96"/><stop offset="0.84" stop-color="#393493"/><stop offset="1" stop-color="#393091"/></linearGradient><linearGradient id="linear-gradient-22" x1="13.81" y1="475.97" x2="36.47" y2="475.97" gradientTransform="matrix(-1, -0.09, 0.09, -1, 393.25, 1794.42)" xlink:href="#linear-gradient"/><linearGradient id="linear-gradient-23" x1="-29.06" y1="518.9" x2="-6.45" y2="518.9" gradientTransform="matrix(-1, -0.09, 0.09, -1, 393.25, 1794.42)" xlink:href="#linear-gradient"/><radialGradient id="radial-gradient" cx="-2212.21" cy="2640.14" fy="2649.167196105899" r="138.73" gradientTransform="matrix(0.66, 0.64, 1.06, -1.08, -553.15, 4966.3)" gradientUnits="userSpaceOnUse"><stop offset="0" stop-color="#c0bff6"/><stop offset="1" stop-color="#393091"/></radialGradient><linearGradient id="linear-gradient-24" x1="-2336.59" y1="1029.61" x2="-2401.53" y2="942.88" gradientTransform="matrix(0.66, 0.64, 0.8, -0.82, 1460.28, 3100.84)" xlink:href="#linear-gradient-13"/><radialGradient id="radial-gradient-2" cx="557.71" cy="1721.7" fy="1721.7014542330044" r="414.32" gradientTransform="matrix(0.95, 0.32, 0.32, -0.95, 84.3, 1869.68)" xlink:href="#radial-gradient"/><linearGradient id="linear-gradient-25" x1="640.65" y1="770.75" x2="784.24" y2="770.75" gradientTransform="matrix(0.98, -0.22, -0.22, -0.98, 264.83, 1501.9)" xlink:href="#linear-gradient-13"/><radialGradient id="radial-gradient-3" cx="1677.56" cy="927.37" fy="927.3686718276376" r="409.32" gradientTransform="matrix(0.78, 0, 0, -1.06, -229.93, 1671.4)" xlink:href="#radial-gradient"/><linearGradient id="linear-gradient-26" x1="1533.28" y1="653.5" x2="1533.28" y2="1062.34" gradientTransform="matrix(0.78, 0, 0, -1.06, -229.93, 1671.4)" xlink:href="#linear-gradient-13"/><radialGradient id="radial-gradient-4" cx="779.42" cy="1596.32" fy="1596.3243029886808" r="224.28" gradientTransform="matrix(1, 0, 0, -1, 0, 1748.01)" xlink:href="#radial-gradient"/><radialGradient id="radial-gradient-5" cx="1091.33" cy="1330.93" fy="1330.9342883402396" r="319.47" gradientTransform="matrix(1, 0, 0, -1, 0, 1748.01)" xlink:href="#radial-gradient"/><linearGradient id="linear-gradient-27" x1="947.07" y1="1115.74" x2="999.67" y2="1490.13" xlink:href="#linear-gradient-13"/><radialGradient id="radial-gradient-6" cx="1088.78" cy="1334.33" fy="1334.334282236724" r="151.72" gradientTransform="matrix(1, 0, 0, -1, 0, 1748.01)" xlink:href="#radial-gradient"/><linearGradient id="linear-gradient-28" x1="1058.21" y1="1182.73" x2="1111.52" y2="1329.19" xlink:href="#linear-gradient-13"/><radialGradient id="radial-gradient-7" cx="695.95" cy="1448.03" fy="1448.025551040385" r="149.75" gradientTransform="matrix(0.98, 0.19, 0.19, -0.98, 255.42, 1947.29)" xlink:href="#radial-gradient"/><linearGradient id="linear-gradient-29" x1="614.6" y1="1341.17" x2="712.15" y2="1446.5" gradientTransform="matrix(0.98, 0.19, 0.19, -0.98, 255.42, 1947.29)" xlink:href="#linear-gradient-13"/><radialGradient id="radial-gradient-8" cx="1094.96" cy="2632.77" fy="2641.7930330169283" r="138.73" gradientTransform="matrix(0.91, 0.11, 0.18, -1.5, -160.72, 4720.88)" xlink:href="#radial-gradient"/><linearGradient id="linear-gradient-30" x1="1023.9" y1="697.63" x2="1132.25" y2="697.63" gradientTransform="matrix(0.91, 0.11, 0.14, -1.14, 155.83, 1636.67)" xlink:href="#linear-gradient-13"/></defs><g id="Layer_2" data-name="Layer 2"><g id="Layer_1-2" data-name="Layer 1"><g id="Layer_2-2" data-name="Layer 2"><g id="ROBOT_HUMAINS" data-name="ROBOT HUMAINS"><g class="cls-1"><path class="cls-2" d="M1527.56,788.45c5.89,33.3,30.59,117,132.52,174.92,145.09,67,245.59,155.07,279.26,253.41a224.83,224.83,0,0,0,8.76,21.19c3.61-6,3.61-6,3.63-20.38V1052.48c-.07-97-5.5-118.32-12.39-145.38-33.67-98.34-134.17-186.41-279.26-253.41-115.75-37.37-143.77,71.15-132.52,134.76Z"/><path class="cls-2" d="M463.61,590.34c153.61-44.56,335.33-69.65,529.29-68.06q38.39.33,76,2c170.31,15.55,230.88,195.41,128.2,274.1C1150,834.5,1093.16,834.12,1068.9,834q-37.61-1.68-76-2c-194-1.59-375.68,23.5-529.29,68.06-155.1,37.79-164.27-119.84-110-216.25,18.25-32.43,52.14-75,110-93.43Z"/><path class="cls-2" d="M0,1290.19c4.23-49.08,7.57-87.86,57.54-155.52C162.9,979.21,141.62,798.54,83.43,806.88c-9.38,1.35-19.14,11.46-25.89,18.11C22.18,871.08,2.07,920.64.15,972.36Q0,976.44,0,980.51Z"/></g><g class="cls-3"><path class="cls-4" d="M940,1189.87a47,47,0,0,1,47,0l280,161.29a6.61,6.61,0,0,1,2.42,9,6.53,6.53,0,0,1-2.42,2.42l-282.34,163a41.49,41.49,0,0,1-41.46,0L660.43,1362.74a6.63,6.63,0,0,1,0-11.45Z"/></g><g class="cls-3"><path class="cls-5" d="M940,1142.7a47,47,0,0,1,47,0L1267,1304a6.61,6.61,0,0,1,2.42,9,6.53,6.53,0,0,1-2.42,2.42l-282.34,163a41.49,41.49,0,0,1-41.46,0L660.43,1315.57a6.63,6.63,0,0,1,0-11.45Z"/></g><g class="cls-3"><path class="cls-6" d="M940,1095.53a47,47,0,0,1,47,0l280,161.28a6.62,6.62,0,0,1,0,11.46l-282.34,163a41.49,41.49,0,0,1-41.46,0L660.43,1268.4a6.63,6.63,0,0,1,0-11.45Z"/></g><g class="cls-3"><path class="cls-7" d="M940,1048.36a47,47,0,0,1,47,0l280,161.29a6.62,6.62,0,0,1,0,11.46l-282.34,163a41.49,41.49,0,0,1-41.46,0L660.43,1221.23a6.63,6.63,0,0,1,0-11.45Z"/></g><path class="cls-8" d="M660.43,1209.78,940,1048.36a47,47,0,0,1,47,0l280,161.29a6.59,6.59,0,0,1,3.31,5.73v141.51a6.55,6.55,0,0,1-3.31,5.73l-282.34,163a41.49,41.49,0,0,1-41.46,0L660.43,1362.74a6.54,6.54,0,0,1-3.3-5.73V1215.5h0A6.57,6.57,0,0,1,660.43,1209.78Z"/><g class="cls-3"><path class="cls-9" d="M935,932.69a57,57,0,0,1,57,0l339.53,195.57a8,8,0,0,1,0,13.88L989.12,1339.78a50.27,50.27,0,0,1-50.27,0L596,1142.31a8,8,0,0,1,0-13.89Z"/></g><g class="cls-3"><path class="cls-10" d="M935,875.5a57,57,0,0,1,57,0L1331.48,1071a8,8,0,0,1,3,10.92,7.84,7.84,0,0,1-3,3l-342.36,197.7a50.27,50.27,0,0,1-50.27,0L596,1085.11a8,8,0,0,1-3-10.92,8.08,8.08,0,0,1,3-3Z"/></g><g class="cls-3"><path class="cls-11" d="M935,818.3a57,57,0,0,1,57,0l339.53,195.57a8,8,0,0,1,3,10.92,7.84,7.84,0,0,1-3,3L989.12,1225.39a50.27,50.27,0,0,1-50.27,0L596,1027.92a8,8,0,0,1,0-13.89Z"/></g><g class="cls-3"><path class="cls-12" d="M935,761.1a57.06,57.06,0,0,1,57,0l339.53,195.58a8,8,0,0,1,0,13.88L989.12,1168.19a50.27,50.27,0,0,1-50.27,0L596,970.72a8,8,0,0,1,0-13.89Z"/></g><path class="cls-13" d="M596,956.83,935,761.1a57.06,57.06,0,0,1,57,0l339.53,195.58a7.93,7.93,0,0,1,4,6.94v171.59a7.92,7.92,0,0,1-4,6.94L989.12,1339.78a50.27,50.27,0,0,1-50.27,0L596,1142.31a7.92,7.92,0,0,1-4-6.94V963.78h0A8,8,0,0,1,596,956.83Z"/><g class="cls-3"><path class="cls-12" d="M935,761.1a57.06,57.06,0,0,1,57,0l339.53,195.58a8,8,0,0,1,0,13.88L989.12,1168.19a50.27,50.27,0,0,1-50.27,0L596,970.72a8,8,0,0,1,0-13.89Z"/></g><path class="cls-14" d="M596,962.82l342.88,197.47a50.27,50.27,0,0,0,50.27,0l342.36-197.66a7.93,7.93,0,0,0,3-3,8,8,0,0,1-3,10.89L989.12,1168.19a50.27,50.27,0,0,1-50.27,0L596,970.72a8,8,0,0,1-3-10.89A7.9,7.9,0,0,0,596,962.82Z"/><ellipse class="cls-15" cx="963.72" cy="964.2" rx="186.93" ry="107.92"/><path class="cls-16" d="M1481.35,1155.31s-4.55,4.74-9.26,10.32-18,13.35-23.54,16.81-31.08,22.79-36.42,41.84,12.9,21.56,31.55,18.25,36.08-20.51,41.15-26.72,22.73-20.32,45.61-32.16,9-27.77,9-27.77Z"/><path class="cls-16" d="M1651.27,1211.88a70.71,70.71,0,0,1,4.84,19.57c1.07,11,2.61,34.89,3.18,41.88a59,59,0,0,1-11.49,40.44c-12.29,16.36-18.64,22.82-35,16.39s-16-33.86-13.08-48,5.58-45.66,5.28-49a9.89,9.89,0,0,1,.94-5.43Z"/><path class="cls-17" d="M1425,831.79s3.44,125.74,32.75,192.49c0,0,21,58.79,23.76,128.72,0,0-4.84,12,2,21.83s49.9,18.75,57-13.41,4.38-92.32-3.43-117.41,2.78-94.24,2.78-94.24,11.76,7.51,27.17,57.19,26.76,68.64,32.07,82.36,10.17,97.92,6.81,139c0,0,34.84,4.94,44.92-11.71s13.44-102.82,10.89-130.29-14-115.46-12.47-142.69,7.26-49.35,1-76.54-190.08-87.62-190.08-87.62Z"/><path class="cls-18" d="M1425,831.79s3.44,125.74,32.75,192.49c0,0,21,58.79,23.76,128.72,0,0-4.84,12,2,21.83s49.9,18.75,57-13.41,4.38-92.32-3.43-117.41,2.78-94.24,2.78-94.24,11.76,7.51,27.17,57.19,26.76,68.64,32.07,82.36,10.17,97.92,6.81,139c0,0,34.84,4.94,44.92-11.71s13.44-102.82,10.89-130.29-14-115.46-12.47-142.69,7.26-49.35,1-76.54-190.08-87.62-190.08-87.62Z"/><path class="cls-16" d="M1649.25,943.67c1.58-27.23,7.26-49.35,1-76.54-2.35-10.22-29.79-25.14-63.13-39.78-56.26-5.14-127.62-11.1-132.54-10.35-4.44.67-16.07,5.09-25.71,9l-3.93,5.82s.21,7.65,1,20.14c13.13,3.93,38.38-.13,38.38-.13,3.55,8.83,25.48,40.18,52.74,53.72s107.07,8.89,111.65,14,5.47,74,5,82.75,7.52,63.86,14.94,112.59c7.3,47.94-3.82,106.2-4.18,108.08a19.72,19.72,0,0,0,6.41-6.31c10.07-16.66,13.44-102.82,10.89-130.29S1647.68,970.9,1649.25,943.67Z"/><path class="cls-19" d="M1486.51,420.49s-40.79,9.3-54.51,12.52a7.08,7.08,0,0,0-5,4.31c-4,10-13.9,41.19-6.41,86.68,9.2,55.91,6.28,93.55,6.28,93.55L1408,715.74s-23.72,93.52-21.67,96.08,54.61,42.56,71,36.93,11-14.93,11-14.93,13.31,67.77,72.22,67.12,107-.46,117-24.27-2.73-123.92-13.12-163.56-35.08-118.64-35.08-118.64l86.28-95.5L1622,442.66s-17.61-32.74-24.85-36.9-11-.64-11-.64Z"/><path class="cls-20" d="M1458.42,827.16c0,3.4-1.94,8.47-12.53,12.1-11.43,3.92-39.46-13.11-57.84-25.94,9.18,7.63,54.33,40.58,69.36,35.43a26.92,26.92,0,0,0,7.39-3.69A120.61,120.61,0,0,1,1458.42,827.16Z"/><path class="cls-21" d="M1595.58,405s15.06,18.22-6.61,42.82c-13.34,15.15-36.3,47.8-55.86,81.71-12.21,21.18-23.5,32.48-29.9,50.67,0,0-.9-21.62-1.76-55-.81-31.51-1.23-64.24.18-72.49C1504.53,435.68,1578.93,396.69,1595.58,405Z"/><path class="cls-22" d="M1539.24,459.77s-7.72,4.8-10.38,4.4-11.2-8.7-11.2-8.7-21.39-.39-23.72-9.55-3.88-18.4-6-23.16-11.39-27.61-11.46-36.89.28-25.84-3.73-34.61-9.4-96.54,75.35-94.06,58.42,90.47,58.42,90.47,6.19,2.64,2.44,14-4.58,12.5-6.5,18.12-2.85,9.23-8.24,13.79l-1.4,10.44a41.91,41.91,0,0,1-6.51,31.43C1575.73,450.91,1539.24,459.77,1539.24,459.77Z"/><path class="cls-17" d="M1429.67,434s-9,1.34-38.36,75.1c-16.36,41.16-41.61,83.78-47,114.37s-2.37,63.29,3.68,65.59c5.82,2.22,111.17,41.64,144.14,54.08a3.1,3.1,0,0,0,4-1.81,2.73,2.73,0,0,0,.15-.56l9.09-50.88L1440,664.66s-12.46-15.21-24.16-20.92c0,0,13.11-24.16,12.27-30.75s1.17-74.82-6.49-102.59S1429.67,434,1429.67,434Z"/><path class="cls-23" d="M1429.67,434s-9,1.34-38.36,75.1c-16.36,41.16-41.61,83.78-47,114.37s-2.37,63.29,3.68,65.59c5.82,2.22,111.17,41.64,144.14,54.08a3.1,3.1,0,0,0,4-1.81,2.73,2.73,0,0,0,.15-.56l9.09-50.88L1440,664.66s-12.46-15.21-24.16-20.92c0,0,13.11-24.16,12.27-30.75s1.17-74.82-6.49-102.59S1429.67,434,1429.67,434Z"/><path class="cls-22" d="M1468,629s-9-6-11.23-6.91-14.27-5-16.57-6c-1.7-.76-8.72-.17-12.23.18a3.85,3.85,0,0,0-3,2c-2.78,5.16-10.53,20.18-9.66,25.91,0,0,21.76,13.75,24.2,19.88l3.47.75S1457.53,633.48,1468,629Z"/><path class="cls-17" d="M1644.57,713.11c-2.5-9.53-5.83-21.35-9.44-33.8l-132.4,56.75s39.63,48.74,109.09,45.61c19-.86,32.84-7.71,43-13.6C1651.78,746.4,1648,726.37,1644.57,713.11Z"/><path class="cls-17" d="M1695.77,499s-34.92,4.81-63.12,49.52S1583.88,645,1583.88,645l-1,5.82a23.53,23.53,0,0,1-32.82,17.63C1520.3,655.1,1476.18,635,1468,629c0,0-26.39,14.58-33.58,49-5.75,27.47-4.29,27.56-4.29,27.56s117.57,54.87,163,54.33,103-149.82,109.35-180.68S1715.76,507.69,1695.77,499Z"/><path class="cls-24" d="M1695.77,499s-34.92,4.81-63.12,49.52S1583.88,645,1583.88,645l-1,5.82a23.53,23.53,0,0,1-32.82,17.63C1520.3,655.1,1476.18,635,1468,629c0,0-26.39,14.58-33.58,49-5.75,27.47-4.29,27.56-4.29,27.56s117.57,54.87,163,54.33,103-149.82,109.35-180.68S1715.76,507.69,1695.77,499Z"/><path class="cls-25" d="M1567,675.36s14.83,13.87,21.29,6.27,4.55-8.43,4.55-8.43,13.34-.13,15-8.49,8.19-3.94,8.57-13.26-10.8-7.4-10.8-7.4Z"/><path class="cls-22" d="M1549.05,667.94s4.07-3.79,9.33-8.25,13.77-22.86,15.21-24.49,19.18-15.23,27.73-15.46,2.2,9.33.23,10.68-10.32,5.5-10.32,5.5-8.59,7.22-9.57,8.28,23.89-1.71,27.83.71,3,8.77.25,10.5a9.66,9.66,0,0,1-4.92,1.67s2.8,7.48-4.66,10.95-9.17,1.54-9.17,1.54-.64,12.93-13,10.37Z"/><path class="cls-26" d="M1470.8,306.39s-11.07,35.21,18.06,25.19,55.46-26.78,64.6-20.4c7,4.86,6.65,19.77,6.1,26.6a10.08,10.08,0,0,0,1.75,6.57l8.63,12.55a9.68,9.68,0,0,1,1.67,4.78l.61,8.72a4.39,4.39,0,0,0,4.12,4.07l2,.11a4.35,4.35,0,0,0,4.56-3.61l2.25-12.82s6.85-17.25,21.34-10.48c0,0,9.69-13,6.47-40.85s-15.69-56.77-70.31-61.4S1470.8,306.39,1470.8,306.39Z"/><path class="cls-27" d="M1554.27,490.77l-8.17-6.34s-7.56,6.28-10.5,12.94,0,27.83,0,27.83l-2.5,4.28-3.06-5.6-2.59-25s2.78-18.5,3-19,15.76,1.64,15.76,1.64S1551.65,485.62,1554.27,490.77Z"/><path class="cls-27" d="M1515,465.86s-8.73.58-12.66,3.84c0,0,9.16.45,10.61.62S1515,465.86,1515,465.86Z"/><path class="cls-17" d="M1531.62,467.83l14.65,13.69s-12.86,5.92-16.46,17.43c0,0-16,3-17.4-2.8s0-20.33-1.86-26.78S1531.62,467.83,1531.62,467.83Z"/><path class="cls-17" d="M1513,495.82s-2.72,12-5.7,16.94-6,10.51-6,10.51l.37,70.32s25.86-53.31,31.47-64.11c0,0-.86-25.68-3.3-30.53S1513,495.82,1513,495.82Z"/><path class="cls-28" d="M1582.45,391.9c-17,49-64.79,63.57-64.79,63.57s8.54,8.3,11.2,8.7,10.38-4.4,10.38-4.4,36.49-8.86,47-24.35a41.91,41.91,0,0,0,6.51-31.43l1.4-10.44C1586.6,396,1582.45,391.9,1582.45,391.9Z"/><path class="cls-17" d="M1621.32,449.28s-6.7,23.14-7.57,24-16.85-1-16.85-1l7.76,14.71s-80.46,86.29-97.14,132.71c0,0,38.08-58.84,105.09-129.1l-9.49-14.35,16.45,3.21Z"/><path class="cls-17" d="M1489.15,428.85l-4.26,4.88,5,4.68L1475,451.86s-4.55,94.38,13.62,156.91c0,0-24.66-57.35-19.07-159.48l16.1-10.92-5.27-5.19Z"/><path class="cls-16" d="M1539.86,949.77c.19.14.38.28.55.43L1519.57,928c9.62,13.56-1.46,75.7-2.61,89.92s11.13,43.6,15.73,78-4.82,83.44-4.85,83.58c6-3.45,10.7-9.2,12.67-18.12,7.11-32.15,4.38-92.32-3.43-117.41S1539.86,949.77,1539.86,949.77Z"/><path class="cls-29" d="M1578.33,374.58a4.35,4.35,0,0,0,4.56-3.61l2.25-12.82s6.85-17.25,21.34-10.48c0,0,9.14-12.36,6.67-38.66-16.11,24.17-51.84,35.34-51.84,35.34l8.63,12.55a9.68,9.68,0,0,1,1.67,4.78l.61,8.72a4.39,4.39,0,0,0,4.12,4.07Z"/><path class="cls-16" d="M330.61,1563.9s18.67,4.6,36.75,5.31,67.23,10.57,66,28.91-26.92,44.9-59.1,48.82-73.63-5.35-94.67-4.78-35.42-20.88-27.18-41.43S330.61,1563.9,330.61,1563.9Z"/><path class="cls-16" d="M222.12,1514.57s-6.89,11.1-3.52,17.89,12.39,23.75,41.82,7.36c29.28-16.31,85.85-39.64,85.85-39.64s32.42-17.25,30.64-37.6-31.59-17.21-31.59-17.21Z"/><path class="cls-17" d="M413.13,1225.89s-12.5,132.19-39.07,182.29c-27,50.92-34.44,144.19-40.08,162s-23.15,43.64-50.71,49.1-32.11-13.29-30.74-24.56,9-29.4,9.1-41.58-2.72-17.82-3.14-23.4c0,0-31.58,9.3-36.37-15.17,0,0,2.55-7.11,3-10.76s-2.69-92.13-3.46-102.85,5-68.54,13.78-97.06c8.69-28.25,5.8-88.37,5.8-88.37L331.1,1203Z"/><path class="cls-30" d="M413.13,1225.89s-12.5,132.19-39.07,182.29c-27,50.92-34.44,144.19-40.08,162s-23.15,43.64-50.71,49.1-32.11-13.29-30.74-24.56,9-29.4,9.1-41.58-2.72-17.82-3.14-23.4c0,0-31.58,9.3-36.37-15.17,0,0,2.55-7.11,3-10.76s-2.69-92.13-3.46-102.85,5-68.54,13.78-97.06c8.69-28.25,5.8-88.37,5.8-88.37L331.1,1203Z"/><path class="cls-16" d="M267.83,1225.11s.37,20.63,9,38c0,0-.17,70.25,7.05,105.83,0,0-11.64,71.44-19,94s-6.39,66.86-6.39,66.86a30.68,30.68,0,0,1-8.75,1.52c-5.15.19-5.51-87.33,2.4-102.77S266,1344.9,263,1324.11s-1.93-79.77-5.84-90.2,4.9-15.92,4.9-15.92Z"/><path class="cls-16" d="M343.49,748.25s26.11,18.88,24.79,51.51l-19.4-4.18S354.65,759.47,343.49,748.25Z"/><path class="cls-16" d="M333.33,1253.91c-59.58,1.82-91.73-24.58-91.73-24.58-.13-8.35-.39-13.8-.39-13.8L331.1,1203l82,22.89s-2.47,26.06-7.55,59.44c-14.61,1.58-29-34.31-29-34.31l-40.87,2.59S392.88,1252.08,333.33,1253.91Z"/><path class="cls-25" d="M401.64,1227.85s-129.55,52.88-192.17-47.42a17.58,17.58,0,0,1-2.49-9.86l.8-23.38a24.58,24.58,0,0,0-1.26-8.67h0a37.3,37.3,0,0,1-1.29-18.66c4.85-26.13,18-97.16,21.06-116.87,3.76-24-9-120.25-30.47-161.92C174.64,800,229,707.63,229,707.63s13.34-21.56,39.47-14.17c0,0-24.92,17.43-11.28,35.83s54.68,33.32,54.68,33.32,75.72,39.29,101.64,87.1A199.62,199.62,0,0,1,423.2,906c.8,31.79-2.72,108.11-1.39,118.71s5.36,83.36,4.93,86.75S401.64,1227.85,401.64,1227.85Z"/><path class="cls-31" d="M401.64,1227.85s-129.55,52.88-192.17-47.42a17.58,17.58,0,0,1-2.49-9.86l.8-23.38a24.58,24.58,0,0,0-1.26-8.67h0a37.3,37.3,0,0,1-1.29-18.66c4.85-26.13,18-97.16,21.06-116.87,3.76-24-9-120.25-30.47-161.92C174.64,800,229,707.63,229,707.63s13.34-21.56,39.47-14.17c0,0-24.92,17.43-11.28,35.83s54.68,33.32,54.68,33.32,75.72,39.29,101.64,87.1A199.62,199.62,0,0,1,423.2,906c.8,31.79-2.72,108.11-1.39,118.71s5.36,83.36,4.93,86.75S401.64,1227.85,401.64,1227.85Z"/><path class="cls-32" d="M256.32,706.79a18.63,18.63,0,0,1,.46-14.66,37.4,37.4,0,0,1,11.72,1.33A46.68,46.68,0,0,0,256.32,706.79Z"/><path class="cls-17" d="M362.38,1238.66s-76.29-206-72.66-280.76c3.53-72.91,111.36,147.7,111.36,147.7l.56,122.25S377.18,1236.87,362.38,1238.66Z"/><path class="cls-33" d="M403.54,995.3A334.15,334.15,0,0,1,399,944.78c-.34-29.3-8.57-77.89-61.58-69.45-74.94,11.93-42.88,116.9-34.66,135.23s41,101.6,42.77,106.32c1.62,4.44,53.44,108.24,71.94,133.13a4.55,4.55,0,0,0,6.34,1.17,4.12,4.12,0,0,0,.41-.32c7.51-6.39,24.37-21.62,26.57-31.25,2.83-12.38-8-57.29-8-57.29s-29.19-112.21-31.65-117.44C409.29,1041,408,1022.54,403.54,995.3Z"/><path class="cls-22" d="M342.21,750.61s6-13.53,19.7-14.93,21.55-5.22,22.93-10.31,1.45-11.24,4.78-18.82,6.13-26.13,6.08-26.58,10.39-3.58,10.9-8.18-4.91-21-4.32-22.26,6.2-11.32,5.44-19.14-1.76-19.11-5.93-28.69S368.51,534,292.73,564c-76.62,30.26-18.34,94.54-25.92,136.21,0,0-6.81,8.78,5.67,23.69S321.31,742.12,342.21,750.61Z"/><path class="cls-28" d="M272.48,723.88c-12.48-14.91-5.67-23.69-5.67-23.69a57.51,57.51,0,0,0-.16-18.56l30,5.72s44.28-39.38,41.14-18.29c-3.16,21.25,7.59,24.91,7.59,24.91l-9.08,11.57c-2.34,3-1,6.45.95,9.72,12.63,21.74,43.33,15.21,43.39,15.21-3.82,2.5-10.1,4.33-18.72,5.21-13.75,1.4-19.7,14.93-19.7,14.93C321.31,742.12,285,738.88,272.48,723.88Z"/><path class="cls-26" d="M405.06,579.61s5.3,15.55-3.27,22.09-16.37,12.74-16.37,12.74v19.72a14.73,14.73,0,0,1-2.36,8l-10.8,16.65A20.24,20.24,0,0,0,369,669.67l0,8.07a4.61,4.61,0,0,1-4.06,4.61l-2.84.31a4.57,4.57,0,0,1-5-4.11v0l-1.18-11.21s-5.67-9-18.13,1.73l-11.18,4.59a12,12,0,0,0-6.75,7.06c-3.14,8.63-9.84,25.65-14.85,28.48-6.78,3.82-33-9.73-36.5-15.73s-12.33-46-17.81-65-2.24-65.73,54.21-77.68C361.12,538.87,397.3,562.68,405.06,579.61Z"/><path class="cls-29" d="M268.5,693.46c-3.49-6-12.33-46-17.81-65,0,0,21.84,14.55,50.17,18.87s84.57-27.62,84.57-27.62v14.45a14.73,14.73,0,0,1-2.36,8l-10.8,16.65A20.24,20.24,0,0,0,369,669.67l0,8.07a4.61,4.61,0,0,1-4.06,4.61l-2.84.31a4.57,4.57,0,0,1-5-4.11v0l-1.18-11.21s-5.67-9-18.13,1.73l-16.17,6.64s-9.84,29.67-16.61,33.49S272,699.46,268.5,693.46Z"/><path class="cls-21" d="M267.39,695.36s-21.95,13.52-11,32.7,90.58,53.6,94.52,58.68c0,0,3.14-28.77-7.41-38.49,0,0-60.92-11.87-70.39-27.43S267.39,695.36,267.39,695.36Z"/><path class="cls-27" d="M267.39,695.36s-3.7,10,5.71,25.46c7.16,11.77,43.77,21.42,61.18,25.43h0s-6.47,3.67-17.3,22.1c-24.47-12.69-54.17-29-60.6-40.29C245.44,708.88,267.39,695.36,267.39,695.36Z"/><path class="cls-17" d="M252.55,756.73S288,777,305.27,786.22s36.22,21.44,36.22,21.44l6.63-6.62,8,17.49s27.21,16.35,39.95,30,22.44,31.56,23.82,35.63c0,0-34-44.57-60.76-57.82l-7.21-3.63-4.07-13.86-6.58,7S263.35,768.82,252.55,756.73Z"/><path class="cls-25" d="M344,1358.16h0a17.87,17.87,0,0,1,4.74-7.62L494.52,1228.1c3.84-3.22,7.55-.76,8.3,5.5l17.05,142.52c.79,6.58-1.76,14.67-5.69,18.06l-122.46,105.9,4.24,41.21-36.61-16.85v-.08c-1.64-1-2.85-3.4-3.18-7l-13.61-149A24.79,24.79,0,0,1,344,1358.16Z"/><path class="cls-25" d="M534.23,1242.15l-34.47-14.89-1.1-.48a4.77,4.77,0,0,0-4.14,1.32L348.7,1350.52a17.74,17.74,0,0,0-4.75,7.62l5.22,2.52h0L378.86,1375l127.8-109.28h0Z"/><path class="cls-17" d="M550.07,1410.16,401,1540.06c-4.09,3.57-8,.85-8.62-6.06l-14.49-149.73c-.64-6.57,2.08-14.63,6.07-18l145.48-123c3.83-3.24,7.56-.77,8.35,5.52L555.67,1392C556.5,1398.61,554,1406.74,550.07,1410.16Z"/><path class="cls-34" d="M550.07,1410.16,401,1540.06c-4.09,3.57-8,.85-8.62-6.06l-14.49-149.73c-.64-6.57,2.08-14.63,6.07-18l145.48-123c3.83-3.24,7.56-.77,8.35,5.52L555.67,1392C556.5,1398.61,554,1406.74,550.07,1410.16Z"/><path class="cls-16" d="M373.82,1525.23l-14-149.32c-.62-6.56,2.12-14.59,6.11-18L511.58,1235.2a5.27,5.27,0,0,1,3.45-1.42c-1.39-.57-3-.24-4.67,1.15L364.7,1357.63c-4,3.36-6.74,11.39-6.12,18l14,149.31c.44,4.75,2.29,7.7,4.82,7.79C375.47,1531.9,374.19,1529.15,373.82,1525.23Z"/><path class="cls-16" d="M427.21,1305.39l-7.62-3.8a7.22,7.22,0,0,0-4.75-.85l-.61.13c-.76.17-1.16,1-1,2.15l.15,1.39,21.46,10.72-.14-1.39a6.66,6.66,0,0,0-1.64-3.48l-.71-.8A17.83,17.83,0,0,0,427.21,1305.39Z"/><polygon class="cls-16" points="424.5 1323.84 434.81 1315.13 413.52 1301.34 403.36 1309.84 424.5 1323.84"/><path class="cls-35" d="M416.92,1314.07l-7.63-3.82a7.36,7.36,0,0,0-4.76-.85l-.61.13c-.76.17-1.16,1-1,2.16l.14,1.39,21.48,10.76-.14-1.4a6.76,6.76,0,0,0-1.63-3.49l-.71-.8A17.7,17.7,0,0,0,416.92,1314.07Z"/><polygon class="cls-36" points="412.35 1317.75 411.7 1311.45 412.35 1311.78 413 1318.07 412.35 1317.75"/><polygon class="cls-36" points="411.7 1311.46 422.29 1302.93 422.84 1303.21 412.35 1311.78 411.7 1311.46"/><path class="cls-16" d="M473.53,1266.44l-7.6-3.76a7.34,7.34,0,0,0-4.73-.83l-.61.13c-.75.17-1.14,1-1,2.12l.15,1.37,21.41,10.59-.15-1.37a6.6,6.6,0,0,0-1.65-3.44l-.71-.79A17.84,17.84,0,0,0,473.53,1266.44Z"/><polygon class="cls-16" points="470.97 1284.66 481.14 1276.07 459.89 1262.45 449.86 1270.84 470.97 1284.66"/><path class="cls-37" d="M463.36,1275l-7.6-3.77a7.44,7.44,0,0,0-4.74-.84l-.61.13c-.75.17-1.14,1-1,2.13l.15,1.37L471,1284.66l-.15-1.38a6.55,6.55,0,0,0-1.65-3.45l-.71-.79A17.69,17.69,0,0,0,463.36,1275Z"/><polygon class="cls-36" points="458.85 1278.64 458.15 1272.43 458.8 1272.75 459.5 1278.96 458.85 1278.64"/><polygon class="cls-36" points="458.16 1272.43 468.62 1264.02 469.17 1264.29 458.8 1272.75 458.16 1272.43"/><path class="cls-25" d="M407.6,1281.61l2.74,26.58,6.9-5.8-2.7-25.82c-.39-3.77,1.45-8.63,4.13-10.86l29.68-24.82c2.65-2.21,5.13-1,5.55,2.74l2.84,25.54,6.81-5.72-2.95-26.2c-.92-8.2-6.39-10.89-12.23-6l-31.65,26.41C410.83,1262.57,406.74,1273.29,407.6,1281.61Z"/><path class="cls-25" d="M458.75,1239.1l-12.23-1.24-35.36,33-1.53,20.35.71,17,7.92,4,.24-21.2.42-14.49,7.34-10.48s13.25-10.71,13.39-11S458.75,1239.1,458.75,1239.1Z"/><polygon class="cls-25" points="464.64 1273.08 456.74 1269.17 454.64 1250.35 462.18 1250.94 464.41 1251.33 464.64 1273.08"/><path class="cls-25" d="M464.36,1233.3l-8.49-4.16s2.24,4.63,2.28,4.6,2.79,1,2.84,1Z"/><path class="cls-16" d="M415.48,1285.53l2.78,26.62,6.89-5.81-2.73-25.85c-.4-3.77,1.44-8.64,4.11-10.87l29.68-24.85c2.64-2.22,5.13-1,5.55,2.73l2.88,25.58,6.8-5.73-3-26.23c-.94-8.21-6.41-10.91-12.24-6l-31.64,26.45C418.69,1266.47,414.61,1277.2,415.48,1285.53Z"/><path class="cls-22" d="M448.65,1218.53s5,26,3.62,32.51-13.86,19.12-21.35,21.43-4.44-6.62-6.12-12.24-1.39-17.81-1.39-17.81Z"/><path class="cls-28" d="M423.41,1242.42l25.24-23.89s1,5.33,2,11.76c0,0-9.39,19.34-26.52,27A102.59,102.59,0,0,1,423.41,1242.42Z"/><path class="cls-33" d="M450.54,1220.47s-9,28-31.38,30.65l7.61-30.65s19-5.35,19.53-5.42S450.54,1220.47,450.54,1220.47Z"/><path class="cls-38" d="M731.33,802.34c-24,24.54-87.32,57.35-106.93,38.14s11.86-83.17,35.89-107.71,59.42-28.86,79-9.65S755.36,777.8,731.33,802.34Z"/><path class="cls-39" d="M731.33,802.34c-24,24.54-87.32,57.35-106.93,38.14s11.86-83.17,35.89-107.71,59.42-28.86,79-9.65S755.36,777.8,731.33,802.34Z"/><path class="cls-2" d="M734.13,735.73a11.56,11.56,0,0,1-11.54-11.58,11.74,11.74,0,0,1,.89-4.42l35.7-85.3a11.55,11.55,0,0,1,21.31,8.92l-35.7,85.29A11.53,11.53,0,0,1,734.13,735.73Z"/><rect class="cls-2" x="1202.35" y="701.55" width="23.1" height="197.2" transform="translate(-211.55 513.99) rotate(-22.04)"/><circle class="cls-40" cx="793.4" cy="595.21" r="71.78" transform="translate(-70.48 107.9) rotate(-7.45)"/><circle class="cls-41" cx="793.41" cy="595.12" r="71.78" transform="translate(-188.43 735.33) rotate(-45)"/><path class="cls-42" d="M1151.35,725.54c0,139.34-83,252.29-185.33,252.29S780.7,864.88,780.7,725.54,863.7,544.46,966,544.46,1151.35,586.21,1151.35,725.54Z"/><path class="cls-43" d="M1151.35,725.54c0,139.34-83,252.29-185.33,252.29S780.7,864.88,780.7,725.54,863.7,544.46,966,544.46,1151.35,586.21,1151.35,725.54Z"/><ellipse class="cls-44" cx="966.02" cy="619.37" rx="126.48" ry="73.02"/><path class="cls-2" d="M876.59,587.18c49.39-28.51,129.47-28.51,178.87,0,20.4,11.78,32.35,26.59,35.9,41.91,5-21.78-6.91-44.62-35.9-61.36-49.4-28.52-129.48-28.52-178.87,0-29,16.74-40.94,39.58-35.9,61.36C844.24,613.76,856.19,599,876.59,587.18Z"/><path class="cls-45" d="M820,445.84l22.88-39.43a127.46,127.46,0,0,0,29.68-51.13l23.17-39.93L862.4,296.22a25.12,25.12,0,0,0-3.34-1.92h0c-9.47-4.5-22.06-3.3-35.88,4.7-29.47,17-53.35,58.38-53.35,92.4,0,17,6,29,15.61,34.52h0Z"/><ellipse class="cls-46" cx="857.48" cy="380.34" rx="75.44" ry="43.56" transform="translate(99.36 932.77) rotate(-60)"/><circle class="cls-47" cx="973.37" cy="445.07" r="189.01"/><circle class="cls-48" cx="973.37" cy="445.07" r="189.01"/><path class="cls-49" d="M1079.15,572.9,1102,533.47a127.5,127.5,0,0,0,29.68-51.14l23.17-39.92-33.32-19.13a27.18,27.18,0,0,0-3.35-1.93h0c-9.47-4.48-22.07-3.28-35.89,4.7-29.46,17-53.35,58.38-53.35,92.4,0,17,6,28.95,15.61,34.52h0Z"/><path class="cls-50" d="M1079.15,572.9,1102,533.47a127.5,127.5,0,0,0,29.68-51.14l23.17-39.92-33.32-19.13a27.18,27.18,0,0,0-3.35-1.93h0c-9.47-4.48-22.07-3.28-35.89,4.7-29.46,17-53.35,58.38-53.35,92.4,0,17,6,28.95,15.61,34.52h0Z"/><path class="cls-46" d="M1170,476.62c0,34-23.89,75.39-53.35,92.4s-53.35,3.22-53.35-30.8,23.89-75.39,53.35-92.4S1170,442.6,1170,476.62Z"/><path class="cls-51" d="M1065.72,538.66c0-34,23.89-75.39,53.35-92.4,10.21-5.89,19.75-8.08,27.85-7-8.6-1.91-19,.08-30.3,6.58-29.46,17-53.35,58.38-53.35,92.4,0,22.23,10.21,35.82,25.5,37.82C1074.85,573,1065.72,559.68,1065.72,538.66Z"/><ellipse class="cls-44" cx="1116.61" cy="507.4" rx="53.93" ry="31.13" transform="translate(118.88 1220.71) rotate(-60)"/><path class="cls-25" d="M1138.53,458.74c3.94,4.66,6.25,11.62,6.25,20.54,0,24.32-17.07,53.89-38.13,66-8.16,4.71-15.71,6.11-21.91,4.65,6.81,8,18.54,9.18,31.88,1.48,21.06-12.16,38.13-41.73,38.13-66C1154.75,470.5,1148.34,461.05,1138.53,458.74Z"/><ellipse class="cls-44" cx="860.49" cy="493.38" rx="47.99" ry="83.12" transform="translate(-123.53 368.57) rotate(-22.6)"/><path class="cls-2" d="M889.81,502.41c-1.75,13.51-11.94,17.75-22.77,9.48S848.87,486,850.63,472.45s12-17.75,22.77-9.48S891.57,488.9,889.81,502.41Z"/><path class="cls-25" d="M866,555.26c-29.77-22.77-50-71.36-45.17-108.53,2-15.15,7.8-26.07,16-32.14-15.57,1.46-27.35,14.67-30.33,37.56-4.82,37.17,15.4,85.76,45.18,108.52,17.63,13.49,34.67,14.89,46.62,6.06C888.66,567.65,877.48,564,866,555.26Z"/><path class="cls-2" d="M854.31,559.46c-29.78-22.76-50-71.35-45.17-108.52,2.23-17.21,9.45-28.94,19.51-34.33-11.39,4.69-19.65,16.9-22.08,35.54-4.82,37.17,15.4,85.76,45.18,108.52,16,12.23,31.46,14.49,43.12,8.24C883.55,573.57,869.15,570.81,854.31,559.46Z"/><path class="cls-52" d="M1247.3,722.79a71.78,71.78,0,1,1-56.48-84.35h0a71.77,71.77,0,0,1,56.47,84.34Z"/><path class="cls-53" d="M1247.3,722.79a71.78,71.78,0,1,1-56.48-84.35h0a71.77,71.77,0,0,1,56.47,84.34Z"/><path class="cls-54" d="M1291.37,946.67c-4.07,34.11-34.19,98.71-61.46,95.46s-41.34-73.13-37.27-107.24,29.47-59.12,56.74-55.87S1295.44,912.56,1291.37,946.67Z"/><path class="cls-55" d="M1291.37,946.67c-4.07,34.11-34.19,98.71-61.46,95.46s-41.34-73.13-37.27-107.24,29.47-59.12,56.74-55.87S1295.44,912.56,1291.37,946.67Z"/><g class="cls-56"><path class="cls-2" d="M113.44,1381c-7.07,56.85-36.55,90.67-67.54,48.32C6.17,1375,2.31,1321.91,0,1290.19V980.51c0,48.45,16.08,95.2,45.9,139.1C111.4,1228,119.17,1334.88,113.44,1381Z"/><path class="cls-2" d="M1032.83,1437.73q-36.66,1-74,.69c-194.7-1.59-375.1-29.86-525.65-77.24-150.39-40.18-159.48,117.19-107,214.38,37.37,69.21,87.95,88.16,107,95.3,150.55,47.38,331,75.65,525.65,77.24q37.32.33,74-.69c176.71-13,223-182.74,140.4-262-23-22.11-66.11-48.33-140.4-47.73Z"/><path class="cls-2" d="M1951.58,1190.82c-.86,133.91-8.72,158.29-18.67,189.15-41.39,97.66-148.74,183.93-299,248.37-131.54,38.81-167.87-97.88-114.37-199.23,36.39-68.95,93-99.1,114.37-110.45,150.26-64.44,257.61-150.71,299-248.37,3-6.48,7.31-15.07,11.37-21l3.36-.44c2.55,7.16,3.6,10.12,3.94,46.68v95.29Z"/></g><path class="cls-57" d="M344,309.12,62.84,146.81c-5.18-3-9.92-3.22-13.58-1.19h0l-11.86,6.8,5.76,1.26a28.35,28.35,0,0,0-1.35,9V293.93c0,15.48,9.42,33.46,21,40.17l113.92,65.77,22.44,64.79-8.28,19.27,12.49-7.14L230,430.64l114,65.77a19.33,19.33,0,0,0,2.27,1.15h0l-1.76,7.5,12.41-7.1h-.07c5-2.26,8.18-8.41,8.18-17.44V349.3C365,333.81,355.59,315.83,344,309.12Z"/><path class="cls-58" d="M331.49,316.26,50.35,153.94c-11.61-6.7-21,.41-21,15.9V301.06c0,15.48,9.41,33.47,21,40.17L164.27,407l26.65,76.92,26.65-46.16,113.92,65.78c11.61,6.7,21-.41,21-15.9V356.43C352.52,341,343.1,323,331.49,316.26Z"/><path class="cls-51" d="M180.94,352.09v-19q21.18-8.68,21.19-28.35a13.09,13.09,0,0,0-.07-1.64,19,19,0,0,0-2.51-9.14,16.35,16.35,0,0,0-5.91-6c-2.35-1.35-4.15-1.5-5.41-.43-1.09.92-1.64,2.57-1.63,4.93q0,.59.06,1.2a34.54,34.54,0,0,0,1.13,7.77l-17.67-5.77A69.7,69.7,0,0,1,168.49,284c-.13-1.48-.19-2.89-.19-4.25q.06-10.56,5.35-14.48,6.28-4.65,19.67,3.09a56.14,56.14,0,0,1,20.78,20.05,51.61,51.61,0,0,1,7.26,26.77q0,13-6.41,21.23A33.88,33.88,0,0,1,198.6,348v14.37Zm-.57,31v-21.6l19,11V394Z"/><path class="cls-59" d="M1902.09,164.83,1621,2.51c-5.18-3-9.92-3.21-13.58-1.19h0l-11.86,6.81,5.76,1.26a28.63,28.63,0,0,0-1.34,9V149.63c0,15.48,9.41,33.47,21,40.17l113.92,65.78,22.45,64.79L1749,339.63l12.49-7.13,26.65-46.15,113.92,65.77a20.06,20.06,0,0,0,2.27,1.14h0l-1.75,7.5,12.41-7.09h-.07c5-2.26,8.18-8.41,8.18-17.43V205C1923.12,189.52,1913.7,171.53,1902.09,164.83Z"/><path class="cls-2" d="M1889.61,172,1608.46,9.65c-11.61-6.71-21,.41-21,15.89V156.77c0,15.48,9.41,33.46,21,40.17l113.93,65.77L1749,339.63l26.65-46.15,113.93,65.78c11.61,6.7,21-.42,21-15.9V212.14C1910.63,196.65,1901.22,178.67,1889.61,172Z"/><path class="cls-51" d="M1745.12,237.74v-20.4l17.79,10.27V248Zm5.73-24.82-5.48-90.24,18.56,10.72-6.57,83.28Z"/></g></g></g></g></svg>