<svg xmlns="http://www.w3.org/2000/svg" xmlns:xlink="http://www.w3.org/1999/xlink" viewBox="0 0 1761.11 1979.23"><defs><style>.cls-1{isolation:isolate;}.cls-2{fill:#160a5b;}.cls-3{fill:#24126a;}.cls-10,.cls-11,.cls-22,.cls-26,.cls-27,.cls-4,.cls-6{opacity:0.7;mix-blend-mode:lighten;}.cls-4{fill:url(#Áåçûìÿííûé_ãðàäèåíò_3);}.cls-5{fill:#453c9e;}.cls-6{fill:url(#Áåçûìÿííûé_ãðàäèåíò_3-2);}.cls-7{fill:#f0f6ff;}.cls-8{fill:#fcd1c5;}.cls-9{fill:#4846a5;}.cls-10{fill:url(#Áåçûìÿííûé_ãðàäèåíò_3-3);}.cls-11{fill:url(#Áåçûìÿííûé_ãðàäèåíò_3-4);}.cls-12{fill:#aa8383;}.cls-13{fill:#c4ccd6;}.cls-14{fill:#e2b1a6;}.cls-15{fill:#936d6d;}.cls-16{fill:url(#Áåçûìÿííûé_ãðàäèåíò_59);}.cls-17{fill:url(#Áåçûìÿííûé_ãðàäèåíò_59-2);}.cls-18{fill:url(#Áåçûìÿííûé_ãðàäèåíò_7);}.cls-19{fill:#5cfff3;}.cls-20{fill:#363699;}.cls-21{fill:#312a91;}.cls-22{fill:url(#Áåçûìÿííûé_ãðàäèåíò_3-5);}.cls-23{fill:#201977;}.cls-24{fill:#15155e;}.cls-25{fill:#2d1f84;}.cls-26{fill:url(#Áåçûìÿííûé_ãðàäèåíò_3-6);}.cls-27{fill:url(#Áåçûìÿííûé_ãðàäèåíò_3-7);}.cls-28{fill:url(#Áåçûìÿííûé_ãðàäèåíò_7-2);}.cls-29{fill:url(#Áåçûìÿííûé_ãðàäèåíò_7-3);}.cls-30{fill:url(#Áåçûìÿííûé_ãðàäèåíò_7-4);}.cls-31,.cls-32,.cls-33,.cls-34,.cls-35{fill:#42e8e0;}.cls-32{opacity:0.3;}.cls-33,.cls-36{opacity:0.9;}.cls-34{opacity:0.2;}.cls-35{opacity:0.4;}</style><linearGradient id="Áåçûìÿííûé_ãðàäèåíò_3" x1="1460.11" y1="1386.59" x2="1166.06" y2="1602.47" gradientUnits="userSpaceOnUse"><stop offset="0" stop-color="#180d5b"/><stop offset="0.09" stop-color="#1a1660"/><stop offset="0.25" stop-color="#1e2d6e"/><stop offset="0.44" stop-color="#255385"/><stop offset="0.66" stop-color="#2f87a5"/><stop offset="0.9" stop-color="#3ccace"/><stop offset="1" stop-color="#42e8e0"/></linearGradient><linearGradient id="Áåçûìÿííûé_ãðàäèåíò_3-2" x1="1448.26" y1="1097.48" x2="1169.83" y2="1240.41" xlink:href="#Áåçûìÿííûé_ãðàäèåíò_3"/><linearGradient id="Áåçûìÿííûé_ãðàäèåíò_3-3" x1="1358.99" y1="1023.57" x2="1150.08" y2="1167.94" xlink:href="#Áåçûìÿííûé_ãðàäèåíò_3"/><linearGradient id="Áåçûìÿííûé_ãðàäèåíò_3-4" x1="1553.77" y1="1069.6" x2="1252.29" y2="1211.01" xlink:href="#Áåçûìÿííûé_ãðàäèåíò_3"/><linearGradient id="Áåçûìÿííûé_ãðàäèåíò_59" y1="846.01" x2="631.29" y2="846.01" gradientUnits="userSpaceOnUse"><stop offset="0" stop-color="#2b237c"/><stop offset="1" stop-color="#180d5b"/></linearGradient><linearGradient id="Áåçûìÿííûé_ãðàäèåíò_59-2" x1="-164.52" y1="635.25" x2="1319.8" y2="1345.79" xlink:href="#Áåçûìÿííûé_ãðàäèåíò_59"/><linearGradient id="Áåçûìÿííûé_ãðàäèåíò_7" x1="-51.83" y1="1097.41" x2="1637.42" y2="1208.92" gradientUnits="userSpaceOnUse"><stop offset="0" stop-color="#42e8e0"/><stop offset="0.22" stop-color="#3cbdc8"/><stop offset="0.71" stop-color="#2d528e"/><stop offset="1" stop-color="#24126a"/></linearGradient><linearGradient id="Áåçûìÿííûé_ãðàäèåíò_3-5" x1="660.21" y1="722.13" x2="-12.7" y2="339.16" xlink:href="#Áåçûìÿííûé_ãðàäèåíò_3"/><linearGradient id="Áåçûìÿííûé_ãðàäèåíò_3-6" x1="527.92" y1="1302.65" x2="-259.65" y2="1036.95" xlink:href="#Áåçûìÿííûé_ãðàäèåíò_3"/><linearGradient id="Áåçûìÿííûé_ãðàäèåíò_3-7" x1="782.4" y1="381.97" x2="-77.6" y2="-131.67" xlink:href="#Áåçûìÿííûé_ãðàäèåíò_3"/><linearGradient id="Áåçûìÿííûé_ãðàäèåíò_7-2" x1="80.72" y1="892.64" x2="1518.31" y2="892.64" xlink:href="#Áåçûìÿííûé_ãðàäèåíò_7"/><linearGradient id="Áåçûìÿííûé_ãðàäèåíò_7-3" x1="221.61" y1="974.13" x2="1773.77" y2="974.13" xlink:href="#Áåçûìÿííûé_ãðàäèåíò_7"/><linearGradient id="Áåçûìÿííûé_ãðàäèåíò_7-4" x1="362.73" y1="1055.61" x2="1948.07" y2="1055.61" xlink:href="#Áåçûìÿííûé_ãðàäèåíò_7"/></defs><g class="cls-1"><g id="Layer_2" data-name="Layer 2"><g id="Ñëîé_1" data-name="Ñëîé 1"><path class="cls-2" d="M1283,1610.48s-4.18,4.36-8.53,9.5-16.55,12.3-21.68,15.49-28.64,21-33.55,38.54,11.88,19.87,29.06,16.82,33.24-18.9,37.91-24.62,20.94-18.71,42-29.63,8.34-25.58,8.34-25.58Z"/><path class="cls-2" d="M1439.56,1662.59a65.07,65.07,0,0,1,4.46,18c1,10.14,2.41,32.14,2.94,38.57a54.5,54.5,0,0,1-10.59,37.26c-11.33,15.07-17.18,21-32.23,15.1s-14.71-31.2-12-44.19,5.13-42.06,4.86-45.11a9.13,9.13,0,0,1,.86-5Z"/><path class="cls-3" d="M1231.08,1312.42s3.18,115.85,30.17,177.35c0,0,19.34,54.15,21.9,118.58,0,0-4.47,11.09,1.86,20.11s46,17.27,52.52-12.35,4-85.06-3.17-108.17,2.57-86.83,2.57-86.83,10.83,6.93,25,52.7,24.65,63.23,29.54,75.87,9.38,90.22,6.28,128.09c0,0,32.1,4.56,41.38-10.78s12.38-94.72,10-120-12.94-106.38-11.48-131.46,6.68-45.46.94-70.52-175.11-80.72-175.11-80.72Z"/><path class="cls-4" d="M1231.08,1312.42s3.18,115.85,30.17,177.35c0,0,19.34,54.15,21.9,118.58,0,0-4.47,11.09,1.86,20.11s46,17.27,52.52-12.35,4-85.06-3.17-108.17,2.57-86.83,2.57-86.83,10.83,6.93,25,52.7,24.65,63.23,29.54,75.87,9.38,90.22,6.28,128.09c0,0,32.1,4.56,41.38-10.78s12.38-94.72,10-120-12.94-106.38-11.48-131.46,6.68-45.46.94-70.52-175.11-80.72-175.11-80.72Z"/><path class="cls-2" d="M1437.71,1415.5c1.45-25.09,6.68-45.46.94-70.52-2.16-9.42-27.44-23.16-58.15-36.65-51.84-4.73-117.58-10.22-122.11-9.53-4.09.62-14.81,4.69-23.69,8.25l-3.62,5.37s.2,7,.89,18.55c12.09,3.62,35.35-.12,35.35-.12,3.28,8.13,23.48,37,48.6,49.49s98.63,8.19,102.85,12.93,5,68.17,4.57,76.23,6.93,58.83,13.76,103.73c6.73,44.17-3.51,97.84-3.84,99.57a18.3,18.3,0,0,0,5.9-5.81c9.28-15.35,12.38-94.72,10-120S1436.25,1440.58,1437.71,1415.5Z"/><path class="cls-5" d="M1287.78,933.51s-37.58,8.57-50.22,11.53a6.52,6.52,0,0,0-4.58,4c-3.65,9.24-12.8,38-5.91,79.86,8.48,51.51,5.79,86.19,5.79,86.19l-17.38,90.46s-21.85,86.15-20,88.51,50.31,39.21,65.45,34,10.16-13.76,10.16-13.76,12.26,62.44,66.53,61.84,98.61-.42,107.82-22.36-2.52-114.16-12.09-150.68-32.31-109.29-32.31-109.29l79.49-88-67.94-51.88s-16.23-30.16-22.9-34-10.15-.59-10.15-.59Z"/><path class="cls-5" d="M1287.78,933.51s-37.58,8.57-50.22,11.53a6.52,6.52,0,0,0-4.58,4c-3.65,9.24-12.8,38-5.91,79.86,8.48,51.51,5.79,86.19,5.79,86.19l-17.38,90.46s-21.85,86.15-20,88.51,50.31,39.21,65.45,34,10.16-13.76,10.16-13.76,12.26,62.44,66.53,61.84,98.61-.42,107.82-22.36-2.52-114.16-12.09-150.68-32.31-109.29-32.31-109.29l79.49-88-67.94-51.88s-16.23-30.16-22.9-34-10.15-.59-10.15-.59Z"/><path class="cls-6" d="M1287.78,933.51s-37.58,8.57-50.22,11.53a6.52,6.52,0,0,0-4.58,4c-3.65,9.24-12.8,38-5.91,79.86,8.48,51.51,5.79,86.19,5.79,86.19l-17.38,90.46s-21.85,86.15-20,88.51,50.31,39.21,65.45,34,10.16-13.76,10.16-13.76,12.26,62.44,66.53,61.84,98.61-.42,107.82-22.36-2.52-114.16-12.09-150.68-32.31-109.29-32.31-109.29l79.49-88-67.94-51.88s-16.23-30.16-22.9-34-10.15-.59-10.15-.59Z"/><path class="cls-7" d="M1388.26,919.19s13.88,16.79-6.09,39.45c-12.29,14-33.44,44-51.46,75.28-11.25,19.51-21.65,29.92-27.55,46.68,0,0-.82-19.92-1.62-50.67-.74-29-1.13-59.19.17-66.78C1304.38,947.5,1372.92,911.58,1388.26,919.19Z"/><path class="cls-8" d="M1336.36,969.7s-7.12,4.42-9.57,4-10.32-8-10.32-8-19.7-.35-21.85-8.79-3.57-17-5.56-21.34-10.49-25.44-10.56-34,.26-23.81-3.43-31.89-8.67-88.94,69.41-86.66,53.82,83.36,53.82,83.36,5.71,2.42,2.25,12.86-4.22,11.52-6,16.7-2.63,8.5-7.59,12.7l-1.3,9.62a38.56,38.56,0,0,1-6,29C1370,961.53,1336.36,969.7,1336.36,969.7Z"/><path class="cls-9" d="M1235.41,946s-8.32,1.24-35.33,69.19c-15.08,37.92-38.34,77.18-43.27,105.37s-2.18,58.3,3.39,60.42c5.36,2,102.42,38.36,132.79,49.82a2.85,2.85,0,0,0,3.82-2.18l8.37-46.87L1245,1158.46s-11.48-14-22.26-19.28c0,0,12.07-22.25,11.31-28.33s1.07-68.93-6-94.51S1235.41,946,1235.41,946Z"/><path class="cls-10" d="M1235.41,946s-8.32,1.24-35.33,69.19c-15.08,37.92-38.34,77.18-43.27,105.37s-2.18,58.3,3.39,60.42c5.36,2,102.42,38.36,132.79,49.82a2.85,2.85,0,0,0,3.82-2.18l8.37-46.87L1245,1158.46s-11.48-14-22.26-19.28c0,0,12.07-22.25,11.31-28.33s1.07-68.93-6-94.51S1235.41,946,1235.41,946Z"/><path class="cls-8" d="M1270.68,1125.56s-8.29-5.57-10.34-6.36-13.14-4.59-15.26-5.53c-1.57-.71-8-.17-11.27.16a3.52,3.52,0,0,0-2.76,1.83c-2.56,4.76-9.7,18.59-8.89,23.87,0,0,20,12.67,22.29,18.32l3.2.69S1261.08,1129.73,1270.68,1125.56Z"/><path class="cls-3" d="M1433.39,1203.09c-2.3-8.78-5.37-19.67-8.69-31.14l-122,52.29s36.51,44.89,100.5,42c17.5-.79,30.26-7.1,39.63-12.52C1440,1233.76,1436.59,1215.31,1433.39,1203.09Z"/><path class="cls-3" d="M1480.57,1005.81s-32.17,4.43-58.16,45.62-44.93,88.87-44.93,88.87l-.9,5.36a21.69,21.69,0,0,1-30.23,16.25c-27.44-12.26-68.09-30.79-75.67-36.35,0,0-24.3,13.44-30.93,45.18-5.29,25.31-4,25.39-4,25.39s108.32,50.56,150.15,50.06,94.9-138,100.74-166.46S1499,1013.85,1480.57,1005.81Z"/><path class="cls-9" d="M1480.57,1005.81s-32.17,4.43-58.16,45.62-44.93,88.87-44.93,88.87l-.9,5.36a21.69,21.69,0,0,1-30.23,16.25c-27.44-12.26-68.09-30.79-75.67-36.35,0,0-24.3,13.44-30.93,45.18-5.29,25.31-4,25.39-4,25.39s108.32,50.56,150.15,50.06,94.9-138,100.74-166.46S1499,1013.85,1480.57,1005.81Z"/><path class="cls-11" d="M1480.57,1005.81s-32.17,4.43-58.16,45.62-44.93,88.87-44.93,88.87l-.9,5.36a21.69,21.69,0,0,1-30.23,16.25c-27.44-12.26-68.09-30.79-75.67-36.35,0,0-24.3,13.44-30.93,45.18-5.29,25.31-4,25.39-4,25.39s108.32,50.56,150.15,50.06,94.9-138,100.74-166.46S1499,1013.85,1480.57,1005.81Z"/><path class="cls-5" d="M1361.9,1168.31s13.66,12.78,19.61,5.78,4.2-7.77,4.2-7.77,12.29-.11,13.79-7.82,7.55-3.63,7.9-12.21-10-6.82-10-6.82Z"/><path class="cls-8" d="M1345.39,1161.48s3.76-3.5,8.6-7.6,12.69-21.06,14-22.56,17.67-14,25.55-14.25,2,8.6.21,9.84-9.51,5.07-9.51,5.07-7.91,6.65-8.81,7.62,22-1.57,25.64.66,2.79,8.08.22,9.68a8.92,8.92,0,0,1-4.52,1.53s2.58,6.89-4.3,10.09S1384,1163,1384,1163s-.59,11.91-11.94,9.55Z"/><path class="cls-12" d="M1273.31,828.39s-10.2,32.44,16.63,23.21,51.1-24.68,59.52-18.79c6.42,4.47,6.12,18.2,5.61,24.5a9.34,9.34,0,0,0,1.62,6.05l8,11.56a9,9,0,0,1,1.54,4.41l.56,8a4,4,0,0,0,3.79,3.74l1.84.11a4,4,0,0,0,4.2-3.34l2.07-11.81s6.32-15.89,19.66-9.64c0,0,8.93-12,6-37.64s-14.45-52.3-64.77-56.57S1273.31,828.39,1273.31,828.39Z"/><path class="cls-13" d="M1350.21,998.25l-7.53-5.84s-7,5.79-9.68,11.93,0,25.63,0,25.63l-2.3,4-2.82-5.16-2.39-23.06s2.57-17,2.81-17.48,14.52,1.52,14.52,1.52S1347.79,993.51,1350.21,998.25Z"/><path class="cls-13" d="M1314,975.3s-8,.54-11.67,3.55c0,0,8.44.41,9.78.57S1314,975.3,1314,975.3Z"/><path class="cls-3" d="M1329.33,977.12l13.5,12.62s-11.85,5.45-15.16,16c0,0-14.69,2.74-16-2.58s0-18.73-1.72-24.67S1329.33,977.12,1329.33,977.12Z"/><path class="cls-3" d="M1312.18,1002.9s-2.51,11.06-5.25,15.62-5.55,9.67-5.55,9.67l.34,64.79s23.82-49.12,29-59.06c0,0-.79-23.66-3-28.13S1312.18,1002.9,1312.18,1002.9Z"/><path class="cls-14" d="M1376.16,907.17c-15.65,45.16-59.69,58.56-59.69,58.56s7.87,7.65,10.32,8,9.57-4,9.57-4,33.62-8.17,43.32-22.44a38.56,38.56,0,0,0,6-29l1.3-9.62C1380,911,1376.16,907.17,1376.16,907.17Z"/><path class="cls-3" d="M1412,960s-6.18,21.32-7,22.12-15.53-.9-15.53-.9l7.16,13.55s-74.13,79.5-89.49,122.26c0,0,35.07-54.2,96.81-118.93l-8.74-13.22,15.15,3Z"/><path class="cls-3" d="M1290.21,941.21l-3.93,4.5,4.62,4.31-13.7,12.39s-4.19,86.95,12.54,144.56c0,0-22.72-52.84-17.57-146.93L1287,950l-4.86-4.78Z"/><path class="cls-2" d="M1336.93,1421.11s.17.12.51.41l-19.2-20.44c8.86,12.5-1.35,69.74-2.41,82.84s10.26,40.17,14.49,71.88-4.44,76.87-4.46,77c5.49-3.18,9.85-8.47,11.67-16.69,6.55-29.62,4-85.06-3.17-108.17S1336.93,1421.11,1336.93,1421.11Z"/><path class="cls-15" d="M1372.37,891.22a4,4,0,0,0,4.2-3.34l2.07-11.81s6.32-15.89,19.66-9.64c0,0,8.42-11.4,6.15-35.63-14.84,22.28-47.76,32.56-47.76,32.56l8,11.56a9,9,0,0,1,1.54,4.41l.56,8a4,4,0,0,0,3.79,3.74Z"/><polygon class="cls-16" points="126.46 291.46 24.86 483 0 614.41 0 1515.09 24.86 1617.8 126.46 1692.01 631.29 1400.55 631.29 0 126.46 291.46"/><polygon class="cls-17" points="623.35 578.68 521.74 770.22 496.88 901.64 496.88 1802.31 521.74 1905.03 623.35 1979.23 1128.17 1687.77 1128.17 287.22 623.35 578.68"/><polygon class="cls-18" points="660.59 653.94 578.99 807.76 559.03 913.3 559.03 1753.68 578.99 1836.17 660.59 1895.77 1066.02 1661.7 1066.02 419.86 660.59 653.94"/><polygon class="cls-19" points="580.74 1837.4 560.78 1754.9 560.78 914.53 580.74 808.99 662.34 655.16 1066.02 422.1 1066.02 419.86 660.59 653.94 578.99 807.76 559.03 913.3 559.03 1753.68 578.99 1836.17 660.59 1895.77 660.63 1895.75 580.74 1837.4"/><polygon class="cls-19" points="1052.83 427.48 1052.83 1655.29 649.87 1887.94 660.59 1895.77 1066.02 1661.7 1066.02 419.86 1052.83 427.48"/><polygon class="cls-20" points="521.74 770.22 24.86 483 126.46 291.46 623.35 578.68 521.74 770.22"/><polygon class="cls-21" points="0 614.41 496.88 901.64 521.74 770.22 24.86 483 0 614.41"/><polygon class="cls-22" points="126.46 291.46 623.35 578.68 521.74 770.22 24.86 483 126.46 291.46"/><polygon class="cls-23" points="0 1515.09 496.88 1802.31 521.74 1905.03 24.86 1617.8 0 1515.09"/><polygon class="cls-24" points="521.74 1905.03 24.86 1617.8 126.46 1692.01 623.35 1979.23 521.74 1905.03"/><polygon class="cls-25" points="496.88 901.64 496.88 1802.31 0 1515.09 0 614.41 496.88 901.64"/><polygon class="cls-26" points="496.88 901.64 496.88 1802.31 0 1515.09 0 614.41 496.88 901.64"/><polygon class="cls-25" points="1052.16 243.29 1034.96 253.22 994.02 229.8 994.02 209.68 911.12 161.76 893.84 171.73 852.89 148.31 852.89 128.12 770.2 80.29 752.96 90.25 712.01 66.83 712.01 46.66 631.29 0 126.46 291.46 623.35 578.68 1128.17 287.22 1052.16 243.29"/><polygon class="cls-27" points="1052.16 243.29 1034.96 253.22 994.02 229.8 994.02 209.68 911.12 161.76 893.84 171.73 852.89 148.31 852.89 128.12 770.2 80.29 752.96 90.25 712.01 66.83 712.01 46.66 631.29 0 126.46 291.46 623.35 578.68 1128.17 287.22 1052.16 243.29"/><polygon class="cls-28" points="163.81 563.26 265.42 371.73 752.96 90.25 712.01 66.83 712.01 46.63 207.19 338.09 105.58 529.63 80.72 661.05 80.72 1561.72 109.23 1679.7 126.53 1692.06 207.19 1738.64 163.81 1698.07 138.96 1595.35 138.96 694.68 163.81 563.26"/><polygon class="cls-19" points="122.92 539.81 224.53 348.27 712.01 66.83 712.01 46.63 207.19 338.09 105.58 529.63 80.72 661.05 80.72 1561.72 109.23 1679.7 126.46 1692.01 98.06 1571.9 98.06 671.23 122.92 539.81"/><polygon class="cls-29" points="304.69 644.75 406.3 453.21 911.13 161.75 893.84 171.73 852.89 148.31 852.89 128.12 348.07 419.58 246.46 611.12 221.6 742.53 221.6 1643.21 251.75 1764.52 348.07 1820.13 304.69 1779.56 279.84 1676.84 279.84 776.16 304.69 644.75"/><polygon class="cls-19" points="263.8 621.29 365.41 429.76 852.89 148.31 852.89 128.12 348.07 419.58 246.46 611.12 221.6 742.53 221.6 1643.21 251.75 1764.52 269.04 1774.51 238.95 1653.39 238.95 752.71 263.8 621.29"/><polygon class="cls-30" points="445.81 726.23 547.42 534.7 1034.96 253.22 994.02 229.8 994.02 209.61 489.19 501.07 387.58 692.6 362.73 824.02 362.73 1724.69 392.87 1846.01 489.19 1901.62 445.81 1861.04 420.96 1758.33 420.96 857.65 445.81 726.23"/><polygon class="cls-19" points="489.19 501.07 387.58 692.6 362.73 824.02 362.73 1724.69 392.87 1846.01 410.16 1855.99 380.07 1734.87 380.07 834.2 404.92 702.78 506.54 511.25 994.02 229.8 994.02 209.61 489.19 501.07"/><polygon class="cls-31" points="885.43 1026.71 986.99 968.07 986.99 945.77 885.43 1004.4 885.43 1026.71"/><polygon class="cls-31" points="833.34 1056.78 869.91 1035.67 869.91 1013.36 833.34 1034.47 833.34 1056.78"/><polygon class="cls-31" points="792.98 1080.08 817.83 1065.74 817.83 1043.43 792.98 1057.78 792.98 1080.08"/><polygon class="cls-31" points="931.65 1050.97 986.99 1019.02 986.99 996.72 931.65 1028.67 931.65 1050.97"/><polygon class="cls-32" points="848.32 1099.08 916.14 1059.93 916.14 1037.63 848.32 1076.78 848.32 1099.08"/><polygon class="cls-31" points="807.95 1122.39 832.8 1108.04 832.8 1085.74 807.95 1100.09 807.95 1122.39"/><polygon class="cls-32" points="769.54 1144.57 794.39 1130.22 794.39 1107.92 769.54 1122.26 769.54 1144.57"/><polygon class="cls-31" points="946.95 1093.09 986.99 1069.97 986.99 1047.67 946.95 1070.78 946.95 1093.09"/><polygon class="cls-31" points="917.75 1109.95 931.44 1102.05 931.44 1079.74 917.75 1087.64 917.75 1109.95"/><polygon class="cls-31" points="877.38 1133.25 902.23 1118.91 902.23 1096.6 877.38 1110.95 877.38 1133.25"/><polygon class="cls-31" points="839.2 1206.25 986.99 1120.92 986.99 1098.62 839.2 1183.94 839.2 1206.25"/><polygon class="cls-19" points="787.12 1236.32 823.69 1215.21 823.69 1192.9 787.12 1214.01 787.12 1236.32"/><polygon class="cls-31" points="946.95 1194.99 986.99 1171.87 986.99 1149.57 946.95 1172.68 946.95 1194.99"/><polygon class="cls-32" points="852.98 1249.24 931.44 1203.95 931.44 1181.64 852.98 1226.94 852.98 1249.24"/><polygon class="cls-31" points="812.62 1272.55 837.47 1258.2 837.47 1235.9 812.62 1250.24 812.62 1272.55"/><polygon class="cls-31" points="905.07 1270.12 986.99 1222.82 986.99 1200.52 905.07 1247.82 905.07 1270.12"/><polygon class="cls-31" points="830.31 1313.29 889.55 1279.08 889.55 1256.78 830.31 1290.98 830.31 1313.29"/><polygon class="cls-31" points="774.75 1345.36 814.79 1322.24 814.79 1299.94 774.75 1323.06 774.75 1345.36"/><polygon class="cls-31" points="959.32 1289.75 986.99 1273.77 986.99 1251.47 959.32 1267.44 959.32 1289.75"/><polygon class="cls-32" points="907.24 1319.82 943.8 1298.71 943.8 1276.4 907.24 1297.52 907.24 1319.82"/><polygon class="cls-31" points="832.8 1362.8 891.72 1328.78 891.72 1306.47 832.8 1340.49 832.8 1362.8"/><polygon class="cls-19" points="902.23 1373.66 986.99 1324.72 986.99 1302.42 902.23 1351.36 902.23 1373.66"/><polygon class="cls-31" points="807.3 1428.47 886.72 1382.62 886.72 1360.31 807.3 1406.16 807.3 1428.47"/><polygon class="cls-19" points="766.94 1451.77 791.79 1437.43 791.79 1415.12 766.94 1429.47 766.94 1451.77"/><polygon class="cls-31" points="728.2 1474.14 753.05 1459.79 753.05 1437.49 728.2 1451.83 728.2 1474.14"/><polygon class="cls-31" points="936.21 1404.99 986.99 1375.67 986.99 1353.37 936.21 1382.69 936.21 1404.99"/><polygon class="cls-32" points="723.83 1120.01 653.41 1160.66 653.41 1138.36 723.83 1097.7 723.83 1120.01"/><polygon class="cls-31" points="708.75 1179.67 653.41 1211.62 653.41 1189.31 708.75 1157.36 708.75 1179.67"/><polygon class="cls-31" points="693.45 1239.45 653.41 1262.57 653.41 1240.26 693.45 1217.15 693.45 1239.45"/><polygon class="cls-31" points="711.65 1279.89 653.41 1313.52 653.41 1291.21 711.65 1257.59 711.65 1279.89"/><polygon class="cls-19" points="693.45 1341.35 653.41 1364.47 653.41 1342.16 693.45 1319.05 693.45 1341.35"/><polygon class="cls-32" points="704.19 1386.1 653.41 1415.42 653.41 1393.11 704.19 1363.8 704.19 1386.1"/><polygon class="cls-31" points="681.08 1450.39 653.41 1466.37 653.41 1444.06 681.08 1428.09 681.08 1450.39"/><polygon class="cls-31" points="707.02 1486.36 653.41 1517.32 653.41 1495.02 707.02 1464.06 707.02 1486.36"/><polygon class="cls-31" points="704.19 1538.95 653.41 1568.27 653.41 1545.96 704.19 1516.65 704.19 1538.95"/><polygon class="cls-31" points="899.1 1426.42 920.69 1413.95 920.69 1391.65 899.1 1404.12 899.1 1426.42"/><polygon class="cls-32" points="834.97 1463.44 883.58 1435.38 883.58 1413.07 834.97 1441.14 834.97 1463.44"/><polygon class="cls-31" points="905.07 1474.6 986.99 1427.3 986.99 1404.99 905.07 1452.29 905.07 1474.6"/><polygon class="cls-31" points="830.31 1517.76 889.55 1483.55 889.55 1461.25 830.31 1495.46 830.31 1517.76"/><polygon class="cls-31" points="774.75 1549.84 814.79 1526.72 814.79 1504.41 774.75 1527.53 774.75 1549.84"/><polygon class="cls-31" points="959.32 1494.22 986.99 1478.25 986.99 1455.94 959.32 1471.92 959.32 1494.22"/><polygon class="cls-32" points="907.24 1524.29 943.8 1503.18 943.8 1480.88 907.24 1501.99 907.24 1524.29"/><polygon class="cls-31" points="832.8 1567.27 891.72 1533.25 891.72 1510.95 832.8 1544.96 832.8 1567.27"/><polygon class="cls-19" points="902.23 1578.13 986.99 1529.2 986.99 1506.89 902.23 1555.83 902.23 1578.13"/><polygon class="cls-31" points="807.3 1632.94 886.72 1587.09 886.72 1564.79 807.3 1610.64 807.3 1632.94"/><polygon class="cls-19" points="766.94 1656.25 791.79 1641.9 791.79 1619.6 766.94 1633.94 766.94 1656.25"/><polygon class="cls-31" points="728.2 1678.61 753.05 1664.27 753.05 1641.96 728.2 1656.31 728.2 1678.61"/><polygon class="cls-31" points="936.21 1609.47 986.99 1580.15 986.99 1557.85 936.21 1587.16 936.21 1609.47"/><polygon class="cls-32" points="704.19 1590.57 653.41 1619.89 653.41 1597.59 704.19 1568.27 704.19 1590.57"/><polygon class="cls-31" points="681.08 1654.87 653.41 1670.84 653.41 1648.54 681.08 1632.56 681.08 1654.87"/><polygon class="cls-31" points="707.02 1690.84 653.41 1721.79 653.41 1699.49 707.02 1668.53 707.02 1690.84"/><polygon class="cls-31" points="704.19 1743.42 653.41 1772.74 653.41 1750.44 704.19 1721.12 704.19 1743.42"/><polygon class="cls-31" points="899.1 1630.89 920.69 1618.43 920.69 1596.12 899.1 1608.59 899.1 1630.89"/><polygon class="cls-32" points="834.97 1667.92 883.58 1639.85 883.58 1617.55 834.97 1645.61 834.97 1667.92"/><polygon class="cls-31" points="946.95 639.75 986.99 616.63 986.99 594.33 946.95 617.44 946.95 639.75"/><polygon class="cls-31" points="917.75 656.61 931.44 648.71 931.44 626.4 917.75 634.3 917.75 656.61"/><polygon class="cls-31" points="877.38 679.91 902.23 665.56 902.23 643.26 877.38 657.61 877.38 679.91"/><polygon class="cls-31" points="839.2 752.91 986.99 667.58 986.99 645.28 839.2 730.6 839.2 752.91"/><polygon class="cls-19" points="787.12 782.98 823.69 761.86 823.69 739.56 787.12 760.67 787.12 782.98"/><polygon class="cls-31" points="946.95 741.65 986.99 718.53 986.99 696.23 946.95 719.34 946.95 741.65"/><polygon class="cls-32" points="852.98 795.9 931.44 750.61 931.44 728.3 852.98 773.6 852.98 795.9"/><polygon class="cls-31" points="812.62 819.2 837.47 804.86 837.47 782.55 812.62 796.9 812.62 819.2"/><polygon class="cls-31" points="905.07 816.78 986.99 769.48 986.99 747.18 905.07 794.48 905.07 816.78"/><polygon class="cls-31" points="830.31 859.94 889.55 825.74 889.55 803.43 830.31 837.64 830.31 859.94"/><polygon class="cls-31" points="774.75 892.02 814.79 868.9 814.79 846.6 774.75 869.72 774.75 892.02"/><polygon class="cls-31" points="959.32 836.41 986.99 820.43 986.99 798.13 959.32 814.1 959.32 836.41"/><polygon class="cls-32" points="907.24 866.48 943.8 845.37 943.8 823.06 907.24 844.17 907.24 866.48"/><polygon class="cls-31" points="832.8 909.45 891.72 875.44 891.72 853.13 832.8 887.15 832.8 909.45"/><polygon class="cls-19" points="902.23 920.32 986.99 871.38 986.99 849.08 902.23 898.01 902.23 920.32"/><polygon class="cls-31" points="807.3 975.13 886.72 929.28 886.72 906.97 807.3 952.82 807.3 975.13"/><polygon class="cls-19" points="766.94 998.43 791.79 984.09 791.79 961.78 766.94 976.13 766.94 998.43"/><polygon class="cls-31" points="728.2 1020.79 753.05 1006.45 753.05 984.15 728.2 998.49 728.2 1020.79"/><polygon class="cls-31" points="936.21 951.65 986.99 922.33 986.99 900.03 936.21 929.35 936.21 951.65"/><polygon class="cls-31" points="693.45 786.11 653.41 809.22 653.41 786.92 693.45 763.8 693.45 786.11"/><polygon class="cls-31" points="711.65 826.55 653.41 860.17 653.41 837.87 711.65 804.25 711.65 826.55"/><polygon class="cls-19" points="693.45 888.01 653.41 911.13 653.41 888.82 693.45 865.71 693.45 888.01"/><polygon class="cls-32" points="704.19 932.76 653.41 962.08 653.41 939.77 704.19 910.45 704.19 932.76"/><polygon class="cls-31" points="681.08 997.05 653.41 1013.03 653.41 990.72 681.08 974.75 681.08 997.05"/><polygon class="cls-31" points="707.02 1033.02 653.41 1063.98 653.41 1041.67 707.02 1010.72 707.02 1033.02"/><polygon class="cls-31" points="704.19 1085.61 653.41 1114.93 653.41 1092.62 704.19 1063.31 704.19 1085.61"/><polygon class="cls-31" points="899.1 973.08 920.69 960.61 920.69 938.31 899.1 950.77 899.1 973.08"/><polygon class="cls-32" points="834.97 1010.1 883.58 982.04 883.58 959.73 834.97 987.8 834.97 1010.1"/><path class="cls-33" d="M1091,1611.29a15.91,15.91,0,0,1-21.67,4.18,14.89,14.89,0,0,1-4.22-21,15.92,15.92,0,0,1,21.68-4.18A14.89,14.89,0,0,1,1091,1611.29Z"/><path class="cls-32" d="M878.36,1135.54a22.83,22.83,0,0,1-31.08,6,21.36,21.36,0,0,1-6-30.2,22.84,22.84,0,0,1,31.09-6A21.36,21.36,0,0,1,878.36,1135.54Z"/><path class="cls-34" d="M1150.07,1015.38a23.27,23.27,0,0,1-31.69,6.11,21.77,21.77,0,0,1-6.17-30.78,23.28,23.28,0,0,1,31.7-6.11A21.77,21.77,0,0,1,1150.07,1015.38Z"/><path class="cls-34" d="M1744.76,1305.46a14.72,14.72,0,0,1-20,3.86,13.76,13.76,0,0,1-3.9-19.46,14.71,14.71,0,0,1,20-3.87A13.77,13.77,0,0,1,1744.76,1305.46Z"/><path class="cls-34" d="M1755.93,1224.38a30.85,30.85,0,0,1-42,8.1,28.85,28.85,0,0,1-8.17-40.79,30.84,30.84,0,0,1,42-8.11A28.86,28.86,0,0,1,1755.93,1224.38Z"/><path class="cls-34" d="M1117.34,940.52a14.93,14.93,0,0,1-20.32,3.92,14,14,0,0,1-4-19.74,14.93,14.93,0,0,1,20.33-3.92A14,14,0,0,1,1117.34,940.52Z"/><path class="cls-32" d="M706.41,1503.39a22.83,22.83,0,0,1-31.08,6,21.35,21.35,0,0,1-6.05-30.19,22.84,22.84,0,0,1,31.09-6A21.36,21.36,0,0,1,706.41,1503.39Z"/><path class="cls-34" d="M978.12,1383.23a23.28,23.28,0,0,1-31.69,6.11,21.77,21.77,0,0,1-6.16-30.78,23.28,23.28,0,0,1,31.69-6.12A21.78,21.78,0,0,1,978.12,1383.23Z"/><path class="cls-34" d="M945.39,1308.36a14.92,14.92,0,0,1-20.32,3.92,14,14,0,0,1-4-19.74,14.93,14.93,0,0,1,20.32-3.92A14,14,0,0,1,945.39,1308.36Z"/><path class="cls-35" d="M1211.53,1266.29c-6,16.29,2.74,34.15,19.47,39.9s35.15-2.79,41.13-19.08-2.74-34.16-19.47-39.91S1217.51,1250,1211.53,1266.29Z"/><path class="cls-32" d="M1691.38,1167.54a19.12,19.12,0,0,0,12,24.66,20.11,20.11,0,0,0,25.41-11.8,19.12,19.12,0,0,0-12-24.66A20.11,20.11,0,0,0,1691.38,1167.54Z"/><path class="cls-34" d="M1636.05,916.15a19.5,19.5,0,0,0,12.27,25.15,20.51,20.51,0,0,0,25.91-12A19.49,19.49,0,0,0,1662,904.13,20.51,20.51,0,0,0,1636.05,916.15Z"/><path class="cls-34" d="M1108,658.54a12.32,12.32,0,0,0,7.75,15.9,13,13,0,0,0,16.39-7.61,12.33,12.33,0,0,0-7.76-15.9A13,13,0,0,0,1108,658.54Z"/><path class="cls-34" d="M1161.74,607.92A25.84,25.84,0,0,0,1178,641.24c14,4.8,29.35-2.34,34.34-15.94A25.82,25.82,0,0,0,1196.08,592C1182.11,587.19,1166.73,594.32,1161.74,607.92Z"/><path class="cls-34" d="M1708.45,899.17a12.52,12.52,0,0,0,7.87,16.13,13.15,13.15,0,0,0,16.62-7.72,12.5,12.5,0,0,0-7.87-16.12A13.16,13.16,0,0,0,1708.45,899.17Z"/><path class="cls-34" d="M1230.53,1861.25a14,14,0,1,1,12.76-15.55A14.28,14.28,0,0,1,1230.53,1861.25Z"/><path class="cls-34" d="M1301.33,1816.83c-16.61,1.85-31.56-9.73-33.39-25.86s10.13-30.72,26.74-32.57,31.56,9.73,33.39,25.87S1317.94,1815,1301.33,1816.83Z"/><path class="cls-32" d="M1304.36,1732a19.23,19.23,0,0,0-11.6,24.94,20,20,0,0,0,25.61,11.18,19.23,19.23,0,0,0,11.6-25A20,20,0,0,0,1304.36,1732Z"/><path class="cls-34" d="M1466,1527.65a19.62,19.62,0,0,0-11.83,25.43c4,10.17,15.64,15.27,26.12,11.39a19.62,19.62,0,0,0,11.83-25.43C1488.12,1528.87,1476.43,1523.77,1466,1527.65Z"/><path class="cls-34" d="M1525.89,1570.28a12.59,12.59,0,0,0-7.59,16.31,13.06,13.06,0,0,0,16.75,7.31,12.59,12.59,0,0,0,7.59-16.31A13.08,13.08,0,0,0,1525.89,1570.28Z"/><g class="cls-36"><ellipse class="cls-31" cx="761.84" cy="1818.2" rx="32.18" ry="31.27" transform="translate(-125.22 57.69) rotate(-4.01)"/><path class="cls-31" d="M906.05,1717.41a21.86,21.86,0,0,0,13.77,28.21c11.83,4.07,24.85-2,29.08-13.49a21.89,21.89,0,0,0-13.77-28.22C923.3,1699.85,910.28,1705.89,906.05,1717.41Z"/></g></g></g></g></svg>