<svg xmlns="http://www.w3.org/2000/svg" xmlns:xlink="http://www.w3.org/1999/xlink" viewBox="0 0 1273.91 1971.41"><defs><style>.cls-1{mask:url(#mask);filter:url(#luminosity-noclip-2);}.cls-2{mix-blend-mode:multiply;fill:url(#Áåçûìÿííûé_ãðàäèåíò_5);}.cls-3{fill:none;}.cls-4{isolation:isolate;}.cls-5{opacity:0.67;}.cls-6{fill:#24126a;}.cls-7{fill:url(#Áåçûìÿííûé_ãðàäèåíò_260);}.cls-8{fill:url(#Áåçûìÿííûé_ãðàäèåíò_3);}.cls-9{fill:#393091;}.cls-10{fill:#cad0f9;}.cls-11{opacity:0.51;}.cls-12{fill:#453c9e;}.cls-13{fill:#bcbeff;}.cls-14{mask:url(#mask-2);}.cls-15{opacity:0.78;fill:url(#Áåçûìÿííûé_ãðàäèåíò_14);}.cls-16{fill:url(#Áåçûìÿííûé_ãðàäèåíò_24);}.cls-17{fill:url(#Áåçûìÿííûé_ãðàäèåíò_3-2);}.cls-18{fill:url(#Áåçûìÿííûé_ãðàäèåíò_3-3);}.cls-19{fill:#3f21d3;}.cls-20{fill:url(#Áåçûìÿííûé_ãðàäèåíò_24-2);}.cls-21{fill:url(#Áåçûìÿííûé_ãðàäèåíò_24-3);}.cls-22{fill:url(#Áåçûìÿííûé_ãðàäèåíò_24-4);}.cls-23{fill:url(#Áåçûìÿííûé_ãðàäèåíò_24-5);}.cls-24{fill:url(#Áåçûìÿííûé_ãðàäèåíò_24-6);}.cls-25{fill:url(#Áåçûìÿííûé_ãðàäèåíò_24-7);}.cls-26{fill:url(#Áåçûìÿííûé_ãðàäèåíò_24-8);}.cls-27{fill:url(#Áåçûìÿííûé_ãðàäèåíò_24-9);}.cls-28{fill:url(#Áåçûìÿííûé_ãðàäèåíò_24-10);}.cls-29{fill:url(#Áåçûìÿííûé_ãðàäèåíò_24-11);}.cls-30{fill:url(#Áåçûìÿííûé_ãðàäèåíò_24-12);}.cls-31{fill:url(#Áåçûìÿííûé_ãðàäèåíò_24-13);}.cls-32{fill:url(#Áåçûìÿííûé_ãðàäèåíò_24-14);}.cls-33{fill:url(#Áåçûìÿííûé_ãðàäèåíò_24-15);}.cls-34{fill:url(#Áåçûìÿííûé_ãðàäèåíò_3-4);}.cls-35{fill:#2842a2;}.cls-36{fill:#adb1f2;}.cls-37{fill:#9198db;}.cls-38{fill:url(#Áåçûìÿííûé_ãðàäèåíò_3-5);}.cls-39{opacity:0.11;}.cls-40{clip-path:url(#clip-path);}.cls-41{fill:url(#Áåçûìÿííûé_ãðàäèåíò_3-6);}.cls-42{fill:url(#Áåçûìÿííûé_ãðàäèåíò_3-7);}.cls-43{fill:#42e8e0;}.cls-44{fill:url(#Áåçûìÿííûé_ãðàäèåíò_3-8);}.cls-45{fill:url(#Áåçûìÿííûé_ãðàäèåíò_24-16);}.cls-46{fill:url(#Áåçûìÿííûé_ãðàäèåíò_3-9);}.cls-47{fill:url(#Áåçûìÿííûé_ãðàäèåíò_24-17);}.cls-48{fill:url(#Áåçûìÿííûé_ãðàäèåíò_3-10);}.cls-49{fill:url(#Áåçûìÿííûé_ãðàäèåíò_24-18);}.cls-50{fill:url(#Áåçûìÿííûé_ãðàäèåíò_3-11);}.cls-51{fill:url(#Áåçûìÿííûé_ãðàäèåíò_24-19);}.cls-52{fill:url(#Áåçûìÿííûé_ãðàäèåíò_3-12);}.cls-53{fill:url(#Áåçûìÿííûé_ãðàäèåíò_24-20);}.cls-54{fill:url(#Áåçûìÿííûé_ãðàäèåíò_3-13);}.cls-55{fill:url(#Áåçûìÿííûé_ãðàäèåíò_24-21);}.cls-56,.cls-58{mix-blend-mode:lighten;}.cls-57,.cls-58{fill:#8686f2;}.cls-59{filter:url(#luminosity-noclip);}</style><filter id="luminosity-noclip" x="79.67" y="-9182.15" width="663.16" height="32766" filterUnits="userSpaceOnUse" color-interpolation-filters="sRGB"><feFlood flood-color="#fff" result="bg"/><feBlend in="SourceGraphic" in2="bg"/></filter><mask id="mask" x="79.67" y="-9182.15" width="663.16" height="32766" maskUnits="userSpaceOnUse"><g class="cls-59"/></mask><linearGradient id="Áåçûìÿííûé_ãðàäèåíò_5" x1="182.77" y1="300.81" x2="845.93" y2="300.81" gradientUnits="userSpaceOnUse"><stop offset="0"/><stop offset="0.05" stop-color="#2f2f2f"/><stop offset="0.1" stop-color="#5a5a5a"/><stop offset="0.15" stop-color="#828282"/><stop offset="0.22" stop-color="#a4a4a4"/><stop offset="0.28" stop-color="silver"/><stop offset="0.36" stop-color="#d7d7d7"/><stop offset="0.44" stop-color="#e9e9e9"/><stop offset="0.54" stop-color="#f6f6f6"/><stop offset="0.68" stop-color="#fdfdfd"/><stop offset="1" stop-color="#fff"/></linearGradient><linearGradient id="Áåçûìÿííûé_ãðàäèåíò_260" y1="1611.1" x2="1240.09" y2="1611.1" gradientUnits="userSpaceOnUse"><stop offset="0" stop-color="#5761d7"/><stop offset="0.07" stop-color="#5472d8"/><stop offset="0.28" stop-color="#4e9cdb"/><stop offset="0.48" stop-color="#49bddd"/><stop offset="0.67" stop-color="#45d5df"/><stop offset="0.85" stop-color="#43e3e0"/><stop offset="1" stop-color="#42e8e0"/></linearGradient><linearGradient id="Áåçûìÿííûé_ãðàäèåíò_3" x1="954.49" y1="1819.21" x2="954.49" y2="385.41" gradientUnits="userSpaceOnUse"><stop offset="0" stop-color="#c0bff6"/><stop offset="0.29" stop-color="#c5c4f7"/><stop offset="0.64" stop-color="#d3d2f9"/><stop offset="1" stop-color="#e9e9fd"/></linearGradient><filter id="luminosity-noclip-2" x="79.67" y="19.43" width="663.16" height="562.74" filterUnits="userSpaceOnUse" color-interpolation-filters="sRGB"><feFlood flood-color="#fff" result="bg"/><feBlend in="SourceGraphic" in2="bg"/></filter><mask id="mask-2" x="79.67" y="19.43" width="663.16" height="562.74" maskUnits="userSpaceOnUse"><g class="cls-1"><path class="cls-2" d="M497.27,19.43h-46.6L86,230c-7.61,4.39-8.43,11-1.84,14.84l17.7,10.22L668.4,582.18l74.43-.84Z"/></g></mask><linearGradient id="Áåçûìÿííûé_ãðàäèåíò_14" x1="182.77" y1="300.81" x2="845.93" y2="300.81" gradientUnits="userSpaceOnUse"><stop offset="0" stop-color="#e9e9fd"/><stop offset="0.04" stop-color="#d3d5f7"/><stop offset="0.11" stop-color="#b2b6ef"/><stop offset="0.18" stop-color="#969be7"/><stop offset="0.27" stop-color="#7f86e1"/><stop offset="0.36" stop-color="#6d75dd"/><stop offset="0.48" stop-color="#606ad9"/><stop offset="0.64" stop-color="#5963d8"/><stop offset="1" stop-color="#5761d7"/></linearGradient><linearGradient id="Áåçûìÿííûé_ãðàäèåíò_24" x1="153.51" y1="311.99" x2="1041.21" y2="311.99" gradientUnits="userSpaceOnUse"><stop offset="0" stop-color="#5761d7"/><stop offset="0.18" stop-color="#5c66d9"/><stop offset="0.39" stop-color="#6a73df"/><stop offset="0.61" stop-color="#8289e8"/><stop offset="0.85" stop-color="#a3a7f5"/><stop offset="1" stop-color="#bcbeff"/></linearGradient><linearGradient id="Áåçûìÿííûé_ãðàäèåíò_3-2" x1="742.83" y1="470.51" x2="1086.59" y2="470.51" xlink:href="#Áåçûìÿííûé_ãðàäèåíò_3"/><linearGradient id="Áåçûìÿííûé_ãðàäèåíò_3-3" x1="153.51" y1="288.79" x2="1086.59" y2="288.79" xlink:href="#Áåçûìÿííûé_ãðàäèåíò_3"/><linearGradient id="Áåçûìÿííûé_ãðàäèåíò_24-2" x1="358.06" y1="158.7" x2="467.85" y2="158.7" xlink:href="#Áåçûìÿííûé_ãðàäèåíò_24"/><linearGradient id="Áåçûìÿííûé_ãðàäèåíò_24-3" x1="386.56" y1="175.1" x2="496.34" y2="175.1" xlink:href="#Áåçûìÿííûé_ãðàäèåíò_24"/><linearGradient id="Áåçûìÿííûé_ãðàäèåíò_24-4" x1="415.05" y1="191.5" x2="524.84" y2="191.5" xlink:href="#Áåçûìÿííûé_ãðàäèåíò_24"/><linearGradient id="Áåçûìÿííûé_ãðàäèåíò_24-5" x1="443.55" y1="207.9" x2="553.34" y2="207.9" xlink:href="#Áåçûìÿííûé_ãðàäèåíò_24"/><linearGradient id="Áåçûìÿííûé_ãðàäèåíò_24-6" x1="526.89" y1="256.33" x2="636.68" y2="256.33" xlink:href="#Áåçûìÿííûé_ãðàäèåíò_24"/><linearGradient id="Áåçûìÿííûé_ãðàäèåíò_24-7" x1="555.39" y1="272.73" x2="665.18" y2="272.73" xlink:href="#Áåçûìÿííûé_ãðàäèåíò_24"/><linearGradient id="Áåçûìÿííûé_ãðàäèåíò_24-8" x1="583.89" y1="289.13" x2="693.67" y2="289.13" xlink:href="#Áåçûìÿííûé_ãðàäèåíò_24"/><linearGradient id="Áåçûìÿííûé_ãðàäèåíò_24-9" x1="612.38" y1="305.53" x2="722.17" y2="305.53" xlink:href="#Áåçûìÿííûé_ãðàäèåíò_24"/><linearGradient id="Áåçûìÿííûé_ãðàäèåíò_24-10" x1="695.72" y1="353.95" x2="805.51" y2="353.95" xlink:href="#Áåçûìÿííûé_ãðàäèåíò_24"/><linearGradient id="Áåçûìÿííûé_ãðàäèåíò_24-11" x1="724.22" y1="370.35" x2="834.01" y2="370.35" xlink:href="#Áåçûìÿííûé_ãðàäèåíò_24"/><linearGradient id="Áåçûìÿííûé_ãðàäèåíò_24-12" x1="752.72" y1="386.76" x2="862.51" y2="386.76" xlink:href="#Áåçûìÿííûé_ãðàäèåíò_24"/><linearGradient id="Áåçûìÿííûé_ãðàäèåíò_24-13" x1="781.22" y1="403.16" x2="891" y2="403.16" xlink:href="#Áåçûìÿííûé_ãðàäèåíò_24"/><linearGradient id="Áåçûìÿííûé_ãðàäèåíò_24-14" x1="1094.25" y1="1181.76" x2="861.76" y2="1009.07" xlink:href="#Áåçûìÿííûé_ãðàäèåíò_24"/><linearGradient id="Áåçûìÿííûé_ãðàäèåíò_24-15" x1="809.78" y1="1342.4" x2="1273.76" y2="1342.4" xlink:href="#Áåçûìÿííûé_ãðàäèåíò_24"/><linearGradient id="Áåçûìÿííûé_ãðàäèåíò_3-4" x1="965.68" y1="1326.93" x2="1429.91" y2="1326.93" xlink:href="#Áåçûìÿííûé_ãðàäèåíò_3"/><linearGradient id="Áåçûìÿííûé_ãðàäèåíò_3-5" x1="1044.3" y1="1353.28" x2="1163.13" y2="1353.28" xlink:href="#Áåçûìÿííûé_ãðàäèåíò_3"/><clipPath id="clip-path"><polygon class="cls-3" points="1067.94 1193.62 1067.94 831.92 809.68 981 809.68 1342.69 1067.94 1193.62"/></clipPath><linearGradient id="Áåçûìÿííûé_ãðàäèåíò_3-6" x1="790.21" y1="1223.71" x2="1252.23" y2="1223.71" xlink:href="#Áåçûìÿííûé_ãðàäèåíò_3"/><linearGradient id="Áåçûìÿííûé_ãðàäèåíò_3-7" x1="759.8" y1="1189.79" x2="878.07" y2="1189.79" xlink:href="#Áåçûìÿííûé_ãðàäèåíò_3"/><linearGradient id="Áåçûìÿííûé_ãðàäèåíò_3-8" x1="674.43" y1="635.1" x2="702.55" y2="635.1" xlink:href="#Áåçûìÿííûé_ãðàäèåíò_3"/><linearGradient id="Áåçûìÿííûé_ãðàäèåíò_24-16" x1="671.01" y1="637.97" x2="694.26" y2="637.97" xlink:href="#Áåçûìÿííûé_ãðàäèåíò_24"/><linearGradient id="Áåçûìÿííûé_ãðàäèåíò_3-9" x1="99.57" y1="305.09" x2="127.69" y2="305.09" xlink:href="#Áåçûìÿííûé_ãðàäèåíò_3"/><linearGradient id="Áåçûìÿííûé_ãðàäèåíò_24-17" x1="96.15" y1="307.95" x2="119.4" y2="307.95" xlink:href="#Áåçûìÿííûé_ãðàäèåíò_24"/><linearGradient id="Áåçûìÿííûé_ãðàäèåíò_3-10" x1="674.43" y1="1752.76" x2="702.55" y2="1752.76" xlink:href="#Áåçûìÿííûé_ãðàäèåíò_3"/><linearGradient id="Áåçûìÿííûé_ãðàäèåíò_24-18" x1="671.01" y1="1755.99" x2="694.26" y2="1755.99" xlink:href="#Áåçûìÿííûé_ãðàäèåíò_24"/><linearGradient id="Áåçûìÿííûé_ãðàäèåíò_3-11" x1="674.44" y1="1755.14" x2="702.56" y2="1755.14" xlink:href="#Áåçûìÿííûé_ãðàäèåíò_3"/><linearGradient id="Áåçûìÿííûé_ãðàäèåíò_24-19" x1="671.01" y1="1755.14" x2="694.26" y2="1755.14" xlink:href="#Áåçûìÿííûé_ãðàäèåíò_24"/><linearGradient id="Áåçûìÿííûé_ãðàäèåíò_3-12" x1="99.57" y1="1422.74" x2="127.69" y2="1422.74" xlink:href="#Áåçûìÿííûé_ãðàäèåíò_3"/><linearGradient id="Áåçûìÿííûé_ãðàäèåíò_24-20" x1="96.15" y1="1425.98" x2="119.4" y2="1425.98" xlink:href="#Áåçûìÿííûé_ãðàäèåíò_24"/><linearGradient id="Áåçûìÿííûé_ãðàäèåíò_3-13" x1="99.58" y1="1425.13" x2="127.7" y2="1425.13" xlink:href="#Áåçûìÿííûé_ãðàäèåíò_3"/><linearGradient id="Áåçûìÿííûé_ãðàäèåíò_24-21" x1="96.15" y1="1425.13" x2="119.4" y2="1425.13" xlink:href="#Áåçûìÿííûé_ãðàäèåíò_24"/></defs><g class="cls-4"><g id="Layer_2" data-name="Layer 2"><g id="SERVEUR"><g class="cls-5"><path class="cls-6" d="M736.35,1920.51,84.12,1544c-6.59-3.81-5.77-10.45,1.84-14.85L478,1302.74c7.61-4.39,19.12-4.87,25.71-1.07L1156,1678.24c6.59,3.8,5.76,10.45-1.85,14.84L762.06,1919.45C754.45,1923.84,742.94,1924.32,736.35,1920.51Z"/></g><path class="cls-7" d="M765,1971.41c-5.75,0-11.28-1.2-15.52-3.64L7.85,1539.57c-5-2.88-7.85-7.31-7.85-12.16,0-5.49,3.63-10.73,10-14.38l445.82-257.4c10.35-6,25.63-6.5,34.81-1.21l741.66,428.2c5,2.87,7.84,7.3,7.84,12.15,0,5.49-3.62,10.73-9.94,14.38l-445.83,257.4A39.48,39.48,0,0,1,765,1971.41Zm-9.94-13.3c5.74,3.31,16.81,2.74,23.66-1.21l445.83-257.4c3.45-2,4.37-3.91,4.37-4.73s-.85-1.68-2.27-2.5L485,1264.08c-5.74-3.31-16.79-2.75-23.65,1.21L15.53,1522.69c-3.46,2-4.37,3.91-4.37,4.72s.84,1.68,2.27,2.5Z"/><path class="cls-6" d="M740.47,556.34h71.76c-10.64-24.13-17.24-39-17.24-39L79.67,238.18l.06,1194.67c0,.13,0,.26,0,.39v1.11l0,0c.26,2.15,1.65,4.18,4.34,5.73l652.23,376.56a17.6,17.6,0,0,0,4.12,1.62Z"/><path class="cls-8" d="M1160.42,385.41,748.81,620.28v719l-.26-.15v480h.26a29.59,29.59,0,0,0,13.25-3.61l392.07-226.37c4-2.32,6.1-5.28,6.23-8.11l.07,0Z"/><path class="cls-9" d="M719.27,260.89V1806.81l17.08,9.85c3.23,1.87,7.64,2.7,12.2,2.56,4.74-.16,5-2.84,8.86-5.08l3.52-1.46-3.8-183.42v-287.4l8.58-1081Z"/><path class="cls-10" d="M765.71,1631.81V610.64l-16.9,9.64v719l-.26-.15v480h.26c1,0,2-.16,3-.29.18,0,.37,0,.55-.05a30.21,30.21,0,0,0,6.31-1.67c.13,0,.28-.08.42-.14a23.39,23.39,0,0,0,3-1.46l3.65-2.11Z"/><g class="cls-11"><polygon class="cls-12" points="111.92 303.86 686.78 635.76 686.78 1753.72 111.92 1421.83 111.92 303.86"/></g><g class="cls-11"><polygon class="cls-12" points="79.67 1260.49 719.27 832.33 719.27 611.55 79.67 238.18 79.67 1260.49"/></g><path class="cls-13" d="M736.35,621.41,84.12,244.84C77.53,241,78.35,234.39,86,230L478,3.63c7.61-4.39,19.12-4.87,25.71-1.06L1156,379.13c6.59,3.81,5.76,10.45-1.85,14.85L762.06,620.34C754.45,624.74,742.94,625.21,736.35,621.41Z"/><g class="cls-14"><path class="cls-15" d="M497.27,19.43h-46.6L86,230c-7.61,4.39-8.43,11-1.84,14.84l17.7,10.22L668.4,582.18l74.43-.84Z"/></g><polygon class="cls-16" points="497.27 42.63 183.89 223.56 153.51 217.9 153.51 241.1 742.83 581.34 1041.21 378.49 497.27 42.63"/><polygon class="cls-17" points="1086.59 359.68 1086.59 382.88 742.83 581.34 742.83 558.14 1086.59 359.68"/><polygon class="cls-18" points="742.83 558.14 153.51 217.9 497.27 19.43 1086.59 359.68 742.83 558.14"/><polygon class="cls-19" points="373.48 193.1 364.09 187.67 364.87 183.28 451.96 132.59 464.05 138.36 461.8 142.11 373.48 193.1"/><polygon class="cls-20" points="452.42 136.7 461.8 142.11 467.85 138.62 452.42 129.71 358.06 184.19 364.11 187.69 452.42 136.7"/><polygon class="cls-19" points="401.98 209.5 392.59 204.07 393.37 199.68 480.46 149 492.55 154.76 490.3 158.51 401.98 209.5"/><polygon class="cls-21" points="480.92 153.1 490.29 158.51 496.34 155.02 480.92 146.11 386.56 200.59 392.61 204.09 480.92 153.1"/><polygon class="cls-19" points="430.48 225.9 421.08 220.48 421.86 216.08 508.95 165.4 521.05 171.16 518.79 174.91 430.48 225.9"/><polygon class="cls-22" points="509.42 169.5 518.79 174.91 524.84 171.42 509.42 162.52 415.06 217 421.1 220.49 509.42 169.5"/><polygon class="cls-19" points="458.98 242.3 449.58 236.88 450.36 232.48 537.45 181.8 549.54 187.56 547.29 191.32 458.98 242.3"/><polygon class="cls-23" points="537.91 185.9 547.29 191.32 553.34 187.82 537.91 178.92 443.55 233.4 449.6 236.89 537.91 185.9"/><polygon class="cls-19" points="542.32 290.72 532.92 285.3 533.7 280.9 620.79 230.22 632.88 235.98 630.63 239.74 542.32 290.72"/><polygon class="cls-24" points="621.25 234.32 630.63 239.74 636.68 236.25 621.25 227.34 526.89 281.82 532.94 285.31 621.25 234.32"/><polygon class="cls-19" points="570.81 307.13 561.42 301.7 562.2 297.31 649.29 246.62 661.38 252.38 659.13 256.14 570.81 307.13"/><polygon class="cls-25" points="649.75 250.73 659.13 256.14 665.18 252.65 649.75 243.74 555.39 298.22 561.44 301.71 649.75 250.73"/><polygon class="cls-19" points="599.31 323.53 589.92 318.1 590.7 313.71 677.79 263.02 689.88 268.79 687.63 272.54 599.31 323.53"/><polygon class="cls-26" points="678.25 267.13 687.62 272.54 693.67 269.05 678.25 260.14 583.89 314.62 589.94 318.12 678.25 267.13"/><polygon class="cls-19" points="627.81 339.93 618.41 334.51 619.19 330.11 706.28 279.43 718.38 285.19 716.12 288.94 627.81 339.93"/><polygon class="cls-27" points="706.75 283.53 716.12 288.94 722.17 285.45 706.75 276.55 612.38 331.02 618.43 334.52 706.75 283.53"/><polygon class="cls-19" points="711.15 388.35 701.75 382.93 702.53 378.53 789.62 327.85 801.72 333.61 799.46 337.36 711.15 388.35"/><polygon class="cls-28" points="790.09 331.95 799.46 337.36 805.51 333.87 790.09 324.96 695.72 379.44 701.77 382.94 790.09 331.95"/><polygon class="cls-19" points="739.65 404.75 730.25 399.33 731.03 394.93 818.12 344.25 830.21 350.01 827.96 353.76 739.65 404.75"/><polygon class="cls-29" points="818.58 348.35 827.96 353.76 834.01 350.27 818.58 341.37 724.22 395.85 730.27 399.34 818.58 348.35"/><polygon class="cls-19" points="768.14 421.15 758.75 415.73 759.53 411.33 846.62 360.65 858.71 366.41 856.46 370.17 768.14 421.15"/><polygon class="cls-30" points="847.08 364.75 856.46 370.17 862.51 366.67 847.08 357.77 752.72 412.25 758.77 415.74 847.08 364.75"/><polygon class="cls-19" points="796.64 437.56 787.25 432.13 788.03 427.73 875.12 377.05 887.21 382.81 884.96 386.57 796.64 437.56"/><polygon class="cls-31" points="875.58 381.15 884.96 386.57 891 383.08 875.58 374.17 781.22 428.65 787.27 432.14 875.58 381.15"/><polygon class="cls-13" points="1099.29 1192.25 809.68 1359.45 809.68 963.64 1099.29 796.43 1099.29 1192.25"/><polygon class="cls-32" points="1083.18 805.74 1083.18 1184.78 809.68 1342.69 809.68 1359.45 1099.29 1192.25 1099.29 796.43 1083.18 805.74"/><path class="cls-33" d="M1273.76,1294.4l-15.52,8.1-155.62-89.85c-2.6-1.5-7.15-1.31-10.16.42l-268.4,155c-2.57-1.44-14.28-7.07-14.28-7.07l5.68,14.8,0,0a3.39,3.39,0,0,0,1.59,1.76L981,1472.14c2.61,1.5,7.15,1.32,10.16-.42l274.66-158.58a4.92,4.92,0,0,0,2.31-2.44h0Z"/><path class="cls-34" d="M1271.36,1297,989.87,1459.47c-3.08,1.78-7.74,2-10.41.43l-168-97c-2.66-1.54-2.33-4.24.75-6l281.49-162.52c3.08-1.78,7.74-2,10.41-.44l168,97C1274.78,1292.48,1274.44,1295.17,1271.36,1297Z"/><path class="cls-35" d="M905,1424.31v-3.09c0-.29.18-.42.4-.3l10.89,6.29a1,1,0,0,1,.4.76v3.09c0,.29-.18.42-.4.3l-10.89-6.29A1,1,0,0,1,905,1424.31Z"/><path class="cls-35" d="M921.25,1433.71v-3.09c0-.29.17-.42.39-.3l10.89,6.29a1,1,0,0,1,.4.76v3.09c0,.29-.18.42-.4.3l-10.89-6.29A1,1,0,0,1,921.25,1433.71Z"/><path class="cls-36" d="M855.28,1353.83l233.92-135a5,5,0,0,1,5,0l83.29,48.2a1.79,1.79,0,0,1,0,3.11l-233.81,135a5,5,0,0,1-5,0l-83.41-48.14A1.79,1.79,0,0,1,855.28,1353.83Z"/><path class="cls-37" d="M855.28,1356.94l.83.49,233.09-134.57a5,5,0,0,1,5,0l82.46,47.71.83-.48a1.79,1.79,0,0,0,0-3.11l-83.29-48.2a5,5,0,0,0-5,0l-233.92,135A1.79,1.79,0,0,0,855.28,1356.94Z"/><polygon class="cls-6" points="1100.52 1230.99 897.33 1348.3 888.3 1343.08 1091.49 1225.77 1100.52 1230.99"/><polygon class="cls-6" points="1122.67 1243.78 932.09 1353.81 923.05 1348.59 1113.64 1238.56 1122.67 1243.78"/><polygon class="cls-6" points="1137.1 1252.11 912.7 1381.66 903.67 1376.44 1128.06 1246.89 1137.1 1252.11"/><polygon class="cls-6" points="1151.53 1260.43 927.13 1389.99 918.1 1384.77 1142.49 1255.22 1151.53 1260.43"/><polygon class="cls-6" points="1165.95 1268.76 941.56 1398.32 932.52 1393.1 1156.92 1263.55 1165.95 1268.76"/><polygon class="cls-6" points="885.05 1355.39 876.02 1360.61 866.98 1355.39 876.02 1350.17 885.05 1355.39"/><polygon class="cls-6" points="916.92 1362.57 898.17 1373.39 889.13 1368.18 907.88 1357.35 916.92 1362.57"/><path class="cls-38" d="M1098.2,1386.52l63.08-36.42c2.46-1.42,2.46-3.73,0-5.15L1118.15,1320a9.89,9.89,0,0,0-8.93,0l-63.07,36.42c-2.47,1.42-2.47,3.73,0,5.15l43.13,24.91A9.87,9.87,0,0,0,1098.2,1386.52Z"/><path class="cls-37" d="M1046.15,1358.57l63.07-36.42a9.89,9.89,0,0,1,8.93,0l43.13,24.9a3.86,3.86,0,0,1,1.55,1.53c.65-1.25.15-2.65-1.55-3.63L1118.15,1320a9.89,9.89,0,0,0-8.93,0l-63.07,36.42c-1.71,1-2.21,2.39-1.55,3.63A3.84,3.84,0,0,1,1046.15,1358.57Z"/><polygon class="cls-6" points="1083.18 805.74 809.68 963.64 809.68 1342.69 1083.18 1184.78 1083.18 805.74"/><polygon class="cls-6" points="1083.18 805.74 809.68 963.64 809.68 1342.69 1083.18 1184.78 1083.18 805.74"/><g class="cls-11"><polygon class="cls-12" points="1067.94 1193.62 1067.94 831.92 809.68 981 809.68 1342.69 1067.94 1193.62"/></g><g class="cls-39"><g class="cls-40"><path class="cls-41" d="M1094.44,1193.87,814.29,1355.62c-3.07,1.77-7.71,2-10.36.43l-167.18-96.52c-2.66-1.53-2.33-4.21.74-6L917.64,1091.8c3.07-1.77,7.71-2,10.37-.43l167.17,96.52C1097.84,1189.42,1097.51,1192.1,1094.44,1193.87Z"/><path class="cls-42" d="M813.45,1222.87l62.78-36.24c2.45-1.42,2.45-3.71,0-5.13l-42.93-24.78a9.81,9.81,0,0,0-8.89,0L761.64,1193c-2.45,1.42-2.45,3.71,0,5.13l42.93,24.78A9.79,9.79,0,0,0,813.45,1222.87Z"/><path class="cls-37" d="M761.64,1195.06l62.77-36.24a9.81,9.81,0,0,1,8.89,0l42.93,24.78a3.92,3.92,0,0,1,1.54,1.51c.65-1.23.15-2.63-1.54-3.61l-42.93-24.78a9.81,9.81,0,0,0-8.89,0L761.64,1193c-1.7,1-2.19,2.37-1.54,3.61A3.85,3.85,0,0,1,761.64,1195.06Z"/><path class="cls-36" d="M734.05,1279.51l232.8-134.41a5,5,0,0,1,5,0l82.9,48a1.78,1.78,0,0,1,0,3.09l-232.7,134.35a5,5,0,0,1-5,0l-83-47.9A1.78,1.78,0,0,1,734.05,1279.51Z"/><path class="cls-37" d="M734.05,1282.61l.83.48,232-133.93a5,5,0,0,1,5,0l82.07,47.48.83-.48a1.78,1.78,0,0,0,0-3.09l-82.9-48a5,5,0,0,0-5,0l-232.8,134.41A1.78,1.78,0,0,0,734.05,1282.61Z"/><polygon class="cls-6" points="1033.08 1189.79 830.26 1306.89 838.29 1311.53 1041.11 1194.43 1033.08 1189.79"/><polygon class="cls-6" points="1011.71 1177.46 818.93 1288.76 826.97 1293.39 1019.74 1182.1 1011.71 1177.46"/><polygon class="cls-6" points="804.54 1297.07 786.53 1307.46 794.57 1312.1 812.57 1301.7 804.54 1297.07"/><polygon class="cls-6" points="820.44 1312.56 807.9 1319.8 815.94 1324.44 828.48 1317.2 820.44 1312.56"/><polygon class="cls-6" points="998.32 1169.73 773.14 1299.73 781.18 1304.37 1006.35 1174.37 998.32 1169.73"/><polygon class="cls-6" points="984.93 1161.99 759.75 1292 767.79 1296.64 992.96 1166.63 984.93 1161.99"/><polygon class="cls-6" points="971.54 1154.26 746.36 1284.27 754.4 1288.91 979.57 1158.9 971.54 1154.26"/></g></g><polygon class="cls-43" points="884.28 1010.66 867.93 1020.1 867.93 1009.15 884.28 999.71 884.28 1010.66"/><polygon class="cls-43" points="884.28 1084.77 867.93 1094.2 867.93 1030.09 884.28 1020.65 884.28 1084.77"/><polygon class="cls-43" points="884.28 1120.21 867.93 1129.65 867.93 1104.19 884.28 1094.75 884.28 1120.21"/><polygon class="cls-43" points="884.28 1156.94 867.93 1166.38 867.93 1140.92 884.28 1131.48 884.28 1156.94"/><polygon class="cls-43" points="908.66 1032.03 892.31 1041.47 892.31 1016.01 908.66 1006.57 908.66 1032.03"/><polygon class="cls-43" points="908.66 1080.68 892.31 1090.12 892.31 1052.74 908.66 1043.3 908.66 1080.68"/><polygon class="cls-43" points="908.66 1125.46 892.31 1134.9 892.31 1102.84 908.66 1093.4 908.66 1125.46"/><polygon class="cls-43" points="884.28 1193.67 867.93 1203.11 867.93 1177.65 884.28 1168.21 884.28 1193.67"/><polygon class="cls-43" points="908.66 996.59 892.31 1006.02 892.31 995.07 908.66 985.63 908.66 996.59"/><polygon class="cls-43" points="896.47 1222.27 867.93 1238.74 867.93 1228.11 896.47 1211.64 896.47 1222.27"/><path class="cls-44" d="M702.55,639.83c0-7.41-5.21-16.43-11.63-20.13-3.23-1.87-6.15-2-8.25-.79h0l-8.24,4.82,5.1.18a13.07,13.07,0,0,0-.23,2.51c0,7.41,5.2,16.43,11.62,20.13a12.8,12.8,0,0,0,2.49,1.12L691,652.09l8.06-4.71h0C701.23,646.18,702.55,643.56,702.55,639.83Z"/><path class="cls-45" d="M694.26,644.68c0,7.41-5.2,10.42-11.62,6.71S671,638.67,671,631.26s5.21-10.42,11.63-6.72S694.26,637.27,694.26,644.68Z"/><path class="cls-19" d="M689.32,641.83c0,4.26-3,6-6.68,3.86A14.76,14.76,0,0,1,676,634.11c0-4.27,3-6,6.69-3.86A14.77,14.77,0,0,1,689.32,641.83Z"/><path class="cls-46" d="M127.69,309.82c0-7.42-5.21-16.43-11.63-20.14-3.23-1.86-6.15-2-8.25-.79h0l-8.24,4.82,5.1.17a13.15,13.15,0,0,0-.23,2.51c0,7.42,5.2,16.43,11.62,20.14a13.43,13.43,0,0,0,2.49,1.12l-2.37,4.43,8.06-4.71h0C126.37,316.16,127.69,313.55,127.69,309.82Z"/><path class="cls-47" d="M119.4,314.66c0,7.42-5.2,10.42-11.62,6.72s-11.63-12.72-11.63-20.14,5.21-10.42,11.63-6.71S119.4,307.25,119.4,314.66Z"/><path class="cls-19" d="M114.46,311.81c0,4.27-3,6-6.68,3.87a14.78,14.78,0,0,1-6.69-11.59c0-4.26,3-6,6.69-3.86A14.78,14.78,0,0,1,114.46,311.81Z"/><path class="cls-48" d="M702.55,1757.48c0-7.41-5.21-16.42-11.63-20.13-3.23-1.86-6.15-2-8.25-.79h0l-8.24,4.81h0c2.1-1.2,5-1,8.2.83,6.42,3.7,11.62,12.72,11.62,20.13,0,3.56-1.22,6.08-3.18,7.35l0,.07,8.06-4.72h0C701.23,1763.83,702.55,1761.22,702.55,1757.48Z"/><path class="cls-49" d="M690.92,1764.2a18.26,18.26,0,0,1-2.36-1.65c-1.11,1.85-3.33,2.29-5.92.79a14.76,14.76,0,0,1-6.69-11.58c0-3,1.48-4.68,3.61-4.73a19,19,0,0,1-.26-3,13.15,13.15,0,0,1,.23-2.51l-5.09-.18c-2.11,1.21-3.43,3.82-3.43,7.54,0,7.41,5.21,16.43,11.63,20.13,3.33,1.93,6.32,2,8.44.64l2.33-4.36A14.13,14.13,0,0,1,690.92,1764.2Z"/><path class="cls-50" d="M694.26,1762.33c0-7.41-5.2-16.43-11.62-20.13-3.2-1.85-6.1-2-8.2-.83l5.09.18a13.15,13.15,0,0,0-.23,2.51,19,19,0,0,0,.26,3,5.74,5.74,0,0,1,3.08.87,14.78,14.78,0,0,1,6.68,11.58,5.88,5.88,0,0,1-.76,3.07,18.26,18.26,0,0,0,2.36,1.65,14.13,14.13,0,0,0,2.49,1.12l-2.33,4.36C693,1768.41,694.26,1765.89,694.26,1762.33Z"/><path class="cls-51" d="M694.26,1762.33c0-7.41-5.2-16.43-11.62-20.13-3.2-1.85-6.1-2-8.2-.83l5.09.18a13.15,13.15,0,0,0-.23,2.51,19,19,0,0,0,.26,3,5.74,5.74,0,0,1,3.08.87,14.78,14.78,0,0,1,6.68,11.58,5.88,5.88,0,0,1-.76,3.07,18.26,18.26,0,0,0,2.36,1.65,14.13,14.13,0,0,0,2.49,1.12l-2.33,4.36C693,1768.41,694.26,1765.89,694.26,1762.33Z"/><path class="cls-19" d="M676,1751.76a14.76,14.76,0,0,0,6.69,11.58c2.59,1.5,4.81,1.06,5.92-.79a27,27,0,0,1-9-15.52C677.43,1747.08,676,1748.78,676,1751.76Z"/><path class="cls-19" d="M688.56,1762.55a5.88,5.88,0,0,0,.76-3.07,14.78,14.78,0,0,0-6.68-11.58,5.74,5.74,0,0,0-3.08-.87A27,27,0,0,0,688.56,1762.55Z"/><path class="cls-52" d="M116.06,1407.34c-3.23-1.87-6.15-2-8.25-.79h0l-8.24,4.82h0c2.1-1.2,5-1,8.2.82,6.42,3.71,11.62,12.72,11.62,20.14,0,3.56-1.22,6.07-3.18,7.34l0,.07,8.06-4.71h0c2.13-1.21,3.45-3.82,3.45-7.55C127.69,1420.06,122.48,1411,116.06,1407.34Z"/><path class="cls-53" d="M116.06,1434.18a18.17,18.17,0,0,1-2.36-1.64c-1.11,1.85-3.33,2.28-5.92.79a14.77,14.77,0,0,1-6.69-11.59c0-3,1.48-4.67,3.61-4.73a18.91,18.91,0,0,1-.26-3,13.18,13.18,0,0,1,.23-2.52l-5.09-.17c-2.12,1.21-3.43,3.81-3.43,7.53,0,7.42,5.21,16.43,11.63,20.14,3.33,1.92,6.32,2,8.44.63l2.33-4.36A13.43,13.43,0,0,1,116.06,1434.18Z"/><path class="cls-54" d="M119.4,1432.32c0-7.42-5.2-16.43-11.62-20.14-3.2-1.84-6.1-2-8.2-.82l5.09.17a13.18,13.18,0,0,0-.23,2.52,18.91,18.91,0,0,0,.26,3,5.92,5.92,0,0,1,3.08.87,14.8,14.8,0,0,1,6.68,11.59,5.9,5.9,0,0,1-.76,3.07,18.17,18.17,0,0,0,2.36,1.64,13.43,13.43,0,0,0,2.49,1.12l-2.33,4.36C118.18,1438.39,119.4,1435.88,119.4,1432.32Z"/><path class="cls-55" d="M119.4,1432.32c0-7.42-5.2-16.43-11.62-20.14-3.2-1.84-6.1-2-8.2-.82l5.09.17a13.18,13.18,0,0,0-.23,2.52,18.91,18.91,0,0,0,.26,3,5.92,5.92,0,0,1,3.08.87,14.8,14.8,0,0,1,6.68,11.59,5.9,5.9,0,0,1-.76,3.07,18.17,18.17,0,0,0,2.36,1.64,13.43,13.43,0,0,0,2.49,1.12l-2.33,4.36C118.18,1438.39,119.4,1435.88,119.4,1432.32Z"/><path class="cls-19" d="M101.09,1421.74a14.77,14.77,0,0,0,6.69,11.59c2.59,1.49,4.81,1.06,5.92-.79a27,27,0,0,1-9-15.53C102.57,1417.07,101.09,1418.77,101.09,1421.74Z"/><path class="cls-19" d="M113.7,1432.54a5.9,5.9,0,0,0,.76-3.07,14.8,14.8,0,0,0-6.68-11.59,5.92,5.92,0,0,0-3.08-.87A27,27,0,0,0,113.7,1432.54Z"/><g class="cls-56"><polygon class="cls-57" points="355.31 875.8 293.6 840.17 293.6 826.62 355.31 862.25 355.31 875.8"/><polygon class="cls-57" points="386.96 894.08 364.74 881.25 364.74 867.7 386.96 880.52 386.96 894.08"/><polygon class="cls-57" points="411.48 908.24 396.38 899.52 396.38 885.97 411.48 894.68 411.48 908.24"/><polygon class="cls-57" points="327.22 890.55 293.6 871.13 293.6 857.58 327.22 876.99 327.22 890.55"/><polygon class="cls-57" points="377.86 919.78 336.65 895.99 336.65 882.44 377.86 906.23 377.86 919.78"/><polygon class="cls-57" points="402.38 933.94 387.29 925.22 387.29 911.67 402.38 920.39 402.38 933.94"/><polygon class="cls-57" points="425.72 947.41 410.63 938.7 410.63 925.15 425.72 933.86 425.72 947.41"/><polygon class="cls-57" points="317.93 916.14 293.6 902.09 293.6 888.54 317.93 902.58 317.93 916.14"/><polygon class="cls-57" points="335.67 926.38 327.36 921.58 327.36 908.03 335.67 912.83 335.67 926.38"/><polygon class="cls-57" points="360.2 940.54 345.1 931.82 345.1 918.27 360.2 926.99 360.2 940.54"/><polygon class="cls-57" points="383.4 984.89 293.6 933.05 293.6 919.5 383.4 971.34 383.4 984.89"/><polygon class="cls-57" points="415.04 1003.16 392.82 990.34 392.82 976.78 415.04 989.61 415.04 1003.16"/><polygon class="cls-57" points="317.93 978.05 293.6 964.01 293.6 950.45 317.93 964.5 317.93 978.05"/><polygon class="cls-57" points="375.02 1011.02 327.36 983.5 327.36 969.94 375.02 997.46 375.02 1011.02"/><polygon class="cls-57" points="399.55 1025.18 384.45 1016.46 384.45 1002.91 399.55 1011.62 399.55 1025.18"/><polygon class="cls-57" points="343.38 1023.7 293.6 994.96 293.6 981.41 343.38 1010.15 343.38 1023.7"/><polygon class="cls-57" points="388.8 1049.93 352.8 1029.14 352.8 1015.59 388.8 1036.38 388.8 1049.93"/><polygon class="cls-57" points="422.56 1069.42 398.23 1055.37 398.23 1041.82 422.56 1055.87 422.56 1069.42"/><polygon class="cls-57" points="310.41 1035.63 293.6 1025.92 293.6 1012.37 310.41 1022.08 310.41 1035.63"/><polygon class="cls-57" points="342.06 1053.9 319.84 1041.07 319.84 1027.52 342.06 1040.35 342.06 1053.9"/><polygon class="cls-57" points="387.29 1080.01 351.49 1059.34 351.49 1045.79 387.29 1066.46 387.29 1080.01"/><polygon class="cls-57" points="345.1 1086.61 293.6 1056.88 293.6 1043.33 345.1 1073.06 345.1 1086.61"/><polygon class="cls-57" points="402.78 1119.91 354.53 1092.06 354.53 1078.5 402.78 1106.36 402.78 1119.91"/><polygon class="cls-57" points="427.31 1134.07 412.21 1125.36 412.21 1111.81 427.31 1120.52 427.31 1134.07"/><polygon class="cls-57" points="450.84 1147.66 435.74 1138.95 435.74 1125.39 450.84 1134.11 450.84 1147.66"/><polygon class="cls-57" points="324.45 1105.65 293.6 1087.84 293.6 1074.29 324.45 1092.1 324.45 1105.65"/><polygon class="cls-57" points="453.5 932.49 496.29 957.2 496.29 943.64 453.5 918.94 453.5 932.49"/><polygon class="cls-57" points="462.66 968.74 496.29 988.15 496.29 974.6 462.66 955.19 462.66 968.74"/><polygon class="cls-57" points="471.96 1005.07 496.29 1019.11 496.29 1005.56 471.96 991.51 471.96 1005.07"/><polygon class="cls-57" points="460.9 1029.64 496.29 1050.07 496.29 1036.52 460.9 1016.09 460.9 1029.64"/><polygon class="cls-57" points="471.96 1066.98 496.29 1081.03 496.29 1067.48 471.96 1053.43 471.96 1066.98"/><polygon class="cls-57" points="465.43 1094.17 496.29 1111.98 496.29 1098.43 465.43 1080.62 465.43 1094.17"/><polygon class="cls-57" points="479.47 1133.24 496.29 1142.94 496.29 1129.39 479.47 1119.68 479.47 1133.24"/><polygon class="cls-57" points="463.71 1155.09 496.29 1173.9 496.29 1160.35 463.71 1141.54 463.71 1155.09"/><polygon class="cls-57" points="465.43 1187.04 496.29 1204.86 496.29 1191.31 465.43 1173.49 465.43 1187.04"/><polygon class="cls-57" points="347 1118.67 333.88 1111.09 333.88 1097.54 347 1105.12 347 1118.67"/><polygon class="cls-57" points="385.97 1141.16 356.43 1124.11 356.43 1110.56 385.97 1127.61 385.97 1141.16"/><polygon class="cls-57" points="410.4 1245.3 360.56 1216.53 360.56 1202.97 410.4 1231.75 410.4 1245.3"/><polygon class="cls-57" points="444.54 1265.01 424.9 1253.68 424.9 1240.12 444.54 1251.46 444.54 1265.01"/></g><path class="cls-58" d="M570.77,1419a10.73,10.73,0,0,1-5.26-1.55L221.28,1218.73c-6.38-3.68-11.38-13.13-11.38-21.52v-498c0-4.83,1.73-8.6,4.74-10.34,2.64-1.51,5.88-1.32,9.11.53L568,888.13c6.38,3.68,11.38,13.13,11.38,21.52v498c0,4.83-1.73,8.6-4.74,10.33A7.63,7.63,0,0,1,570.77,1419Zm-2.79-5.84c1.15.66,2.81,1.31,4.17.54s2.26-3.09,2.26-6.06v-498c0-6.56-4.07-14.45-8.9-17.24L221.28,693.66c-1.17-.67-2.84-1.3-4.17-.53s-2.27,3.09-2.27,6.06v498c0,6.56,4.08,14.45,8.91,17.23Z"/></g></g></g></svg>