<svg xmlns="http://www.w3.org/2000/svg" xmlns:xlink="http://www.w3.org/1999/xlink" viewBox="0 0 295.96 281.87"><defs><style>.cls-1{isolation:isolate;}.cls-11,.cls-14,.cls-16,.cls-2{fill:#42e8e0;}.cls-19,.cls-2,.cls-30,.cls-32{mix-blend-mode:lighten;}.cls-3{fill:url(#Áåçûìÿííûé_ãðàäèåíò_18);}.cls-4{fill:#bcbeff;}.cls-5{fill:#fff;}.cls-6{fill:#0f054c;}.cls-10,.cls-11,.cls-12,.cls-13,.cls-33,.cls-7,.cls-8,.cls-9{opacity:0.5;}.cls-7{fill:url(#Áåçûìÿííûé_ãðàäèåíò_254);}.cls-8{fill:url(#Áåçûìÿííûé_ãðàäèåíò_254-2);}.cls-9{fill:url(#Áåçûìÿííûé_ãðàäèåíò_254-3);}.cls-10{fill:url(#Áåçûìÿííûé_ãðàäèåíò_254-4);}.cls-12{fill:url(#Áåçûìÿííûé_ãðàäèåíò_254-5);}.cls-13{fill:url(#Áåçûìÿííûé_ãðàäèåíò_254-6);}.cls-14{opacity:0.8;}.cls-15{opacity:0.3;}.cls-17{fill:url(#Áåçûìÿííûé_ãðàäèåíò_16);}.cls-18{fill:url(#Áåçûìÿííûé_ãðàäèåíò_16-2);}.cls-20{fill:url(#Áåçûìÿííûé_ãðàäèåíò_12);}.cls-21{fill:#393091;}.cls-22{fill:#453c9e;}.cls-23{fill:url(#Áåçûìÿííûé_ãðàäèåíò_16-3);}.cls-24{fill:url(#Áåçûìÿííûé_ãðàäèåíò_16-4);}.cls-25{fill:url(#Áåçûìÿííûé_ãðàäèåíò_12-2);}.cls-26{fill:url(#Áåçûìÿííûé_ãðàäèåíò_16-5);}.cls-27{fill:url(#Áåçûìÿííûé_ãðàäèåíò_16-6);}.cls-28{fill:url(#Áåçûìÿííûé_ãðàäèåíò_12-3);}.cls-29{fill:url(#Áåçûìÿííûé_ãðàäèåíò_16-7);}.cls-30{fill:url(#Áåçûìÿííûé_ãðàäèåíò_12-4);}.cls-31{fill:url(#Áåçûìÿííûé_ãðàäèåíò_16-8);}.cls-32{fill:url(#Áåçûìÿííûé_ãðàäèåíò_12-5);}</style><linearGradient id="Áåçûìÿííûé_ãðàäèåíò_18" x1="-10.6" y1="233.53" x2="244.39" y2="233.53" gradientUnits="userSpaceOnUse"><stop offset="0" stop-color="#5761d7"/><stop offset="0.16" stop-color="#5e67da"/><stop offset="0.41" stop-color="#727ae2"/><stop offset="0.69" stop-color="#9297ee"/><stop offset="1" stop-color="#bcbeff"/></linearGradient><linearGradient id="Áåçûìÿííûé_ãðàäèåíò_254" x1="61.56" y1="199.07" x2="214.62" y2="199.07" gradientUnits="userSpaceOnUse"><stop offset="0" stop-color="#42e8e0"/><stop offset="0.15" stop-color="#43e3e0"/><stop offset="0.33" stop-color="#45d5df"/><stop offset="0.52" stop-color="#49bddd"/><stop offset="0.72" stop-color="#4e9cdb"/><stop offset="0.93" stop-color="#5472d8"/><stop offset="1" stop-color="#5761d7"/></linearGradient><linearGradient id="Áåçûìÿííûé_ãðàäèåíò_254-2" x1="138.09" y1="171.41" x2="214.62" y2="171.41" xlink:href="#Áåçûìÿííûé_ãðàäèåíò_254"/><linearGradient id="Áåçûìÿííûé_ãðàäèåíò_254-3" x1="61.56" y1="171.41" x2="138.09" y2="171.41" xlink:href="#Áåçûìÿííûé_ãðàäèåíò_254"/><linearGradient id="Áåçûìÿííûé_ãðàäèåíò_254-4" x1="61.56" y1="187.93" x2="214.62" y2="187.93" xlink:href="#Áåçûìÿííûé_ãðàäèåíò_254"/><linearGradient id="Áåçûìÿííûé_ãðàäèåíò_254-5" x1="138.09" y1="215.59" x2="214.62" y2="215.59" xlink:href="#Áåçûìÿííûé_ãðàäèåíò_254"/><linearGradient id="Áåçûìÿííûé_ãðàäèåíò_254-6" x1="61.56" y1="215.59" x2="138.09" y2="215.59" xlink:href="#Áåçûìÿííûé_ãðàäèåíò_254"/><radialGradient id="Áåçûìÿííûé_ãðàäèåíò_16" cx="-249.91" cy="-286.01" r="98.41" gradientTransform="translate(166.6 481.31) rotate(45.18)" gradientUnits="userSpaceOnUse"><stop offset="0" stop-color="#c0bff6"/><stop offset="1" stop-color="#393091"/></radialGradient><radialGradient id="Áåçûìÿííûé_ãðàäèåíò_16-2" cx="749.93" cy="221.61" r="97.22" gradientTransform="translate(-418.29 -116.48) scale(0.78 1.06)" xlink:href="#Áåçûìÿííûé_ãðàäèåíò_16"/><linearGradient id="Áåçûìÿííûé_ãðàäèåíò_12" x1="716.55" y1="286.66" x2="716.55" y2="189.48" gradientTransform="translate(-418.29 -116.48) scale(0.78 1.06)" gradientUnits="userSpaceOnUse"><stop offset="0" stop-color="#42e8e0"/><stop offset="0" stop-color="#42e6df"/><stop offset="0.14" stop-color="#40b6cb"/><stop offset="0.27" stop-color="#3e8db9"/><stop offset="0.41" stop-color="#3c6baa"/><stop offset="0.55" stop-color="#3b519f"/><stop offset="0.69" stop-color="#3a3f97"/><stop offset="0.84" stop-color="#393493"/><stop offset="1" stop-color="#393091"/></linearGradient><radialGradient id="Áåçûìÿííûé_ãðàäèåíò_16-3" cx="94.94" cy="-9.07" r="53.27" gradientTransform="matrix(1, 0, 0, 1, 0, 0)" xlink:href="#Áåçûìÿííûé_ãðàäèåíò_16"/><radialGradient id="Áåçûìÿííûé_ãðàäèåíò_16-4" cx="169.03" cy="53.96" r="75.88" gradientTransform="translate(32.72 -48.15) rotate(21.86)" xlink:href="#Áåçûìÿííûé_ãðàäèåíò_16"/><linearGradient id="Áåçûìÿííûé_ãðàäèåíò_12-2" x1="134.76" y1="105.08" x2="147.26" y2="16.15" gradientTransform="translate(32.72 -48.15) rotate(21.86)" xlink:href="#Áåçûìÿííûé_ãðàäèåíò_12"/><radialGradient id="Áåçûìÿííûé_ãðàäèåíò_16-5" cx="168.42" cy="53.16" r="36.04" gradientTransform="matrix(1, 0, 0, 1, 0, 0)" xlink:href="#Áåçûìÿííûé_ãðàäèåíò_16"/><radialGradient id="Áåçûìÿííûé_ãðàäèåíò_16-6" cx="-215.14" cy="-227.04" r="35.57" gradientTransform="translate(190.82 432.38) rotate(45.87)" xlink:href="#Áåçûìÿííûé_ãðàäèåíò_16"/><linearGradient id="Áåçûìÿííûé_ãðàäèåíò_12-3" x1="-234.47" y1="-201.66" x2="-211.3" y2="-226.68" gradientTransform="translate(190.82 432.38) rotate(45.87)" xlink:href="#Áåçûìÿííûé_ãðàäèåíò_12"/><radialGradient id="Áåçûìÿííûé_ãðàäèåíò_16-7" cx="146.73" cy="-1813.94" r="32.95" gradientTransform="matrix(0.91, 0.11, -0.18, 1.5, -237.62, 2873.07)" xlink:href="#Áåçûìÿííûé_ãðàäèåíò_16"/><linearGradient id="Áåçûìÿííûé_ãðàäèåíò_12-4" x1="56.64" y1="251.09" x2="82.38" y2="251.09" gradientTransform="matrix(0.91, 0.11, -0.14, 1.14, 175.06, -110.72)" xlink:href="#Áåçûìÿííûé_ãðàäèåíò_12"/><radialGradient id="Áåçûìÿííûé_ãðàäèåíò_16-8" cx="-2401.18" cy="-2367.58" r="32.95" gradientTransform="matrix(0.44, 0.8, -1.33, 0.73, -2007.5, 3770.14)" xlink:href="#Áåçûìÿííûé_ãðàäèåíò_16"/><linearGradient id="Áåçûìÿííûé_ãðàäèåíò_12-5" x1="-2847.55" y1="-268.82" x2="-2862.98" y2="-248.22" gradientTransform="matrix(0.44, 0.8, -1.01, 0.55, 1043.21, 2569.06)" xlink:href="#Áåçûìÿííûé_ãðàäèåíò_12"/></defs><g class="cls-1"><g id="Layer_2" data-name="Layer 2"><g id="Layer_2-2" data-name="Layer 2"><path class="cls-2" d="M127.73,149.83a4,4,0,0,1-2-.61l-12.95-7.47a.53.53,0,0,1,.53-.92l12.95,7.48a1.89,1.89,0,0,0,3.14-1.82v-3.12a2.91,2.91,0,0,1,4.72-2.73l2.71,1.56a.54.54,0,0,1,.19.73.52.52,0,0,1-.72.19l-2.7-1.56a1.88,1.88,0,0,0-3.14,1.81v3.12a3.28,3.28,0,0,1-1.42,3A2.58,2.58,0,0,1,127.73,149.83Z"/><path class="cls-2" d="M122.7,152.73a4.18,4.18,0,0,1-2-.61l-12.94-7.47a.54.54,0,0,1-.2-.73.53.53,0,0,1,.72-.19l13,7.47a1.88,1.88,0,0,0,3.14-1.81v-3.12a2.92,2.92,0,0,1,4.73-2.73l2.7,1.56a.53.53,0,0,1,.2.72.54.54,0,0,1-.73.2l-2.7-1.56a1.88,1.88,0,0,0-3.14,1.81v3.12a3.26,3.26,0,0,1-1.42,3A2.54,2.54,0,0,1,122.7,152.73Z"/><path class="cls-2" d="M117.66,155.63a4.14,4.14,0,0,1-2-.61l-13-7.48a.53.53,0,1,1,.53-.91l13,7.47a1.88,1.88,0,0,0,3.14-1.81v-3.12a2.91,2.91,0,0,1,4.72-2.73l2.71,1.56a.53.53,0,0,1-.53.91l-2.71-1.56a2.24,2.24,0,0,0-2.25-.27,2.28,2.28,0,0,0-.89,2.09v3.12a3.26,3.26,0,0,1-1.41,3A2.51,2.51,0,0,1,117.66,155.63Z"/><path class="cls-2" d="M112.62,158.52a4,4,0,0,1-2-.61l-12.95-7.47a.53.53,0,0,1,.53-.92L111.13,157a1.89,1.89,0,0,0,3.14-1.81v-3.13a2.92,2.92,0,0,1,4.73-2.73l2.7,1.57a.53.53,0,0,1-.53.91l-2.7-1.56a1.88,1.88,0,0,0-3.14,1.81v3.13a3.27,3.27,0,0,1-1.42,3A2.58,2.58,0,0,1,112.62,158.52Z"/><path class="cls-2" d="M107.59,161.42a4,4,0,0,1-2-.61l-12.95-7.47a.55.55,0,0,1-.2-.73.54.54,0,0,1,.73-.19l12.94,7.48a2.31,2.31,0,0,0,2.26.27,2.27,2.27,0,0,0,.88-2.09V155a2.92,2.92,0,0,1,4.73-2.73l2.7,1.56a.53.53,0,1,1-.52.92l-2.71-1.56a1.88,1.88,0,0,0-3.14,1.81v3.12a3.28,3.28,0,0,1-1.41,3A2.61,2.61,0,0,1,107.59,161.42Z"/><path class="cls-2" d="M102.55,164.32a4.14,4.14,0,0,1-2-.61l-13-7.48a.53.53,0,1,1,.53-.91l13,7.47A1.88,1.88,0,0,0,104.2,161v-3.12a3.28,3.28,0,0,1,1.41-3,3.24,3.24,0,0,1,3.31.28l2.71,1.56a.53.53,0,0,1,.19.72.54.54,0,0,1-.72.2L108.4,156a1.89,1.89,0,0,0-3.14,1.82V161a3.25,3.25,0,0,1-1.42,3A2.49,2.49,0,0,1,102.55,164.32Z"/><path class="cls-2" d="M97.52,167.21a4.16,4.16,0,0,1-2-.6l-12.94-7.48a.53.53,0,0,1,.52-.92l13,7.48a1.89,1.89,0,0,0,3.14-1.81v-3.13a2.92,2.92,0,0,1,4.73-2.73l2.7,1.57a.53.53,0,0,1,.2.72.54.54,0,0,1-.73.19l-2.7-1.56a1.88,1.88,0,0,0-3.14,1.81v3.13a3.24,3.24,0,0,1-1.42,3A2.54,2.54,0,0,1,97.52,167.21Z"/><path class="cls-2" d="M92.48,170.11a4,4,0,0,1-2-.61L77.51,162a.54.54,0,0,1-.19-.73.52.52,0,0,1,.72-.19L91,168.59a1.89,1.89,0,0,0,3.14-1.82v-3.12a2.91,2.91,0,0,1,4.72-2.73l2.71,1.56a.53.53,0,0,1-.53.92l-2.71-1.56a1.88,1.88,0,0,0-3.14,1.81v3.12a3.28,3.28,0,0,1-1.41,3A2.61,2.61,0,0,1,92.48,170.11Z"/><path class="cls-2" d="M87.44,173a4.14,4.14,0,0,1-2-.61l-13-7.48A.53.53,0,0,1,73,164l13,7.47a1.88,1.88,0,0,0,3.14-1.81v-3.12a2.91,2.91,0,0,1,4.73-2.73l2.7,1.56a.53.53,0,0,1,.19.72.54.54,0,0,1-.72.2l-2.7-1.57a2.29,2.29,0,0,0-2.25-.27,2.26,2.26,0,0,0-.89,2.09v3.12a3.25,3.25,0,0,1-1.42,3A2.49,2.49,0,0,1,87.44,173Z"/><path class="cls-2" d="M82.41,175.9a4,4,0,0,1-2-.6l-13-7.48a.53.53,0,0,1-.2-.72.55.55,0,0,1,.73-.2l12.94,7.48a1.89,1.89,0,0,0,3.15-1.81v-3.13a2.9,2.9,0,0,1,4.72-2.72l2.71,1.56a.53.53,0,0,1,.19.72.53.53,0,0,1-.72.19l-2.71-1.56a2.24,2.24,0,0,0-2.25-.27,2.27,2.27,0,0,0-.89,2.08v3.13a3.26,3.26,0,0,1-1.41,3A2.61,2.61,0,0,1,82.41,175.9Z"/><path class="cls-2" d="M77.37,178.8a4,4,0,0,1-2-.61L62.4,170.72a.53.53,0,0,1,.53-.92l12.95,7.48A1.89,1.89,0,0,0,79,175.46v-3.12a3.25,3.25,0,0,1,1.41-3,3.28,3.28,0,0,1,3.32.27l2.7,1.56a.53.53,0,0,1-.53.92l-2.7-1.56a1.88,1.88,0,0,0-3.14,1.81v3.12a3.28,3.28,0,0,1-1.42,3A2.58,2.58,0,0,1,77.37,178.8Z"/><path class="cls-2" d="M72.34,181.7a4.18,4.18,0,0,1-2-.61l-12.94-7.48a.52.52,0,1,1,.52-.91l13,7.47A1.88,1.88,0,0,0,74,178.36v-3.12a2.91,2.91,0,0,1,4.73-2.73l2.7,1.56a.53.53,0,0,1,.2.72.54.54,0,0,1-.73.2l-2.7-1.56A1.88,1.88,0,0,0,75,175.24v3.12a3.23,3.23,0,0,1-1.42,3A2.45,2.45,0,0,1,72.34,181.7Z"/><path class="cls-2" d="M67.3,184.6a4.06,4.06,0,0,1-2-.62l-13-7.47a.53.53,0,0,1,.53-.91l13,7.47A1.88,1.88,0,0,0,69,181.26v-3.12a3.28,3.28,0,0,1,1.41-3,3.24,3.24,0,0,1,3.31.28L76.38,177a.53.53,0,1,1-.53.91l-2.71-1.56A1.89,1.89,0,0,0,70,178.14v3.12a3.26,3.26,0,0,1-1.41,3A2.59,2.59,0,0,1,67.3,184.6Z"/><path class="cls-2" d="M62.26,187.49a4,4,0,0,1-2-.61l-13-7.47a.53.53,0,0,1-.19-.72.53.53,0,0,1,.72-.2l13,7.48a1.89,1.89,0,0,0,3.14-1.82V181a2.92,2.92,0,0,1,4.73-2.73l2.7,1.56a.54.54,0,0,1,.19.73.52.52,0,0,1-.72.19l-2.7-1.56A1.88,1.88,0,0,0,65,181v3.12a3.28,3.28,0,0,1-1.42,3A2.58,2.58,0,0,1,62.26,187.49Z"/><path class="cls-2" d="M57.23,190.39a4,4,0,0,1-2-.61l-13-7.47a.55.55,0,0,1-.2-.73.54.54,0,0,1,.73-.19l12.94,7.47a1.88,1.88,0,0,0,3.14-1.81v-3.12a2.92,2.92,0,0,1,4.73-2.73l2.71,1.56a.53.53,0,0,1,.19.72.53.53,0,0,1-.72.2l-2.71-1.56a1.88,1.88,0,0,0-3.14,1.81v3.12a3.28,3.28,0,0,1-1.41,3A2.61,2.61,0,0,1,57.23,190.39Z"/><path class="cls-2" d="M52.19,193.29a4.14,4.14,0,0,1-2-.61l-13-7.48a.53.53,0,0,1,.53-.91l13,7.47A1.88,1.88,0,0,0,53.84,190v-3.12a3.26,3.26,0,0,1,1.42-3,3.23,3.23,0,0,1,3.3.28l2.71,1.56a.53.53,0,1,1-.53.91L58,185a1.89,1.89,0,0,0-3.14,1.82V190a3.27,3.27,0,0,1-1.42,3A2.49,2.49,0,0,1,52.19,193.29Z"/><path class="cls-2" d="M47.16,196.18a4.07,4.07,0,0,1-2-.61L32.19,188.1a.53.53,0,0,1,.52-.92l12.95,7.48a1.89,1.89,0,0,0,3.14-1.81v-3.13A2.92,2.92,0,0,1,53.53,187l2.7,1.57a.52.52,0,1,1-.52.91L53,187.91a1.88,1.88,0,0,0-3.14,1.81v3.13a3.24,3.24,0,0,1-1.42,3A2.54,2.54,0,0,1,47.16,196.18Z"/><path class="cls-2" d="M42.12,199.08a4,4,0,0,1-2-.61l-13-7.47a.54.54,0,0,1-.19-.73.52.52,0,0,1,.72-.19l13,7.48a2.29,2.29,0,0,0,2.25.27,2.28,2.28,0,0,0,.89-2.09v-3.12a2.91,2.91,0,0,1,4.72-2.73l2.71,1.56a.53.53,0,0,1-.53.92L48,190.81a2.27,2.27,0,0,0-2.25-.28,2.28,2.28,0,0,0-.89,2.09v3.12a3.28,3.28,0,0,1-1.41,3A2.61,2.61,0,0,1,42.12,199.08Z"/><path class="cls-2" d="M37.08,202a4.17,4.17,0,0,1-2-.61l-13-7.48a.53.53,0,0,1,.53-.91l13,7.47a2.27,2.27,0,0,0,2.25.28,2.26,2.26,0,0,0,.89-2.09v-3.12a2.91,2.91,0,0,1,4.73-2.73l2.7,1.56a.53.53,0,0,1,.19.72.54.54,0,0,1-.72.2l-2.7-1.57a2.26,2.26,0,0,0-2.25-.27,2.26,2.26,0,0,0-.89,2.09v3.12a3.25,3.25,0,0,1-1.42,3A2.49,2.49,0,0,1,37.08,202Z"/><path class="cls-2" d="M32.05,204.87a4.12,4.12,0,0,1-2-.6l-13-7.48a.53.53,0,1,1,.53-.92l12.94,7.48a2.26,2.26,0,0,0,2.26.27,2.27,2.27,0,0,0,.89-2.08v-3.13a3.26,3.26,0,0,1,1.41-3,3.26,3.26,0,0,1,3.31.27l2.71,1.57a.53.53,0,0,1,.19.72.53.53,0,0,1-.72.19l-2.71-1.56a2.27,2.27,0,0,0-2.25-.28,2.29,2.29,0,0,0-.89,2.09v3.13a3.26,3.26,0,0,1-1.41,3A2.61,2.61,0,0,1,32.05,204.87Z"/><path class="cls-2" d="M148.37,150.07a2.49,2.49,0,0,1-1.29-.34,3.23,3.23,0,0,1-1.42-3v-3.12a1.88,1.88,0,0,0-3.14-1.81l-2.7,1.56a.55.55,0,0,1-.73-.2.54.54,0,0,1,.2-.72l2.7-1.56a2.92,2.92,0,0,1,4.73,2.73v3.12a1.88,1.88,0,0,0,3.14,1.81l12.95-7.47a.53.53,0,0,1,.72.19.53.53,0,0,1-.19.72l-13,7.48A4.14,4.14,0,0,1,148.37,150.07Z"/><path class="cls-2" d="M153.4,153a2.51,2.51,0,0,1-1.29-.34,3.26,3.26,0,0,1-1.41-3v-3.12a2.28,2.28,0,0,0-.89-2.09,2.24,2.24,0,0,0-2.25.27l-2.71,1.56a.53.53,0,0,1-.72-.19.53.53,0,0,1,.19-.72l2.71-1.56a3.24,3.24,0,0,1,3.31-.28,3.28,3.28,0,0,1,1.41,3v3.12a1.89,1.89,0,0,0,3.15,1.81L167.84,144a.53.53,0,1,1,.53.91l-13,7.48A4.14,4.14,0,0,1,153.4,153Z"/><path class="cls-2" d="M158.44,155.86a2.58,2.58,0,0,1-1.29-.33,3.28,3.28,0,0,1-1.42-3V149.4a1.88,1.88,0,0,0-3.14-1.81l-2.7,1.56a.52.52,0,0,1-.72-.19.54.54,0,0,1,.19-.73l2.7-1.56a2.92,2.92,0,0,1,4.73,2.73v3.12a1.89,1.89,0,0,0,3.14,1.82l12.95-7.48a.52.52,0,0,1,.72.2.53.53,0,0,1-.19.72l-12.95,7.47A4,4,0,0,1,158.44,155.86Z"/><path class="cls-2" d="M163.47,158.76a2.54,2.54,0,0,1-1.28-.33,3.26,3.26,0,0,1-1.42-3V152.3a1.88,1.88,0,0,0-3.14-1.81l-2.71,1.56a.53.53,0,0,1-.52-.92l2.7-1.56a2.91,2.91,0,0,1,4.73,2.73v3.12a1.88,1.88,0,0,0,3.14,1.81l12.95-7.47a.53.53,0,0,1,.72.19.54.54,0,0,1-.2.73l-12.94,7.47A4.1,4.1,0,0,1,163.47,158.76Z"/><path class="cls-2" d="M168.51,161.66a2.49,2.49,0,0,1-1.29-.34,3.26,3.26,0,0,1-1.41-3V155.2a2.28,2.28,0,0,0-.89-2.09,2.26,2.26,0,0,0-2.26.27l-2.7,1.56a.53.53,0,0,1-.53-.91l2.71-1.56a2.91,2.91,0,0,1,4.72,2.73v3.12a1.88,1.88,0,0,0,3.14,1.81L183,152.66a.53.53,0,1,1,.53.91l-12.95,7.48A4.14,4.14,0,0,1,168.51,161.66Z"/><path class="cls-2" d="M173.54,164.55a2.57,2.57,0,0,1-1.28-.33,3.24,3.24,0,0,1-1.42-3v-3.13a1.88,1.88,0,0,0-3.14-1.81l-2.7,1.56a.53.53,0,1,1-.53-.91l2.7-1.57a2.92,2.92,0,0,1,4.73,2.73v3.13A1.89,1.89,0,0,0,175,163l13-7.48a.53.53,0,0,1,.52.92l-12.94,7.47A4.07,4.07,0,0,1,173.54,164.55Z"/><path class="cls-2" d="M178.58,167.45a2.61,2.61,0,0,1-1.29-.33,3.28,3.28,0,0,1-1.41-3V161a1.88,1.88,0,0,0-3.14-1.81L170,160.74a.52.52,0,0,1-.72-.2.53.53,0,0,1,.19-.72l2.71-1.56a2.91,2.91,0,0,1,4.72,2.73v3.12a2.28,2.28,0,0,0,.89,2.09,2.31,2.31,0,0,0,2.26-.27L193,158.45a.54.54,0,0,1,.73.19.55.55,0,0,1-.2.73l-13,7.47A4,4,0,0,1,178.58,167.45Z"/><path class="cls-2" d="M183.62,170.35a2.49,2.49,0,0,1-1.29-.34,3.25,3.25,0,0,1-1.42-3v-3.12a1.89,1.89,0,0,0-3.14-1.82l-2.7,1.57a.53.53,0,0,1-.72-.2.53.53,0,0,1,.19-.72l2.7-1.56a2.91,2.91,0,0,1,4.73,2.73V167a1.88,1.88,0,0,0,3.14,1.81l12.95-7.47a.53.53,0,1,1,.53.91l-13,7.48A4.14,4.14,0,0,1,183.62,170.35Z"/><path class="cls-2" d="M188.65,173.24a2.54,2.54,0,0,1-1.28-.33,3.24,3.24,0,0,1-1.42-3v-3.13a1.88,1.88,0,0,0-3.14-1.81l-2.71,1.56a.52.52,0,1,1-.52-.91l2.7-1.56a2.91,2.91,0,0,1,4.73,2.72v3.13a1.89,1.89,0,0,0,3.14,1.81l12.94-7.48a.55.55,0,0,1,.73.2.53.53,0,0,1-.2.72l-12.94,7.48A4.16,4.16,0,0,1,188.65,173.24Z"/><path class="cls-2" d="M193.69,176.14a2.58,2.58,0,0,1-1.29-.33,3.28,3.28,0,0,1-1.41-3v-3.12a1.88,1.88,0,0,0-3.14-1.81l-2.71,1.56a.53.53,0,0,1-.53-.92l2.71-1.56a2.91,2.91,0,0,1,4.72,2.73v3.12a1.89,1.89,0,0,0,3.14,1.82l12.95-7.48a.52.52,0,0,1,.72.2.53.53,0,0,1-.19.72l-12.95,7.47A4,4,0,0,1,193.69,176.14Z"/><path class="cls-2" d="M198.73,179a2.49,2.49,0,0,1-1.29-.34,3.23,3.23,0,0,1-1.42-3v-3.12a1.88,1.88,0,0,0-3.14-1.81l-2.7,1.56a.55.55,0,0,1-.73-.2.54.54,0,0,1,.2-.72l2.7-1.56a2.91,2.91,0,0,1,4.73,2.73v3.12a1.88,1.88,0,0,0,3.14,1.81L213.17,170a.53.53,0,0,1,.72.19.53.53,0,0,1-.19.72l-12.95,7.48A4.17,4.17,0,0,1,198.73,179Z"/><path class="cls-2" d="M203.76,181.94a2.62,2.62,0,0,1-1.29-.34,3.26,3.26,0,0,1-1.41-3v-3.13a2.27,2.27,0,0,0-.89-2.08,2.24,2.24,0,0,0-2.25.27l-2.71,1.56a.53.53,0,0,1-.53-.91l2.71-1.56a2.9,2.9,0,0,1,4.72,2.72v3.13a1.89,1.89,0,0,0,3.15,1.81l12.94-7.48a.53.53,0,0,1,.72.2.53.53,0,0,1-.19.72l-12.95,7.48A4.14,4.14,0,0,1,203.76,181.94Z"/><path class="cls-2" d="M208.8,184.83a2.58,2.58,0,0,1-1.29-.33,3.28,3.28,0,0,1-1.42-3v-3.12a1.88,1.88,0,0,0-3.14-1.81l-2.7,1.56a.52.52,0,0,1-.72-.19.54.54,0,0,1,.19-.73l2.7-1.56a2.92,2.92,0,0,1,4.73,2.73v3.12a2.28,2.28,0,0,0,.89,2.09,2.24,2.24,0,0,0,2.25-.27l13-7.48a.53.53,0,0,1,.72.19.54.54,0,0,1-.19.73l-13,7.47A4,4,0,0,1,208.8,184.83Z"/><path class="cls-2" d="M213.83,187.73a2.45,2.45,0,0,1-1.28-.34,3.23,3.23,0,0,1-1.42-3v-3.12a1.88,1.88,0,0,0-3.14-1.81l-2.7,1.56a.55.55,0,0,1-.73-.2.53.53,0,0,1,.2-.72l2.7-1.56a2.92,2.92,0,0,1,4.73,2.73v3.12a1.88,1.88,0,0,0,3.14,1.81l12.94-7.47a.54.54,0,0,1,.73.19.53.53,0,0,1-.2.72l-12.94,7.48A4.21,4.21,0,0,1,213.83,187.73Z"/><path class="cls-2" d="M218.87,190.63a2.49,2.49,0,0,1-1.29-.34,3.26,3.26,0,0,1-1.41-3v-3.12a2.28,2.28,0,0,0-.89-2.09,2.24,2.24,0,0,0-2.25.27l-2.71,1.56a.53.53,0,0,1-.53-.91l2.71-1.56a3.24,3.24,0,0,1,3.31-.28,3.28,3.28,0,0,1,1.41,3v3.12a1.88,1.88,0,0,0,3.14,1.81l12.95-7.47a.53.53,0,0,1,.53.91l-13,7.48A4.14,4.14,0,0,1,218.87,190.63Z"/><path class="cls-2" d="M223.91,193.52a2.58,2.58,0,0,1-1.29-.33,3.28,3.28,0,0,1-1.42-3v-3.13a1.88,1.88,0,0,0-3.14-1.81l-2.7,1.56a.53.53,0,1,1-.53-.91l2.7-1.57a2.92,2.92,0,0,1,4.73,2.73v3.13A1.89,1.89,0,0,0,225.4,192l12.95-7.48a.52.52,0,0,1,.72.2.53.53,0,0,1-.19.72l-12.95,7.47A4.07,4.07,0,0,1,223.91,193.52Z"/><path class="cls-2" d="M228.94,196.42a2.61,2.61,0,0,1-1.29-.33,3.28,3.28,0,0,1-1.41-3V190a1.88,1.88,0,0,0-3.14-1.81l-2.71,1.56a.53.53,0,0,1-.53-.92l2.71-1.56a2.91,2.91,0,0,1,4.72,2.73v3.12a1.89,1.89,0,0,0,3.14,1.82l12.95-7.48a.54.54,0,0,1,.73.19.55.55,0,0,1-.2.73L231,195.81A4,4,0,0,1,228.94,196.42Z"/><path class="cls-2" d="M234,199.32a2.49,2.49,0,0,1-1.29-.34,3.27,3.27,0,0,1-1.42-3v-3.12a1.89,1.89,0,0,0-3.14-1.82l-2.7,1.57a.53.53,0,0,1-.72-.2.53.53,0,0,1,.19-.72l2.7-1.56a2.91,2.91,0,0,1,4.73,2.73V196a1.88,1.88,0,0,0,3.14,1.81l12.95-7.47a.53.53,0,0,1,.53.91L236,198.71A4.14,4.14,0,0,1,234,199.32Z"/><path class="cls-2" d="M239,202.21a2.54,2.54,0,0,1-1.28-.33,3.24,3.24,0,0,1-1.42-3v-3.13a1.88,1.88,0,0,0-3.14-1.81l-2.71,1.56a.52.52,0,1,1-.52-.91l2.7-1.57a2.92,2.92,0,0,1,4.73,2.73v3.13a1.89,1.89,0,0,0,3.14,1.81l13-7.48a.53.53,0,1,1,.52.92L241,201.6A4.1,4.1,0,0,1,239,202.21Z"/><path class="cls-2" d="M244.05,205.11a2.58,2.58,0,0,1-1.29-.33,3.28,3.28,0,0,1-1.41-3v-3.12a1.88,1.88,0,0,0-3.14-1.81l-2.71,1.56a.53.53,0,0,1-.53-.92l2.71-1.56a2.91,2.91,0,0,1,4.72,2.73v3.12a1.89,1.89,0,0,0,3.14,1.82l13-7.48a.52.52,0,0,1,.72.19.54.54,0,0,1-.19.73l-12.95,7.47A4,4,0,0,1,244.05,205.11Z"/><polygon class="cls-3" points="237.58 199.06 237.58 210.56 138.09 268 38.6 210.56 38.6 199.06 237.58 199.06"/><polygon class="cls-4" points="138.09 256.5 38.6 199.06 138.09 141.62 237.58 199.06 138.09 256.5"/><polygon class="cls-5" points="138.09 255.16 39.76 198.39 38.6 199.06 138.09 256.5 237.58 199.06 236.42 198.39 138.09 255.16"/><polygon class="cls-6" points="138.09 243.25 61.57 199.07 138.09 154.89 214.61 199.07 138.09 243.25"/><polygon class="cls-7" points="138.09 243.26 61.56 199.07 138.09 154.89 214.62 199.07 138.09 243.26"/><polygon class="cls-8" points="138.09 143.75 214.62 187.93 214.62 199.07 138.09 154.89 138.09 143.75"/><polygon class="cls-9" points="138.09 154.89 61.56 199.07 61.56 187.93 138.09 143.75 138.09 154.89"/><polygon class="cls-10" points="138.09 232.12 61.56 187.93 138.09 143.75 214.62 187.93 138.09 232.12"/><polygon class="cls-11" points="138.09 205.59 107.51 187.93 138.09 170.28 168.67 187.93 138.09 205.59"/><polygon class="cls-11" points="138.09 171.9 167.26 188.75 168.67 187.93 138.09 170.28 107.51 187.93 108.92 188.75 138.09 171.9"/><polygon class="cls-12" points="138.09 232.12 138.09 243.26 214.62 199.07 214.62 187.93 138.09 232.12"/><polygon class="cls-13" points="61.56 187.93 61.56 199.07 138.09 243.26 138.09 232.12 61.56 187.93"/><polygon class="cls-14" points="138.09 230.9 62.62 187.32 61.56 187.93 138.09 232.12 214.62 187.93 213.56 187.33 138.09 230.9"/><path class="cls-2" d="M163.07,281.87a.48.48,0,0,1-.26-.07l-12.95-7.48a9.16,9.16,0,0,1-4.2-7.27v-3.12a8.11,8.11,0,0,0-3.67-6.36l-2.7-1.56a.53.53,0,1,1,.53-.91l2.7,1.56a9.16,9.16,0,0,1,4.2,7.27v3.12a8.14,8.14,0,0,0,3.67,6.36l12.94,7.47a.53.53,0,0,1,.2.72A.54.54,0,0,1,163.07,281.87Z"/><path class="cls-2" d="M168.11,279a.68.68,0,0,1-.27-.07l-12.94-7.48a9.14,9.14,0,0,1-4.2-7.27V261a8.14,8.14,0,0,0-3.67-6.36l-2.71-1.56a.53.53,0,0,1,.53-.92l2.71,1.57a9.15,9.15,0,0,1,4.19,7.27v3.12a8.1,8.1,0,0,0,3.67,6.35l13,7.48a.53.53,0,0,1-.26,1Z"/><path class="cls-2" d="M173.14,276.06a.48.48,0,0,1-.26-.07l-12.95-7.47a9.16,9.16,0,0,1-4.2-7.27v-3.12a8.11,8.11,0,0,0-3.67-6.36l-2.7-1.56a.53.53,0,0,1,.53-.92l2.7,1.56a9.16,9.16,0,0,1,4.2,7.28v3.12a8.12,8.12,0,0,0,3.67,6.35l12.95,7.48a.53.53,0,0,1-.27,1Z"/><path class="cls-2" d="M178.18,273.16a.54.54,0,0,1-.27-.07L165,265.62a9.15,9.15,0,0,1-4.2-7.27v-3.13a8.13,8.13,0,0,0-3.67-6.35l-2.7-1.56a.53.53,0,0,1-.2-.72.52.52,0,0,1,.72-.2l2.71,1.56a9.18,9.18,0,0,1,4.2,7.27v3.13a8.11,8.11,0,0,0,3.67,6.35l12.94,7.48a.52.52,0,0,1-.26,1Z"/><path class="cls-2" d="M183.21,270.26a.48.48,0,0,1-.26-.07L170,262.71a9.14,9.14,0,0,1-4.19-7.27v-3.12a8.1,8.1,0,0,0-3.67-6.35l-2.71-1.57a.53.53,0,1,1,.53-.91l2.7,1.56a9.14,9.14,0,0,1,4.2,7.27v3.12a8.14,8.14,0,0,0,3.67,6.36l12.95,7.47a.54.54,0,0,1,.19.73A.52.52,0,0,1,183.21,270.26Z"/><path class="cls-2" d="M188.25,267.36a.48.48,0,0,1-.26-.07l-13-7.48a9.16,9.16,0,0,1-4.2-7.27v-3.12a8.11,8.11,0,0,0-3.67-6.36l-2.7-1.56a.53.53,0,1,1,.53-.91l2.7,1.56a9.16,9.16,0,0,1,4.2,7.27v3.12a8.11,8.11,0,0,0,3.67,6.36l12.94,7.47a.53.53,0,0,1,.2.72A.54.54,0,0,1,188.25,267.36Z"/><path class="cls-2" d="M193.29,264.46a.68.68,0,0,1-.27-.07l-12.94-7.48a9.14,9.14,0,0,1-4.2-7.27v-3.12a8.14,8.14,0,0,0-3.67-6.36l-2.71-1.56a.53.53,0,1,1,.53-.91l2.71,1.56a9.15,9.15,0,0,1,4.19,7.27v3.12A8.1,8.1,0,0,0,180.6,256l13,7.48a.53.53,0,0,1-.26,1Z"/><path class="cls-2" d="M198.32,261.55a.48.48,0,0,1-.26-.07L185.11,254a9.16,9.16,0,0,1-4.2-7.27v-3.12a8.11,8.11,0,0,0-3.67-6.36l-2.7-1.56a.53.53,0,0,1,.53-.92l2.7,1.56a9.16,9.16,0,0,1,4.2,7.28v3.12a8.12,8.12,0,0,0,3.67,6.35l13,7.48a.52.52,0,0,1,.19.72A.53.53,0,0,1,198.32,261.55Z"/><path class="cls-2" d="M203.36,258.65a.48.48,0,0,1-.26-.07l-12.95-7.47a9.15,9.15,0,0,1-4.2-7.27v-3.13a8.13,8.13,0,0,0-3.67-6.35l-2.7-1.56a.53.53,0,1,1,.53-.92l2.7,1.56a9.18,9.18,0,0,1,4.2,7.27v3.13a8.11,8.11,0,0,0,3.67,6.35l12.94,7.48a.52.52,0,0,1-.26,1Z"/><path class="cls-2" d="M208.39,255.75a.51.51,0,0,1-.26-.07l-12.95-7.48a9.14,9.14,0,0,1-4.19-7.27v-3.12a8.12,8.12,0,0,0-3.67-6.35l-2.71-1.56a.54.54,0,0,1-.19-.73.52.52,0,0,1,.72-.19l2.7,1.56a9.14,9.14,0,0,1,4.2,7.27v3.12a8.14,8.14,0,0,0,3.67,6.36l12.95,7.47a.54.54,0,0,1,.19.73A.52.52,0,0,1,208.39,255.75Z"/><path class="cls-2" d="M213.43,252.85a.48.48,0,0,1-.26-.07l-12.95-7.48A9.16,9.16,0,0,1,196,238v-3.12a8.14,8.14,0,0,0-3.67-6.36l-2.7-1.56a.53.53,0,1,1,.53-.91l2.7,1.56a9.16,9.16,0,0,1,4.2,7.27V238a8.11,8.11,0,0,0,3.67,6.36l12.95,7.47a.53.53,0,0,1,.19.72A.54.54,0,0,1,213.43,252.85Z"/><path class="cls-2" d="M218.47,250a.68.68,0,0,1-.27-.07l-12.94-7.48a9.14,9.14,0,0,1-4.2-7.27V232a8.14,8.14,0,0,0-3.67-6.36l-2.71-1.56a.53.53,0,1,1,.53-.91l2.71,1.56a9.15,9.15,0,0,1,4.19,7.27v3.12a8.1,8.1,0,0,0,3.67,6.35L218.73,249a.53.53,0,0,1,.19.72A.51.51,0,0,1,218.47,250Z"/><path class="cls-2" d="M223.5,247a.48.48,0,0,1-.26-.07l-13-7.47a9.16,9.16,0,0,1-4.2-7.27v-3.12a8.11,8.11,0,0,0-3.67-6.36l-2.7-1.56a.53.53,0,0,1-.19-.72.53.53,0,0,1,.72-.2l2.7,1.56a9.16,9.16,0,0,1,4.2,7.28v3.12a8.12,8.12,0,0,0,3.67,6.35l13,7.48a.52.52,0,0,1,.19.72A.53.53,0,0,1,223.5,247Z"/><path class="cls-2" d="M228.54,244.14a.54.54,0,0,1-.27-.07l-12.94-7.47a9.15,9.15,0,0,1-4.2-7.27V226.2a8.13,8.13,0,0,0-3.67-6.35l-2.7-1.56a.53.53,0,0,1-.2-.72.52.52,0,0,1,.72-.2l2.71,1.56a9.18,9.18,0,0,1,4.2,7.27v3.13a8.11,8.11,0,0,0,3.67,6.35l12.94,7.48a.52.52,0,0,1-.26,1Z"/><path class="cls-2" d="M233.57,241.24a.51.51,0,0,1-.26-.07l-12.95-7.48a9.15,9.15,0,0,1-4.19-7.27V223.3A8.12,8.12,0,0,0,212.5,217l-2.71-1.56a.54.54,0,0,1-.19-.73.52.52,0,0,1,.72-.19L213,216a9.15,9.15,0,0,1,4.19,7.27v3.12a8.14,8.14,0,0,0,3.67,6.36l13,7.47a.54.54,0,0,1,.19.73A.52.52,0,0,1,233.57,241.24Z"/><path class="cls-2" d="M238.61,238.34a.48.48,0,0,1-.26-.07l-12.95-7.48a9.16,9.16,0,0,1-4.2-7.27V220.4a8.11,8.11,0,0,0-3.67-6.36l-2.7-1.56a.53.53,0,1,1,.53-.91l2.7,1.56a9.16,9.16,0,0,1,4.2,7.27v3.12a8.11,8.11,0,0,0,3.67,6.36l12.95,7.47a.53.53,0,0,1,.19.72A.54.54,0,0,1,238.61,238.34Z"/><path class="cls-2" d="M243.65,235.44a.68.68,0,0,1-.27-.07l-12.95-7.48a9.15,9.15,0,0,1-4.19-7.27V217.5a8.14,8.14,0,0,0-3.67-6.36l-2.71-1.56a.53.53,0,0,1,.53-.91l2.71,1.56a9.15,9.15,0,0,1,4.19,7.27v3.12A8.1,8.1,0,0,0,231,227l12.95,7.48a.53.53,0,0,1-.26,1Z"/><path class="cls-2" d="M248.68,232.53a.48.48,0,0,1-.26-.07L235.47,225a9.18,9.18,0,0,1-4.2-7.27V214.6a8.11,8.11,0,0,0-3.67-6.36l-2.7-1.56a.53.53,0,0,1,.53-.92l2.7,1.56a9.16,9.16,0,0,1,4.2,7.28v3.12a8.13,8.13,0,0,0,3.67,6.35L249,231.55a.52.52,0,0,1,.19.72A.53.53,0,0,1,248.68,232.53Z"/><path class="cls-2" d="M253.72,229.63a.54.54,0,0,1-.27-.07l-12.94-7.47a9.15,9.15,0,0,1-4.2-7.27v-3.13a8.13,8.13,0,0,0-3.67-6.35l-2.7-1.56a.54.54,0,0,1-.2-.73.53.53,0,0,1,.72-.19l2.71,1.56a9.16,9.16,0,0,1,4.2,7.27v3.13a8.11,8.11,0,0,0,3.67,6.35L254,228.65a.52.52,0,0,1-.26,1Z"/><path class="cls-2" d="M258.75,226.73a.48.48,0,0,1-.26-.07l-13-7.48a9.14,9.14,0,0,1-4.19-7.27v-3.12a8.12,8.12,0,0,0-3.67-6.35L235,200.88a.54.54,0,0,1-.19-.73.52.52,0,0,1,.72-.19l2.7,1.56a9.14,9.14,0,0,1,4.2,7.27v3.12a8.14,8.14,0,0,0,3.67,6.36L259,225.74a.54.54,0,0,1,.19.73A.52.52,0,0,1,258.75,226.73Z"/><path class="cls-2" d="M112.76,281.87a.53.53,0,0,1-.27-1l13-7.47a8.14,8.14,0,0,0,3.67-6.36v-3.12a9.14,9.14,0,0,1,4.2-7.27l2.7-1.56a.53.53,0,1,1,.53.91l-2.71,1.56a8.13,8.13,0,0,0-3.66,6.36v3.12a9.16,9.16,0,0,1-4.2,7.27l-13,7.48A.48.48,0,0,1,112.76,281.87Z"/><path class="cls-2" d="M107.72,279a.54.54,0,0,1-.46-.27.53.53,0,0,1,.2-.72l12.94-7.48a8.08,8.08,0,0,0,3.67-6.35V261a9.16,9.16,0,0,1,4.2-7.27l2.71-1.57a.54.54,0,0,1,.72.2.53.53,0,0,1-.2.72l-2.7,1.56a8.14,8.14,0,0,0-3.67,6.36v3.12a9.14,9.14,0,0,1-4.2,7.27l-13,7.48A.59.59,0,0,1,107.72,279Z"/><path class="cls-2" d="M102.68,276.06a.5.5,0,0,1-.45-.26.52.52,0,0,1,.19-.72l13-7.48a8.12,8.12,0,0,0,3.67-6.35v-3.12a9.14,9.14,0,0,1,4.19-7.27l2.71-1.57a.53.53,0,0,1,.53.92l-2.71,1.56a8.14,8.14,0,0,0-3.67,6.36v3.12a9.15,9.15,0,0,1-4.19,7.27L103,276A.52.52,0,0,1,102.68,276.06Z"/><path class="cls-2" d="M97.65,273.16a.53.53,0,0,1-.46-.26.52.52,0,0,1,.19-.72l13-7.48a8.11,8.11,0,0,0,3.67-6.35v-3.13a9.18,9.18,0,0,1,4.2-7.27l2.7-1.56a.53.53,0,0,1,.53.92l-2.7,1.56a8.11,8.11,0,0,0-3.67,6.35v3.13a9.18,9.18,0,0,1-4.2,7.27l-13,7.47A.48.48,0,0,1,97.65,273.16Z"/><path class="cls-2" d="M92.61,270.26a.5.5,0,0,1-.45-.26.54.54,0,0,1,.19-.73l13-7.47a8.14,8.14,0,0,0,3.67-6.36v-3.12a9.15,9.15,0,0,1,4.19-7.27l2.71-1.56a.53.53,0,1,1,.53.91L113.69,246a8.12,8.12,0,0,0-3.67,6.35v3.12a9.12,9.12,0,0,1-4.2,7.27l-12.94,7.48A.54.54,0,0,1,92.61,270.26Z"/><path class="cls-2" d="M87.58,267.36a.53.53,0,0,1-.27-1l13-7.47a8.14,8.14,0,0,0,3.67-6.36v-3.12a9.14,9.14,0,0,1,4.2-7.27l2.7-1.56a.53.53,0,1,1,.53.91l-2.7,1.56a8.11,8.11,0,0,0-3.67,6.36v3.12a9.16,9.16,0,0,1-4.2,7.27l-13,7.48A.48.48,0,0,1,87.58,267.36Z"/><path class="cls-2" d="M82.54,264.46a.54.54,0,0,1-.46-.27.53.53,0,0,1,.2-.72L95.22,256a8.08,8.08,0,0,0,3.67-6.35v-3.12a9.16,9.16,0,0,1,4.2-7.27l2.71-1.56a.52.52,0,1,1,.52.91l-2.7,1.56a8.14,8.14,0,0,0-3.67,6.36v3.12a9.14,9.14,0,0,1-4.2,7.27l-13,7.48A.59.59,0,0,1,82.54,264.46Z"/><path class="cls-2" d="M77.51,261.55a.51.51,0,0,1-.46-.26.52.52,0,0,1,.19-.72l13-7.48a8.12,8.12,0,0,0,3.67-6.35v-3.12a9.12,9.12,0,0,1,4.2-7.27l2.7-1.57a.53.53,0,0,1,.53.92l-2.71,1.56a8.14,8.14,0,0,0-3.67,6.36v3.12A9.15,9.15,0,0,1,90.72,254l-13,7.47A.48.48,0,0,1,77.51,261.55Z"/><path class="cls-2" d="M72.47,258.65a.53.53,0,0,1-.27-1l13-7.48a8.11,8.11,0,0,0,3.67-6.35v-3.13a9.15,9.15,0,0,1,4.2-7.27l2.7-1.56a.53.53,0,0,1,.53.92l-2.7,1.56a8.11,8.11,0,0,0-3.67,6.35v3.13a9.18,9.18,0,0,1-4.2,7.27l-13,7.47A.48.48,0,0,1,72.47,258.65Z"/><path class="cls-2" d="M67.43,255.75a.5.5,0,0,1-.45-.26.54.54,0,0,1,.19-.73l13-7.47a8.14,8.14,0,0,0,3.67-6.36v-3.12A9.15,9.15,0,0,1,88,230.54L90.69,229a.53.53,0,0,1,.72.19.54.54,0,0,1-.19.73l-2.71,1.56a8.12,8.12,0,0,0-3.67,6.35v3.12a9.12,9.12,0,0,1-4.2,7.27L67.7,255.68A.54.54,0,0,1,67.43,255.75Z"/><path class="cls-2" d="M62.4,252.85a.53.53,0,0,1-.27-1l12.95-7.47A8.14,8.14,0,0,0,78.75,238v-3.12a9.14,9.14,0,0,1,4.2-7.27l2.7-1.56a.53.53,0,1,1,.53.91l-2.7,1.56a8.11,8.11,0,0,0-3.67,6.36V238a9.16,9.16,0,0,1-4.2,7.27l-13,7.48A.48.48,0,0,1,62.4,252.85Z"/><path class="cls-2" d="M57.36,250a.54.54,0,0,1-.46-.27.53.53,0,0,1,.2-.72L70,241.48a8.08,8.08,0,0,0,3.67-6.35V232a9.16,9.16,0,0,1,4.2-7.27l2.71-1.56a.52.52,0,1,1,.52.91l-2.7,1.56A8.14,8.14,0,0,0,74.77,232v3.12a9.14,9.14,0,0,1-4.2,7.27l-12.95,7.48A.59.59,0,0,1,57.36,250Z"/><path class="cls-2" d="M52.33,247a.51.51,0,0,1-.46-.26.52.52,0,0,1,.19-.72l13-7.48a8.12,8.12,0,0,0,3.67-6.35v-3.12a9.17,9.17,0,0,1,4.19-7.28l2.71-1.56a.53.53,0,0,1,.53.92l-2.71,1.56a8.14,8.14,0,0,0-3.67,6.36v3.12a9.15,9.15,0,0,1-4.19,7.27l-13,7.47A.51.51,0,0,1,52.33,247Z"/><path class="cls-2" d="M47.29,244.14a.53.53,0,0,1-.27-1L60,235.68a8.11,8.11,0,0,0,3.67-6.35V226.2a9.18,9.18,0,0,1,4.2-7.27l2.7-1.56a.53.53,0,1,1,.53.92l-2.7,1.56a8.11,8.11,0,0,0-3.67,6.35v3.13a9.18,9.18,0,0,1-4.2,7.27l-13,7.47A.48.48,0,0,1,47.29,244.14Z"/><path class="cls-2" d="M42.25,241.24a.5.5,0,0,1-.45-.26.54.54,0,0,1,.19-.73l12.95-7.47a8.14,8.14,0,0,0,3.67-6.36V223.3A9.15,9.15,0,0,1,62.8,216l2.71-1.56a.53.53,0,0,1,.72.19.54.54,0,0,1-.19.73L63.33,217a8.12,8.12,0,0,0-3.67,6.35v3.12a9.14,9.14,0,0,1-4.2,7.27l-12.94,7.48A.54.54,0,0,1,42.25,241.24Z"/><path class="cls-2" d="M37.22,238.34a.53.53,0,0,1-.27-1l12.95-7.47a8.14,8.14,0,0,0,3.67-6.36V220.4a9.14,9.14,0,0,1,4.2-7.27l2.7-1.56a.53.53,0,0,1,.53.91L58.3,214a8.11,8.11,0,0,0-3.67,6.36v3.12a9.16,9.16,0,0,1-4.2,7.27l-13,7.48A.48.48,0,0,1,37.22,238.34Z"/><path class="cls-2" d="M32.18,235.44a.54.54,0,0,1-.46-.27.53.53,0,0,1,.2-.72L44.86,227a8.08,8.08,0,0,0,3.67-6.35V217.5a9.16,9.16,0,0,1,4.2-7.27l2.71-1.56a.52.52,0,1,1,.52.91l-2.7,1.56a8.14,8.14,0,0,0-3.67,6.36v3.12a9.14,9.14,0,0,1-4.2,7.27l-13,7.48A.59.59,0,0,1,32.18,235.44Z"/><path class="cls-2" d="M27.15,232.53a.53.53,0,0,1-.27-1l13-7.48a8.13,8.13,0,0,0,3.67-6.35V214.6a9.16,9.16,0,0,1,4.2-7.28l2.7-1.56a.53.53,0,0,1,.53.92l-2.71,1.56a8.14,8.14,0,0,0-3.67,6.36v3.12A9.15,9.15,0,0,1,40.36,225l-12.95,7.47A.48.48,0,0,1,27.15,232.53Z"/><path class="cls-2" d="M22.11,229.63a.53.53,0,0,1-.27-1l13-7.48a8.11,8.11,0,0,0,3.67-6.35v-3.13a9.18,9.18,0,0,1,4.2-7.27l2.7-1.56a.53.53,0,0,1,.53.92l-2.7,1.56a8.11,8.11,0,0,0-3.67,6.35v3.13a9.18,9.18,0,0,1-4.2,7.27l-12.95,7.47A.48.48,0,0,1,22.11,229.63Z"/><path class="cls-2" d="M17.07,226.73a.5.5,0,0,1-.45-.26.54.54,0,0,1,.19-.73l13-7.47a8.14,8.14,0,0,0,3.67-6.36v-3.12a9.15,9.15,0,0,1,4.19-7.27L40.33,200a.53.53,0,0,1,.72.19.54.54,0,0,1-.19.73l-2.71,1.56a8.12,8.12,0,0,0-3.67,6.35v3.12a9.14,9.14,0,0,1-4.2,7.27l-12.94,7.48A.54.54,0,0,1,17.07,226.73Z"/><g class="cls-15"><path class="cls-16" d="M231.64,40.37c.89,5.05,4.64,17.75,20.1,26.53,22,10.16,37.24,23.51,42.34,38.43a34.44,34.44,0,0,0,1.33,3.21c.55-.91.55-.91.55-3.09v-25c0-14.7-.83-17.94-1.88-22C289,43.45,273.74,30.1,251.74,19.94c-17.56-5.67-21.81,10.79-20.1,20.43Z"/><path class="cls-16" d="M70.3,10.33C93.6,3.57,121.15-.23,150.56,0c3.88,0,7.73.13,11.53.3,25.82,2.36,35,29.64,19.44,41.57-7.15,5.48-15.76,5.42-19.44,5.39s-7.65-.27-11.53-.3c-29.41-.24-57,3.56-80.26,10.32C46.78,63,45.39,39.12,53.62,24.5c2.76-4.92,7.9-11.37,16.68-14.17Z"/><path class="cls-16" d="M0,116.46C.64,109,1.15,103.13,8.73,92.87c16-23.57,12.75-51,3.92-49.7-1.42.2-2.9,1.73-3.92,2.74C3.36,52.9.31,60.42,0,68.26c0,.41,0,.83,0,1.24v47Z"/></g><rect class="cls-16" x="195.39" y="121.56" width="5.49" height="46.84" transform="translate(-39.92 84.92) rotate(-22.03)"/><circle class="cls-17" cx="95.25" cy="102.01" r="17.05" transform="translate(-40.75 70.66) rotate(-33.98)"/><path class="cls-18" d="M183.28,127.23c0,33.1-19.71,59.92-44,59.92s-44-26.82-44-59.92,19.7-43,44-43S183.28,94.14,183.28,127.23Z"/><g class="cls-19"><path class="cls-20" d="M183.28,127.23c0,33.1-19.71,59.92-44,59.92s-44-26.82-44-59.92,19.7-43,44-43S183.28,94.14,183.28,127.23Z"/></g><ellipse class="cls-21" cx="139.26" cy="102.01" rx="30.04" ry="17.34"/><path class="cls-22" d="M118,94.37c11.73-6.77,30.75-6.77,42.49,0,4.84,2.8,7.68,6.31,8.52,9.95,1.2-5.17-1.64-10.6-8.52-14.57C148.77,83,129.75,83,118,89.75c-6.89,4-9.72,9.4-8.53,14.57C110.34,100.68,113.17,97.17,118,94.37Z"/><path class="cls-23" d="M104.59,60.8,110,51.43a30.27,30.27,0,0,0,7-12.14l5.5-9.49-7.91-4.54a5.73,5.73,0,0,0-.8-.46h0c-2.25-1.06-5.24-.78-8.53,1.12-7,4-12.67,13.86-12.67,21.94,0,4,1.42,6.88,3.71,8.2h0Z"/><ellipse class="cls-4" cx="113.49" cy="45.25" rx="17.92" ry="10.35" transform="translate(17.56 120.9) rotate(-60)"/><circle class="cls-24" cx="141.01" cy="60.62" r="44.89" transform="translate(-12.43 56.87) rotate(-21.86)"/><g class="cls-19"><circle class="cls-25" cx="141.01" cy="60.62" r="44.89" transform="translate(-12.43 56.87) rotate(-21.86)"/></g><path class="cls-26" d="M166.13,91l5.44-9.37a30.38,30.38,0,0,0,7.05-12.14l5.5-9.49-7.92-4.54a5.62,5.62,0,0,0-.79-.46h0c-2.26-1.07-5.25-.78-8.53,1.12-7,4-12.67,13.86-12.67,21.94,0,4,1.42,6.88,3.71,8.2h0Z"/><ellipse class="cls-4" cx="175.03" cy="75.42" rx="17.92" ry="10.35" transform="translate(22.19 189.29) rotate(-60)"/><path class="cls-5" d="M162.94,82.84c0-8.08,5.68-17.9,12.67-21.94a10.7,10.7,0,0,1,6.62-1.67c-2-.45-4.52,0-7.2,1.56-7,4-12.67,13.87-12.67,21.95,0,5.28,2.43,8.51,6.06,9C165.11,91,162.94,87.84,162.94,82.84Z"/><ellipse class="cls-21" cx="175.03" cy="75.42" rx="12.81" ry="7.39" transform="matrix(0.5, -0.87, 0.87, 0.5, 22.19, 189.29)"/><path class="cls-22" d="M180.24,63.86a7.48,7.48,0,0,1,1.48,4.88c0,5.78-4.05,12.8-9.06,15.69a7.19,7.19,0,0,1-5.2,1.1c1.62,1.91,4.4,2.18,7.57.35,5-2.89,9.06-9.91,9.06-15.68C184.09,66.66,182.57,64.41,180.24,63.86Z"/><ellipse class="cls-21" cx="114.2" cy="72.09" rx="11.4" ry="19.74" transform="translate(-18.93 49.42) rotate(-22.6)"/><path class="cls-16" d="M121.16,74.23c-.41,3.21-2.84,4.22-5.41,2.26a11.24,11.24,0,0,1-3.9-9.37c.42-3.21,2.84-4.22,5.41-2.25A11.2,11.2,0,0,1,121.16,74.23Z"/><path class="cls-22" d="M115.52,86.79c-7.08-5.41-11.88-17-10.73-25.78.46-3.6,1.85-6.19,3.8-7.63-3.69.34-6.49,3.48-7.2,8.92-1.15,8.82,3.66,20.37,10.73,25.77,4.19,3.21,8.23,3.54,11.08,1.44C120.89,89.73,118.23,88.86,115.52,86.79Z"/><path class="cls-16" d="M112.73,87.79c-7.07-5.41-11.88-17-10.73-25.78.53-4.09,2.25-6.87,4.63-8.15-2.7,1.11-4.66,4-5.24,8.44-1.15,8.82,3.66,20.37,10.73,25.77,3.8,2.91,7.47,3.44,10.24,2C119.67,91.14,116.25,90.48,112.73,87.79Z"/><circle class="cls-27" cx="189.35" cy="123.27" r="17.05" transform="translate(-36.5 129.61) rotate(-34.67)"/><g class="cls-19"><circle class="cls-28" cx="189.35" cy="123.27" r="17.05" transform="translate(-36.5 129.61) rotate(-34.67)"/></g><path class="cls-29" d="M216.54,179.75c-1,8.1-8.12,23.45-14.6,22.68s-9.82-17.37-8.85-25.47,7-14.05,13.47-13.27S217.5,171.65,216.54,179.75Z"/><path class="cls-30" d="M216.54,179.75c-1,8.1-8.12,23.45-14.6,22.68s-9.82-17.37-8.85-25.47,7-14.05,13.47-13.27S217.5,171.65,216.54,179.75Z"/><path class="cls-16" d="M50.13,127.63a2.74,2.74,0,0,1-1.27-5.17L84.06,104a2.74,2.74,0,1,1,2.54,4.86L51.4,127.32A2.74,2.74,0,0,1,50.13,127.63Z"/><path class="cls-31" d="M50.75,137.86c-7.15,3.92-23.8,7-26.93,1.3s8.43-18.09,15.58-22S54.9,114.68,58,120.4,57.91,133.94,50.75,137.86Z"/><path class="cls-32" d="M50.75,137.86c-7.15,3.92-23.8,7-26.93,1.3s8.43-18.09,15.58-22S54.9,114.68,58,120.4,57.91,133.94,50.75,137.86Z"/><g class="cls-33"><path class="cls-16" d="M17.2,130.22C16.13,138.84,11.66,144,7,137.55c-6-8.23-6.61-16.28-7-21.09v-47c0,7.34,2.44,14.43,7,21.09C16.89,107,18.07,123.23,17.2,130.22Z"/><path class="cls-16" d="M156.62,138.83c-3.71.1-7.45.14-11.22.1-29.53-.24-56.88-4.52-79.71-11.71C42.88,121.13,41.5,145,49.46,159.73c5.67,10.5,13.34,13.37,16.23,14.45,22.83,7.19,50.18,11.47,79.71,11.71,3.77,0,7.51,0,11.22-.1,26.8-2,33.81-27.71,21.29-39.72-3.5-3.35-10-7.33-21.29-7.24Z"/><path class="cls-16" d="M295.94,101.39c-.13,20.31-1.32,24-2.83,28.68-6.28,14.81-22.56,27.89-45.34,37.66-20,5.89-25.46-14.84-17.35-30.21a39.89,39.89,0,0,1,17.35-16.75c22.78-9.77,39.06-22.85,45.34-37.66a25.66,25.66,0,0,1,1.72-3.18l.51-.07c.39,1.09.55,1.54.6,7.08v14.45Z"/></g></g></g></g></svg>