<svg xmlns="http://www.w3.org/2000/svg" xmlns:xlink="http://www.w3.org/1999/xlink" viewBox="0 0 1977.21 1743.32"><defs><style>.cls-1{isolation:isolate;}.cls-2{fill:url(#Áåçûìÿííûé_ãðàäèåíò_16);}.cls-19,.cls-25,.cls-3,.cls-6{mix-blend-mode:lighten;}.cls-3{fill:url(#Áåçûìÿííûé_ãðàäèåíò_7);}.cls-4{fill:#2fd3c7;}.cls-5{fill:url(#Áåçûìÿííûé_ãðàäèåíò_16-2);}.cls-7{fill:url(#Áåçûìÿííûé_ãðàäèåíò_7-2);}.cls-8{fill:url(#Áåçûìÿííûé_ãðàäèåíò_16-3);}.cls-9{fill:url(#Áåçûìÿííûé_ãðàäèåíò_7-3);}.cls-10{fill:#393091;}.cls-11{fill:#42e8e0;}.cls-12{fill:#bcbeff;}.cls-13{fill:url(#Áåçûìÿííûé_ãðàäèåíò_16-4);}.cls-14{fill:url(#Áåçûìÿííûé_ãðàäèåíò_7-4);}.cls-15{fill:#453c9e;}.cls-16{fill:url(#Áåçûìÿííûé_ãðàäèåíò_16-5);}.cls-17{fill:url(#Áåçûìÿííûé_ãðàäèåíò_7-5);}.cls-18{fill:url(#Áåçûìÿííûé_ãðàäèåíò_16-6);}.cls-19{fill:url(#Áåçûìÿííûé_ãðàäèåíò_7-6);}.cls-20{fill:#fff;}.cls-21{fill:#251c72;}.cls-22{opacity:0.8;fill:url(#Áåçûìÿííûé_ãðàäèåíò_160);}.cls-23{fill:url(#Áåçûìÿííûé_ãðàäèåíò_41);}.cls-24{fill:url(#Áåçûìÿííûé_ãðàäèåíò_41-2);}.cls-25{fill:url(#Áåçûìÿííûé_ãðàäèåíò_116);}</style><radialGradient id="Áåçûìÿííûé_ãðàäèåíò_16" cx="-2232.6" cy="-1162.36" fy="-1146.2422097791814" r="247.76" gradientTransform="matrix(-0.5, 0.77, -1.26, -0.83, -1749.38, 1641.46)" gradientUnits="userSpaceOnUse"><stop offset="0" stop-color="#c0bff6"/><stop offset="1" stop-color="#393091"/></radialGradient><linearGradient id="Áåçûìÿííûé_ãðàäèåíò_7" x1="-1880.66" y1="2494.27" x2="-1996.64" y2="2649.17" gradientTransform="matrix(-0.5, 0.77, -0.96, -0.63, 2163.21, 3855.4)" gradientUnits="userSpaceOnUse"><stop offset="0" stop-color="#42e8e0"/><stop offset="0" stop-color="#42e6df"/><stop offset="0.14" stop-color="#40b6cb"/><stop offset="0.27" stop-color="#3e8db9"/><stop offset="0.41" stop-color="#3c6baa"/><stop offset="0.55" stop-color="#3b519f"/><stop offset="0.69" stop-color="#3a3f97"/><stop offset="0.84" stop-color="#393493"/><stop offset="1" stop-color="#393091"/></linearGradient><radialGradient id="Áåçûìÿííûé_ãðàäèåíò_16-2" cx="1105.5" cy="96.08" fy="96.08159714558496" r="739.98" gradientTransform="matrix(0.56, 0.83, -0.83, 0.56, 1177.91, 116.74)" xlink:href="#Áåçûìÿííûé_ãðàäèåíò_16"/><linearGradient id="Áåçûìÿííûé_ãðàäèåíò_7-2" x1="145.43" y1="1191.1" x2="401.83" y2="1191.1" gradientTransform="translate(464.92 -158.64) rotate(-12.51)" xlink:href="#Áåçûìÿííûé_ãðàäèåíò_7"/><radialGradient id="Áåçûìÿííûé_ãðàäèåíò_16-3" cx="2214.18" cy="1202.6" fy="1202.604555597527" r="731.04" gradientTransform="translate(-229.3 -163.63) scale(0.78 1.06)" xlink:href="#Áåçûìÿííûé_ãðàäèåíò_16"/><linearGradient id="Áåçûìÿííûé_ãðàäèåíò_7-3" x1="1963.19" y1="1691.75" x2="1963.19" y2="961.01" gradientTransform="translate(-229.3 -163.63) scale(0.78 1.06)" xlink:href="#Áåçûìÿííûé_ãðàäèåíò_7"/><radialGradient id="Áåçûìÿííûé_ãðàäèåíò_16-4" cx="1522.06" cy="626.76" fy="626.7595701062928" r="570.57" gradientTransform="translate(862.65 -729.07) rotate(45)" xlink:href="#Áåçûìÿííûé_ãðàäèåíò_16"/><linearGradient id="Áåçûìÿííûé_ãðàäèåíò_7-4" x1="1264.4" y1="1011.1" x2="1358.37" y2="342.44" gradientTransform="translate(862.65 -729.07) rotate(45)" xlink:href="#Áåçûìÿííûé_ãðàäèåíò_7"/><radialGradient id="Áåçûìÿííûé_ãðàäèåíò_16-5" cx="1353.11" cy="586.19" fy="586.1904282188043" r="267.44" gradientTransform="translate(2192.34 -221.61) rotate(82.89)" xlink:href="#Áåçûìÿííûé_ãðàäèåíò_16"/><linearGradient id="Áåçûìÿííûé_ãðàäèåíò_7-5" x1="1207.75" y1="777.07" x2="1381.94" y2="588.95" gradientTransform="translate(2192.34 -221.61) rotate(82.89)" xlink:href="#Áåçûìÿííûé_ãðàäèåíò_7"/><radialGradient id="Áåçûìÿííûé_ãðàäèåíò_16-6" cx="2063.31" cy="-829.72" fy="-813.6017506073044" r="247.78" gradientTransform="matrix(0.91, 0.11, -0.18, 1.5, -116.06, 2491.96)" xlink:href="#Áåçûìÿííûé_ãðàäèåíò_16"/><linearGradient id="Áåçûìÿííûé_ãðàäèåíò_7-6" x1="1695.2" y1="1506.62" x2="1888.71" y2="1506.62" gradientTransform="matrix(0.91, 0.11, -0.14, 1.14, 359.01, -314.72)" xlink:href="#Áåçûìÿííûé_ãðàäèåíò_7"/><radialGradient id="Áåçûìÿííûé_ãðàäèåíò_160" cx="1512.34" cy="-1206.03" r="225.14" gradientTransform="translate(0 2073.39) scale(1 1.28)" gradientUnits="userSpaceOnUse"><stop offset="0" stop-color="#2b237c"/><stop offset="0.31" stop-color="#251c72"/><stop offset="1" stop-color="#0f054c"/></radialGradient><linearGradient id="Áåçûìÿííûé_ãðàäèåíò_41" x1="1689.39" y1="826.99" x2="1369.27" y2="924.33" gradientUnits="userSpaceOnUse"><stop offset="0" stop-color="#bcbeff"/><stop offset="0.15" stop-color="#a3a7f5"/><stop offset="0.39" stop-color="#8289e8"/><stop offset="0.61" stop-color="#6a73df"/><stop offset="0.82" stop-color="#5c66d9"/><stop offset="1" stop-color="#5761d7"/></linearGradient><linearGradient id="Áåçûìÿííûé_ãðàäèåíò_41-2" x1="1633.98" y1="847.3" x2="1195.33" y2="899.56" xlink:href="#Áåçûìÿííûé_ãðàäèåíò_41"/><linearGradient id="Áåçûìÿííûé_ãðàäèåíò_116" x1="1568.19" y1="976.25" x2="1796.75" y2="598.22" gradientUnits="userSpaceOnUse"><stop offset="0" stop-color="#42e8e0"/><stop offset="0.12" stop-color="#42e2de"/><stop offset="0.27" stop-color="#41d3d7"/><stop offset="0.44" stop-color="#40b9cc"/><stop offset="0.62" stop-color="#3e94bc"/><stop offset="0.81" stop-color="#3c66a8"/><stop offset="1" stop-color="#393091"/></linearGradient></defs><g class="cls-1"><g id="Layer_2" data-name="Layer 2"><g id="ROBOT_BOITE_2_SANS_OREOLE_TROUE" data-name="ROBOT BOITE 2 SANS OREOLE TROUE"><path class="cls-2" d="M635.19,824.67C583.91,791,504.63,691.39,531.54,650.4s149.83-7.84,201.11,25.83,71,94.19,44.13,135.19S686.47,858.34,635.19,824.67Z"/><path class="cls-3" d="M635.19,824.67C583.91,791,504.63,691.39,531.54,650.4s149.83-7.84,201.11,25.83,71,94.19,44.13,135.19S686.47,858.34,635.19,824.67Z"/><path class="cls-4" d="M933.42,945A23.85,23.85,0,0,1,920,940.83L737.66,817.32a24,24,0,0,1,27-39.78l182.3,123.51A24,24,0,0,1,933.42,945Z"/><path class="cls-4" d="M1807,1498.39a24,24,0,0,1-22.28-15l-132.14-326.48a24,24,0,0,1,44.54-18l132.14,326.48a24,24,0,0,1-22.26,33Z"/><circle class="cls-5" cx="989.95" cy="944.9" r="128.19" transform="translate(-378.2 976.75) rotate(-45)"/><g class="cls-6"><circle class="cls-7" cx="989.95" cy="944.9" r="128.19" transform="translate(-378.2 976.75) rotate(-45)"/></g><path class="cls-8" d="M1629.25,1177.69c0,248.85-148.19,450.58-331,450.58s-331-201.73-331-450.58,148.19-323.42,331-323.42S1629.25,928.84,1629.25,1177.69Z"/><g class="cls-6"><path class="cls-9" d="M1629.25,1177.69c0,248.85-148.19,450.58-331,450.58s-331-201.73-331-450.58,148.19-323.42,331-323.42S1629.25,928.84,1629.25,1177.69Z"/></g><ellipse class="cls-10" cx="1298.26" cy="988.06" rx="225.89" ry="130.42"/><path class="cls-11" d="M1138.52,930.58c88.22-50.93,231.25-50.93,319.47,0,36.43,21,57.78,47.48,64.12,74.86,9-38.91-12.34-79.7-64.12-109.6-88.22-50.93-231.25-50.93-319.47,0-51.77,29.89-73.12,70.69-64.11,109.59C1080.75,978.06,1102.09,951.62,1138.52,930.58Z"/><path class="cls-12" d="M1199.71,506.19c0,60.76-42.66,134.65-95.28,165s-95.27,5.75-95.27-55,42.65-134.64,95.27-165S1199.71,445.43,1199.71,506.19Z"/><circle class="cls-13" cx="1311.39" cy="676.77" r="337.58" transform="translate(-94.45 1125.51) rotate(-45)"/><g class="cls-6"><circle class="cls-14" cx="1311.39" cy="676.77" r="337.58" transform="translate(-94.45 1125.51) rotate(-45)"/></g><path class="cls-10" d="M1206.07,836.66c-8.63,66.39-58.73,87.24-111.91,46.58s-89.3-127.44-80.68-193.83,58.73-87.24,111.91-46.57S1214.69,770.28,1206.07,836.66Z"/><path class="cls-11" d="M1162.15,779.18c-3.13,24.13-21.34,31.71-40.67,16.93s-32.46-46.31-29.32-70.44,21.34-31.71,40.67-16.93S1165.28,755.06,1162.15,779.18Z"/><path class="cls-15" d="M1119.69,873.56c-53.18-40.66-89.3-127.44-80.67-193.83,3.51-27.06,13.92-46.55,28.63-57.39-27.81,2.61-48.86,26.19-54.17,67.07-8.62,66.39,27.5,153.17,80.68,193.83,31.5,24.08,61.92,26.58,83.28,10.82C1160.09,895.69,1140.13,889.18,1119.69,873.56Z"/><path class="cls-11" d="M1098.74,881.08c-53.18-40.67-89.3-127.44-80.68-193.83,4-30.73,16.88-51.68,34.85-61.3-20.34,8.37-35.1,30.18-39.43,63.46-8.62,66.39,27.5,153.17,80.68,193.83,28.55,21.83,56.19,25.87,77,14.71C1151,906.27,1125.24,901.34,1098.74,881.08Z"/><circle class="cls-16" cx="1674.86" cy="1147.88" r="128.19" transform="translate(58.95 2377.37) rotate(-71.69)"/><g class="cls-6"><circle class="cls-17" cx="1674.86" cy="1147.88" r="128.19" transform="translate(58.95 2377.37) rotate(-71.69)"/></g><path class="cls-18" d="M1879.32,1572.62c-7.27,60.92-61.07,176.3-109.76,170.49s-73.83-130.61-66.56-191.53,52.63-105.58,101.32-99.77S1886.59,1511.71,1879.32,1572.62Z"/><path class="cls-19" d="M1879.32,1572.62c-7.27,60.92-61.07,176.3-109.76,170.49s-73.83-130.61-66.56-191.53,52.63-105.58,101.32-99.77S1886.59,1511.71,1879.32,1572.62Z"/><polygon class="cls-11" points="512.11 471.77 208.78 296.64 208.78 646.89 512.11 822.02 815.45 646.89 815.45 296.64 512.11 471.77"/><polygon class="cls-11" points="512.11 822.02 208.78 646.89 208.78 296.64 512.11 471.77 512.11 822.02"/><polygon class="cls-4" points="815.45 646.89 512.11 822.02 512.11 471.77 815.45 296.64 815.45 646.89"/><polygon class="cls-11" points="512.11 471.77 208.78 296.64 512.1 121.52 815.44 296.64 512.11 471.77"/><path class="cls-20" d="M512.12,593.28A2.35,2.35,0,0,1,511,593l-20.81-12a2.3,2.3,0,0,1,2.3-4l19.66,11.35L531.78,577a2.3,2.3,0,1,1,2.29,4l-20.8,12A2.38,2.38,0,0,1,512.12,593.28Z"/><path class="cls-20" d="M448.75,556.7a2.26,2.26,0,0,1-1.15-.31L405,531.82a2.3,2.3,0,1,1,2.3-4l42.56,24.57a2.32,2.32,0,0,1,.85,3.14A2.34,2.34,0,0,1,448.75,556.7Zm-85.14-49.15a2.34,2.34,0,0,1-1.14-.3L319.9,482.66a2.3,2.3,0,0,1,2.3-4l42.56,24.59a2.29,2.29,0,0,1-1.15,4.28ZM278.48,458.4a2.25,2.25,0,0,1-1.14-.31l-42.57-24.57a2.3,2.3,0,0,1,2.3-4l42.56,24.57a2.3,2.3,0,0,1-1.15,4.29Zm-85.13-49.15a2.31,2.31,0,0,1-1.14-.3l-42.57-24.59a2.3,2.3,0,0,1,2.3-4L194.5,405a2.29,2.29,0,0,1-1.15,4.28ZM108.22,360.1a2.22,2.22,0,0,1-1.14-.31L64.51,335.22a2.3,2.3,0,0,1,2.3-4l42.56,24.57a2.3,2.3,0,0,1-1.15,4.29Z"/><path class="cls-20" d="M23.09,311a2.31,2.31,0,0,1-1.14-.3l-20.8-12a2.3,2.3,0,0,1,0-4l20.8-12a2.3,2.3,0,0,1,2.29,4l-17.35,10,17.35,10A2.29,2.29,0,0,1,23.09,311Z"/><path class="cls-20" d="M65.66,262.34a2.29,2.29,0,0,1-1.15-4.28l42.57-24.57a2.3,2.3,0,0,1,2.29,4L66.81,262A2.38,2.38,0,0,1,65.66,262.34Zm85.13-49.14a2.3,2.3,0,0,1-1.15-4.29l42.56-24.57a2.3,2.3,0,1,1,2.29,4l-42.55,24.57A2.28,2.28,0,0,1,150.79,213.2Zm85.12-49.15a2.29,2.29,0,0,1-1.15-4.28l42.57-24.58a2.3,2.3,0,1,1,2.29,4l-42.56,24.57A2.38,2.38,0,0,1,235.91,164.05ZM321,114.91a2.3,2.3,0,0,1-1.15-4.29L362.46,86a2.3,2.3,0,1,1,2.29,4L322.19,114.6A2.28,2.28,0,0,1,321,114.91Zm85.13-49.16A2.29,2.29,0,0,1,405,61.47L447.58,36.9a2.3,2.3,0,1,1,2.29,4L407.32,65.45A2.35,2.35,0,0,1,406.17,65.75Z"/><path class="cls-20" d="M532.91,16.61a2.26,2.26,0,0,1-1.15-.31L512.1,5,492.44,16.3a2.3,2.3,0,1,1-2.29-4L511,.31a2.3,2.3,0,0,1,2.3,0l20.81,12a2.32,2.32,0,0,1,.84,3.14A2.3,2.3,0,0,1,532.91,16.61Z"/><path class="cls-20" d="M958.55,262.35a2.38,2.38,0,0,1-1.15-.3l-42.56-24.57a2.3,2.3,0,0,1,2.29-4l42.57,24.58a2.29,2.29,0,0,1-1.15,4.28Zm-85.13-49.14a2.28,2.28,0,0,1-1.15-.31l-42.55-24.57a2.3,2.3,0,1,1,2.29-4l42.56,24.57a2.3,2.3,0,0,1-1.15,4.29ZM788.3,164.05a2.35,2.35,0,0,1-1.15-.3l-42.56-24.57a2.3,2.3,0,0,1,2.29-4l42.57,24.58a2.29,2.29,0,0,1-1.15,4.28Zm-85.13-49.14a2.26,2.26,0,0,1-1.15-.31L659.46,90a2.3,2.3,0,1,1,2.29-4l42.57,24.57a2.3,2.3,0,0,1-1.15,4.29ZM618,65.75a2.35,2.35,0,0,1-1.15-.3L574.33,40.88a2.3,2.3,0,1,1,2.29-4l42.57,24.57A2.29,2.29,0,0,1,618,65.75Z"/><path class="cls-20" d="M1001.12,311a2.29,2.29,0,0,1-1.15-4.28l17.36-10-17.36-10a2.3,2.3,0,0,1,2.29-4l20.81,12a2.3,2.3,0,0,1,0,4l-20.81,12A2.34,2.34,0,0,1,1001.12,311Z"/><path class="cls-20" d="M575.49,556.7a2.3,2.3,0,0,1-1.15-4.29l42.56-24.57a2.3,2.3,0,1,1,2.29,4l-42.55,24.57A2.28,2.28,0,0,1,575.49,556.7Zm85.12-49.15a2.29,2.29,0,0,1-1.15-4.28L702,478.68a2.3,2.3,0,1,1,2.29,4l-42.56,24.59A2.35,2.35,0,0,1,660.61,507.55Zm85.13-49.15a2.3,2.3,0,0,1-1.15-4.29l42.57-24.57a2.3,2.3,0,1,1,2.29,4l-42.56,24.57A2.26,2.26,0,0,1,745.74,458.4Zm85.13-49.15a2.29,2.29,0,0,1-1.14-4.28l42.55-24.58a2.3,2.3,0,0,1,2.3,4L832,409A2.35,2.35,0,0,1,830.87,409.25ZM916,360.11a2.3,2.3,0,0,1-1.14-4.29l42.56-24.57a2.3,2.3,0,0,1,2.3,4L917.14,359.8A2.26,2.26,0,0,1,916,360.11Z"/><polygon class="cls-20" points="512.11 471.77 208.78 296.64 208.78 311.83 512.11 486.96 815.44 311.84 815.45 296.64 512.11 471.77"/><polygon class="cls-21" points="1596.3 800.26 1474.02 870.86 1474.02 729.66 1596.3 659.06 1596.3 800.26"/><polygon class="cls-22" points="1578.13 669.55 1578.13 790.41 1474.02 850.52 1474.02 870.86 1596.3 800.26 1596.3 659.06 1578.13 669.55"/><polygon class="cls-11" points="1497.37 768.24 1486.41 774.56 1486.41 761.91 1497.37 755.59 1497.37 768.24"/><polygon class="cls-11" points="1520.62 754.82 1509.66 761.14 1509.66 748.49 1520.62 742.17 1520.62 754.82"/><polygon class="cls-11" points="1543.87 741.39 1532.91 747.72 1532.91 735.07 1543.87 728.75 1543.87 741.39"/><polygon class="cls-11" points="1543.87 774.56 1532.91 780.89 1532.91 768.24 1543.87 761.91 1543.87 774.56"/><polygon class="cls-11" points="1529.87 800.07 1518.91 806.4 1518.91 793.75 1529.87 787.42 1529.87 800.07"/><polygon class="cls-11" points="1567.84 760.72 1556.89 767.04 1556.89 754.39 1567.84 748.07 1567.84 760.72"/><path class="cls-20" d="M1629.25,799.72a2.39,2.39,0,0,1-1.26-.36l-10.33-6.74a2.31,2.31,0,0,1-.68-3.18,2.33,2.33,0,0,1,3.19-.67l9.18,6,30.06-16.58a2.3,2.3,0,0,1,2.23,4l-31.28,17.24A2.34,2.34,0,0,1,1629.25,799.72Zm-50.6-33a2.26,2.26,0,0,1-1.26-.38l-40.26-26.23a2.29,2.29,0,1,1,2.51-3.83l40.26,26.23a2.28,2.28,0,0,1,.67,3.17A2.31,2.31,0,0,1,1578.65,766.76Zm123.95-7.48a2.29,2.29,0,0,1-1.11-4.3l42.08-23.2a2.3,2.3,0,0,1,2.22,4L1703.71,759A2.34,2.34,0,0,1,1702.6,759.28Zm84.16-46.4a2.29,2.29,0,0,1-1.11-4.3l42.08-23.2a2.29,2.29,0,1,1,2.22,4l-42.08,23.2A2.25,2.25,0,0,1,1786.76,712.88Zm84.16-46.39a2.29,2.29,0,0,1-1.11-4.3L1911.89,639a2.3,2.3,0,0,1,2.23,4L1872,666.2A2.22,2.22,0,0,1,1870.92,666.49Zm84.16-46.4a2.3,2.3,0,0,1-1.12-4.31l16.14-8.89-18.68-9.95a2.29,2.29,0,0,1,2.15-4.05L1976,604.83a2.29,2.29,0,0,1,0,4l-19.84,10.94A2.27,2.27,0,0,1,1955.08,620.09Zm-45-45.47a2.3,2.3,0,0,1-1.08-.27l-42.41-22.59a2.3,2.3,0,0,1,2.15-4.06l42.42,22.6a2.29,2.29,0,0,1-1.08,4.32Zm-84.83-45.19a2.3,2.3,0,0,1-1.07-.27l-42.41-22.59a2.3,2.3,0,1,1,2.16-4.05l42.4,22.59a2.29,2.29,0,0,1-1.08,4.32Zm-84.81-45.17a2.3,2.3,0,0,1-1.08-.27L1697,461.4a2.29,2.29,0,1,1,2.15-4l42.41,22.59a2.29,2.29,0,0,1-1.07,4.32Zm-84.82-45.18a2.33,2.33,0,0,1-1.08-.27l-42.41-22.59a2.3,2.3,0,0,1,2.15-4.06l42.42,22.6a2.29,2.29,0,0,1-1.08,4.32Zm-84.82-45.19a2.41,2.41,0,0,1-1.07-.26L1527.33,371a2.29,2.29,0,0,1,2.15-4l42.41,22.59a2.29,2.29,0,0,1-1.08,4.32ZM1486,348.71a2.3,2.3,0,0,1-1.08-.27l-42.4-22.59a2.29,2.29,0,0,1,2.15-4.05l42.4,22.59a2.29,2.29,0,0,1-1.07,4.32Zm-84.82-45.18a2.27,2.27,0,0,1-1.07-.27l-42.42-22.58a2.3,2.3,0,0,1-1-3.1,2.33,2.33,0,0,1,3.11-1l42.41,22.59a2.29,2.29,0,0,1-1.08,4.32Zm-84.81-45.18a2.42,2.42,0,0,1-1.08-.26l-42.41-22.6a2.29,2.29,0,0,1,2.15-4.05L1317.43,254a2.3,2.3,0,0,1,1,3.1A2.27,2.27,0,0,1,1316.36,258.35Zm-84.83-45.18a2.3,2.3,0,0,1-1.08-.27l-42.4-22.59a2.29,2.29,0,1,1,2.15-4.05l42.41,22.59a2.29,2.29,0,0,1-1.08,4.32ZM1146.71,168a2.3,2.3,0,0,1-1.07-.27l-42.42-22.59a2.3,2.3,0,1,1,2.16-4l42.41,22.59a2.29,2.29,0,0,1-1.08,4.32ZM768.44,147.33a2.29,2.29,0,0,1-1.16-4.27l41.54-24.16a2.29,2.29,0,1,1,2.31,4L769.6,147A2.32,2.32,0,0,1,768.44,147.33Zm293.46-24.52a2.3,2.3,0,0,1-1.08-.27l-42.41-22.6a2.29,2.29,0,1,1,2.15-4L1063,118.48a2.3,2.3,0,0,1-1.07,4.33ZM851.51,99a2.3,2.3,0,0,1-1.16-4.28l41.54-24.16a2.3,2.3,0,0,1,2.31,4L852.67,98.71A2.35,2.35,0,0,1,851.51,99ZM977.07,77.63a2.27,2.27,0,0,1-1.07-.27L933.59,54.77a2.29,2.29,0,0,1,2.15-4.05l42.41,22.59a2.29,2.29,0,0,1-1.08,4.32Z"/><polygon class="cls-23" points="1694.85 763.03 1708.24 739.84 1694.85 732.13 1572.57 802.73 1572.57 943.93 1585.96 951.63 1599.33 928.48 1694.85 873.33 1694.85 763.03"/><polygon class="cls-24" points="1708.24 881.03 1585.96 951.63 1585.96 810.44 1708.24 739.84 1708.24 881.03"/><polygon class="cls-25" points="1708.24 881.03 1585.96 951.63 1585.96 810.44 1708.24 739.84 1708.24 881.03"/></g></g></g></svg>