<svg xmlns="http://www.w3.org/2000/svg" viewBox="0 0 518.25 519"><defs><style>.cls-1{fill:#c2c2c2;}.cls-2{fill:#fefefe;}.cls-3{fill:#393939;}.cls-4{fill:#426687;}.cls-5{fill:#fdd8ac;}.cls-6{fill:#e7635e;}.cls-7{fill:#f3cca4;}.cls-8{fill:#fdd5ad;}.cls-9{fill:#3b3a3a;}.cls-10{fill:#fcd6ad;}.cls-11{fill:#fde0b8;}.cls-12{fill:#3f3e3c;}.cls-13{fill:#fbdeb7;}.cls-14{fill:#fbd7ac;}</style></defs><g id="Layer_2" data-name="Layer 2"><g id="Layer_1-2" data-name="Layer 1"><path class="cls-1" d="M.75,0h517.5V518.24c-1.29.71-2.68.36-4,.36q-31.34,0-62.67,0c-3.05,0-3.51-2.36-4.08-4.5-1.83-6.87-3.65-13.73-5.41-20.62a35.35,35.35,0,0,0-15.37-21.72c-26.61-17.38-53.37-34.56-80-51.86a23.9,23.9,0,0,1-2.72-2c-4.11-5.19-6.7-11.28-10-17-4.5-7.85-8.87-15.78-13.19-23.74-1.78-3.27-3.45-6.58-7.27-8-2.24-2.27-.41-5.24-1.37-7.73.48-3.19-1.22-6.92,2.32-9.36,3.69-.74,7.43-.27,11.15-.32,6.72-.08,13.44,0,20.16,0,7.54,0,7.55,0,7.56-7.4q0-27.62,0-55.24c0-2.1-.19-4.23.48-6.29a4.58,4.58,0,0,1,2.51-3.5c3.51-1.89,5.38-5,6.83-8.56,4.31-10.45,5.44-21.64,7.5-32.61a179.47,179.47,0,0,0,2.67-27,61.07,61.07,0,0,0-2.21-18.42c-.61-2.22.25-4.2,1.06-6.14a161.44,161.44,0,0,0,11.47-40.15c4-28.17-.41-54.47-18.19-77.48-10.52-13.61-24.08-23-41-27.12-9.47-2.34-18.56-1.75-27,3.45a5.5,5.5,0,0,1-6.9-.44C278.8,35.81,265.27,31.16,250.73,29c-11.66-1.73-23.32-1.52-35-.59a123,123,0,0,0-35.92,8.27c-27,10.71-45.44,30-56.08,56.87a143.37,143.37,0,0,0-9.15,40.29c-2,22.9.64,45.23,7,67.22,1.42,4.89,4.17,9.37,4.45,14.61-1.62,3.53.28,6.87.67,10.25,1.57,13.59,3.35,27.17,7.39,40.31,1.49,4.81,3.55,9.32,7.42,12.78a6,6,0,0,1,2,3.92,22.38,22.38,0,0,1,.43,6.32q0,28,0,56.06c0,6.17.33,6.48,6.61,6.49,9.47,0,18.94,0,28.41,0a15.31,15.31,0,0,1,5.9.68,3.5,3.5,0,0,1,2.32,3.41c.06,2.81.82,5.53.86,8.34-.57,1.62,0,3.54-1.2,5a4.23,4.23,0,0,1-3.43,2c-3.3.05-4.7,2.22-6.07,4.73-6.63,12.13-13.44,24.16-20.1,36.28a22.19,22.19,0,0,1-3.75,5.56c-4.9,4.08-10.47,7.16-15.79,10.62q-33.36,21.72-66.81,43.33a35.7,35.7,0,0,0-15.67,22.33c-1.68,6.77-3.63,13.47-5.3,20.25-.55,2.22-1.27,4.45-4.31,4.24H1c-.95-1.82-.59-3.34-.59-4.8Q.36,258.92.39,4C.39,2.69.05,1.29.75,0Z"/><path class="cls-2" d="M.75,0V511.2a31.54,31.54,0,0,1,0,3.37c-.3,2.68.6,3.76,3.5,3.73,14.35-.15,28.69-.11,43-.13a8.17,8.17,0,0,1,5.26-1.58c1.24,0,2.5,0,3.74,0q192.58,0,385.16,0c2.92,0,6.06-.77,8.59,1.55l68.23.08c-.12.25-.24.71-.38.72-1,.06-2,0-3,0H0Q0,261.19,0,3.37A16.23,16.23,0,0,1,.75,0Z"/><path class="cls-3" d="M124.89,215.63c-5.52-15-9.84-30.23-11.44-46.14C110,135,113.67,101.86,133.13,72c13.44-20.58,32.58-33.65,56-40.26,24.48-6.9,49.25-8.07,74.13-1.86,11,2.76,19.54,7.12,30.57,15.63,17.66-11.7,34.7-6.64,50.78,3,22.94,13.72,35.65,34.86,40.29,60.9s-.53,50.93-10.13,75.15c-1,2.52-1.79,5.12-2.69,7.68a16.49,16.49,0,0,1-1.92,7.06,271.29,271.29,0,0,1-14.5,26,20.19,20.19,0,0,1-2.91,3.85c-.83.87-1.54,2.22-3,1.5-1.26-.61-1.39-2-1.5-3.24-.23-2.51.53-5,.59-7.43.5-19.18-1.12-38.06-8.38-56.1-4.22-10.49-10.38-19.5-19.31-26.58-10.89-8.63-20.94-18.08-28-30.29a1.16,1.16,0,0,0-1.22-.6c-11,14-25.13,24.26-41.45,31.71-9.17,4.33-18.81,7.3-28.57,9.9-16.64,4.42-31.3,12.2-42.8,25.29-8.35,9.5-13.81,20.64-18.23,32.39-4.28,11.34-7.2,23.06-10.28,34.74-1.49,5.63-3.5,6.51-8,2.8C133.73,236,126.93,227.3,124.89,215.63Z"/><path class="cls-4" d="M450,518.16c-1.12,0-2.24.08-3.37.08h-396c-1.12,0-2.24,0-3.36-.07,2.21-8.52,4.38-17.06,6.64-25.56,2.2-8.29,6.24-15.6,13.48-20.34,28.37-18.55,56.89-36.86,85.36-55.26,1.88-.52,3.07.67,4.2,1.8,7.72,7.83,15.8,15.3,23.14,23.53.73,1.93.49,3.94.5,5.92,0,12.09,0,24.19,0,36.28,0,1.58-.36,3.25.64,4.69,1.45.8,2.73,0,4-.45,13.45-4.53,26.92-9,40.25-13.92,4.09-1.49,7.94-2.39,12.22-.28,3.43,1.69,7.37.8,11.09.84,5.33,0,10.7.51,15.77-2,2.11-1.06,4.42,0,6.53.75q21,7.32,42,14.5c1.38.47,2.73,1.27,4.33,1,1.19-1.27.69-2.84.69-4.27,0-12.84,0-25.68,0-38.52,0-2-.23-4,.46-5.93,6.93-7.83,14.61-14.94,22-22.37,1.06-1.07,2.25-2,4-1.6,9.4,6,18.82,11.95,28.19,18q28,18,55.88,36.19c7.71,5,12.5,12.27,14.79,21.14C445.66,500.89,447.83,509.53,450,518.16Z"/><path class="cls-5" d="M124.89,215.63c4.09,6.82,7.82,13.89,12.41,20.35,2.57,3.61,6.59,6.19,10.18,9.43,3.46-12.14,6.36-23.45,9.93-34.55,4.57-14.2,10.83-27.61,20.84-39,10.54-12,23.89-19.36,38.87-24.21,11-3.56,22-7.22,32.95-10.83,1.72,1,1.66,2.67,1.67,4.27q.16,31.5,0,63a7.2,7.2,0,0,1-.69,3.62,3.13,3.13,0,0,1-2.66,1.83c-5.27.17-10.67,1.37-15.06-3.3-3.66-3.89-8.85-4.51-13.85-4.62-10.73-.24-21.46-.22-32.19,0-7.15.14-13.47,2.19-17.52,8.82-5.45,8.92-2.68,22.83,5.72,28a16.94,16.94,0,0,0,9.24,2.54c12.23,0,24.46,0,36.68,0,10.38-.05,17.29-6.62,18.06-17.07.06-.75,0-1.5.06-2.24.08-2.49-.26-5.44,2.76-6.32s6.15-1.51,8.68,1.33c1,1.73.8,3.63.8,5.48q0,74.79,0,149.57a11.42,11.42,0,0,1-.53,4.78c-1,2.45-3.22,2.48-5.34,2.43a81.21,81.21,0,0,1-29.31-6.37c-11.34-4.65-20.87-11.92-29.55-20.41a9.58,9.58,0,0,0-2.32-1.8c-5.36-7.48-11.2-14.62-15.86-22.61-7.47-12.8-12.7-26.51-16.72-40.72a29.75,29.75,0,0,0-1.05-3.19,1.59,1.59,0,0,0-1-.89c-2.39-.2-5.35,2.21-7.75-.74-10.55-9-11.8-21.94-14.13-34.31-1.62-8.62-2.64-17.37-3.74-26.09C124.2,219.83,124.73,217.7,124.89,215.63Z"/><path class="cls-6" d="M178.84,442.08l-19.4-18.57c-2.24-2.15-4.46-4.33-6.69-6.5q12-21.58,23.89-43.18c1.4-2.53,2.84-4.59,6.24-4,.88.14,1.89-.43,2.83-.67,2.09-.63,3.26.86,4.48,2.05,14.05,13.61,28.57,26.72,42.68,40.26,4,3.88,8.2,7.65,12.24,11.54,2.9,2.8,3.91,2.85,6.92.06q6.72-6.21,13.33-12.56c14-13.33,28.29-26.29,42.15-39.74,2-1.9,4-3.48,6.92-1.87,3.15-.1,4.63,1.69,6.07,4.36,7.88,14.64,16,29.15,24.07,43.7q-10.76,10.53-21.52,21c-1,.94-2.06,1.74-3.1,2.61-2.11-1.12-1.67-3.16-1.73-5-.14-4.82.14-9.66-.17-14.33-2.27-1-3.85.1-5.42.64-13,4.4-26,8.76-38.84,13.43a19.38,19.38,0,0,1-13.36.42c-7.86-2.53-16.12-2.83-24,.59-3.11,1.34-6,.82-9.08-.26q-21.1-7.52-42.38-14.61c-1.15-.39-2.23-1.17-3.59-.67-1.25,1.84-.68,3.89-.73,5.82-.1,3.74,0,7.48-.06,11.22C180.51,439.46,180.65,441.18,178.84,442.08Z"/><path class="cls-7" d="M185.28,349.73c3.38,2.61,6.87,5.09,10.12,7.85,12.44,10.56,26.64,17.15,42.89,19.11,3.92.47,7.9.51,11.86.75,2.24-2.45,5.42-1.68,8.12-2.05,19.14-2.59,35.31-10.92,48.82-24.59a31.51,31.51,0,0,1,3.82-3.58c1.35-1,2.81-1.78,4.35-.22,1.08,2,1.25,3.84-.5,5.55l-1,9.2c-2.94,6.66-8.62,10.85-14.06,15.1C288,386,274.77,392.23,260,393.71c-18.56,1.85-36.54-.45-52.87-10.56a109.18,109.18,0,0,1-15.58-11.51,17.32,17.32,0,0,1-5-6.89q-.84-5.7-1.67-11.4C183.82,352,183.68,350.77,185.28,349.73Z"/><path class="cls-8" d="M186.54,364.75c6.88,5.5,13.37,11.6,20.72,16.38a71.39,71.39,0,0,0,38.87,11.43c11.9.13,23.37-1.24,34.26-6.13a82.5,82.5,0,0,0,23.95-15.62l9.39-9.06c.24,2.38.47,4.75.7,7.13-1.64.72-3.63,1.07-4.87,2.22q-28.05,26.14-55.94,52.47c-1.53,1.43-3.14,2.78-5.12,4.54l-62.79-59C186,367.68,186.27,366.21,186.54,364.75Z"/><path class="cls-9" d="M185.28,349.73l-.42,3.62H142.32v-71.1l9.17-1.35c3.26,9.26,6.43,19.28,10.31,29a129,129,0,0,0,21.63,35.89C184.33,346.88,184.68,348.42,185.28,349.73Z"/><path class="cls-9" d="M314.76,352.55l-.18-5.81c-1.52-2-.2-3.53.88-5A175.1,175.1,0,0,0,327.13,324,174.31,174.31,0,0,0,343,283.88c.58-2.13.92-4.49,3.58-5.23a15.42,15.42,0,0,1,8.33,3.69v70.33c-.41.19-.74.47-1.06.47q-18.52.08-37,.06A7.21,7.21,0,0,1,314.76,352.55Z"/><path class="cls-10" d="M355,282.34l-8.21-3.09c-2-1.12-2.06-2.91-1.64-4.86a234.74,234.74,0,0,0,5.4-39.06c.11-2.37,1.33-4.53,1.57-6.89l20-36.18a49.43,49.43,0,0,1,2.4,23c-1.57,12.26-2.75,24.58-4.66,36.79-1,6.31-3.19,12.44-4.87,18.65C363.5,276.16,359.74,279.69,355,282.34Z"/><path class="cls-11" d="M352.07,228.44c0,4.39.32,8.84-.21,13.17-1.25,10.18-2.95,20.3-4.41,30.46-.35,2.38-.48,4.79-.71,7.18a16.84,16.84,0,0,0-1.56,3.12c-6,22.13-14.59,43-29.07,61a15.1,15.1,0,0,0-1.53,3.33,73.35,73.35,0,0,0-6.22,5.13,83.79,83.79,0,0,1-45.63,24.43c-4.12.76-8.38.78-12.58,1.14q0-80.47,0-161c2.08-2.5,4.76-1.85,7.21-1.07s2.62,3.1,2.6,5.3c0,3.64.19,7.22,1.8,10.59,2.92,6.1,7.91,9.45,14.49,9.62,13.34.33,26.7.27,40,0,7.6-.14,14.52-6.81,15.38-14.37.28-2.46.94-4.87.53-7.42-1.92-11.88-7.83-17.26-19.95-17.52q-16.08-.36-32.19,0c-5.8.13-11.26,1.45-15.63,6-2.92,3-10.76,3.06-14.29.68l-.06-71.45c12.53-6.3,24.35-13.62,34-24,3-3.18,5.68-6.6,8.64-10.06,7.38,14.84,19.79,25.19,32.2,35.69s18.25,24.65,21.81,40c3.75,16.17,4.35,32.55,3,49.05-.08.95,0,1.92,0,3.44Z"/><path class="cls-3" d="M178.84,442.08V417.61c3.94,1.33,7.34,2.45,10.72,3.62l40.31,13.9c.93.32,2,.94,2.85.74,4.65-1.09,9.26-2.38,13.88-3.64.69-.18,1.42-.89,2-.76,5.36,1.26,10.66,2.79,16,3.91a10.62,10.62,0,0,0,5.33-.57c15.46-5.26,30.88-10.64,46.31-16,1-.36,2.09-.62,3.67-1.08v74.74c-1.88-.52-3.26-.83-4.58-1.28-15.46-5.31-30.88-10.7-46.38-15.87-1.63-.55-3.7,0-5.52.27-2.19.35-4.31,1.34-6.49,1.43-5.11.22-10.23.13-15.35,0-1.59,0-3.51-.06-4.69-.91-3.42-2.47-6.5-1.17-9.83,0-15.75,5.52-31.54,10.94-48.27,16.72Z"/><path class="cls-12" d="M250.13,208.31c3.24.08,6.48.29,9.7.16a5.07,5.07,0,0,0,3.11-1.57c3.76-4,8.3-6.42,13.82-6.45,13.22,0,26.44-.26,39.64.22,9.38.34,16.12,7.5,17,16.81.57,5.92.56,11.77-3,16.91-3.74,5.36-8.84,8.27-15.48,8.27-12.6,0-25.2,0-37.8,0a18.49,18.49,0,0,1-18.62-18.46c0-2.47,0-4.94,0-7.71h-17.3c-.18,3.52-.11,6.87-.57,10.15-1.33,9.52-8.93,16-18.58,16q-18.71,0-37.41,0c-10.65,0-18.56-7.92-18.79-18.63-.12-5.79-.08-11.49,3.86-16.33,3.31-4.05,7.43-6.94,12.68-7,14-.22,27.92-.4,41.85.15,3.62.14,7.63,2.4,10.56,4.79,2.53,2.07,4.7,3.27,7.89,3C245.15,208.33,247.65,208.39,250.13,208.31Z"/><path class="cls-13" d="M295.81,235c-6,0-12,0-17.94,0-6.93-.06-11.44-4.53-11.61-11.42,0-1.61-.06-3.24,0-4.85.32-5.74,4.46-10.38,10.17-10.48q19.6-.34,39.23,0a10.5,10.5,0,0,1,10,9.43,34.17,34.17,0,0,1,0,7.83c-.65,5.48-5.38,9.42-11.19,9.49C308.27,235.08,302,235,295.81,235Z"/><path class="cls-14" d="M203.34,235H188c-10.88,0-14.44-3.58-14.36-14.58a16.94,16.94,0,0,1,.52-4.78,10.53,10.53,0,0,1,10.12-7.47c12.7-.13,25.41-.17,38.11,0,5.92.09,10,4.15,10.61,10a32.62,32.62,0,0,1,0,6.7A10.83,10.83,0,0,1,222,235C215.8,235.1,209.57,235,203.34,235Z"/></g></g></svg>