<svg xmlns="http://www.w3.org/2000/svg" viewBox="0 0 518.25 519"><defs><style>.cls-1{fill:#c2c2c2;}.cls-2{fill:#fefefe;}.cls-3{fill:#db7b14;}.cls-4{fill:#584a49;}.cls-5{fill:#fdd8ac;}.cls-6{fill:#fde0b8;}.cls-7{fill:#fdd6ad;}.cls-8{fill:#f3cca4;}.cls-9{fill:#fcd6ad;}.cls-10{fill:#fbd7ac;}</style></defs><g id="Layer_2" data-name="Layer 2"><g id="Layer_1-2" data-name="Layer 1"><path class="cls-1" d="M0,518.25V0H517.49c.71,1.29.36,2.69.36,4q0,254.91,0,509.82a21.85,21.85,0,0,1-.27,4.75c-17.94,0-36,0-54,0-3.17.07-3.76-2.46-4.48-4.67q-5.75-17.79-11.27-35.66c-1.7-5.48-3.38-11-5.42-16.33A34.63,34.63,0,0,0,429,445.42c-28-18.92-55.73-38.22-83.6-57.34-6.44-4.42-13.52-8.07-18.89-14-1.67-6.26-.62-12.63-.72-19,0-1.23.32-2.47-.13-3.69,0-4.39-.2-8.79.4-13.16a7.47,7.47,0,0,1,2-6.89c4.65-5.11,7.92-11.2,11.08-17.17,4.57-8.63,10.16-17,12.24-26.69,1.3-6.11,4.61-11.49,5.59-17.69.55-3.44,1.79-3.91,5.27-3.1,6.05,4.05,9.82,3.13,13.42-3.29,3.74-6.63,5.18-14,6.56-21.34,2.92-15.55,5.62-31.14,4.9-47.07a38.57,38.57,0,0,0-3.73-15.82c-.83-4.08.85-7.85,1.45-11.75A281.53,281.53,0,0,0,388,137.06a151.2,151.2,0,0,0-4.64-45.47c-5.22-20-14.62-37.65-30.13-51.59-14-12.59-30.42-20.66-48.76-24.94a179.79,179.79,0,0,0-37.36-4.61c-15.43-.31-30.59,1-45.41,5.32a106.58,106.58,0,0,0-39.34,20.9c-22.2,18.81-33.58,43.46-38.49,71.55a151.67,151.67,0,0,0-2.3,27.51A202.4,202.4,0,0,0,145,169.5c.43,2.42,1.39,4.85.34,7.35-3.27,4.17-4.24,9.17-5.25,14.2-1.48,7.48-.51,15,.23,22.34a253.06,253.06,0,0,0,6.51,38.25c1.25,4.84,2.7,9.61,5.68,13.75,2.59,3.59,5.13,4.51,9.35,3.26,4.45-1.3,6.07-.47,7.39,4.12,3.53,12.37,7.63,24.51,13.52,36a136.09,136.09,0,0,0,15.67,24.08c1.46,1.79,2.7,3.6,2.39,6.07-.42,5.45.46,10.86.45,16.29a137.45,137.45,0,0,1,.28,14.35c0,1.59.06,3.22-.89,4.63-5.6,5.38-12.37,9.18-18.7,13.55-26.55,18.32-52.95,36.85-79.84,54.64-11.19,7.41-17.87,17-21.35,29.78-4,14.52-8.93,28.77-13.5,43.12-.52,1.64-1.12,3.41-3.43,3.35q-29.91,0-59.82,0C2.69,518.61,1.29,519,0,518.25Z"/><path class="cls-2" d="M0,518.25l65.12-.07a4.83,4.83,0,0,1,3.68-1.53c1.5,0,3-.06,4.49-.06q190.26,0,380.52,0c2.8,0,5.8-.65,8.23,1.55,17.47,0,34.94,0,52.42.12,2.24,0,3.24-.73,3-3-.11-1.24,0-2.49,0-3.74V0c.25.12.71.24.72.38.06,1,0,2,0,3V519q-257.43,0-514.87,0A16.23,16.23,0,0,1,0,518.25Z"/><path class="cls-3" d="M462,518.16c-1,0-2,.09-3,.09H67.74c-.87,0-1.75,0-2.62-.07,2.52-8.52,5-17.07,7.58-25.56,2.81-9.1,5.92-18.11,8.62-27.24,2.85-9.6,8.74-16.63,16.94-22.2,27.85-18.92,55.58-38,83.38-57,5.8-4,11.67-7.81,17.51-11.71,2,.56,2.45,2.33,3.14,3.91,4.52,10.39,10.29,20,18.56,27.82a59.15,59.15,0,0,0,41.11,17c15.52.29,29.22-4.21,41-14.33,9.84-8.46,16.72-19.06,21.84-30.89.66-1.54.91-3.51,3.19-3.67q24.67,16.9,49.35,33.81Q404.9,427,432.41,446A30.15,30.15,0,0,1,444,461.19c5.1,14.87,9.66,29.92,14.41,44.91C459.64,510.11,460.82,514.14,462,518.16Z"/><path class="cls-4" d="M144.37,176.64c-.81-5.39-1.69-10.77-2.42-16.17-4.5-33.22-1.45-65.39,14.89-95.24,15.3-28,39.22-44.94,70-52.5,17.73-4.36,35.69-4.65,53.77-3.15,17.76,1.47,34.85,5.47,50.81,13.51C358.11,36.52,375.1,58,383.63,86.47c6.14,20.46,7.39,41.31,5.1,62.41-1.1,10.09-2.9,20.11-4.38,30.16a9.87,9.87,0,0,1,.17,6.22c-2.27,9.6-5.52,18.9-8.75,28.2-1.87,5.37-3.56,6.28-9.27,5.82-6.69.44-7.33-.3-7.9-7-1.39-16.41-6.12-32-12.46-47.11a422.83,422.83,0,0,0-28.66-55.82c-.81-1.34-1.42-2.9-3.29-4a61.17,61.17,0,0,0,0,24.15,53.11,53.11,0,0,0,11.21,23.34,4.26,4.26,0,0,1,.47.58c.83,1.48,2.45,2.86,1.36,4.72-.93,1.59-2.78,1.53-4.4,1.42-18-1.24-34.83-5.78-49.46-16.89A101.39,101.39,0,0,1,263,133.58a102.73,102.73,0,0,1-21.88-36.49c-4.46,5.93-6.34,11.77-5.58,18.29,1.5,13,8,23.65,15.79,33.71,3,3.94,6.28,7.71,9.69,11.35,1.37,1.46,3.69,3.07,1.72,5.72a5,5,0,0,1-3.56.89c-12.28-.74-24.24-2.71-35.15-8.93-14.52-8.28-21.91-21.22-24.86-37.23-1.21-6.56-.53-13.16-.89-20.25a118.3,118.3,0,0,0-14.65,25.94,168.7,168.7,0,0,0-11.38,48.2,250.65,250.65,0,0,0-1.39,26.84c.06,4.11,1,8.16.74,12.3s-1.38,5.36-5.39,5.57c-.62,0-1.25,0-1.87,0-7.51.06-8.25-.51-10.9-7.52a249.54,249.54,0,0,1-9.27-29.21C143.65,180.7,143.14,178.65,144.37,176.64Z"/><path class="cls-5" d="M144.37,176.64c4,12.68,8,25.36,11.94,38.08.86,2.81,2.43,3.62,5.19,3.39s5.44-.05,8.29-.05c0-2.85.12-5.42,0-8-1.43-25,.86-49.54,8.4-73.48A118.28,118.28,0,0,1,197.3,99.23c.88-1.13,1.86-2.19,3.35-3.93-1.3,10.66-1.29,20.35,1.11,29.87,5.38,21.36,19.56,33.57,40.67,38,6.66,1.4,13.58,1.59,20.38,2.33a1.19,1.19,0,0,1,1.37.27c1.71,2.34,1.06,5.06,1.06,7.61q.08,73.37,0,146.73c0,13.35,0,26.7,0,40,0,2,.24,4-.53,5.91-1,2.46-3.22,2.5-5.34,2.44a78.86,78.86,0,0,1-38.53-11.16,77.22,77.22,0,0,1-18.15-14.14c-1.27-1.39-2.55-2.72-2.79-4.7-2.37-3.46-4.62-7-7.13-10.36-11.13-14.88-18.21-31.68-23.5-49.33-.79-2.62-1.48-5.27-2.25-7.9-.54-1.84-1.52-2.2-3.38-1.37-6.1,2.71-10,2-12.77-3.91a105.9,105.9,0,0,1-7.31-21.39c-3.47-15.15-5.73-30.57-5.62-46.14,0-5.61,1.7-11.25,3-16.78C141.42,179.59,143.21,178.19,144.37,176.64Z"/><path class="cls-6" d="M263.62,367l0-201.44a21.6,21.6,0,0,1-1.66-9.38c.12-6.41,0-12.84.09-19.26,0-1.69-.16-3.54,1.69-4.6C274.58,143,287,151.06,302,154.54A176.34,176.34,0,0,0,326.77,158c-6.75-8.27-11.76-17-14-27.13A57.19,57.19,0,0,1,313.9,101c21.9,36.3,43.52,72.64,46.88,116.83l5.42.37c1.77,1.14,1.59,3,1.61,4.69.12,9.11-1.42,18.06-2.57,27.05-.62,4.81-1.58,9.56-2.6,14.3-.26,1.23-.41,2.48-1.68,3.15-.84.51-2.16.83-2.44,1.55-1.86,4.91-3.55,9.89-5.21,14.87-.94,2.8-1.58,5.7-2.62,8.46-2.11,5.58-4.33,11.13-6.69,16.6-.31.7-1.78.9-3,1.45,1.57,2.65.27,4.42-1.76,6.4-1.64,1.59-2.51,4-3.8,5.94-2.23,3.44-4.58,6.81-6.74,10.3a21.58,21.58,0,0,0-1.51,4c-2.52,6.23-7.9,9.86-12.87,13.73A83.38,83.38,0,0,1,271,368.33C268.48,368.59,265.67,369.46,263.62,367Z"/><path class="cls-7" d="M328,374.25c-4.42,11.19-10,21.71-18.4,30.47-28,29.1-72.2,26.62-97-5.43a87.31,87.31,0,0,1-13.44-24.86c.27-3.65.61-7.29.78-10.94.14-2.83.07-5.66.09-8.5,3-1.45,4.32,1.07,5.88,2.6A78.87,78.87,0,0,0,235.05,376c27.4,9.68,52.68,5.18,75.9-11.93a80.28,80.28,0,0,0,11.57-10.55c1.21-1.33,2.4-3,4.69-2.26,0,6.22,0,12.43.09,18.64A31.08,31.08,0,0,0,328,374.25Z"/><path class="cls-8" d="M327.21,351.27c-6,5.38-11.62,11.26-18.06,16-11.61,8.6-24.79,13.32-39.32,14.8A79.64,79.64,0,0,1,230.48,376a80.48,80.48,0,0,1-24.25-15.78c-2-1.85-4.14-3.47-6.21-5.19q0-8.25-.1-16.49c4.66,4.09,9.07,8.5,14,12.22A78.16,78.16,0,0,0,263.62,367c19.49.05,36.48-6.78,51.45-18.93,4.23-3.43,8.1-7.33,12.14-11Z"/><path class="cls-9" d="M361,267.41c1.06-7.49,2.34-15,3.13-22.48.92-8.88,1.42-17.81,2.11-26.71,5.05.86,7.13-1.76,8.4-6.34,3-11,6.47-21.9,9.75-32.84,1.44,4.78,3.9,9.52,4.16,14.37,1.1,20.92-2.56,41.38-7.69,61.56-1.11,4.34-3.6,8.43-5.95,12.33C371.83,272.33,365.11,272.4,361,267.41Z"/><path class="cls-10" d="M263.7,132.28l-.12,33.24-.77,0a24.1,24.1,0,0,0-2.19-3.23c-9.89-10.46-18.75-21.64-23.87-35.3-3.43-9.15-4.41-18.4.72-27.36a69.16,69.16,0,0,1,4.28-5.89C246.24,108.79,253.87,121.18,263.7,132.28Z"/></g></g></svg>