<svg xmlns="http://www.w3.org/2000/svg" viewBox="0 0 962.04 962.04"><defs><style>.cls-1{fill:#4a61dd;}.cls-2{fill:#fff;}</style></defs><g id="Layer_2" data-name="Layer 2"><g id="Layer_1-2" data-name="Layer 1"><path class="cls-1" d="M483.39,962c-.79,0-1.58,0-2.37,0C215.36,962,0,746.68,0,481S215.36,0,481,0q5.31,0,10.6.12C392.81,105.08,106.75,478.13,483.39,962Z"/><path class="cls-2" d="M962,481q0,3.08,0,6.15v.19c0,2-.06,4-.12,6v.14c0,1.4-.08,2.81-.13,4.21,0,.83,0,1.65-.09,2.48q-.12,3.09-.28,6.17c-.09,1.85-.2,3.7-.32,5.54s-.23,3.51-.36,5.26c0,.46-.07.91-.1,1.36q-.42,5.52-1,11c-.07.75-.15,1.49-.23,2.23-.11,1.09-.22,2.17-.35,3.25-.17,1.61-.36,3.21-.57,4.81-.1.94-.22,1.88-.34,2.82-.3,2.34-.61,4.68-1,7-.15,1.13-.31,2.25-.49,3.37q-.15,1.11-.33,2.22c-.21,1.37-.43,2.75-.66,4.11q-.63,3.9-1.33,7.76c-.27,1.49-.55,3-.83,4.47-.08.45-.17.89-.26,1.33-.23,1.23-.47,2.45-.73,3.67-.13.7-.27,1.41-.42,2.11-.35,1.72-.72,3.43-1.09,5.14a.52.52,0,0,0,0,.11q-.63,2.87-1.29,5.72t-1.35,5.69a1.12,1.12,0,0,1-.06.23q-.6,2.48-1.23,4.93-.95,3.75-2,7.47c-.41,1.52-.83,3-1.26,4.55-.05.19-.1.38-.16.56-.32,1.15-.65,2.28-1,3.42s-.58,2-.89,3a.19.19,0,0,1,0,.07q-1.51,5.08-3.16,10.11c-.46,1.42-.92,2.83-1.4,4.24-.27.82-.54,1.64-.83,2.46q-.82,2.46-1.7,4.9c-.6,1.71-1.22,3.42-1.84,5.12q-.83,2.26-1.68,4.52-.4,1.1-.84,2.19c-.54,1.43-1.09,2.85-1.66,4.28q-1,2.54-2,5.07c-.22.56-.45,1.11-.68,1.66l-1.47,3.52c-.19.46-.38.92-.58,1.37q-.95,2.25-1.93,4.47a1.15,1.15,0,0,1-.1.23q-2.1,4.81-4.31,9.57c-.33.72-.67,1.44-1,2.16-.45,1-.91,1.93-1.37,2.89-.37.78-.74,1.56-1.12,2.33-.67,1.38-1.34,2.76-2,4.13-.86,1.74-1.74,3.47-2.62,5.2s-1.78,3.45-2.69,5.17-1.82,3.43-2.75,5.13-1.86,3.4-2.8,5.09h0l-2.82,5-.1.17q-1.43,2.48-2.88,4.93c-1,1.66-2,3.32-3,5-.09.16-.19.32-.29.48-.91,1.5-1.83,3-2.75,4.46-1,1.64-2.06,3.28-3.1,4.9s-2.1,3.25-3.16,4.86-2.06,3.11-3.09,4.65l-.12.17q-1.62,2.4-3.27,4.78t-3.33,4.73q-3.33,4.71-6.8,9.34l0,.07q-1.44,1.9-2.89,3.8c-.32.43-.65.87-1,1.3q-1.54,2-3.12,4-3.51,4.47-7.13,8.86a4.47,4.47,0,0,1-.29.35q-3.57,4.35-7.28,8.61l-.07.09c-2.5,2.88-5,5.73-7.59,8.54-1.3,1.43-2.6,2.84-3.91,4.25s-2.63,2.81-4,4.2-2.42,2.53-3.64,3.79l-.68.7c-1.25,1.26-2.49,2.52-3.74,3.77s-2.61,2.59-3.92,3.88l-.48.47c-1.28,1.24-2.56,2.48-3.86,3.71s-2.79,2.65-4.2,4-2.65,2.45-4,3.67l-.59.54q-4.11,3.72-8.31,7.36-4.37,3.79-8.82,7.46c-1.68,1.39-3.37,2.76-5.07,4.13L778,859.44,773.43,863c-1.69,1.29-3.38,2.58-5.09,3.85-1.28.95-2.57,1.91-3.87,2.85-.19.15-.39.29-.59.43-1.46,1.07-2.93,2.12-4.4,3.17s-3.15,2.23-4.74,3.33-3.18,2.19-4.78,3.27-2.91,2-4.37,2.91l-.74.5c-1.19.78-2.38,1.56-3.58,2.32q-3.35,2.18-6.74,4.27l-3.28,2q-2.88,1.76-5.78,3.47c-1.67,1-3.34,2-5,2.93l-3.6,2.05c-.86.49-1.73,1-2.6,1.45-1.31.73-2.63,1.46-4,2.17-1.64.9-3.29,1.78-4.95,2.66q-2.18,1.14-4.36,2.27l-2.16,1.1c-1.25.65-2.51,1.28-3.78,1.91l-.44.21c-1.53.77-3.07,1.52-4.62,2.27s-3.21,1.54-4.82,2.29l-2.46,1.15-2.93,1.34-1.56.71-4.45,2q-2.55,1.13-5.12,2.21l-3.2,1.34-1.3.54c-1,.4-1.95.8-2.94,1.19q-2,.81-4,1.59c-1.29.51-2.59,1-3.89,1.51l-1.56.6q-14.1,5.35-28.61,9.83A479.89,479.89,0,0,1,483.39,962C106.75,478.13,392.81,105.08,491.62.12Q508.54.48,525.17,2A477.73,477.73,0,0,1,615.1,18.94l.72.21,3.54,1q4.89,1.47,9.74,3c1.33.43,2.66.86,4,1.31l.77.25q2.25.75,4.48,1.53,1.93.66,3.84,1.35l2.07.74c1.08.38,2.16.78,3.24,1.18,2.52.92,5,1.87,7.52,2.85,1,.39,2.07.8,3.11,1.21,1.27.5,2.54,1,3.8,1.53l3,1.24,1.08.45q1.61.66,3.21,1.35,2.21.93,4.4,1.9c1.26.54,2.51,1.1,3.75,1.66l1.43.64,2.81,1.28c2.29,1,4.56,2.12,6.83,3.21.67.31,1.34.63,2,1,1.19.57,2.37,1.15,3.55,1.74l3.18,1.58,3.3,1.68c1.85,1,3.68,1.91,5.51,2.88q2.16,1.14,4.31,2.31t4,2.21l2.43,1.36q6.57,3.7,13,7.61c1,.6,2,1.2,3,1.82q.81.48,1.62,1l2.22,1.39c.92.57,1.83,1.15,2.74,1.73L741,76.25c1,.62,1.92,1.24,2.88,1.88q5.72,3.72,11.31,7.62c1.41,1,2.81,2,4.21,3a.94.94,0,0,1,.12.09c1.55,1.09,3.09,2.21,4.63,3.33s3.11,2.28,4.65,3.43,2.9,2.18,4.34,3.28q2.79,2.14,5.57,4.34l2.85,2.26c.66.53,1.32,1,2,1.59q1.79,1.44,3.55,2.9,4.39,3.63,8.71,7.37c1.46,1.26,2.9,2.53,4.34,3.81s2.58,2.3,3.86,3.46l.75.68c1.32,1.2,2.63,2.4,3.93,3.62s2.81,2.63,4.2,4c1.59,1.5,3.16,3,4.73,4.57,1.18,1.15,2.36,2.32,3.53,3.49s2.26,2.27,3.37,3.41l1.3,1.32c1.13,1.17,2.27,2.35,3.39,3.53q2,2.08,4,4.2,2.24,2.39,4.41,4.81,1.7,1.86,3.35,3.73,1.89,2.12,3.73,4.25l.12.14c1.25,1.44,2.49,2.88,3.71,4.34s2.26,2.68,3.38,4l.91,1.11c.9,1.09,1.79,2.18,2.67,3.28.4.48.79,1,1.18,1.47q1.39,1.73,2.76,3.48a.36.36,0,0,1,.08.09q1.47,1.86,2.91,3.75,2.67,3.43,5.25,6.95,1.15,1.54,2.28,3.09,1.71,2.34,3.38,4.7c.88,1.23,1.76,2.47,2.62,3.72.48.68,1,1.36,1.42,2.05q5,7.29,9.79,14.79c.58.88,1.13,1.76,1.69,2.65.41.65.81,1.3,1.21,1.95.62,1,1.24,2,1.85,3l.78,1.28c.92,1.51,1.83,3,2.73,4.56s1.84,3.12,2.74,4.69q1.83,3.17,3.61,6.39c.66,1.17,1.3,2.35,1.94,3.53.22.39.44.79.65,1.19.59,1.08,1.17,2.15,1.74,3.24q4.19,7.88,8.09,15.93c.32.66.64,1.32,1,2,.63,1.29,1.24,2.6,1.85,3.9l.3.65c.78,1.66,1.54,3.32,2.3,5s1.59,3.55,2.37,5.34q1,2.34,2,4.69c.35.81.7,1.62,1,2.44s.79,1.88,1.18,2.83l.66,1.62c.56,1.38,1.11,2.76,1.66,4.14.14.33.27.67.4,1,.4,1,.8,2,1.18,3.05.33.82.64,1.65,1,2.48q1.15,3.06,2.27,6.15c.48,1.29.94,2.59,1.4,3.89s1,2.73,1.43,4.1.85,2.48,1.25,3.72.85,2.53,1.26,3.81q.87,2.64,1.69,5.3c.71,2.27,1.4,4.56,2.08,6.85.44,1.5.88,3,1.31,4.51l.24.86c.4,1.4.79,2.8,1.17,4.21.2.71.39,1.42.58,2.13.26,1,.52,2,.77,3,.19.7.38,1.41.56,2.12q1.41,5.54,2.7,11.11c.41,1.76.8,3.52,1.19,5.28.34,1.55.67,3.1,1,4.66.19.89.38,1.79.56,2.69.33,1.64.66,3.29,1,4.94.26,1.35.51,2.71.76,4.06.11.57.21,1.15.31,1.72.22,1.21.43,2.43.63,3.64.1.52.19,1,.27,1.55.17,1,.34,2.05.5,3.07.13.76.25,1.53.36,2.29.17,1,.33,2.07.48,3.1s.3,2,.43,3q.17,1.06.3,2.13c.13.86.24,1.73.35,2.59.15,1.09.3,2.19.43,3.28q.66,5.22,1.2,10.47c.09.86.18,1.72.26,2.58.15,1.49.29,3,.42,4.49s.29,3.3.41,4.95c.06.65.11,1.29.15,1.94q.62,8.1.94,16.28c0,1,.08,2,.11,3s.08,2.33.11,3.5c0,.62,0,1.25,0,1.87,0,1.15.05,2.29.06,3.44,0,.88,0,1.77,0,2.65C962,477.38,962,479.2,962,481Z"/><circle class="cls-1" cx="651.07" cy="268.08" r="72"/><circle class="cls-1" cx="507.07" cy="413.61" r="30.64"/><circle class="cls-1" cx="670.9" cy="524.04" r="42.89"/></g></g></svg>