<svg xmlns="http://www.w3.org/2000/svg" viewBox="0 0 518.25 519"><defs><style>.cls-1{fill:#c2c2c2;}.cls-2{fill:#3e4f6f;}.cls-3{fill:#fefefe;}.cls-4{fill:#fdd8ac;}.cls-5{fill:#db843a;}.cls-6{fill:#fde0b8;}.cls-7{fill:#fdd6ad;}.cls-8{fill:#66839d;}.cls-9{fill:#f3cca4;}.cls-10{fill:#dc843b;}</style></defs><g id="Layer_2" data-name="Layer 2"><g id="Layer_1-2" data-name="Layer 1"><path class="cls-1" d="M64.41,519H0V.76C1.29.05,2.7.4,4,.4q254.61,0,509.23,0a11.79,11.79,0,0,1,4.09.25c.93,1.22.49,2.65.49,4q0,255.36,0,510.72c0,1.23.31,2.51-.36,3.68H458.34a5.81,5.81,0,0,1-3-4c-3.69-12.55-7.54-25.07-11-37.67a36.41,36.41,0,0,0-19.49-23.8c-21.46-10.89-43.29-21-64.7-32-2-1-4.21-1.69-5.41-3.82.53-3.51-1.34-6-3.33-8.63q-7.38-9.61-14.53-19.39a94.73,94.73,0,0,0-11.26-12.9,15.25,15.25,0,0,1-4.09-5.26c-.76-2.49.37-5,0-7.43,0-4.74.68-9.45.48-14.19-.26-4.38,1.06-8.09,4.65-10.8a8.82,8.82,0,0,0,2.26-2.46c5.05-8.4,10.55-16.55,14.52-25.56.55-1.26,1.38-2.59,1-3.92-.79-2.61.34-4.63,1.57-6.67,1.73-2.84,3.91-5.49,3.26-9.21a2.75,2.75,0,0,1,1.07-2.31,6.14,6.14,0,0,0,1.84-5.05c-.06-2.79,1.83-4.82,3.18-7a2.1,2.1,0,0,1,2.68-.74,5.93,5.93,0,0,1,1.52,1.06c4.05,3.4,8.46,3,11.62-1.25s4.89-9.33,6-14.39c3.91-18.23,7.5-36.54,6.92-55.32-.17-5.42-.75-10.88-3.18-15.91-.78-2.52.06-5,.5-7.39,3.48-18.54,5.59-37.21,4.92-56.07-.76-21.29-4.8-41.8-16.29-60.25-9.13-14.67-22-25-37.53-32-17-7.74-35.07-10.85-53.61-12.2a242.66,242.66,0,0,0-28-.45c-21.26.89-42.17,3.95-61.7,13.13C164.46,46.65,149,66,141.63,92c-4.71,16.59-5.94,33.61-5.1,50.72A268.8,268.8,0,0,0,141.2,182a13.44,13.44,0,0,1,.06,5.92c-4.68,8.78-5.42,18.31-4.72,27.94a303.34,303.34,0,0,0,5.81,40.56c1.38,6.56,2.94,13.14,6.74,18.87,2.65,4,5.4,4.91,9.92,3.51s6-.67,7.18,4a185.61,185.61,0,0,0,7.42,22.69c6,15.05,13.76,29,24.83,40.95,1.52,1.65,2.88,3.47,2.74,5.94.63,4.49.08,9,.91,13.51-.54,2,.61,4.26-.71,6.2C188.57,383.26,180,397.93,169.54,411a10.74,10.74,0,0,0-2.08,6.56c-1,2.23-3.15,3.12-5.18,4.06-21.38,9.92-42.12,21.15-63.39,31.28C88.3,458,81.4,465.66,78.18,477c-3.48,12.23-7.12,24.41-10.75,36.59C66.81,515.62,66.19,517.61,64.41,519Z"/><path class="cls-2" d="M355,417.08q35.06,17.32,70.11,34.66c10.69,5.3,17.64,13.56,20.81,25.28,3.81,14.08,8.24,28,12.4,42H64.41c1.77-6.56,3.44-13.15,5.33-19.67,2.37-8.22,4.9-16.38,7.38-24.56a35.65,35.65,0,0,1,19.23-22.48q33.22-16.35,66.38-32.83c1.45-.71,2.81-1.58,4.21-2.38,2.11-.81,3.3.75,4.44,1.95,8.62,9,18.24,17,26.82,26,5.75,6.07,12.34,11.24,18.1,17.29a2.73,2.73,0,0,0,1.9,1.09c1.36-.73,1.56-2.21,2.08-3.42,5.25-12.25,10.68-24.42,15.86-36.71a22.35,22.35,0,0,1,2-4c1.24-1.83,2.59-2.32,4.06-.19.86,1.9.55,3.93.57,5.9.08,10.93-.43,21.85.72,32.77,1.34,12.65,3.27,25.16,7.4,37.22,1.92,5.65,4,11.25,7.37,16.29,2.51,3.81,3.33,3.81,5.85-.12,5.13-8,7.69-17,9.92-26,3.48-14.18,4.75-28.62,5.47-43.2.39-8.08.06-16.15.65-24.2,1.64-2.08,2.81-.74,3.79.63a23.59,23.59,0,0,1,2.27,4.72c5.35,12.63,10.87,25.19,16.22,37.82a5.19,5.19,0,0,0,1.58,2.54c1.64.29,2.43-1,3.33-2,11.5-12,24.08-22.83,35.57-34.8,2.86-3,6.23-5.38,9.15-8.28A3.57,3.57,0,0,1,355,417.08Z"/><path class="cls-3" d="M517.5,519V6.39c0-5.63,0-5.63-5.64-5.63H0C.12.51.24.05.38,0c1-.06,2,0,3,0H518.25q0,257.81,0,515.62A16.23,16.23,0,0,1,517.5,519Z"/><path class="cls-4" d="M200,352a37.49,37.49,0,0,0-3.46-5.22,114.08,114.08,0,0,1-21.83-34.57C170.55,302,167.54,291.28,164,280.8a17.11,17.11,0,0,0-1.05-2.11c-1,.53-1.88,1-2.75,1.41-4.73,2.27-9.05,1.11-12-3.24-4.85-7.08-6.56-15.27-8-23.47-1.66-9.16-3.11-18.37-4.25-27.61-1.2-9.75-2.06-19.59.46-29.28.77-3,2.39-5.69,3.61-8.52,2,.54,2.48,2.34,3,4a96.13,96.13,0,0,0,13.72,26.82,9,9,0,0,0,10.18,3.39c2.1-.64,1.71-2.2,1.51-3.64-.68-4.93-1.74-9.81-2.24-14.75-.76-7.41-1.76-14.79-2.35-22.23-.49-6.07-.68-12.16-1.09-18.23a126.86,126.86,0,0,1,1.58-27.5c1.31-8.64,2.84-17.21,6.95-25.06,5.38-10.24,13.49-15.53,25.42-15.88,12.95-.39,24.06,4.45,35.13,10,8.56,4.29,16.83,9.23,26.28,11.52a4.68,4.68,0,0,1,3.58,2.46c.86,1.77.67,3.67.67,5.52q0,75.56,0,151.12c0,1.73.18,3.5-.52,5.16-.81,2.13-2.64,2.41-4.57,2.47-3.36.11-6.72,0-10.08.07-1.66,0-3.19.2-4.26,1.76-6.76,9.86-16.89,13.88-28,16.08a25.09,25.09,0,0,1-6.36.84c10.34,7.14,26.84,7.58,37.85,1a57.73,57.73,0,0,0,8.55-6c1.68-1.44,3.52-3.45,6.24-1.78,1.24,1.32,1.15,3,1.16,4.59q.11,36.62,0,73.23a7.63,7.63,0,0,1-.53,3.66c-1.09,2.41-3.3,2.44-5.42,2.33a84.73,84.73,0,0,1-35.4-9.57,102.36,102.36,0,0,1-17.16-11.89A14.77,14.77,0,0,1,200,352Z"/><path class="cls-5" d="M260.64,118.46c-10.55-1.37-19.32-7.15-28.64-11.57-4.84-2.3-9.71-4.53-14.59-6.76-8.08-3.68-16.7-4.32-25.29-3.37s-15.21,5.58-18.63,13.38a93.12,93.12,0,0,0-6.82,21.61,172,172,0,0,0-2.47,29.62c.05,10.62,1.33,21.27,2.47,31.86,1,9.24,2.5,18.43,3.87,27.63.31,2.14-.42,3.07-2.53,3.06a62.2,62.2,0,0,1-7.85-.1,5.87,5.87,0,0,1-3.44-2.24A99.61,99.61,0,0,1,139.94,188q-1.14-8.85-2.29-17.68c-.7-5.41-1.62-10.79-2-16.22-1.66-21.16-1.45-42.23,4.44-62.85,3.69-12.92,9.5-24.78,18.28-35.06,14.93-17.49,34.54-26.75,56.52-31.37A234.43,234.43,0,0,1,243.19,21a244.66,244.66,0,0,1,26.11-.72c23.26.54,46,3.81,67.17,14.27,24.95,12.34,39.95,32.7,47,59.33a153.89,153.89,0,0,1,4.31,50.31c-1.06,14.8-3.74,29.48-5.69,44.21a12.86,12.86,0,0,0,0,1.86c1.26,4.94-1.31,9-3.21,13.13a100.57,100.57,0,0,1-10.2,17.4c-1.32,1.79-2.66,3.66-5,4.24-2.82.85-5.7.56-8.55.41-3.28-.18-4.79-1.9-4.35-5.17,1.27-9.36,2.55-18.72,3.68-28.1a124.61,124.61,0,0,0,1.23-13.37c.09-8.33.92-16.64.8-25a169.62,169.62,0,0,0-3.82-31A42.09,42.09,0,0,0,347,109.38c-4.53-7.5-11.54-10.57-20-11.16-9.51-.68-18.23,1.94-26.67,5.93-8.79,4.16-17.23,9-26.23,12.72a50.7,50.7,0,0,1-8.55,2.67C263.71,119.94,262,119.86,260.64,118.46Z"/><path class="cls-6" d="M260.64,118.46c6.25-1.95,12.7-3.45,18.72-6,10.33-4.31,20.23-9.67,30.61-13.83,8.65-3.46,17.8-3,26.67-.22,5.49,1.73,9.21,5.8,12.16,10.58a46.66,46.66,0,0,1,6.85,20.71c1,12.22,2.2,24.49,2.15,36.73-.05,10.6-1.61,21.2-2.69,31.78-.85,8.36-2,16.69-3.06,25.6H364a3.09,3.09,0,0,1,1.26,2.94,269.19,269.19,0,0,1-2.89,31.94c-.67,4-1.33,8.1-2.1,12.13-.4,2.11-.33,4.62-3,5.54-1.26,2.9-4.25,5-3.42,8.94.32,1.54-1.48,3.51-2.94,5,2.52,6.32-4,9.16-4.81,14-.23,2.08,0,4.33-.8,6.21A86,86,0,0,1,340,321c-3.14,5.52-6.48,10.92-9.75,16.36-.38.64-.69,1.54-1.27,1.8-4.23,1.94-4.94,6-6.23,9.8-1.5,5.1-6.13,7.46-9.73,10.53-13.6,11.61-29.6,17.7-47.33,19.36-1.83.18-3.8.49-5.09-1.41q0-38.73-.06-77.47a26.19,26.19,0,0,0-.95-5c.4-3.74,2.59-1.8,3.83-.95,2,1.41,3.79,3.21,5.78,4.7,7.46,5.59,15.64,9.28,25.16,8.91a38.4,38.4,0,0,0,19.24-5.85,51.06,51.06,0,0,1-26.48-8.56,20.77,20.77,0,0,1-6.71-6.38c-1.65-2.77-4.16-3.72-7.23-3.71-2.87,0-5.73,0-8.59,0-1.5,0-3,0-4-1.45Z"/><path class="cls-7" d="M281,417.19q0,11.46,0,22.91c0,2.12,0,4.24-.13,6.35-.85,19.9-3.56,39.46-11.35,58-1.94,4.62-4.86,8.83-8,14.37-2.43-3.46-4.57-5.91-6.06-8.71a106.07,106.07,0,0,1-11.12-34.31c-1.45-9.74-2.49-19.56-3.09-29.38-.57-9.23-.32-18.52-.43-27.78a25,25,0,0,0-5-6.4c-7.69-7.48-14.56-15.73-22.28-23.17-4.22-4.07-7.74-8.8-12-12.83-1.07-1-2.14-2.18-1.59-3.92l.87-6c2.6-.74,3.87,1.29,5.27,2.72A76.62,76.62,0,0,0,237,388.54a72,72,0,0,0,47.95-.35c13-4.57,23.66-12.52,33.19-22.24,1.22-1.25,2.22-3.28,4.59-2l0,8.19c-.08,2.78-2,4.52-3.77,6.21-6.64,6.56-12.76,13.6-19.37,20.18-4.32,4.3-8.21,9-12.5,13.32C285.22,413.81,283.39,415.85,281,417.19Z"/><path class="cls-8" d="M199.91,372.28c12.59,13.26,25.22,26.48,37.74,39.8,1.66,1.77,4.46,3.22,3.17,6.52a12.54,12.54,0,0,0-2,2.56q-9,20.71-17.91,41.48c-.53,1.23-1.15,2.43-1.88,4a25.29,25.29,0,0,1-2.55-1.89c-9.39-9.09-18.74-18.23-28.15-27.3-7.07-6.82-14.23-13.56-21.35-20.34-.19-1.41-1.09-3.35-.48-4.16q13.53-18,27.46-35.68C195.49,375.25,197.89,373.92,199.91,372.28Z"/><path class="cls-8" d="M281,417.19a5.8,5.8,0,0,1,.76-1.92q20.49-21.58,41-43.1c9.13,7.18,15.34,16.88,22.31,25.92,3.41,4.42,6.47,9.12,10.07,13.38,1.88,2.24,1.84,3.78-.13,5.61q-13.62,13.34-27.22,26.66-9.63,9.39-19.34,18.7c-1.42,1.37-3,2.6-5,4.38-2.33-5.28-4.5-10.08-6.58-14.93-4.63-10.75-9.19-21.54-13.85-32.28A10.93,10.93,0,0,0,281,417.19Z"/><path class="cls-9" d="M322.73,364c-1.16,1-2.39,2-3.47,3.15C305,382,288.09,392,267.29,393.76c-20.56,1.72-39.17-3.94-55.16-17.28-3.91-3.26-7.58-6.81-11.35-10.23q-.37-7.12-.76-14.24c7.18,5.29,14,11.13,21.62,15.75a65.45,65.45,0,0,0,28.61,8.94c3.45.31,6.92.5,10.39.74,20.77-.65,39-7.69,54.38-21.78,2.53-2.31,5.18-4.47,7.77-6.7Z"/><path class="cls-7" d="M357.21,276.4c1.49-8.15,3.36-16.25,4.39-24.46,1.17-9.32,1.6-18.73,2.36-28.09a91.41,91.41,0,0,0,18.12-33.6c1.2,4.89,3.14,9.74,3.44,14.68a114.56,114.56,0,0,1-.73,21.59c-1.55,11.79-3.54,23.56-6.06,35.19a49.3,49.3,0,0,1-6.21,15.05C368.54,283.25,360.87,282.78,357.21,276.4Z"/><path class="cls-10" d="M260.61,281.69c5,.06,10,.15,14.94.15a5.64,5.64,0,0,1,5.25,2.75c6.18,9.23,15.76,12.79,26.05,14.84,3.62.73,7.38.8,11.49,1.22a22.58,22.58,0,0,1-2.16,1.74c-18,11.09-37.41,8.6-53.08-6.7-.83-.81-1.73-3.6-3.47-.67-6,5.3-12.28,10.18-20.14,12.49-13.05,3.84-24.84,1-35.47-6.15,6.88-1.56,13.91-2.77,20.71-4.8a30.42,30.42,0,0,0,17-12.74,5.6,5.6,0,0,1,3.94-1.91C250.64,281.64,255.63,281.73,260.61,281.69Z"/></g></g></svg>