<svg xmlns="http://www.w3.org/2000/svg" viewBox="0 0 691 692"><defs><style>.cls-1{fill:#c2c2c2;}.cls-2{fill:#426587;}.cls-3{fill:#393939;}.cls-4{fill:#fcd8ad;}.cls-5{fill:#e4645f;}.cls-6{fill:#f3cda4;}.cls-7{fill:#fdd4ad;}.cls-8{fill:#fbd6af;}.cls-9{fill:#fce0b8;}.cls-10{fill:#e9635e;}.cls-11{fill:#e8635e;}.cls-12{fill:#e7645f;}.cls-13{fill:#e8645f;}.cls-14{fill:#ea625e;}.cls-15{fill:#ea625f;}.cls-16{fill:#e9625f;}.cls-17{fill:#fad7ad;}.cls-18{fill:#e9635f;}</style></defs><g id="Layer_2" data-name="Layer 2"><g id="Layer_1-2" data-name="Layer 1"><g id="Layer_2-2" data-name="Layer 2"><g id="Layer_1-2-2" data-name="Layer 1-2"><g id="Layer_2-2-2" data-name="Layer 2-2"><g id="Layer_1-2-2-2" data-name="Layer 1-2-2"><g id="Layer_2-2-2-2" data-name="Layer 2-2-2"><g id="Layer_1-2-2-2-2" data-name="Layer 1-2-2-2"><path class="cls-1" d="M63,692H0V0H691V692H600.14c-2.28-1.46-3.13-3.77-3.74-6.24-2.11-8.56-4.56-17-6.63-25.6a49,49,0,0,0-21.85-30.92q-54.07-35-108.14-69.92a15.5,15.5,0,0,1-2-1.43c-1-.87-1.1-2.16-1.67-3.22-.42-.84-.82-1.69-1.27-2.51-1.73-3.8-4.25-7.15-6-10.92C441,527.68,433.43,514,426,500.28c-1.19-2.2-2.42-4.3-4.54-5.74-3.84-1.89-5.89-4.65-4.93-9.19.41-2-.82-3.88-.74-5.9.49-3.1-.38-6.68,3-8.75,2.53-1.09,5.22-.91,7.87-.92h36.43c7.09,0,7.78-.69,7.79-7.67.05-25.28,0-50.57,0-75.85,0-2.82-.26-5.67.62-8.42a6.64,6.64,0,0,1,3.71-5c4.24-2.4,6.78-6.16,8.6-10.57,5.79-14.11,7.34-29.19,10.2-44,2.27-11.76,3.09-23.68,3.6-35.55.35-8.14,0-16.57-3.29-24.4-.94-3.14.36-5.94,1.52-8.66a213.17,213.17,0,0,0,15.61-54.54c5.13-37.4-.57-72.47-24.33-102.94-16.26-20.85-37.23-34.5-64-37.88a40.47,40.47,0,0,0-26.75,6.12C393,62.55,390,62.57,386.84,60c-16.33-13.25-35.6-19.41-56-21.77-29.43-3.39-58.51-1.18-86.62,8.83q-54.37,19.38-77.61,72.37c-8.35,19.13-12.81,39.08-14.59,59.8a231.26,231.26,0,0,0,13,99.11c1.12,3.11,2.55,6.18,2.4,9.63-2.21,5,.43,9.86,1,14.69,2.11,18.15,4.58,36.29,10,53.83,1.76,5.74,4.46,11.13,9,15.34a9.18,9.18,0,0,1,3.35,5.95c.8,2.78.58,5.62.58,8.44v74.87c0,8.25.44,8.65,8.82,8.67h37.94c2.65,0,5.33-.14,7.88.9,2.28.9,3.13,2.77,3.17,5,.06,3.27.81,6.45,1.14,9.68-.8,2.48,0,5.32-1.61,7.62a6.18,6.18,0,0,1-5,2.82c-4,0-5.72,2.44-7.4,5.55q-14.26,26.19-29,52.13a21.69,21.69,0,0,1-3.2,4.41c-6.52,5.47-14,9.55-21.09,14.18q-44.38,29-88.86,57.62a48.14,48.14,0,0,0-21.5,30.56c-2.13,8.9-4.85,17.65-6.9,26.57A8.89,8.89,0,0,1,63,692Z"/><path class="cls-2" d="M458.53,556.64A67.7,67.7,0,0,1,465.1,560q53.64,34.75,107.2,69.63c9.43,6.15,15.37,15.2,18.5,25.77,3.57,12.06,6.26,24.38,9.34,36.59H63c1.94-8.51,4-17,5.81-25.53,2.31-10.62,5.19-21,13-29.14a51.18,51.18,0,0,1,8.91-7.78q55-35.92,110.18-71.6c.72-.42,1.45-.8,2.21-1.15,2.28-.61,3.83.73,5.23,2.14,10.44,10.55,21.35,20.64,31.23,31.75,1,2.59.64,5.28.65,7.93V648.1c0,6.19.75,6.53,6.76,4.47,18.6-6.34,37.19-12.69,55.67-19.35,4.25-1.53,8.28-1,12.68.09a69.14,69.14,0,0,0,32.61.18c5.71-1.34,10.66-1.36,16,.55q26.32,9.42,52.86,18.27c6.66,2.2,7.11,1.89,7.12-5.15V595.67c0-2.32-.23-4.68.6-6.93,9.13-10.93,20.55-19.57,30.19-30C455.74,557.68,456.82,556.54,458.53,556.64Z"/><rect class="cls-1" x="398.77" y="348.45" width="159.83" height="204.51"/><rect class="cls-1" x="114.85" y="357.89" width="159.83" height="188.94"/><path class="cls-3" d="M165.88,288.09C158.6,268.26,153,248,150.62,227c-4.4-39.77-.93-78.46,16.82-114.81S214.23,53,252.87,42A197.62,197.62,0,0,1,332,36.12c21.85,2.69,42.39,9.56,58.54,24,6.78-2.55,12.86-5.84,19.33-7.09,18.17-3.49,34.61,2.42,49.75,11.79C490,83.65,507,111.61,513.14,146.41s-.84,68-13.72,100.33c-1.47,3.68-2.79,7.43-4.17,11.15a5.6,5.6,0,0,1-.26,4.81c-6.6,13.95-13.72,27.61-22.71,40.2-.73.91-1.48,1.81-2.15,2.76-1,1.37-1.89,3.13-3.86,2.33s-2.2-2.86-2.15-4.71c.24-8.31,1.33-16.58.93-24.92-1.09-22.75-4.25-45-14.05-65.94-6.77-14.44-17.68-25.12-29.88-34.94-12-9.65-22.55-20.71-30.28-34.21a2.25,2.25,0,0,0-2-1.27c-14.66,19-34,32.52-55.81,42.77A206.54,206.54,0,0,1,297.31,197c-39.72,10.05-66.75,34.14-81.43,72.4a439.14,439.14,0,0,0-14.77,48.1c-.46,1.77-.85,3.57-1.38,5.31-1.55,5.08-4,6-8.56,3.27a45.71,45.71,0,0,1-14.36-14.37C172,304.41,166.11,297.52,165.88,288.09Z"/><path class="cls-4" d="M165.88,288.09c5.93,9.58,11.45,19.45,18,28.6,3,4.27,8,7.15,11.44,10.09,7.06-21.48,13-42.64,20.92-63,14.45-36.91,42.26-59,80.37-68.89,10.56-2.73,20.93-6.22,31.35-9.47a21.38,21.38,0,0,0,4.16-2.37c2.55,1.63,3.09,4.17,3.11,6.93q.25,40.38,0,80.76a13.92,13.92,0,0,1-1.85,6.63,4.44,4.44,0,0,1-1.17,1.48,5.53,5.53,0,0,1-1.61.85c-3.46.64-7,.29-10.44.3a10.36,10.36,0,0,1-7.65-3.11c-5.49-5.58-12.39-7.66-19.92-7.75-14.47-.18-28.95-.27-43.43,0-9.3.18-17.69,2.66-23.08,11.32-6,9.64-6.21,30.71,7.63,38.14a24.43,24.43,0,0,0,11.89,3.18H294c14.62,0,23.66-8.4,24.85-23,.26-3.18.19-6.39,3.24-8.48a29.22,29.22,0,0,1,5.63-2.27,3.41,3.41,0,0,1,2.53,1c4,2.42,5,6.13,5,10.61V497.47c0,1.81.13,3.68-.72,5.38-1.33,3-4,3.14-6.75,3.14-11.95,0-23.38-2.71-34.61-6.54-16.4-5.58-30-15.5-42.45-27.25a18.36,18.36,0,0,0-4.88-3.4c-6.86-11.38-15.82-21.3-22.33-33a240.41,240.41,0,0,1-21.32-52.63,39.34,39.34,0,0,0-1.41-4.26,2.31,2.31,0,0,0-1.24-1.16c-3.36-.21-7.29,2.92-10.51-1-14-12-15.71-29.07-18.76-45.49-2.19-11.73-3.57-23.62-5.06-35.47C164.89,293.36,165.63,290.69,165.88,288.09Z"/><path class="cls-5" d="M237.87,589.81a42.91,42.91,0,0,1-4.68-3.47c-10.08-9.81-20.08-19.69-30.11-29.54C214,537,224.88,517.19,236,497.53c1-1.76,3.7-2.72,5.8-3.6,1.63-.68,3.55-.65,5.35-.93,3-.57,4.6,1.68,6.33,3.3,11.7,10.9,23.41,21.78,35,32.81,12.67,12.06,25.83,23.59,38.16,36a8.78,8.78,0,0,0,6.61,3,4.31,4.31,0,0,1,3.54,1.56c3.13,6.86,10,5.37,15.47,6.63,2.26.51,4.86,1.33,7.33.23a18.79,18.79,0,0,1,2.81-1c1.84-.06,3.72-.49,5.41.67a1.69,1.69,0,0,1,.57,1.43c-3.68,4.92-12.42,7.71-18.35,5s-12.37-3.15-18.44-3.85c-4.8-.56-10.55,1-15.4,3.19s-9.23,1.85-14,.13c-18.64-6.71-37.41-13-56.16-19.37-1.54-.52-3-1.62-4.8-.83-1.48,1.48-1,3.4-1,5.18-.07,5.66,0,11.33-.07,17C240.08,586.28,240.28,588.59,237.87,589.81Z"/><path class="cls-6" d="M246.46,468c2.24,1.2,4.82,2,6.65,3.68,10.51,9.52,21.6,18.25,34.82,23.6,14.42,5.84,29.41,9.4,45.16,8.71a6.45,6.45,0,0,1,4.4-2c29-2.38,53.29-14.4,73.44-35.23,2.32-2.39,4.55-6.32,9.09-3.45a7.44,7.44,0,0,1-.11,8.26L418,480.06c-.06,9.25-7,14-13.08,18.91-11.53,9.35-24.05,17.29-38.33,21.85-9,2.88-18.13,5.32-27.77,5.32-13.15,0-26.25.24-39-4-18.12-6-34.3-15.09-47.85-28.67-2.12-2.13-2.88-4.79-3.82-7.43q-1.17-7.1-2.33-14.2C244.86,470.36,244.69,469,246.46,468Z"/><path class="cls-7" d="M248.15,486.05c21.42,23.62,47.44,37.33,79.91,38.05,15.56.34,30.48-1.83,44.76-7.92a130.08,130.08,0,0,0,38.59-25.84c2.86-2.73,4.43-6.82,6.58-10.28a23.53,23.53,0,0,1,.07,4.36c-.76,4.75.85,7.72,5.84,8.42a3,3,0,0,1-3.25,1.64c-4.69-.91-7.48,1.81-10,5.08a18.6,18.6,0,0,1-2.41,2.53A10.07,10.07,0,0,0,404.6,506a10.45,10.45,0,0,1-1.41,1.49,4.67,4.67,0,0,1-1.14.77,7.17,7.17,0,0,0-5,4.22,4.74,4.74,0,0,1-1.37,1.45,13.7,13.7,0,0,0-4.36,3.76,9.14,9.14,0,0,1-1.23,1.54,6.42,6.42,0,0,1-1.56,1.23c-3.32,2.93-7.45,5-9.67,9.08a27.53,27.53,0,0,0-6.26,5.83,5,5,0,0,1-.83,1,10.74,10.74,0,0,0-1.46,1.4,3.93,3.93,0,0,1-1.1.8c-4.48,2.44-7.51,6.47-11,10A23.51,23.51,0,0,0,355.1,552a5.58,5.58,0,0,1-1.53,1.33,18.65,18.65,0,0,0-7.7,7.16c-1.48,1.6-3.5,2.67-4.58,4.66a4,4,0,0,1-.88,1c-1.48,1-2.52,2.41-3.87,3.51l-.64.17c-6,2.46-9.13-2-12.71-5.34l-74.35-69.67c-.6-.57-1.14-1.21-1.7-1.82C247.5,490.68,247.82,488.36,248.15,486.05Z"/><path class="cls-1" d="M246.46,468c-.21,1.29-.42,2.59-.64,3.89H189v-95L201.57,375c3.32,10,6.58,21.1,10.64,31.87A185,185,0,0,0,244,461.76C245.33,463.37,245.66,465.88,246.46,468Z"/><path class="cls-1" d="M419.91,471.51l-.75-8.51c-2.07-2.65-.31-4.72,1.14-6.7a227.34,227.34,0,0,0,15.6-23.74,238,238,0,0,0,21.27-53.64c.69-2.54,1.12-5.28,3.82-6.71,4.78-.28,8.59,1.92,12.14,4.78v94.52Z"/><path class="cls-8" d="M473.13,377l-12-4c-2-1.63-1.72-3.7-1.24-5.9A364,364,0,0,0,466,328.39,127.66,127.66,0,0,0,467.06,313c-.06-4.2,3.75-7,4.13-11l24.06-44.09c1.25,2.93,3.44,5.83,3.57,8.8.42,10.58,1.08,21.29-.08,31.75-1.8,16.14-4.69,32.19-7.79,48.14-1.66,8.56-3.54,17.4-9.79,24.16C478.89,373.19,475.83,374.92,473.13,377Z"/><path class="cls-5" d="M458.53,556.64l-32.21,31.21c-2.44-1.18-2.25-3.48-2.3-5.6-.12-5,0-10-.07-15,0-1.77.45-3.68-1.39-5.7-7.26,1.87-14.56,4.48-21.82,7.15-8.57,3.15-17.28,5.87-25.92,8.78-2.17.73-4.47,1.61-6.57-.33l-.26-.31a2,2,0,0,1-.36-2c1.22-1.89,3.27-2.65,5.05-3.77,2.69-1,3.25-5.71,7.36-4.26a5.88,5.88,0,0,1,1.82.87c1.48,1.59,2.77,0,4.13-.25,3.89-1.8,7.91-3.28,11.86-4.93,3.45-2.16,7.8-.89,11.26-3,2.33-.41,4.45-1.19,5.7-3.42,3.16-2.69,5.51-6.73,10.71-5.86,2.64.44,4.89,1,5.33,4.11.12,1.46-1.47,2.91,0,4.35.3.24.57.51.85.76a14.17,14.17,0,0,0,1.48.81c.61.2,1.23.28,1.83.48a2.64,2.64,0,0,1,1.71,2.75c-.28,1.52-1.66,2.11-2.58,3.09a8,8,0,0,1-1,.73,3.33,3.33,0,0,0-1.13,1.2,3.16,3.16,0,0,0,0,1.67c1.64,2.38,3.61,1.34,5.55.55,3.21,0,4.32-2.55,5.79-4.69,1.78-2.83,4.85-4.53,6.51-7.45,1-1.88,3-2.52,4.7-3.38l1.54-1.07a3.46,3.46,0,0,1,1.18-.33Z"/><path class="cls-5" d="M409.05,499c3.22-6.25,8.79-6.77,14.85-6.13l26.33,48-.45.54c-2.19.86-4.17.17-6.12-.79a4.71,4.71,0,0,1-1.64-2.29c-.11-3.13-3.8-2.85-4.86-5.08-1.9-2.71.61-7-3.31-9a5.3,5.3,0,0,1-.81-1.13c-1.06-1.88.16-4-.71-5.93a9.06,9.06,0,0,0-2.92-4.06,3.65,3.65,0,0,0-4.42-1.61c-1.87-.12-3.38-.74-3.86-2.78-.23-1.76.8-3.1,2.09-5.1-3.9,1.55-6.68,1.57-6.39-3.32C413.88,501.79,411.19,501.8,409.05,499Z"/><path class="cls-5" d="M450.23,540.88l5.88,11.1-.47.66a4.18,4.18,0,0,1-3.8.67c-1.5-.53-2.89-1.17-3.21-3,1.83-2.88-1.64-6.57,1.39-9.27Z"/><path class="cls-5" d="M456.11,552c.38.62.76,1.24,1.15,1.86l-.23.21a1,1,0,0,1-1.2-.09,1.57,1.57,0,0,1,.16-1.87Z"/><path class="cls-3" d="M368.25,577.2l47.57-16,10.5-3.52v30.21q-.09,31.49-.17,63c0,6.88-.21,7.07-6.73,4.83q-29-10-58-20.08a16.31,16.31,0,0,0-12-.1c-4,1.51-8.8,1.54-13.23,1.5-8.4-.08-16.95,1.37-25.09-2.6-1.83-.89-4.9.15-7.19.93-21,7.14-41.86,14.41-62.79,21.63-.61.22-1.25.34-3.21.85V557.6c9.73,3.33,18.52,6.31,27.29,9.33,13.86,4.78,27.7,9.6,41.58,14.32a8.43,8.43,0,0,0,4.33.53c5.14-1.1,10.27-2.32,15.29-3.87,1.73-.54,3.13-2.15,3.68-2.55C343.14,578.09,355.11,585.52,368.25,577.2Z"/><path class="cls-4" d="M471.19,302c.2.77.77,1.66.55,2.28-4.62,13.17-2.54,27.24-5.57,40.63-1.81,8-3.24,16.07-4.79,24.12a29.75,29.75,0,0,0-.27,4c-5.55,15.86-10,32.2-17,47.43-5.9,13-14.62,24.69-22.06,37-1.09,1.8-2,3.74-2.93,5.62-1.74,1.2-3.7,2.16-5.16,3.63-14.1,14.2-29.5,26.61-49.2,31.83-10.33,2.74-21.13,3.73-31.71,5.5V305.81c0-5.87,1-12-4-16.7,3.21-2.49,11.57-3.1,14.53-1.06,2.37,1.64,2.59,4.13,2.57,6.68,0,5,.31,10,2.63,14.6,4,7.84,10.43,12.25,19.09,12.42,17.66.36,35.33.25,53,.05,8.44-.1,14.59-4.57,18.46-11.75,4.33-8,4.5-16.61,1.53-25.17-3.66-10.56-12.06-15.09-22.38-15.37-17.12-.46-34.29-1.2-51.41.51a23.15,23.15,0,0,0-14.17,6.64c-4.61,4.4-15.7,5-20.87,1.52v-95c17.29-8.48,33.46-18.58,46.73-32.77,3.84-4.11,7.32-8.56,11.14-13.06,9.8,19.72,26.17,33.53,42.69,47.37S457.14,217.53,462,238c5.07,21.57,5.93,43.46,4.09,65.49-.11,1.32-.12,2.65-.15,4,0,.12.16.23.57.76Z"/><path class="cls-4" d="M332.06,278.1c4.65.11,9.31.4,13.95.23a6.77,6.77,0,0,0,4.15-2.11c4.91-5.22,10.77-8.52,18-8.57,17.82-.11,35.65-.4,53.45.25,12.6.45,21.73,9.89,22.59,22.44a51,51,0,0,1-1.2,16.74c-2.77,10.17-12.41,16.82-22.85,16.86q-25.74.1-51.48,0a24.66,24.66,0,0,1-24.39-24.12c-.1-3.46,0-6.93,0-10.8H327.06c-1,1.66-3.33.47-4.35,2.06-.6,2-1.65,4-1.71,6C320.5,314,310.38,324,293.59,324h-48c-14.28,0-24.74-10.5-25.11-24.85-.21-8.12,0-16.06,5.76-22.6,4.34-4.93,9.62-8.52,16.3-8.61,18.48-.24,37-.44,55.43.11,4.47.13,10.1,2.08,13,5.22,5.58,6.06,11.84,5.5,18.61,4.85a3,3,0,0,0,2,0l.23.2Z"/><path class="cls-9" d="M322.71,291.09c-.59-2.44-.59-2.44,4.35-2.06Z"/><path class="cls-10" d="M360.08,578a31.3,31.3,0,0,1-5.12.42c-4.23-.35-8.43-1-12.65-1.41-4.48-.39-6.07-3.16-6.38-7.17h0a8.09,8.09,0,0,0,3.79-5.16l.11-.06c1.9-1.39,4.12-1.1,6.26-1.24,1.48-.27,2.94-1,4.47-.25a3.17,3.17,0,0,1,1.55,3.36,6.41,6.41,0,0,1-1.85,3.15c-.69.87-2.92,1.64-.13,2.73,2.43.42,4.81.93,7.23,1.26S361.42,575.12,360.08,578Z"/><path class="cls-10" d="M360.08,578c-1.26-1-2.39-2.48-3.82-2.87a57.88,57.88,0,0,0-8.18-1.13,2.51,2.51,0,0,1,.51-3c4.51-3,9.59-2,14.26,2.93a3,3,0,0,1-.77,3.06Z"/><path class="cls-10" d="M362.08,577v-3c2.4-2.08,4.43-1.92,6,1l-.09,1.9Z"/><path class="cls-11" d="M456,552.09c0,.63.08,1.26.11,1.89s0,1.34,0,2l-5,3c-2.21,2.54-5.07,1.61-7.78,1.47-1.65.18-3.19-.53-4.8-.68-1.94-.2-3.23.91-4.42,2.21h-2a2.61,2.61,0,0,1-2-1v-1a3.85,3.85,0,0,1,0-5c-1.47-4.81-5.53-1.84-8.33-2.55-.59-.15-1.61,2.31-2.75,3.12A15.35,15.35,0,0,1,415.1,557c-1.36,1.58-3.6,1.8-5,3.3-2.92.19-5.78.31-8.59-1a3.45,3.45,0,0,0-4.65,1.47h0c-2.15,1.35-3.74,3.68-6.59,3.84a11.14,11.14,0,0,1-3.77-1.85c-2.05-3.52-4.11-.43-6.16,0-2.11-.53-4.29.4-6.41-.23-1.26-1.22-2.31-2.66-3.64-3.83-.64-1.37-1-3-2.91-3.2a4.35,4.35,0,0,1-2-.88,4,4,0,0,1-1.33-2.7,5,5,0,0,1,1.35-3.47c5-1.86,2.51-5.73,2.39-9,.35-.89.76-1.76,1.17-2.62h0a3.3,3.3,0,0,0,2-2h0a18,18,0,0,0,5-2.9,8.26,8.26,0,0,0,2-1.24,5,5,0,0,0,.92-1.45,6,6,0,0,1,.46-1,2.09,2.09,0,0,1,1.91-.84,1.35,1.35,0,0,1,.66.69,3.92,3.92,0,0,0-.13-.49,1.76,1.76,0,0,1-.42-1c1-3.07,3.94-4,6.19-5.69,1.56-.33,2.9-1.39,4.53-1.43,2.65-.06,2.64-1.72,2.29-3.63a3,3,0,0,1,.45-1.29c1.21-.94,2.76-1.58,3-3.38.9-1.83,3.32-2.34,3.86-4.47l.18.23c.89-.47.67-1.5,1.09-2.21l4.09-3.87a1.32,1.32,0,0,0,1.28.5c5.78-.73,6.67.46,4.57,6.07a2.61,2.61,0,0,0-.07,1.44,3,3,0,0,0,2,2,2.69,2.69,0,0,0,3.2-.19,9.19,9.19,0,0,0,1.19-2c.78-1,1.62-1.68,2.84-.62l4,2a13.64,13.64,0,0,1,4,2l4,5c-.68,2.35-2,3.61-4.69,3.33-7.37-.76-14.76-.1-20.43-.31,4.58-.07,10.86,0,17.14,0,3,0,6,.18,8,3h0a4.18,4.18,0,0,1,.94,2.69c-1.51,2.27,0,4.55,0,6.82-.94,2.76-2.85,3.6-5.74,3.56-11.31-.17-22.63-.06-33.95-.07,11.11,0,22.21-.05,33.31,0,1.8-.14,2.51,1.69,4,2.17,4.31.43,2-4.3,4.28-5.46a1.06,1.06,0,0,1,1.22.25l6.59,1.67L443.1,538c-.58.73-.82,1.68-1.61,2.33.91,0,1.75-.28,2.61-.33l5.92,1.08c.39,1.93,1.09,3.86,1.06,5.79,0,1-1.28,2.09-2,3.14-.27,2.55,1,2.81,3,2Z"/><path class="cls-12" d="M368.08,575l-6-1c-2.81-1.14-5.54-2.57-8.45-3.27-1.34-.32-3,.8-4.55,1.27a2.08,2.08,0,0,1-.06-2.94l.06-.06,2-2c1.15-1,1.72-2.19.56-3.59a4.18,4.18,0,0,1-.31-.76c-.1-.28-.12-.19-.09.27a2,2,0,0,1-1.16,1.08l-4,1a2.63,2.63,0,0,1-1-2.62c.34-1.39,1.55-2.37,1.8-3.8a8.59,8.59,0,0,1,2.16-2.45,8.31,8.31,0,0,0,2.22-2,4.43,4.43,0,0,0,1.71-2.36l.83-.83a18.21,18.21,0,0,1,3.22-1.17,3.57,3.57,0,0,1,4.45,2.36,3.66,3.66,0,0,1,.07,1.8c.17,1.5-.41,3.09.51,4.48a4.1,4.1,0,0,0,1.51.74,16.21,16.21,0,0,1,5.05,2c1,1.71,2.91,2.65,3.73,4.5.25,2.13,2.25,4.07.73,6.4Z"/><path class="cls-13" d="M422.1,508c-.67.66-1.34,1.33-2,2v2c-2,3.85-4,.58-6,0-.74-1.05-2.21-1-3-2a12.58,12.58,0,0,1-.27-3.35,23.87,23.87,0,0,1,1.44-4L407.48,504c-.11-.88-.25-2-.39-3.08l2-1.84c2.39-.59,6.45,3.64,6.9-2.3h4.25c-.76,2.17-1.46,4.19-2.17,6.2l1.22.83,4.61-4.33C426.93,502.56,426.64,503.82,422.1,508Z"/><path class="cls-5" d="M369,536.85c0,1,.07,2.08.11,3.13-1,.74-.84,2.15-1.71,3a23.41,23.41,0,0,0-4.81,4.13c-1.45,1.47-3,2.65-5.15,1.4-.15-.19-.29-.39-.43-.59Z"/><path class="cls-5" d="M382.09,528l-2,1a2.37,2.37,0,0,1-2.17.6c-.65-.19-.8-.58-.45-1.16L388,518.86l.56.46a2.12,2.12,0,0,1-.44,2.66Z"/><path class="cls-5" d="M346.08,562v3l-6.27-.33,4.76-5.13a1,1,0,0,1,1.23.35A3.09,3.09,0,0,1,346.08,562Z"/><path class="cls-5" d="M339.7,564.71l2.65,6-6.44-.87Z"/><path class="cls-5" d="M377.08,533,371,534.87l6.5-6.45a2.85,2.85,0,0,1,.63.57C379.46,530.75,378,531.8,377.08,533Z"/><path class="cls-5" d="M350.08,557c-.67.67-1.33,1.34-2,2-.73,1.12-1.49,2.15-3,1-.18-.15-.35-.31-.52-.47l8.41-7.82-.9,3.27C351.94,556.18,350.74,556.31,350.08,557Z"/><path class="cls-5" d="M401.72,506.66q-1.31,2.65-2.63,5.32a2.39,2.39,0,0,1-2.66.7,1.54,1.54,0,0,1-.8-1.13Z"/><path class="cls-5" d="M390,516.89l4.69-4.35a.82.82,0,0,1,1,.58,1.89,1.89,0,0,1-.61,1.86h0c-1.13,1.59-2.14,3.4-4.61,2.45Z"/><path class="cls-5" d="M357.08,551l-3.27-.1,3.17-3,.18.17A2.11,2.11,0,0,1,357.08,551Z"/><path class="cls-5" d="M371,534.86l-2,2Z"/><path class="cls-5" d="M403,504.68c-.36.74-.73,1.47-1.09,2.21C402.26,506.15,402.63,505.42,403,504.68Z"/><path class="cls-5" d="M388,518.86l1-1,.23.63a.94.94,0,0,1-1.09.49Z"/><path class="cls-5" d="M389,517.9l1-1,.14.15c.15.82-.18,1.15-1,1Z"/><path class="cls-5" d="M394.68,512.54c.32-.32.64-.65.95-1,.16.14.32.28.47.44.22.88-.11,1.22-1,1Z"/><path class="cls-12" d="M443.1,559h8l-7,8a5.88,5.88,0,0,1-4,.39,7.46,7.46,0,0,1-3.84-2.73c-.06-.22-.11-.45-.17-.67l-2-2c-.08-2.74,1.25-4.08,4-4C439.51,559.62,441,560.87,443.1,559Z"/><path class="cls-11" d="M396.09,560c.18-3.58,2.31-4.07,5.17-3.12s5.89,2.08,8.83,3.12c.26.23.34.45.26.67s-.17.33-.26.33l-12,3C396.24,563.24,395.88,561.75,396.09,560Z"/><path class="cls-14" d="M373.08,572l-2-6a5.6,5.6,0,0,1,2.94-2.46c1.79-.62,3.56-1.43,5.5-.55,3.22,1.33,2.89,3.06.57,5l-3.33.27c.24,1.5.44,2.79.77,4.84Z"/><path class="cls-11" d="M396.09,560l2,4-12,5a2.63,2.63,0,0,1-.74-3c1.15-1.67,2.52-2.84,4.74-2Z"/><path class="cls-11" d="M380.09,568c-.34-1.33-.67-2.66-1-4-.6-1.13.18-1.57,1-2l4.29-3.84,2.71,3.84c1,2.38-2.4,2.76-2.13,4.8-.77,1.66-1.7,3-3.87,2.21Z"/><path class="cls-12" d="M438.1,572c-3,2.83-6.31,2-8-2,1.14-1.23,2.79-2.08,3-4l3-2h0c1.34,1.61,3.42,2.66,3.81,5C439.94,570.37,439,571.14,438.1,572Z"/><path class="cls-15" d="M438.1,572l1-3c0-1.12-.07-2.25,1-3l4,1Z"/><path class="cls-12" d="M410.09,561v-1l5-3Z"/><path class="cls-14" d="M381.09,569l3-3a1.48,1.48,0,0,1,2,0v3C384.42,569.42,382.76,572.92,381.09,569Z"/><path class="cls-15" d="M433.1,566l2,3.66-5,.35v-2c.77-.56,1-1.7,2-2Z"/><path class="cls-12" d="M430.09,555v5Q425.89,557.5,430.09,555Z"/><path class="cls-12" d="M429.93,575.33l-.61.94a3.9,3.9,0,0,1-.89-.83c-.07-.12.37-.74.43-.72A7.56,7.56,0,0,1,429.93,575.33Z"/><path class="cls-12" d="M432.1,566l-2,2Z"/><path class="cls-12" d="M430.1,561c.66.34,1.33.67,2,1C431.43,561.65,430.76,561.32,430.1,561Z"/><path class="cls-12" d="M456.11,556v-2l.93.07Z"/><path class="cls-13" d="M438.1,533h-1c-1.45,1.93-1.37,5.35-5,5.15a4,4,0,0,1-2-1.15h-44v-1.73c1.69-.09,3.38-.25,5.07-.26h36.48c3,0,5.75-.33,6.43-4a3.83,3.83,0,0,1,0-5v-3l4.51,1.73C438.43,527.57,438.27,530.28,438.1,533Z"/><path class="cls-13" d="M434.1,523l-31.57-3a14.76,14.76,0,0,1,3.26-.91c7,0,14,.16,21-.1,2.46-.09,4.89-1.26,7.33-1.94Z"/><path class="cls-12" d="M444.1,540l-5.63,4.85c-1-4.4,1.13-6.18,4.63-6.85Z"/><path class="cls-16" d="M430.1,512l-4-2Z"/><path class="cls-12" d="M452.1,552l-3.22,1-.93-4.2,1.16,1.23Z"/><path class="cls-17" d="M270.61,313.78H248.14c-11.62,0-17.21-5.49-17.25-16.94v-3.49c.11-9.09,5.73-15.33,14.7-15.45q25-.33,49.92,0c8.45.1,14,5.53,14.75,13.9a41.31,41.31,0,0,1,.06,7.46c-.85,9.17-6.6,14.39-15.76,14.5h-24Z"/><path class="cls-4" d="M394.21,313.78c-8,0-16,.05-24,0-9.54-.07-15.48-6-15.65-15.61v-5.49c.26-8.37,6-14.6,14.44-14.72q25.2-.33,50.41,0c8.56.12,14.22,6,14.7,14.52a58.39,58.39,0,0,1,0,7,14.75,14.75,0,0,1-15,14.3C410.85,313.87,402.53,313.78,394.21,313.78Z"/><path class="cls-10" d="M352.08,562l4.3,2.74-5.3,2.26-1-3,1-2a.61.61,0,0,1,.85-.15h0A.54.54,0,0,1,352.08,562Z"/><path class="cls-5" d="M349.08,569v3c-.34.66-.67,1.33-1,2l-2.42-1.19Z"/><path class="cls-10" d="M360.08,560v-5a4.7,4.7,0,0,1,1.87-1.2c2-.46,3.12,1,4.53,1.87,1.39,1.07,3.51.69,4.6,2.33l3,4a2.93,2.93,0,0,1-2.08,1.43,4.48,4.48,0,0,1-3.92-1.43l-6-1A2.58,2.58,0,0,1,360.08,560Z"/><path class="cls-12" d="M367.08,542l2-2c.37.9.73,1.8,1.11,2.7,2,4.58,1.09,6-4.11,6.3a2.15,2.15,0,0,1-2.41-1.11C363.34,545.06,365.64,543.77,367.08,542Z"/><path class="cls-12" d="M384.26,539.69c-2.32,1.76-3.65,3.15-5.28,3.8-.51.2-1.81-1.58-2.74-2.46,1.22-1.3,2.28-2.92,3.77-3.74C380.59,537,382.16,538.45,384.26,539.69Z"/><path class="cls-13" d="M389.12,518l1-1,5-2.06c2.74,4.67,2.57,5-2.72,6.16-1.42.3-2.85.56-4.28.84l.06-3Z"/><path class="cls-5" d="M364.08,548l2,1c-.33,1-.66,2-1,3-.28,1.72-2,2-3,3h-2v-4C360.39,548.62,361.44,547.24,364.08,548Z"/><path class="cls-18" d="M443.1,559l-2.1,3.8-2.9-4.8Z"/><path class="cls-12" d="M372.08,562h2l3.93-3c.65.92,1.36,1.94,2.08,3l-1,2-5,1C372.49,564.6,371.36,563.91,372.08,562Z"/><path class="cls-12" d="M422.77,546.61a20.23,20.23,0,0,1-3.1,2,9.21,9.21,0,0,1-2.19-3.31c-.12-.32,1.52-1.78,1.72-1.66A27.44,27.44,0,0,1,422.77,546.61Z"/><path class="cls-5" d="M432.1,537l5-4c.15,3.63-.21,6.9-5,7a2.08,2.08,0,0,1-.06-2.94Z"/><path class="cls-5" d="M386.09,566h-2l3-4,3,2Z"/><path class="cls-12" d="M430.73,546.58l-2.43,2c-.63-.78-1.6-1.5-1.77-2.37-.1-.49,1.22-1.84,1.7-1.75C429,544.64,429.68,545.64,430.73,546.58Z"/><path class="cls-12" d="M371.08,558l-5-1c.05-.2.1-.39.14-.59a7.2,7.2,0,0,1,1.86-2.41Z"/><path class="cls-12" d="M362.08,555l3-3c.34.67.67,1.34,1,2a2.14,2.14,0,0,1,0,3Z"/><path class="cls-5" d="M411.09,510l4.51-1.66c-.62,1.51-1.06,2.58-1.51,3.66Z"/><path class="cls-12" d="M432.1,537v3l-2.08.54c0-1.18.05-2.36.08-3.54Z"/><path class="cls-13" d="M395.1,513l1-1h3l-4,3Z"/><path class="cls-5" d="M434.1,526v5C431.28,529.31,431.29,527.64,434.1,526Z"/><path class="cls-13" d="M408.05,510.32c.48.35,1.16.72,1.13.81a7.48,7.48,0,0,1-.87,1.36c-.31-.3-.81-.57-.87-.91S407.78,510.84,408.05,510.32Z"/><path class="cls-12" d="M377.08,533c.34-1.33.68-2.66,1-4h2v1a2.61,2.61,0,0,1-1,2Z"/><path class="cls-5" d="M366.08,557v-3h2Z"/><path class="cls-5" d="M379.09,532l1-2Z"/><path class="cls-12" d="M384.09,528l1.33,1-1.33,1a1.36,1.36,0,0,1-.09-1.91Z"/><path class="cls-5" d="M384.09,528v2l-2-2Z"/><path class="cls-14" d="M364.08,548l-4,3h-3c0-1,.05-1.94.08-2.92l9.92-6.08Z"/><path class="cls-5" d="M372.08,562l2,3-3,1-3-4Z"/><path class="cls-10" d="M345.09,560l3-1-2,3Z"/><path class="cls-10" d="M350.08,557c.67-.66,1.33-1.33,2-2C351.41,555.65,350.75,556.32,350.08,557Z"/><path class="cls-5" d="M352.08,562h-1v-1.4Z"/><path class="cls-10" d="M360.08,560l2,1Z"/><path class="cls-5" d="M440.1,566l-1,3-3-5Z"/><path class="cls-5" d="M394.32,518.07c-.15.26-.3.52-.46.78-.19-.16-.54-.33-.53-.47a2.14,2.14,0,0,1,.4-.78Z"/><rect class="cls-4" x="314.34" y="192.96" width="36.17" height="308.09"/></g><rect class="cls-4" x="225.66" y="251.94" width="105.19" height="93.7"/><rect class="cls-4" x="332.89" y="251.94" width="117.45" height="93.7"/></g></g></g></g></g></g></g></svg>