<svg xmlns="http://www.w3.org/2000/svg" viewBox="0 0 518.25 519"><defs><style>.cls-1{fill:#c2c2c2;}.cls-2{fill:#393939;}.cls-3{fill:#48525e;}.cls-4{fill:#fefefe;}.cls-5{fill:#db843a;}.cls-6{fill:#fde0b8;}.cls-7{fill:#fdd8ac;}.cls-8{fill:#fdd6ad;}.cls-9{fill:#f3cda4;}.cls-10{fill:#3e3d3c;}.cls-11{fill:#fbd7ab;}.cls-12{fill:#fbdfb7;}</style></defs><g id="Layer_2" data-name="Layer 2"><g id="Layer_1-2" data-name="Layer 1"><path class="cls-1" d="M517.5,519H470.32a8.42,8.42,0,0,1-2.42-4.52c-5.67-22-11.55-43.84-17.14-65.8-2.55-10-7.8-17.94-16.6-23.46-26-16.28-52.05-32.4-78.08-48.58a2.66,2.66,0,0,0-1.84-.61c-1.2,1-.65,2.48-.65,3.75,0,13.09,0,26.19,0,39.29a82.84,82.84,0,0,1-13.19,45.25c-10.07,15.89-19.64,32.09-29.38,48.19-1.48,2.45-2.75,5.06-5.43,6.49H286.83c-2.47-2.4-2.32-5.74-2.84-8.71-1.48-8.59-2.79-17.21-4.51-25.75-.93-4.6.11-8,4.47-10.31a14,14,0,0,0,6.1-5.88c1.74-3.38,2.37-6.73,1.06-10.44q-4.11-11.64-8.65-23.11c-2.49-6.29-7.74-9.68-14.37-9.22-7.44.52-12.25,3-14.58,10-2.2,6.62-4.92,13.07-7.39,19.6-3.18,8.42-1.72,13.71,5.79,18.65,4.12,2.71,5.41,5.78,4.54,10.69-1.7,9.55-3.51,19.1-4.94,28.71-.32,2.12-.35,4.61-2.87,5.73H229.17c-2-1.41-3.16-3.47-4.38-5.5-11.35-18.92-23.31-37.46-34.18-56.66A65.61,65.61,0,0,1,182,424.7c-.13-14.59,0-29.19,0-43.78,0-1.44.41-3-.63-4.33-1.4-.15-2.36.8-3.37,1.42q-37.59,23.43-75.25,46.75c-9.28,5.76-14.62,13.95-17.23,24.29C80,470.54,74.25,492,68.63,513.4c-.54,2-.9,4.18-2.73,5.6H0V.76C1.29.05,2.7.4,4,.4q254.61,0,509.23,0a11.79,11.79,0,0,1,4.09.25c.93,1.22.49,2.65.49,4q0,255.36,0,510.72C517.86,516.55,518.17,517.83,517.5,519Z"/><path class="cls-2" d="M305.56,519c3.65-6.3,7.2-12.66,11-18.9,8.59-14.25,17.48-28.33,25.88-42.7,6.68-11.41,9.49-24,9.55-37.18.06-14.47,0-29,0-43.42v-4.7l21.22,13.19q30.74,19.08,61.47,38.16A37.88,37.88,0,0,1,452,447.18c5.84,22.75,11.87,45.46,17.79,68.19a31.45,31.45,0,0,1,.54,3.63Z"/><path class="cls-2" d="M65.9,519c1.92-7.69,3.78-15.4,5.76-23.08,4-15.38,8.38-30.66,12-46.13,3-12.72,10-21.66,21.1-28.37,25.52-15.43,50.72-31.36,76.06-47.08.6-.37,1.26-.64,2.44-1.24v4.39c.07,16,0,31.92.26,47.87.22,13.55,5,25.69,12.06,37.11q16.22,26.32,32.19,52.78a22.48,22.48,0,0,1,1.42,3.75Z"/><path class="cls-3" d="M248.64,519q3-17,6-34.07c.15-.86.3-1.71.5-2.55.65-2.68.26-4.61-2.6-6.08-4.77-2.44-8.88-5.95-9.38-11.68a24.66,24.66,0,0,1,1.27-9.74c2.36-7.06,5.37-13.89,7.87-20.9s7.91-9.63,14.67-10c7-.41,13.36,1.43,16.33,8.53,3.62,8.7,6.87,17.56,9.93,26.47,1.69,4.93-.8,12.36-5.57,14.65-7.12,3.4-7.28,8.25-5.81,15,2.2,10,3.39,20.28,5,30.43Z"/><path class="cls-4" d="M517.5,519V6.39c0-5.63,0-5.63-5.64-5.63H0C.12.51.24.05.38,0c1-.06,2,0,3,0H518.25q0,257.81,0,515.62A16.23,16.23,0,0,1,517.5,519Z"/><path class="cls-5" d="M142.36,195.53c-1.36-4.62-2.61-9.28-4.1-13.86-6.91-21.38-8.57-43.43-7-65.6,1.73-25.18,8.9-48.77,24.63-69.09,9.45-12.21,21.4-21.24,35.38-27.78C205.59,12.47,220.71,9.35,236.44,8c19.22-1.59,38-.44,56,7,7,2.93,13.44,7.29,20.67,11.3,4.68-4.38,11.62-6.17,18.48-5.87a61.93,61.93,0,0,1,20.94,4.28c29.47,12.4,45,35.9,50.47,66.59,4.62,26-.77,50.81-10.45,74.93-1,2.39-1.56,4.92-2.32,7.39a17.28,17.28,0,0,1-2.18,7.83c-4.84,10-10.71,19.38-16.5,28.83-1.09.78-1.81,2.06-3.35,2.62-2.24-1.33-2-3.48-1.79-5.55,1.75-21.74.05-43-8.13-63.52-4.42-11.07-11.65-19.92-21-27.15-10.16-7.84-18.91-17-25.48-28.06a2,2,0,0,0-1.58-1.1c-11.06,14-25.35,24.33-41.79,31.77-9.91,4.81-20.49,7.63-31,10.59-28.91,8.12-47.34,27.22-57.58,55a347.32,347.32,0,0,0-10.43,34.68c-.09.36-.13.73-.23,1.09-1.68,6.29-4.66,7.27-9.43,2.87C151.29,215.87,144.48,207.13,142.36,195.53Z"/><path class="cls-6" d="M268,118.13c11-5.59,21.69-11.8,30.62-20.48,4.27-4.15,8.11-8.74,12.18-13.16,2.64,3.92,5,8.46,8.36,12.18,5.45,6.12,10.9,12.51,17.41,17.36,16.16,12,24.7,28.31,28.76,47.44a155.14,155.14,0,0,1,2.51,46.46c-.11,1.29,0,2.59,0,4.44l2.7-3.17c2.09,1.1,1.81,3.14,1.74,4.93A241.35,241.35,0,0,1,369,244c-.53,3.17-1,6.36-1.83,9.48-.39,1.49-.81,2.88-2.43,3.46a10.91,10.91,0,0,0-1.9,2.85c-.95,3.43-1.66,6.94-2.46,10.41,0,.12,0,.31-.1.36-4.55,2.93-2.26,8.62-5.08,12.49-2,2.68-1.42,7.3-3.52,9.75-3.18,3.72-3,8.52-5.45,12.26-4.1,6.16-8.31,12.25-12.37,18.44a17.26,17.26,0,0,0-1.38,3.79c-3.07,6.9-9.12,11-14.72,15.49-13,10.38-28.05,15.77-44.51,17.36-2.35.22-4.83.47-6.2-2.22-.8-1.91-.55-3.93-.55-5.91q0-73.8,0-147.59c0-2.1-.27-4.26.72-6.24,2.13-2.89,5.12-2.28,7.84-1.58s2.91,3.4,2.91,5.84c0,6.68,1.87,12.5,7.53,16.68a16.35,16.35,0,0,0,9.79,3.16c12.61.09,25.21.16,37.81,0,8.64-.12,14.72-5.33,16.7-13.86,2.45-10.54-1.46-19.91-10-23.81a20.56,20.56,0,0,0-8.73-1.74q-16.47,0-32.95,0c-5.81,0-11,1.48-15.31,5.73-3.54,3.46-11.89,3.57-15.54.59-.89-1.6-.8-3.36-.8-5.09q-.06-30,0-60C266.47,122,266.33,119.8,268,118.13Z"/><path class="cls-7" d="M268,118.13l.09,71.3c-3.26,2.52-11.52,2.53-14.61-.37-5.06-4.75-11-6.41-17.78-6.26-10.72.23-21.44-.05-32.17.1-9.59.13-17.15,6.54-17.78,15.77-.45,6.49-.78,13.27,4.81,18.45A17.75,17.75,0,0,0,203,222.3c12.47,0,24.94.1,37.41,0,9.23-.09,16.23-6.81,17-16.09.1-1.24.07-2.49.09-3.74,0-2.27-.06-4.84,2.54-5.71s5.58-1.49,8,.87q0,80.55,0,161.11c-1.51,2.16-3.81,1.64-5.82,1.49a85.26,85.26,0,0,1-54.11-24.13,17.91,17.91,0,0,1-3.66-5.07c-1.84-2.85-3.49-5.86-5.55-8.55-13.17-17.14-21.44-36.55-26.87-57.31-.43-1.62-1.05-3.18-1.67-5.06-1,.45-1.55.67-2.07.93-5.37,2.72-9.88,1.64-13.28-3.3-4.19-6.09-6-13.12-7.08-20.24-2.11-13.95-3.79-28-5.65-41.95,4.52,9.18,8.92,18.45,16.7,25.47,2,1.78,4.24,3.24,6.91,5.26,2-7.59,3.68-14.33,5.54-21,3.83-13.86,8.5-27.39,15.9-39.83,11-18.51,27.35-30,47.6-36.45C246,125.43,257,121.74,268,118.13Z"/><path class="cls-8" d="M331.7,343c.11,8.57.71,17.12-3.41,25.21a40.47,40.47,0,0,1-11.37,14c-8.62,6.69-17.11,13.56-25.6,20.42-14.05,11.36-32.9,11.15-47.4-.44-9.41-7.51-19-14.86-28-22.83-7.49-6.63-10.87-15.59-11.48-25.52-.16-2.61,0-5.24,0-7.85,2.28-.79,3.43,1,4.76,2.18,10,9.06,20.82,16.69,33.92,20.53,22.12,6.5,43.4,4.63,63.47-7a90.41,90.41,0,0,0,21.52-17.21C329.1,343.49,330.08,342.42,331.7,343Z"/><path class="cls-9" d="M331.7,343c-7.05,6-13.74,12.58-21.25,18-11.93,8.58-25.61,12.22-40.33,12.79-16.6.65-31.93-3.17-45.77-12.05-7.06-4.54-13.25-10.45-19.84-15.73q0-7.51,0-15c5.59,4.52,11,9.33,16.83,13.49a74.78,74.78,0,0,0,36,13.47c3.58.38,7.19.51,10.78.75,18.89-.52,35.78-6.56,50.36-18.61,4.87-4,9.33-8.54,14-12.83Q332.07,335.16,331.7,343Z"/><path class="cls-8" d="M364.71,256.93c1.75-11.72,3.62-23.42,5.21-35.17.56-4.14.44-8.37.63-12.56l19.64-35.5c3.43,7.62,3.53,15.78,2.82,23.78a316.77,316.77,0,0,1-4.47,32.78,163.29,163.29,0,0,1-7.27,25.32c-2.12,5.7-5.94,7.37-10.27,6.78A6.82,6.82,0,0,1,364.71,256.93Z"/><path class="cls-10" d="M268.1,197.61h-9c0,2.32,0,4.64,0,7-.2,11.29-8.19,19.3-19.41,19.35q-18.15.07-36.29,0c-11.55-.05-19.18-8-19.38-19.62-.1-6,.31-11.72,4.63-16.42a18.69,18.69,0,0,1,14.25-6.31q18.52,0,37,0c5.24,0,9.94,1.6,13.44,5.46a7.27,7.27,0,0,0,6.49,2.58c2.73-.18,5.47-.14,8.21-.19,3.24,0,6.49.26,9.72.08a5.59,5.59,0,0,0,3.44-1.61,19.91,19.91,0,0,1,15.41-6.34c11.1.1,22.23.46,33.3-.08,13.41-.67,23.67,8.25,21.75,24.88-1.24,10.8-8.78,17.54-19.64,17.57q-18,0-35.93,0c-11.54-.05-19.41-8-19.46-19.59,0-2.11,0-4.22,0-6.73Z"/><path class="cls-11" d="M221.71,189.37c6.11,0,12.21-.05,18.32,0,5.93.06,10.21,3.6,11.16,9.47,2,12.1-4,17.89-14.16,17.54-10.71-.36-21.43-.06-32.15-.08-8.82,0-12.75-4.34-13.26-13-.51-8.94,4.77-14.73,14-14C211,189.71,216.35,189.37,221.71,189.37Z"/><path class="cls-12" d="M314.54,189.37c6,0,12,0,17.94,0,6.51.05,10.79,3.92,11.46,10.36A31.39,31.39,0,0,1,344,205c-.48,7-4.87,11.25-11.87,11.32q-17.94.16-35.88,0c-7.31-.07-11.76-4.72-11.81-12,0-1.37,0-2.74,0-4.11.17-6.1,4.53-10.64,10.62-10.77C301.58,189.26,308.06,189.37,314.54,189.37Z"/></g></g></svg>