<svg xmlns="http://www.w3.org/2000/svg" viewBox="0 0 518.23 519"><defs><style>.cls-1{fill:#c2c2c2;}.cls-2{fill:#fefefe;}.cls-3{fill:#7e3728;}.cls-4{fill:#fdd8ac;}.cls-5{fill:#393939;}.cls-6{fill:#fcd5ad;}.cls-7{fill:#f3cca4;}.cls-8{fill:#3a3939;}.cls-9{fill:#fdd6ad;}.cls-10{fill:#3d3938;}.cls-11{fill:#c65123;}</style></defs><g id="Layer_2" data-name="Layer 2"><g id="Layer_1-2" data-name="Layer 1"><g id="Layer_2-2" data-name="Layer 2"><g id="Layer_1-2-2" data-name="Layer 1-2"><path class="cls-1" d="M0,518.25V0H517.49c.71,1.29.36,2.7.36,4V513.87a14.37,14.37,0,0,1-.39,4.71H456.08c-2.56.19-3-1.83-3.51-3.58-.92-3.35-1.92-6.7-2.51-10.12a42.26,42.26,0,0,0-19.16-29.34,168.35,168.35,0,0,1-16.85-12.89,20,20,0,0,1-3.15-3.16,3.78,3.78,0,0,1-.56-1,6.71,6.71,0,0,1-.27-1.07A28.72,28.72,0,0,0,399.91,444c-7.47-5.56-15.24-10.7-22.83-16.09-3.3-2.35-7.37-3-10.71-5.15-3.71-3-7.09-6.31-10.78-9.3a4.43,4.43,0,0,1-1.21-1.41c-9.61-18.17-23.16-32.86-39.65-45-.1-.07-.14-.2-.22-.31a10.38,10.38,0,0,1-.48-2.33c2-5,2-10.22,2.27-15.42-.36-3.76,1.5-7.07,3.55-9.6a124.41,124.41,0,0,0,11.39-16.75c-1.41-1-3.06-2.23-2.49-4.53s2.44-2.63,4.34-2.93c2.43-.37,3.12-2.49,3.71-4.27,1.62-4.82,4-9.33,5.5-14.22.5-1.68.68-3-.42-4.52a3.33,3.33,0,0,1,1.06-5.17c2.7-1.71,3.69-4.18,4.18-7.13.37-2.28,1.15-4.27,4.18-3,5.61,6.31,10.13,5.74,14.37-1.83a33.35,33.35,0,0,0,2.15-4.76c3.55-9.39,4.76-19.3,6.51-29.08a244.26,244.26,0,0,0,2.85-24.43A57.24,57.24,0,0,0,376,198.69c-.63-4.2.95-8.11,1.79-12.09,2.11-9.75,3.55-19.6,3.21-29.6-.39-12.11-2.32-24.07-7.83-35-2.34-4.64-1.94-8.17,1.52-11.75,6.66-6.9,11.26-15.13,15.27-23.73,1.74-3.72,2.26-7.92,4.63-11.36.28-.41.52-.85.85-1,.09.24-.53.35-.69.71-3.78,6.08-9.43,10.22-15,14.48-9.29,7.16-19.44,12.58-31,15.14-1.34.3-2.7.51-4.05.69-1.68.22-3.46.06-4.07-1.81s.85-2.77,2.15-3.53c3-1.75,6.05-3.49,9-5.32C373.38,81.29,388.05,62.46,397,39a111.53,111.53,0,0,0,5-16.1c-7.35,8.08-14.62,15.42-23,21.57-11.79,8.69-24.52,15.35-39.26,17.33A56.45,56.45,0,0,1,320,61.16a6.21,6.21,0,0,1-3-1.46c-1.6-1.52-1.72-3,.3-4.25a5.23,5.23,0,0,1,1.36-.62c18-5.09,31.92-16.5,44.85-29.37,1.24-1.23,2.45-2.49,4.15-4a144,144,0,0,1-42,11.25,197,197,0,0,1-37.69.51c-8.45-.64-16.86-1.61-25.29-2.32-9.05-.77-18.09-1.7-27.21-1.66-24.81.1-46.56,8-65.53,24.14-14.17,12-21.11,27.1-20.85,45.55a19,19,0,0,1-3.46,11.51c-9.22,13.69-13.55,29-13.85,45.46a129.49,129.49,0,0,0,2.53,29,9.09,9.09,0,0,1,0,4.8c-3.14,5-4.32,10.61-4.61,16.34a120.22,120.22,0,0,0,.75,22.36c1.68,12.44,3.51,24.86,6.65,37a40.52,40.52,0,0,0,4.35,10.7c2.79,4.69,5.73,5.78,10.94,4.14,3.66-1.15,5.18-.46,6.39,3.43,3.06,9.86,5.95,19.77,10.19,29.23a133.43,133.43,0,0,0,19.16,31.46c1.91,2.28,4,4.6,3.29,8,.51,4.14,1.88,8.23.71,12.47-3.93,4.79-8.3,9.19-12.55,13.7-6.55,7-12.61,14.41-19.46,21.09-3.4,3.31-3.79,7.28-3.6,11.58-2,4.22-6.07,6.47-9.33,9.43-5.12,4.64-10,9.61-16,13.15a2,2,0,0,1-1.06.32c-7.23-.91-12.5,2.89-17.79,7C105,446.92,97.4,452.35,90,458.05c-2.66,2.05-4.77,4.27-5.63,7.59-.74,2.9-2.73,5.3-3.46,8.22-1.45,2.62-4,4.09-6.23,5.84-6.56,5.15-10.45,11.89-12.57,19.82-1.36,5.05-2.24,10.22-3.69,15.25-.51,1.79-1,3.72-3.41,3.85H4C2.68,518.6,1.28,519,0,518.25Z"/><path class="cls-2" d="M0,518.25l56.26-.07c1.13-1.44,2.75-1.54,4.39-1.55q37.86-.12,75.7,0c2.72,0,5.42.57,8.1-.29,5.22.39,10.45.2,15.68.18,25.52,0,51.05.19,76.58-.13a14.44,14.44,0,0,0,7,.39,19.71,19.71,0,0,1,4.47-.24h199.3c2.41,0,5.07-.65,7,1.58,19.84,0,39.67,0,59.5.11,2.91,0,3.8-1.06,3.5-3.74a31.38,31.38,0,0,1,0-3.36V0c.25.12.71.24.72.38.06,1,0,2,0,3V519H3.33A15.89,15.89,0,0,1,0,518.25Z"/><path class="cls-3" d="M236.61,518.13H144.44c-9.56-1.41-16.62-7.47-23.83-13.1-10.32-8.06-18.28-18.18-25-29.38-3.69-6.18-5.61-6.6-12-2.94-1.16.66-2.33,1.57-3.78.63,1.53-4.06,3-8.15,4.62-12.17a6.57,6.57,0,0,1,2-2.44c9.86-7.55,19.82-15,29.59-22.6,4.52-3.54,9.54-3.73,14.81-3.31a6.39,6.39,0,0,1,5.36.8c15.26,8.27,31.79,12.22,48.86,14.24a247.19,247.19,0,0,0,32.4,2.18,47.17,47.17,0,0,1,5.55.65c-6-.7-11.56-3-17-5.45a220.41,220.41,0,0,1-47.74-29.88c-1.38-1.12-2.69-2.28-2.65-4.27-1.87-4.86-.39-8.73,3.09-12.4,9.62-10.19,19-20.56,28.59-30.82a24.77,24.77,0,0,1,3.44-2.59,2.33,2.33,0,0,1,2,2c3.46,9.48,6.93,18.87,14,26.5,8,8.54,17.71,13.6,29,16,14.26,3,28.38,2.74,42.32-2,15.62-5.35,25.94-16.17,32.52-31a63.37,63.37,0,0,0,2.5-6.65c.42-1.26.77-2.69,2.37-3.1a89.82,89.82,0,0,1,8,4.92c11.52,8.75,19.68,20.55,28.32,31.88,2,2.59,3,5.91,4.48,8.9.09.08.24.16.25.26.6,6.42,5.51,7.59,10.51,8.67,13,4.69,23.09,13.86,34.15,21.53a24.08,24.08,0,0,1,10.05,14.3c-2.12,1.69-3.44-.11-4.83-1.19-6.14-4.73-12.45-9.15-19.83-11.8a26.16,26.16,0,0,0-22,1.35c-12.67,6.55-24.29,14.72-36.05,22.69-21.06,14.28-42.4,28.1-65.16,39.58-5.56,2.8-11.37,5.11-17,7.68C243.25,517.2,239.82,517.15,236.61,518.13Z"/><path class="cls-4" d="M133.14,189.51c3.87,11.43,7.81,22.84,11.56,34.31,1.1,3.34,3.08,4.46,6.42,4a42.52,42.52,0,0,1,5.53,0c-.22-38.34-1.85-76.65,12.35-113.21,5,5.77,9.12,11.45,14.16,16.14,14.11,13.12,31.49,19.34,50.24,22,6.78.95,13.66,1.14,20.49,1.68a4.34,4.34,0,0,1,1.58,3.63c.07,1.87.07,3.74.07,5.61V369.92c0,2.72.37,5.49-.54,8.15-1,2.47-3.22,2.47-5.35,2.45-10-.08-19.46-2.46-28.66-6.17-10.54-4.29-19.55-10.88-28-18.35-1.25-1.12-1.68-2.76-2.74-4-1.08-2.16-1.78-4.64-3.3-6.43-10.37-12.21-17.69-26.13-23.14-41.08-2.51-6.88-4.43-14-6.66-21a25.73,25.73,0,0,0-1.3-2.94c-9.25,4-13.41,3-17-6.17A144.29,144.29,0,0,1,132,249.3c-2.78-14.27-4.75-28.71-3.95-43.33C128.44,200.15,129.25,194.32,133.14,189.51Z"/><path class="cls-4" d="M253.89,378.94V154.4c17.85-.12,35.59-1.37,53.09-5.21a153.25,153.25,0,0,0,43-16.08c1.21,7.21,2.57,14,3.47,20.79,3,23.06,3,46.24,2.38,69.43a27.77,27.77,0,0,0,.66,4.63c2.73,2.4,1.69,5.61,1.51,8.43a251.36,251.36,0,0,1-4.55,35.1c-.43,2.08-.34,4.62-2.94,5.66a9.89,9.89,0,0,0-1.74,2.51c-.64,2.09-.87,4.31-1.57,6.37-.2.6-2.8,9.67-4.37,13.06-2.23,4.76-5.63,14.71-5.63,14.71s-3.49,7.67-3.62,7.89c-2.05,3.36-6.2,10-6.2,10s-8.83,9.65-9.86,16.48c-3.07,6.76-8.92,11-14.48,15.29-12.6,9.81-27.07,15.17-42.91,16.82C258,380.59,255.54,381.19,253.89,378.94Z"/><rect class="cls-4" x="245.36" y="152.17" width="14.77" height="227.49"/><path class="cls-5" d="M236.61,518.13c6.17-2.66,12.58-4.87,18.46-8.05,16.54-8.94,33.15-17.79,49.18-27.59,17.63-10.78,34.54-22.74,52-33.84,5.82-3.7,11.84-7.39,19.22-7.62,8-.25,14.92,2.67,21.45,6.68,4.13,2.52,7.86,5.68,11.8,8.51a17.81,17.81,0,0,0,2.6,1.26h-.11a8.64,8.64,0,0,0,.64.94c7.86,6.22,15.64,12.55,23.61,18.61,6,4.54,11,9.92,13.14,17.1,2.41,7.89,4,16,5.92,24.07H238.86A18.79,18.79,0,0,1,236.61,518.13Z"/><path class="cls-5" d="M79.9,473.33c1.06-.65,2.15-1.25,3.15-2,6-4.39,9.87-3.6,13.61,2.91a103.53,103.53,0,0,0,38.89,39.2c2.9,1.66,5.93,3.11,8.89,4.65l-88.18.06c1.81-7.59,3.35-15.27,5.53-22.77s7.24-13.5,13.49-18.32C76.85,475.88,78.36,474.59,79.9,473.33Z"/><path class="cls-6" d="M315.54,367a57.91,57.91,0,0,1-53,45.7c-10.78.79-21.44.48-31.83-2.6-21.37-6.35-33.64-21.16-38.84-42.39,2-1.28,3.27.26,4.52,1.36,6.39,5.56,12.86,11,20.51,14.83a78.75,78.75,0,0,0,29.88,8.57c18.88,1.47,35.59-4.05,50.81-14.79a92.58,92.58,0,0,0,12.87-10.76c1.26-1.27,2.47-3,4.74-2.19C315.33,365.51,315.44,366.26,315.54,367Z"/><path class="cls-7" d="M315.23,364.75c-6.27,5.26-12.2,11-18.88,15.68a74.6,74.6,0,0,1-38.88,13.64c-21.93,1.36-40.71-5.59-57.2-19.65-2.72-2.31-5.58-4.46-8.37-6.69l-1.05-2.46q-.27-6.64-.55-13.3c4.06,3.25,8.06,6.57,12.19,9.71,15.18,11.54,32.2,17.66,51.4,17.26A78.27,78.27,0,0,0,304,360.59c4.7-3.86,9-8.21,13.47-12.33C317.47,353.86,318.46,359.59,315.23,364.75Z"/><path class="cls-8" d="M155.73,411.08c17,14.05,35.11,26.2,55.61,34.54,5,2,10.22,3.53,15.27,5.94-4.53,0-9.08.3-13.58-.05-12.38-1-24.78-1.82-37.08-3.41-16-2.07-30.91-7.5-45-15.29Z"/><path class="cls-9" d="M350.47,277.15c3.53-16.21,5.95-32.55,6-49.19a6.47,6.47,0,0,1,1.86-.15c6.44,1.41,9.34-2,11.17-7.62,2.39-7.33,5.25-14.51,7.9-21.75a60.22,60.22,0,0,1,.93,21.82c-2.22,13.84-3.67,27.81-6.31,41.56-1.15,6-4.06,11.72-6.94,17.16a7.85,7.85,0,0,1-10.6,3.31,8.69,8.69,0,0,1-.77-.46C352.23,280.86,351.52,278.74,350.47,277.15Z"/><path class="cls-10" d="M367.11,421.65H366c-9.15,0-9.15,0-9.64-8.94Z"/><path class="cls-11" d="M395,73.59l1-.48c-.13.4-.26.79-.4,1.19Z"/><path class="cls-3" d="M411.84,458.42c-.22-.31-.43-.63-.64-.94C411.41,457.79,411.62,458.11,411.84,458.42Z"/><path class="cls-11" d="M395.6,74.3c-2.23,11.59-7.73,21.7-14.6,31.07a52.56,52.56,0,0,1-6.66,8c-2.2,2-1.64,3.56-.57,5.77A86.43,86.43,0,0,1,382,167.62c-1.05,9.21-3,18.31-4.48,27.47-.18,1.1-.15,2.24-.22,3.35-.23,10.11-4.86,18.79-9,27.61-1.63,3.43-5,3.24-8.1,3.2a10,10,0,0,1-4.33-.89c-2.06-1.48-1.77-3.72-1.79-5.81-.05-11.6.06-23.2,0-34.8A254.63,254.63,0,0,0,349.64,141c-.95-4.79-1.39-5.06-5.8-2.81-16.63,8.49-34.4,13.06-52.81,15.51-12.24,1.63-24.49,2.82-36.86,2-33.42.11-63-8.64-84.2-37.09-3,4.42-3.95,9.2-5.07,13.85a244.88,244.88,0,0,0-5.43,35c-1.57,17.3-1.3,34.61-1.34,51.93,0,1.75.17,3.48.31,5.22.22,2.68-1.13,4.19-3.82,4.58-7,1.05-9.16,0-12.09-6.3a163.3,163.3,0,0,1-9.3-26,12.41,12.41,0,0,1-.09-7.34c-.79-5.77-1.74-11.52-2.35-17.31-1.82-17.18-.73-34.06,6.53-50,2.34-5.15,5.76-9.8,8.4-14.84a14,14,0,0,0,1.53-6.28c-.07-13.62,2.5-26.48,10.82-37.61,7.17-9.59,16.6-16.64,26.82-22.72a89.29,89.29,0,0,1,47.9-12.9c13.64.22,27.3,1.36,40.88,2.69,28.83,2.84,57.35,3,85-7.33,4.39-1.63,8.71-3.42,13.05-5.14l.77.86C367.11,24.2,362,29.74,356.27,34.59a135.62,135.62,0,0,1-18.52,13.72c-6.54,3.87-13.82,6.51-21,9.78,3,2.32,7.16,2.29,11,2.52,17,1,31.84-5.08,45.71-14.29,11.58-7.69,21.14-17.56,30.35-27.9,1,7.62-9.14,34.77-20.74,49.89a116.34,116.34,0,0,1-42.37,34.45l.26,1a20.08,20.08,0,0,0,3.29,0c14.55-2.25,26.89-9.17,38.05-18.4,4.4-3.65,8.42-7.75,12.61-11.65C395.61,73.43,395.83,73.67,395.6,74.3Z"/></g></g></g></g></svg>