<svg xmlns="http://www.w3.org/2000/svg" viewBox="0 0 518.25 519"><defs><style>.cls-1{fill:#c2c2c2;}.cls-2{fill:#fefefe;}.cls-3{fill:#3f270f;}.cls-4{fill:#6f5f4f;}.cls-5{fill:#736453;}.cls-6{fill:#9dca9c;}.cls-7{fill:#69491b;}.cls-8{fill:#6b481a;}.cls-9{fill:#684618;}.cls-10{fill:#7d5320;}.cls-11{fill:#261404;}.cls-12{fill:#43280d;}</style></defs><g id="Layer_2" data-name="Layer 2"><g id="Layer_1-2" data-name="Layer 1"><path class="cls-1" d="M.75,0h517.5V518.24a4,4,0,0,1-2.53.37c-19.73,0-39.46.06-59.18,0-1.75-.67-1.41-2.27-1.63-3.61a5.37,5.37,0,0,1,.13-2.67,35,35,0,0,0,2.08-12.2,8.64,8.64,0,0,1,.25-4.54c2.05-3.75,1.59-8,1.85-12,.52-8.12,2.6-16.13,1.75-24.34a5.79,5.79,0,0,1,.18-2,186.55,186.55,0,0,0,2-36.27,18.06,18.06,0,0,1,.18-7.71c.77-1.77.61-3.66.68-5.53.3-8.7.34-17.43.43-26.11.1-9.54-.22-19.16-.53-28.73a6.55,6.55,0,0,0-.55-2.17,15,15,0,0,1-.22-7c.15-9.81.48-19.61-1.23-29.36a52,52,0,0,1-.74-9.63c.17-10.11-2.26-20-2.47-30a22.08,22.08,0,0,0-1.22-5.43,6.94,6.94,0,0,1-.33-3.93c.48-4.23-.8-8.17-2-12.12a7.86,7.86,0,0,1-.21-3.7c.36-3.7-.64-7.15-2-10.53a6,6,0,0,1-.17-2.45,27.38,27.38,0,0,0-.71-6.61c-2-9.39-4.09-18.77-6-28.19a11.57,11.57,0,0,0-1.14-3.48,3.67,3.67,0,0,1-.39-1.72c.15-2.53-.91-4.72-2-6.9a4.49,4.49,0,0,1-.27-1.66c-.31-3.86-1.85-7.43-2.91-11.07A316.6,316.6,0,0,0,427,142.38a200,200,0,0,0-15.49-30,235.28,235.28,0,0,0-24.7-32.14,37.2,37.2,0,0,0-7.95-6.75,3.12,3.12,0,0,1-.81-.81c-2.5-3.91-6.62-6-10.13-8.67a105.51,105.51,0,0,0-39.26-18.88c-7.19-1.75-14.44-3.74-22-2.68a12.07,12.07,0,0,1-4.9,0c-8.25-.73-16.16,1.13-24,3.24a3.62,3.62,0,0,1-1.79.44c-2.21.83-4.42,0-6.63,0a3.48,3.48,0,0,1-1.84-.41,67.59,67.59,0,0,0-15.93-3.24c-5.34-.32-10.72,0-16.07-.1a39.57,39.57,0,0,0-13.2,1.95,3.76,3.76,0,0,1-1.78.32c-7.62,1.27-15,3.33-21.57,7.49a3.49,3.49,0,0,1-1,.55c-4.8.82-8.65,3.66-12.58,6.19a138.51,138.51,0,0,0-27.77,23A210.41,210.41,0,0,0,129.75,120a231.1,231.1,0,0,0-14.33,30.54c-3.6,9.33-7.12,18.76-9.44,28.55-1.14,4.8-3.42,9.3-3.79,14.3a3.94,3.94,0,0,1-.29,1.7,73.75,73.75,0,0,0-4.19,16.79,5.76,5.76,0,0,1-.17,1.76,25.15,25.15,0,0,0-2.07,9.63,4.5,4.5,0,0,1-.25,1.79c-1.66,6.48-3.25,13-3.49,19.71a6.31,6.31,0,0,1-.15,1.84c-1,4.13-2.5,8.19-2.06,12.57a6.39,6.39,0,0,1-.16,3.13,51,51,0,0,0-2.1,15.58,5,5,0,0,1-.21,2.64,69.87,69.87,0,0,0-2,16.16c.12,8.07-1.67,16-2.13,24a113,113,0,0,0,0,11.93,32.83,32.83,0,0,1-.19,10.56,63.65,63.65,0,0,0-1.36,13.24c-.18,16.27-.25,32.55,0,48.82a77.08,77.08,0,0,0,1.29,14.74,24.28,24.28,0,0,1,.24,9.11,123,123,0,0,0,2,29.79,8.54,8.54,0,0,1,.24,4.7,66.27,66.27,0,0,0,2,20,6.12,6.12,0,0,1,.21,3.23c-.59,5.6.78,10.95,2.06,16.32a6.15,6.15,0,0,1,.15,2.63,27.37,27.37,0,0,0,1,9.09c.41,1.48.66,2.94-1.14,3.76q-44.31.06-88.42,0c-.88-1.69-.56-3.08-.56-4.42Q.38,259.11.39,4C.39,2.7.05,1.29.75,0Z"/><path class="cls-2" d="M456,518.11l62.29.13c-.12.25-.24.71-.38.72-1,.06-2,0-3,0H0Q0,261.19,0,3.37A16.23,16.23,0,0,1,.75,0V511.32a22.93,22.93,0,0,1,0,3c-.43,3.11.83,4,3.94,4,24.83-.12,49.66-.06,74.49-.07,3.62,0,7.23-.09,10.85-.14a3.56,3.56,0,0,1,1.83-1c3.69-.8,7.4-.4,11.11-.18,12.89-.46,25.78-.39,38.67-.05a46,46,0,0,1,6-.23H399a41.05,41.05,0,0,1,6,.22c8.16-.54,16.32.12,24.48,0,1.6.13,3.21-.43,4.81,0,1.77.13,3.55-.45,5.32,0,1.32-.21,2.64.16,4,0a38.63,38.63,0,0,1,10,.06A3.92,3.92,0,0,1,456,518.11Z"/><path class="cls-3" d="M453.81,518.16l-10.42,0c-4.17-2.93-7.36-7-11.66-9.83-6-4-12.14-7.29-19.07-9.15a4.81,4.81,0,0,1-1.54-.36c-1.33-.69-2.3-2.16-4.08-1.9a3.08,3.08,0,0,1-2-.74,2.7,2.7,0,0,1-.67-1.4c0-1.42-.71-1.91-2-1.66a5.18,5.18,0,0,1-2.57-.51,7.75,7.75,0,0,0-8.26-1.83,4.75,4.75,0,0,1-2.71-.29c-1.28-1.21-2.66-2.18-4.58-1.78a9.27,9.27,0,0,1-2.52-.1,13.2,13.2,0,0,0-2.44-.25,3.7,3.7,0,0,1-1.44-.4c-1.76-1.81-3.81-1.73-6-.91a5.21,5.21,0,0,1-2.68-.29c-2.93-1.26-5.71-3.24-9.18-1.9a6.12,6.12,0,0,1-3.39-.28c-2.49-2.23-6.1-1.54-8.75-3.35a13,13,0,0,1-1.32-1.14,2.65,2.65,0,0,1-.83-2.16,66.55,66.55,0,0,0,5.14-15.46c1.5-6.76,3.66-13.38,5.16-20.15,2.34-10.54,5.55-20.86,7.62-31.48,1.31-6.68,3.21-13.27,4.69-19.94,1.93-8.73,4.06-17.41,5.69-26.21,1.17-6.34,2.72-12.62,4.16-18.69-.78-1.4-2-.61-2.84-1.16a1.82,1.82,0,0,1-.66-1,5.65,5.65,0,0,1,1.46-4.51c4.81-5.69,5.33-12.83,6.41-19.63,1.38-8.6,2.8-17.22,3.53-25.91,1.25-14.77,3.67-29.5,2.64-44.38-.62-9-1.79-17.86-5.43-26.25-3-7-8.27-10.52-15.74-10.47a87.23,87.23,0,0,1-32.17-6.05c-15.51-6-27.87-16.29-38-29.43-7.22-9.38-12.42-19.83-16.9-30.71-2.64-6.43-5.32-12.84-7.55-19.58-2.36,6.24-4.76,12.33-7.13,18.43-7.4,19-17.87,35.88-33.93,48.93-11.34,9.22-24.41,14.53-38.54,17.26a67.51,67.51,0,0,1-14.52,1.08c-8.34-.21-13.5,4-16.66,11.39-3.65,8.54-4.72,17.55-4.89,26.66a315.1,315.1,0,0,0,4,55.12c1.19,7.51,2,15.08,3.48,22.55a21.87,21.87,0,0,0,3.48,9,4.36,4.36,0,0,1,.77,4.25c-2.56,3.53-.94,7.38-.13,10.74,2.08,8.59,3.25,17.37,5.55,25.89,3.06,11.29,5.24,22.79,8,34.14,2.32,9.41,4.67,18.83,6.89,28.27,2.09,9,5.07,17.7,6.61,26.8a13.07,13.07,0,0,0,3,6.76c2.2-.13,3.43-1.62,4.58-3,3.59-4.33,6.92-8.82,8.26-14.47.44-1.87.76-4.09,3.57-4,1.5,1,1.15,2.37.84,3.68a35.18,35.18,0,0,1-8.94,17c-2.78,2.85-5.62,5.65-8.48,8.43a3.32,3.32,0,0,1-1.59.51c-2.85-.14-5.6.12-7.88,2.13a5.06,5.06,0,0,1-2.75.27c-3.49-1.22-6.43.06-9.22,2a7,7,0,0,1-4,.32c-2.79-1.42-5,.16-7.34,1.36-3.32.47-6.5,1.66-9.87,1.87-4.76-1-8.9,1.59-13.36,2.34a1.44,1.44,0,0,0-1.16.87c-1,3.46-4.1,4.24-6.88,5A70.25,70.25,0,0,0,105.18,516c-.81.78-1.82,1.31-2.61,2.11l-11.17,0a27.63,27.63,0,0,1-1.87-8.88,7.7,7.7,0,0,0-.88-3.89l-.17-2.14a124.91,124.91,0,0,0-2.11-16.57l-.13-2.9c-.5-6.8-.9-13.6-2-20.33L84,459.06C83.37,449,83,439,82,429l-.15-8.89c-.62-11.41-.65-22.83-.58-34.25.08-14.28-.33-28.56.58-42.82.06-3.46.11-6.92.17-10.37.84-7.88,1.41-15.77,1.77-23.68.44-9.66,1.93-19.22,2.5-28.87l.09-2.16c1.4-5.18,1.69-10.51,2.11-15.82.07-1,.13-1.92.19-2.88a62.76,62.76,0,0,0,2-12.85l.15-1.41c1.78-3,.83-6.54,1.79-9.78a48.74,48.74,0,0,0,1.95-10.51l.15-1.38a57.42,57.42,0,0,0,2.11-9.85l.11-1.39c1.68-5.72,3.11-11.5,4.25-17.35l.17-1.4c3.55-10.7,6.32-21.63,10-32.29a292.18,292.18,0,0,1,13.9-33.29,200.16,200.16,0,0,1,18.95-30.22,161.12,161.12,0,0,1,27-28.78c7.72-6.33,15.85-12.39,25.3-16.21a3,3,0,0,0,1.13-.95,1.3,1.3,0,0,1,.51-.29,204.32,204.32,0,0,1,22.16-7.55l1.37-.22A126.1,126.1,0,0,1,239.78,42a104.35,104.35,0,0,1,28.31,3.2l1.35.2c2.1.83,4.2,2.11,6.35.09l1.35-.24c7.38-1.37,14.69-3.26,22.27-3.26a4.85,4.85,0,0,0,2.51-.51h5c4.49,1.72,9.28.94,13.93,1.78A110.4,110.4,0,0,1,357.2,56.58c7.83,4.56,14.86,10.23,21.9,15.88l0,0c4.87,5,9.95,9.69,14.37,15.06a217.67,217.67,0,0,1,27.32,41.14c6.57,13.15,11.59,26.86,16.47,40.63,2.18,6.16,3.45,12.65,5.72,18.81l.18,1.37a31.05,31.05,0,0,0,2.05,6.87c0,.46.08.92.13,1.38,2.54,12.17,5.49,24.26,7.43,36.56a7,7,0,0,0,.83,2.45c0,.72.07,1.44.11,2.16.43,3.58.71,7.19,2,10.61l.21,3.61a63.9,63.9,0,0,0,1.9,12.15l.25,3.6c.48,10.78,2.27,21.44,3.08,32.22q1.53,20.47,2.4,41a4,4,0,0,0,.53,1.77c.06,2.22.11,4.44.17,6.65q.18,31.45,0,62.9l-.17,7.39a15.34,15.34,0,0,0-.83,6.61c.47,10.11-1.19,20.11-1.28,30.19,0,.47-.07.94-.11,1.41-1.42,4.08-.66,8.35-1.11,12.52-.86,8.08-2.07,16.13-2.63,24.25-.08,1.44-.17,2.89-.26,4.33-1.43,3.93-1.51,8.07-1.93,12.15,0,.73-.09,1.47-.13,2.2A4.39,4.39,0,0,1,453.81,518.16Z"/><path class="cls-4" d="M197.65,51.59c-2.09,1.54-4,3.39-6.29,4.57-16,8.37-28.93,20.57-40.36,34.19-9.42,11.23-18.11,23.17-24.14,36.72-4.31,9.68-8.67,19.35-12.61,29.19-3.07,7.65-5.62,15.52-8.23,23.36-1,2.9-1.31,6-2.22,8.93a31.21,31.21,0,0,1-2.44,4.78c.79-3.6,1.32-7.28,2.43-10.79,3.31-10.51,6.45-21.1,10.38-31.39,6.11-16,13.53-31.48,23.34-45.61,9.38-13.51,19.56-26.49,32.67-36.62,8-6.19,16.82-11.35,25.3-16.92A6.16,6.16,0,0,1,197.65,51.59Z"/><path class="cls-5" d="M443,188.13c-1.43-3.44-3-6.83-4.25-10.34-2.21-6.27-4-12.7-6.33-18.91-3.41-9-6.86-18-10.87-26.78-9-19.62-21.63-36.78-36.34-52.48-2.14-2.28-4.07-4.75-6.09-7.13,6.48,6.64,13.48,12.85,19.33,20,9.75,11.9,18.32,24.72,24.46,38.9C428,143.06,432.54,155,437,166.85c2.22,5.89,3.84,12,5.66,18A16.48,16.48,0,0,1,443,188.13Z"/><path class="cls-4" d="M81.84,343a18.92,18.92,0,0,1,.53,3.23q0,35.3,0,70.61a19.93,19.93,0,0,1-.52,3.23c-.45-4.52-1.29-9-1.28-13.55.06-20.24.35-40.48.6-60.72A12.29,12.29,0,0,1,81.84,343Z"/><path class="cls-5" d="M379.1,72.46a13.76,13.76,0,0,1-2.81-1.35C366.15,63,355.58,55.44,343.49,50.5c-9.95-4-20.24-7-31.15-7.29-1.81-.05-3.6-1.17-5.4-1.79,9.89-1,19.21,1.79,28.45,4.57,15.05,4.54,28.09,12.84,40.19,22.7A36,36,0,0,1,379.1,72.46Z"/><path class="cls-5" d="M464.14,343.84c-.63-2.55-1.69-5.08-1.82-7.65-.46-8.94-.4-17.91-.92-26.84s-1.52-17.53-2.26-26.29c-.39-4.72-.67-9.45-1-14.17.79,5,1.83,10,2.32,15,1.27,13,2.47,26,3.36,39.05C464.28,329.87,464.05,336.87,464.14,343.84Z"/><path class="cls-5" d="M464.29,413.39a23.6,23.6,0,0,1-.56-3.6q-.06-27.84,0-55.7a22.48,22.48,0,0,1,.58-3.6,8,8,0,0,1,.59,2.08q0,29.39,0,58.77A7.51,7.51,0,0,1,464.29,413.39Z"/><path class="cls-4" d="M86.28,280.11c-.1,5,0,10.09-.33,15.12-.31,5.56-.93,11.1-1.4,16.65-.54,6.42-1,12.84-1.64,19.26,0,.53-.59,1-.9,1.52.25-7.32.28-14.65.81-22,.69-9.41,1.77-18.79,2.73-28.18A12.89,12.89,0,0,1,86.28,280.11Z"/><path class="cls-5" d="M268.09,45.15a10.7,10.7,0,0,1-3.21.2c-13.1-3.3-26.31-3.14-39.59-1.49a16.42,16.42,0,0,1-3.6-.33c3.23-.73,6.44-1.92,9.71-2.11,11.2-.67,22.41-.58,33.41,2.16A17,17,0,0,1,268.09,45.15Z"/><path class="cls-5" d="M453.63,236.76c-.66-1.12-1.69-2.17-1.92-3.37-1.11-5.79-1.89-11.65-3-17.43-.75-3.84-2-7.57-2.8-11.4a51.38,51.38,0,0,1-.52-6.81c1.23,4.24,2.66,8.43,3.64,12.72,1.67,7.24,3.1,14.55,4.53,21.84A25.35,25.35,0,0,1,453.63,236.76Z"/><path class="cls-5" d="M462,457.58a45.67,45.67,0,0,1-.48-5.81c.4-9.5.9-19,1.45-28.49a7.75,7.75,0,0,1,1.14-2.5c-.35,9.12-.64,18.24-1.08,27.35C462.89,451.29,462.37,454.43,462,457.58Z"/><path class="cls-5" d="M458.16,495.76c.13-4,.14-8.07.39-12.09.37-5.69.78-11.38,1.44-17A58.85,58.85,0,0,1,461.9,459c-.58,8.64-1,17.29-1.79,25.92C459.79,488.55,458.83,492.14,458.16,495.76Z"/><path class="cls-4" d="M82,429a46.29,46.29,0,0,1,1.4,7.09c.35,7.65.45,15.32.64,23a19.92,19.92,0,0,1-.94-3.86C82.67,446.47,82.35,437.73,82,429Z"/><path class="cls-5" d="M301.92,41.43c-1.59.45-3.15,1-4.77,1.32-5.33,1-10.66,1.94-16,2.75a17.53,17.53,0,0,1-4-.3c5.44-1.29,10.84-2.79,16.33-3.77C296.2,40.94,299.1,41.4,301.92,41.43Z"/><path class="cls-4" d="M84.2,463.45c2.94,6.55,3.14,13.37,2,20.33Z"/><path class="cls-5" d="M220.32,43.75a11.67,11.67,0,0,1-2.56,1.78q-8,2.74-16.08,5.27a20.31,20.31,0,0,1-3.52.5c5-2.08,10-4.31,15.08-6.19C215.47,44.29,218,44.18,220.32,43.75Z"/><path class="cls-4" d="M94.57,224.7a32.77,32.77,0,0,1,.23,5.84c-.49,3.76-1.24,7.5-2.09,11.21-.27,1.16-1.24,2.16-1.88,3.24Q92.71,234.85,94.57,224.7Z"/><path class="cls-4" d="M101.19,194.73c.86,3.46-2,15.21-4.25,17.35Q99.07,203.4,101.19,194.73Z"/><path class="cls-4" d="M88.48,262.13c.83,5.48,1.31,10.91-2.11,15.82Q87.44,270,88.48,262.13Z"/><path class="cls-4" d="M86.37,486.68c2.84,5.25,3,10.84,2.11,16.57Q87.43,495,86.37,486.68Z"/><path class="cls-5" d="M456,512.24c-.6-4.25-1.6-8.56,1.93-12.15Q456.94,506.17,456,512.24Z"/><path class="cls-4" d="M88.65,505.39c3.38,2.17,1.37,5.9,2.48,8.75.47,1.19.2,2.67.27,4L90,518.1Q89.34,511.76,88.65,505.39Z"/><path class="cls-5" d="M457.88,265.29c-2.86-3.7-2.81-7.86-1.9-12.15Q456.93,259.22,457.88,265.29Z"/><path class="cls-4" d="M90.68,246.4c.69,4.49,1.09,8.95-2,12.85Z"/><path class="cls-5" d="M455.77,249.53c-3.21-3.05-2.85-6.79-2-10.61Q454.76,244.21,455.77,249.53Z"/><path class="cls-4" d="M96.83,213.47a9.65,9.65,0,0,1-2.11,9.85C95.42,220,96.13,216.75,96.83,213.47Z"/><path class="cls-5" d="M445.24,196.37a5.58,5.58,0,0,1-2.05-6.87Z"/><path class="cls-5" d="M275.79,45.44c-2.69,3-3.35,3-6.35-.09Z"/><path class="cls-5" d="M453.81,518.16l2-3.72.12,3.67Z"/><path class="cls-6" d="M405.27,494.21c.1.49.19,1,.29,1.47,1.49,2.36,1.1,5,1.14,7.59.05,3.58-.05,7.17,0,10.75a5.12,5.12,0,0,1-1.36,4.08c-2.37,0-4.74.13-7.11.13H147.36c-2,0-4-.1-6-.15a3.37,3.37,0,0,1-1.15-2.29c-.08-6.7-.7-13.4.38-20.1.41-2.55,1.61-3.56,4-4.06,3.74-.79,7.45-1.79,11.23-2.47l10.46-1.7a31.67,31.67,0,0,1,6.59-1.59l4.59-.47a37.53,37.53,0,0,1,8.91-1.76l3.05-.28c2.51-.56,4.94-1.47,7.49-1.9l1.46-.24c5.16-2.52,10.83-2.63,16.35-3.4,11.82-1.62,23.77-1.9,35.59-3.5,3.84-.52,7.71-.19,11.56-.28a434.38,434.38,0,0,1,64.38,3.52c6.41.8,12.78,1.94,19.18,2.78,3.7.49,7.31,2.23,11.07,3.06l3.76.38c3.1,0,5.9,1.5,9,1.7l3.09.37a15.07,15.07,0,0,1,5.85,1.43l1.59.18,1.41.18,2.67.18a21.79,21.79,0,0,1,4.86,1.53l3.06.3a21.94,21.94,0,0,1,8.17,1.87l3.09.4A2.39,2.39,0,0,1,405.27,494.21Z"/><path class="cls-7" d="M155.84,489.16c-3.4,1-6.74,2.25-10.2,2.8-3,.49-4.38,1.73-4.33,4.82.1,7.1.06,14.2.07,21.3l-38.81,0c1.18-1.65,2-3.74,3.6-4.88a180.9,180.9,0,0,1,17.54-11.85c4.3-2.43,9.29-3.67,14-5.43.58-.22,1.49-.21,1.71-.6C143.13,488.61,149.86,489.89,155.84,489.16Z"/><path class="cls-8" d="M405.3,518.1q.12-11.21.26-22.42l1.85.12c1.16.88,2.1,2.15,3.74,2.23l1.5,0c1.7,2.85,5.09,2.15,7.54,3.51,2.63,1.46,5.27,2.77,7.43,4.87a12.2,12.2,0,0,0,5.39,3.21c2.72.75,4.68,2.76,6.53,4.81a2.42,2.42,0,0,1,.08,3.65h-5.25c-1.5-1.84-3-1.67-4.49,0Z"/><path class="cls-9" d="M439.62,518.12c.07-4.33-3.18-6.41-6.4-7.06s-5.2-2.46-7.31-4.47a19.3,19.3,0,0,0-11.07-5.15c-.87-.12-1.47-2.2-2.19-3.37a48,48,0,0,1,20.61,10c3.65,3,6.77,6.68,10.13,10.05Z"/><path class="cls-9" d="M429.88,518.12c.13-3.52,2.43-2.93,4.91-2.6-.16,1-.29,1.79-.42,2.6Z"/><path class="cls-10" d="M168.59,341.4c-.13-.6-.06-1.37-.41-1.79-6-7.18-5.62-16.27-7.06-24.7A313.73,313.73,0,0,1,157,282c-.79-12.38-.46-24.84-.61-37.26a53.47,53.47,0,0,1,4-20.24c3.46-8.84,8.31-13.51,18.71-13.4a80.77,80.77,0,0,0,43.28-11.84c13.17-8,23.34-19.18,31.31-32.35a142.77,142.77,0,0,0,13.14-28.55c1.64-4.87,3.48-9.68,5.54-15.36,1.09,1.51,2,2.4,2.46,3.5,3.5,9.13,6.47,18.48,10.42,27.41,7.95,18,19.67,33.16,36.23,44a77.51,77.51,0,0,0,35.86,12.47c4.82.44,9.74.25,14.48,1.09,8.22,1.48,12.17,7.6,14.34,15,4.79,16.39,5,33,2.77,49.86-1.42,10.58-2.05,21.26-3.28,31.86-.69,5.9-2.4,11.71-2.73,17.62-.41,7.07-4.68,12.12-7.78,17.84a62,62,0,0,0-3.32,6.1,6.15,6.15,0,0,1-.92,2.3,11.5,11.5,0,0,1-.86,1.21l-.33.38a4.36,4.36,0,0,1-.76.6,2.39,2.39,0,0,0-1.7,2.08c-1.26,2.37-2.2,5-4.62,6.54a4.07,4.07,0,0,0-1.61,1.63,5.35,5.35,0,0,1-.58.75,4.35,4.35,0,0,0-1.74,2.73,20.6,20.6,0,0,1-2.55,3.72,4.57,4.57,0,0,1-1.25.75c-.84.26-1.07,1-1.36,1.72a5.63,5.63,0,0,1-2.36,2.4c-.65.39-1.49.36-2,1a7.32,7.32,0,0,1-.67.58,12.81,12.81,0,0,0-1.32,1.23,3.78,3.78,0,0,1-.76.57c-1.43,1-3.18,1.71-3.28,3.83-1.14,2.35-3.25,3.61-5.37,4.88a4.05,4.05,0,0,0-2.38,1.47,4.43,4.43,0,0,1-1.63,1c-1,.12-1.63.91-2.3,1.59a4,4,0,0,1-.81.53,5,5,0,0,0-2.41,1.47,5.36,5.36,0,0,1-.68.75,5.94,5.94,0,0,1-.83.67c-.32.19-.65.36-1,.52-6,5.56-13.36,8.73-20.91,11.26-10.28,3.47-20.84,5.79-31.85,5.33a62.43,62.43,0,0,1-17.11-3.42c-9.5-3.14-18.42-7.51-27.51-11.53-4.86-2.15-8.39-5.71-11.84-9.48a7,7,0,0,0-3.84-2.32,4,4,0,0,1-1.19-.79c-.51-.51-.88-1.18-1.59-1.47-.25-.12-.49-.26-.73-.4a10,10,0,0,0-1.18-.47,4.26,4.26,0,0,1-.83-.34c-.14-.07-.26-.16-.4-.24a6.48,6.48,0,0,1-1.79-2.2,9.18,9.18,0,0,0-1.85-2.13c-.27-.15-.51-.33-.76-.5a7.55,7.55,0,0,0-1.67-.66,2.74,2.74,0,0,1-1.48-1.24c-1.15-3.95-4.21-6.11-7.53-8a4.79,4.79,0,0,1-2.35-1.08,3.93,3.93,0,0,1-.7-.77,31.91,31.91,0,0,0-7-7.14,4.14,4.14,0,0,1-.57-.86c-3.91-5.59-8.29-10.83-12.31-16.34Z"/><path class="cls-8" d="M216.46,387.91c1.79,1.46,3.53,3,5.38,4.36,2.16,1.62,4.24,3.54,6.67,4.6,10.29,4.48,20.56,9.07,31.11,12.87,9.06,3.27,18.7,3.2,28,1.12a184.73,184.73,0,0,0,24.46-7.41c4.42-1.67,8.25-4.88,12.37-7.35a10.29,10.29,0,0,1,2.05-.69c1.58,2.35-.5,4.47-.49,6.78,0,7.2.84,14.37.79,21.55-.06,10.07.34,20.06,2.38,29.94,1.5,7.28,5.42,13.25,10.5,18.43,1.81,1.84,3,4.32,5.46,5.51a4.14,4.14,0,0,1,.85.92l1.44.78a9.35,9.35,0,0,1,.8.74l8.28,3.34a15.34,15.34,0,0,1-3.31.07,419.65,419.65,0,0,0-99.58-7.7c-11,.45-22,2.11-33,3.21l-22.19,2.24c2.67-2.91,5.28-5.87,8-8.71,5.28-5.46,8-12.11,9.17-19.47a2.43,2.43,0,0,1-.58-1.9c.6-9.16,2.72-18.24,1.63-27.5-.47-9.32-.21-18.63-.15-27.94,1-2.5-.38-4.86-.41-7.3C216.2,388.23,216.33,388.07,216.46,387.91Z"/><path class="cls-11" d="M215.64,451.58c0,.49,0,1,0,1.46-.73,1-1.88,1.9-2.13,3-1.76,7.88-6.32,14-12.16,19.22-1.95,1.75-3.69,1.44-4.46-1.28q-2.23-7.83-4.34-15.71c-1.78-6.67-3.57-13.34-5.21-20.06-1.87-7.67-3.55-15.39-5.35-23.08-1-4.22-2-8.42-3.07-12.63-1.1-4.43-2.26-8.84-3.31-13.28-1.51-6.38-3-12.75-4.39-19.16-1.67-8-3.19-15.94-4.71-23.93-.38-2-.73-4.11,2.11-4.73v0C172.93,347,176.74,353.08,182,358a2.47,2.47,0,0,1,.13.6c2.24,2.75,5,5,7.36,7.64h0c2,2.33,3.71,5,7,5.81,1.75.75,2.41,2.5,3.53,3.83l1.44.91a1.3,1.3,0,0,1,1.41.76h0c1,.7,1.46,1.82,2.23,2.7.2,1.39,1.38,1.81,2.39,2.4h0a1.58,1.58,0,0,0,.86.44,2.16,2.16,0,0,1,.73.68c1.66.77,2.47,3,4.7,2.79a2.59,2.59,0,0,1,1.22,1,23.58,23.58,0,0,1,2.85,7.15q0,14.56,0,29.12c-1.48,3.47-.31,7.13-.78,10.69C216.3,440.18,215.3,445.83,215.64,451.58Z"/><path class="cls-11" d="M346,478.54c-.23,0-.45-.07-.67-.12-3.47-3.88-7.15-7.55-10.34-11.73-4.83-6.32-6.37-13.59-7.32-21.15-1.82-14.48-1.17-29.06-1.53-43.59-.09-3.5.88-6,4.17-8,8.21-5,15.09-11.73,22-18.34a3,3,0,0,0,1.26-2.57,1.62,1.62,0,0,1,.87-1.45l1.3-.11c1.36-1.5,3.09-2.74,3.6-4.87a3,3,0,0,1,.62-.84,32.9,32.9,0,0,0,8.53-11.5c.23-.27.45-.53.69-.79l.19.1a3.61,3.61,0,0,1,.46-.69,7.85,7.85,0,0,1,1-1.35c.67-.53.55-1.32.68-2,.18-1,1.17-1.39,1.53-2.24a5.74,5.74,0,0,0,1.24-1.84,1.59,1.59,0,0,1,1-.87l4.38-2.92a60.45,60.45,0,0,1-.53,6.25c-2,10.42-4.09,20.84-6.3,31.23-.85,4-2.29,7.81-3.19,11.78-1.76,7.82-3.29,15.7-5,23.53-.73,3.38-1.71,6.7-2.53,10.06-1.95,8-3.76,16-5.83,23.94-1.08,4.11-2.7,8.07-3.87,12.16-1,3.63-1.57,7.42-2.77,11C348.85,474,347.25,476.23,346,478.54Z"/><path class="cls-8" d="M369.24,485.48l-9-1.7C363.68,482.16,366.38,484.25,369.24,485.48Z"/><path class="cls-8" d="M186.39,483.64l-8.91,1.76C180.16,483.37,183.07,482.43,186.39,483.64Z"/><path class="cls-8" d="M399.94,491.52l-8.17-1.87C394.88,488.61,397.67,488.91,399.94,491.52Z"/><path class="cls-8" d="M196.93,481.46l-7.49,1.9Z"/><path class="cls-8" d="M375.32,344.55l-.18,1.37a13.32,13.32,0,0,1-1.43,1.57l-1.47,2.3a1.08,1.08,0,0,1-1.46,0l4.36-6.1Z"/><path class="cls-8" d="M172.89,485.87l-6.59,1.6Z"/><path class="cls-8" d="M378.18,487.28l-5.86-1.43C374.6,485,376.73,484.73,378.18,487.28Z"/><path class="cls-9" d="M411.15,498c-2.72,1.74-3.22-.26-3.74-2.23Z"/><path class="cls-8" d="M388.71,489.35l-4.86-1.53Z"/><path class="cls-8" d="M405.27,494.21,403,491.92C405.49,491.65,405.82,492,405.27,494.21Z"/><path class="cls-8" d="M381.18,487.64l-1.41-.18Z"/><path class="cls-12" d="M348.24,480.06l-.8-.74Z"/><path class="cls-9" d="M421,507.38c1.15.16,3.4-.06,3.74.64a11.64,11.64,0,0,1,1.27,6.41c-.11.75-3.27,1-5,1.53Z"/><path class="cls-9" d="M414.69,514.83c-.18-1.28-.66-2.61-.43-3.81.16-.87,1.25-1.57,1.93-2.35.51,1,1.5,2,1.42,2.91-.11,1.2-1.07,2.33-1.67,3.49Z"/><path class="cls-9" d="M408.54,514.9v-5.57c1.27,1.32,2.39,1.95,2.42,2.64.06,1.08-.62,2.2-1,3.3Z"/><path class="cls-9" d="M417.6,504.72l-2.1.42-.21-1.3,2.23-.21C417.54,504,417.57,504.36,417.6,504.72Z"/><path class="cls-12" d="M354.31,373c-.23.83-.19,2-.73,2.43-7.87,6.8-15.87,13.47-23.71,20.31-1.21,1.06-2.48,2.87-2.5,4.36-.2,11.46-.59,22.95.08,34.38.46,8.1,1.4,16.51,4.14,24,2.16,5.91,7.44,10.68,11.28,16,.91,1.26,1.64,2.64,2.46,4-2.4-2-5-3.9-7.17-6.12-7.63-7.7-10.8-17.39-11.57-27.91-.56-7.69-.55-15.41-.84-23.12-.2-5.47-.68-10.93-.62-16.39,0-3.17.89-6.32,1.38-9.48h0a6.46,6.46,0,0,0,.74-.74h0c.91-.9,2.13-1.34,3.09-2.17.22,0,.45,0,.67-.07a20.89,20.89,0,0,1,2.35-2.16l1.41-.8c.55-.79,1.56-.91,2.22-1.53l5.27-4.47c.87-2.13,3-3,4.53-4.45h0a8.69,8.69,0,0,1,1.48-1.49v0c.49-.83,1.54-.89,2.14-1.56l2.27-2.27C353.17,373.25,353.42,372.38,354.31,373Z"/><path class="cls-3" d="M182,358c-3.72-4-7.53-7.9-11.11-12-1.07-1.24-1.52-3-2.26-4.56a56.13,56.13,0,0,1,4.85,4.91C176.38,350.14,179.12,354.1,182,358Z"/><path class="cls-12" d="M369.25,354.28a22.8,22.8,0,0,1-9,12,1.07,1.07,0,0,1-.07-1.53,5.1,5.1,0,0,0,.08-.67,10.85,10.85,0,0,1,1.48-1.55l4.57-6.63C367.09,354.94,367.7,353.74,369.25,354.28Z"/><path class="cls-8" d="M200,375.89,196.16,373c-1.83-1.74-5-2.44-4.55-5.93C195.54,368.92,199.08,371.16,200,375.89Z"/><path class="cls-3" d="M189.44,366.24q-3.69-3.81-7.36-7.63Q185.76,362.42,189.44,366.24Z"/><path class="cls-3" d="M191.61,367.07l4.55,5.93a8.46,8.46,0,0,1-6.71-6.75Z"/><path class="cls-12" d="M360.17,366.91l-4.42,4.56L358,367.7C358.52,366.91,359.07,366.13,360.17,366.91Z"/><path class="cls-8" d="M346.8,379l-4.53,4.45C341.92,380.09,344.65,379.85,346.8,379Z"/><path class="cls-3" d="M213.41,387.21l-5.2-3.78a1,1,0,0,1,1.49,0h0c.74.5,1.84.48,2.23,1.51l.76.75C213.13,386.1,213.93,386.34,213.41,387.21Z"/><path class="cls-8" d="M204.47,380.42l-1.62-2.86c1,.95,2.08,1.9,3.11,2.86A1,1,0,0,1,204.47,380.42Z"/><path class="cls-8" d="M213.41,387.21l-.72-1.51,3.77,2.21-.11.12a1.58,1.58,0,0,1-2.17-.08Z"/><path class="cls-8" d="M360.17,366.91l-2.19.79,2.22-3c0,.51.05,1,.07,1.53C360.24,366.47,360.2,366.69,360.17,366.91Z"/><path class="cls-8" d="M330.35,392.49c-1,.72-2.06,1.44-3.08,2.17C328.29,393.93,329.32,393.21,330.35,392.49Z"/><path class="cls-3" d="M204.47,380.42H206c.51.74,1,1.49,1.51,2.24Z"/><path class="cls-8" d="M369.25,354.28l-2.92,1.58,2.86-2.39Z"/><path class="cls-8" d="M333.37,390.26,331,392.42Z"/><path class="cls-3" d="M370.78,349.83l1.46,0c-.47.73-.94,1.46-1.42,2.19a.6.6,0,0,1-.91,0Z"/><path class="cls-8" d="M337,387.93l-2.22,1.53Z"/><path class="cls-8" d="M350.44,375.93l-2.14,1.56Z"/><path class="cls-8" d="M354.31,373l-1.6.71,1.74-2.08C354.4,372,354.35,372.49,354.31,373Z"/><path class="cls-8" d="M361.76,362.49,360.28,364Z"/><path class="cls-8" d="M202.84,377.56l-1.41-.76Z"/><path class="cls-8" d="M209.7,383.43h-1.49a.54.54,0,0,1,0-.93Z"/><path class="cls-8" d="M211.93,385l-2.23-1.51Z"/><path class="cls-8" d="M348.29,377.51,346.81,379Z"/><path class="cls-8" d="M369.91,352l.91,0-.88,1.53c-.25-.26-.5-.52-.73-.79C369.44,352.48,369.67,352.24,369.91,352Z"/><path class="cls-8" d="M327.26,394.67l-.74.74Z"/><path class="cls-3" d="M208.21,382.5v.93c-.25-.26-.49-.52-.74-.77Z"/><path class="cls-3" d="M369.21,352.72l.73.79-.56.06C369.32,353.28,369.27,353,369.21,352.72Z"/><path class="cls-3" d="M215.64,451.58c0-5.26,0-10.53.13-15.79a85.07,85.07,0,0,1,.73-8.87,12.37,12.37,0,0,1,1.34-3.08q-.79,13.41-1.62,26.83C216.2,451,215.84,451.28,215.64,451.58Z"/><path class="cls-3" d="M214.18,388l2.17.08c.49,2.23,1,4.46,1.48,6.69Q216,391.35,214.18,388Z"/><path class="cls-3" d="M373.71,347.49l1.43-1.57Z"/></g></g></svg>